<svg width="266" height="41" viewBox="0 0 266 41" fill="none" xmlns="http://www.w3.org/2000/svg">
<path d="M27.7735 40.3828H19.3829V27.6094H8.39073V40.3828H0.000106812V8.39062H8.39073V20.8594H19.3829V8.39062H27.7735V40.3828ZM38.5332 40.3828H30.1895L40.3145 8.39062H50.6973L60.752 40.3828H51.7754L49.9473 33.4453H40.4082L38.5332 40.3828ZM45.4239 15.7031H45.0254L41.8848 27.4219H48.4942L45.4239 15.7031ZM49.4317 5.27344H42.6114L35.2989 0H43.1035L49.4317 5.27344ZM70.9023 40.3828H63.1445V8.39062H69.6601L81.8476 26.25H82.1757V8.39062H89.957V40.3828H83.4882L71.2304 22.3125H70.9023V40.3828ZM122.982 40.3828H114.592V27.6094H103.599V40.3828H95.2089V8.39062H103.599V20.8594H114.592V8.39062H122.982V40.3828ZM151.017 40.3828H142.627V15.2109H134.095V8.39062H159.549V15.2109H151.017V40.3828ZM175.933 8.39062C183.996 8.39062 188.027 12.8203 188.027 19.0312C188.027 24.3281 184.394 27.1875 182.332 28.0781L188.683 40.3828H179.402L174.082 29.2031H170.285V40.3828H162.058V8.39062H175.933ZM170.285 23.3906H174.644C177.386 23.3906 179.355 21.9609 179.355 19.0547C179.355 16.0781 177.246 14.5781 174.691 14.5781H170.285V23.3906ZM200.31 40.3828H191.919V8.39062H200.31V40.3828ZM200.076 5.27344H193.255L185.943 0H193.748L200.076 5.27344ZM213.32 40.3828H205.562V8.39062H212.078L224.265 26.25H224.593V8.39062H232.374V40.3828H225.906L213.648 22.3125H213.32V40.3828ZM265.4 40.3828H257.009V27.6094H246.017V40.3828H237.626V8.39062H246.017V20.8594H257.009V8.39062H265.4V40.3828Z" fill="white"/>
</svg>
