<svg width="455" height="46" viewBox="0 0 455 46" fill="none" xmlns="http://www.w3.org/2000/svg">
<path d="M8.57805 27.2812V30.6562C8.57805 35.9297 10.7109 38.6016 14.2265 38.6016C17.6718 38.6016 19.4296 36.0703 19.4296 32.9062H27.4218V34.0078C27.4218 40.5703 22.2187 45.4922 14.1093 45.4922C5.1093 45.4922 -7.62939e-05 39.8203 -7.62939e-05 30.6328V27.2812C-7.62939e-05 18.1172 5.13274 12.375 14.1327 12.375C22.1249 12.375 27.4218 17.2734 27.4218 24.0469V25.1016H19.4296C19.4296 21.9375 17.6484 19.2656 14.203 19.2656C10.7343 19.2656 8.57805 22.0312 8.57805 27.2812ZM59.0174 30.7734C59.0174 39.7734 53.7674 45.4922 44.4862 45.4922C35.2049 45.4922 29.9549 39.7734 29.9549 30.7734V27.2578C29.9549 18.1641 35.2284 12.375 44.5096 12.375C48.6346 12.375 51.2127 13.7578 54.2831 13.7578C57.0487 13.7578 57.3768 12.4453 57.3768 10.8516V7.52344H63.5877V12C63.5877 15.9844 61.1971 18.9141 57.0956 18.9141L57.0487 18.9609C58.244 21.0703 59.0174 24.0234 59.0174 27.2578V30.7734ZM38.5331 27.1406V30.8672C38.5331 36.1406 40.9002 38.7891 44.4862 38.7891C48.0721 38.7891 50.4627 36.1406 50.4627 30.8672V27.1406C50.4627 21.8906 48.0721 19.1484 44.4862 19.1484C40.9002 19.1484 38.5331 21.8906 38.5331 27.1406ZM79.8806 27.2812V30.6562C79.8806 35.9297 82.0134 38.6016 85.529 38.6016C88.9743 38.6016 90.7321 36.0703 90.7321 32.9062H98.7243V34.0078C98.7243 40.5703 93.5212 45.4922 85.4118 45.4922C76.4118 45.4922 71.3024 39.8203 71.3024 30.6328V27.2812C71.3024 18.1172 76.4352 12.375 85.4352 12.375C93.4274 12.375 98.7243 17.2734 98.7243 24.0469V25.1016H90.7321C90.7321 21.9375 88.9509 19.2656 85.5056 19.2656C82.0368 19.2656 79.8806 22.0312 79.8806 27.2812ZM108.054 44.9297H99.7105L109.836 12.9375H120.218L130.273 44.9297H121.296L119.468 37.9922H109.929L108.054 44.9297ZM114.945 20.25H114.546L111.406 31.9688H118.015L114.945 20.25ZM105.968 10.0078L111.851 4.28906H118.039L124.086 10.0078H118.062L115.203 7.33594H114.757L112.039 10.0078H105.968ZM120.148 3.96094L124.062 0H129.664L122.632 6.1875L120.148 3.96094ZM140.705 12.9375V32.7891C140.705 36.7031 142.861 38.5312 145.955 38.5312C149.025 38.5312 151.205 36.6562 151.205 32.7891V12.9375H159.595V33.8672C159.595 40.9219 154.322 45.4922 145.955 45.4922C137.564 45.4922 132.314 40.8984 132.314 33.8438V12.9375H140.705ZM199.63 23.6484H191.497C191.216 21.0703 189.224 19.1953 186.154 19.1953C182.521 19.1953 180.247 21.8203 180.247 27.0469V30.6562C180.247 35.0391 181.677 38.6719 186.318 38.6719C189.81 38.6719 191.755 36.4453 191.755 34.0312V32.9766H186.693V27.1875H199.654V33.3516C199.654 39.0938 196.021 45.4922 186.107 45.4922C175.911 45.4922 171.763 38.8125 171.763 30.7031V26.9531C171.763 18.375 176.919 12.375 186.224 12.375C195.271 12.375 199.536 18.0703 199.63 23.6484ZM211.984 44.9297H203.593V12.9375H211.984V44.9297ZM222.72 44.9297H214.376L224.501 12.9375H234.884L244.939 44.9297H235.962L234.134 37.9922H224.595L222.72 44.9297ZM229.611 20.25H229.212L226.071 31.9688H232.681L229.611 20.25ZM225.696 5.41406V2.36719C226.165 2.13281 227.243 1.875 228.462 1.875C231.861 1.875 233.9 3.49219 233.9 6.32812C233.9 8.83594 232.048 10.0312 230.478 10.8281L228.251 8.39062C229.118 8.08594 229.939 7.52344 229.939 6.60938C229.939 5.53125 228.884 5.15625 227.689 5.15625C227.056 5.15625 226.212 5.27344 225.696 5.41406ZM255.722 44.9297H247.331V12.9375H255.722V44.9297ZM283.733 44.9297H275.343V19.7578H266.811V12.9375H292.265V19.7578H283.733V44.9297ZM322.548 44.9297H314.157V32.1562H303.165V44.9297H294.774V12.9375H303.165V25.4062H314.157V12.9375H322.548V44.9297ZM341.112 45.4453C332.721 45.4453 327.471 40.8516 327.471 33.7734V12.9375H335.862V32.7422C335.862 36.6562 338.018 38.4844 341.112 38.4844C344.182 38.4844 346.362 36.5859 346.362 32.7422V12.9375H354.776C356.417 12.9375 357.003 12.1406 357.003 10.5469V7.17188H363.19V11.6953C363.19 15.5156 360.893 18.6094 356.745 18.6094H354.753V33.7969C354.753 40.8516 349.479 45.4453 341.112 45.4453ZM371.958 5.41406V2.36719C372.427 2.13281 373.505 1.875 374.723 1.875C378.122 1.875 380.161 3.49219 380.161 6.32812C380.161 8.83594 378.309 10.0312 376.739 10.8281L374.512 8.39062C375.38 8.08594 376.2 7.52344 376.2 6.60938C376.2 5.53125 375.145 5.15625 373.95 5.15625C373.317 5.15625 372.473 5.27344 371.958 5.41406ZM390.45 30.7734C390.45 39.7734 385.2 45.4922 375.919 45.4922C366.637 45.4922 361.387 39.7734 361.387 30.7734V27.2578C361.387 18.1641 366.661 12.375 375.942 12.375C380.067 12.375 382.645 13.7578 385.716 13.7578C388.481 13.7578 388.809 12.4453 388.809 10.8516V7.52344H395.02V12C395.02 15.9844 392.63 18.9141 388.528 18.9141L388.481 18.9609C389.677 21.0703 390.45 24.0234 390.45 27.2578V30.7734ZM369.966 27.1406V30.8672C369.966 36.1406 372.333 38.7891 375.919 38.7891C379.505 38.7891 381.895 36.1406 381.895 30.8672V27.1406C381.895 21.8906 379.505 19.1484 375.919 19.1484C372.333 19.1484 369.966 21.8906 369.966 27.1406ZM403.225 44.9297H395.467V12.9375H401.983L414.171 30.7969H414.499V12.9375H422.28V44.9297H415.811L403.553 26.8594H403.225V44.9297ZM454.086 23.6484H445.954C445.672 21.0703 443.68 19.1953 440.61 19.1953C436.977 19.1953 434.704 21.8203 434.704 27.0469V30.6562C434.704 35.0391 436.133 38.6719 440.774 38.6719C444.266 38.6719 446.211 36.4453 446.211 34.0312V32.9766H441.149V27.1875H454.11V33.3516C454.11 39.0938 450.477 45.4922 440.563 45.4922C430.368 45.4922 426.219 38.8125 426.219 30.7031V26.9531C426.219 18.375 431.376 12.375 440.68 12.375C449.727 12.375 453.993 18.0703 454.086 23.6484Z" fill="black"/>
</svg>
