<svg width="439" height="57" viewBox="0 0 439 57" fill="none" xmlns="http://www.w3.org/2000/svg">
<path d="M27.7733 47.4375H19.3827V34.6641H8.39052V47.4375H-0.000106812V15.4453H8.39052V27.9141H19.3827V15.4453H27.7733V47.4375ZM40.1736 53.2266C40.1736 51.1406 41.6971 49.6172 43.7127 49.6172C45.7283 49.6172 47.369 51.1406 47.369 53.2266C47.369 55.3125 45.7283 56.7188 43.7127 56.7188C41.6971 56.7188 40.1736 55.3125 40.1736 53.2266ZM34.783 12.7031L40.9471 6.82031H46.8299L52.6893 12.7031H46.6893L44.0408 9.9375H43.5955L40.7361 12.7031H34.783ZM54.9393 40.8516V47.4375H33.0486V15.4453H54.9393V22.0312H41.3455V28.3594H54.0721V34.4062H41.3455V40.8516H54.9393ZM82.154 47.4375H73.7633V22.2656H65.2321V15.4453H90.6852V22.2656H82.154V47.4375ZM120.968 47.4375H112.578V34.6641H101.586V47.4375H93.1949V15.4453H101.586V27.9141H112.578V15.4453H120.968V47.4375ZM130.439 12.5156L136.322 6.79688H142.509L148.556 12.5156H142.533L139.673 9.84375H139.228L136.509 12.5156H130.439ZM144.619 6.46875L148.533 2.50781H154.134L147.103 8.69531L144.619 6.46875ZM133.509 29.6484V33.3281C133.509 38.5781 135.876 41.25 139.462 41.25C143.048 41.25 145.416 38.5781 145.416 33.3281V29.6484C145.416 24.3984 143.048 21.6562 139.462 21.6562C135.876 21.6562 133.509 24.3984 133.509 29.6484ZM124.931 33.2812V29.7656C124.931 20.6719 130.205 14.8828 139.486 14.8828C148.767 14.8828 153.994 20.7188 153.994 29.7656V33.2812C153.994 42.2812 148.744 48 139.462 48C130.181 48 124.931 42.2812 124.931 33.2812ZM165.691 47.4375H157.933V15.4453H164.449L176.636 33.3047H176.964V15.4453H184.746V47.4375H178.277L166.019 29.3672H165.691V47.4375ZM216.552 26.1562H208.419C208.138 23.5781 206.146 21.7031 203.076 21.7031C199.443 21.7031 197.169 24.3281 197.169 29.5547V33.1641C197.169 37.5469 198.599 41.1797 203.24 41.1797C206.732 41.1797 208.677 38.9531 208.677 36.5391V35.4844H203.615V29.6953H216.576V35.8594C216.576 41.6016 212.943 48 203.029 48C192.833 48 188.685 41.3203 188.685 33.2109V29.4609C188.685 20.8828 193.841 14.8828 203.146 14.8828C212.193 14.8828 216.458 20.5781 216.552 26.1562ZM244.353 47.4375H231.368V34.9219H227.431V27.7031H231.368V15.4453H244.353C254.712 15.4453 258.884 21.8203 258.884 31.2891C258.884 40.8281 254.642 47.4375 244.353 47.4375ZM239.759 40.6641H242.9C247.071 40.6641 250.236 39.0234 250.236 31.3125C250.236 26.2734 248.876 21.8203 242.9 21.8203H239.759V27.7031H244.236V34.9219H239.759V40.6641ZM271.003 47.4375H262.612V15.4453H271.003V47.4375ZM277.896 12.5156L283.778 6.79688H289.966L296.013 12.5156H289.989L287.13 9.84375H286.685L283.966 12.5156H277.896ZM290.81 3.42188V0.234375C291.396 0.117188 292.45 0 293.364 0C296.692 0 299.106 1.33594 299.106 4.19531C299.106 6.35156 297.325 8.03906 295.661 9.02344L293.411 6.67969C294.302 6.09375 294.771 5.55469 294.771 4.82812C294.771 3.91406 294.138 3.28125 292.591 3.28125C291.935 3.28125 291.419 3.30469 290.81 3.42188ZM298.146 40.8516V47.4375H276.255V15.4453H298.146V22.0312H284.552V28.3594H297.278V34.4062H284.552V40.8516H298.146ZM310.077 47.4375H302.624V15.4453H311.319L319.101 32.3906H319.382L327.186 15.4453H335.811V47.4375H328.265V28.1953H327.866L321.561 42.2109H316.827L310.476 28.1953H310.077V47.4375ZM349.667 15.4453H363.518C371.112 15.4453 374.909 20.6953 374.909 26.7656C374.909 32.9297 371.018 37.9219 363.425 37.9219H358.034V47.4375H349.667V15.4453ZM358.01 21.7969V31.7109H360.846C364.245 31.7109 366.401 30.2344 366.401 26.7656C366.401 23.5312 364.479 21.7969 361.456 21.7969H358.01ZM405.848 47.4375H397.458V34.6641H386.466V47.4375H378.075V15.4453H386.466V27.9141H397.458V15.4453H405.848V47.4375ZM420.874 53.2266C420.874 51.1406 422.397 49.6172 424.413 49.6172C426.428 49.6172 428.069 51.1406 428.069 53.2266C428.069 55.3125 426.428 56.7188 424.413 56.7188C422.397 56.7188 420.874 55.3125 420.874 53.2266ZM419.163 15.4453V35.2969C419.163 39.2109 421.319 41.0391 424.413 41.0391C427.483 41.0391 429.663 39.1641 429.663 35.2969V15.4453H438.053V36.375C438.053 43.4297 432.78 48 424.413 48C416.022 48 410.772 43.4062 410.772 36.3516V15.4453H419.163Z" fill="black"/>
</svg>
