<svg width="1014" height="79" viewBox="0 0 1014 79" fill="none" xmlns="http://www.w3.org/2000/svg">
<path d="M8.24925 22.543H3.89591V19.5128H8.10223C9.14768 19.5128 10.0271 19.3277 10.7404 18.9574C11.4591 18.5817 11.9982 18.0018 12.3576 17.2177C12.7224 16.4281 12.9048 15.4099 12.9048 14.163C12.9048 12.927 12.7224 11.9169 12.3576 11.1328C11.9982 10.3487 11.4618 9.77154 10.7485 9.40128C10.0352 9.03101 9.15585 8.84588 8.1104 8.84588H3.8224V5.8157H8.29825C9.98078 5.8157 11.4292 6.15057 12.6434 6.82031C13.8577 7.48461 14.7915 8.44022 15.4449 9.68714C16.1038 10.9341 16.4332 12.426 16.4332 14.163C16.4332 15.9054 16.1038 17.4028 15.4449 18.6552C14.7915 19.9076 13.8522 20.8686 12.6271 21.5384C11.4074 22.2081 9.94811 22.543 8.24925 22.543ZM5.85613 5.8157V22.543H2.31956V5.8157H5.85613ZM-4.44204e-05 14.7511V12.6928H8.14307V14.7511H-4.44204e-05ZM22.4361 22.543H18.6464L24.4209 5.8157H28.9784L34.7447 22.543H30.9549L26.765 9.63814H26.6343L22.4361 22.543ZM22.1993 15.968H31.151V18.7287H22.1993V15.968ZM28.3168 1.43785H30.7426C30.7371 2.42886 30.3696 3.22656 29.64 3.83097C28.9158 4.43537 27.9357 4.73757 26.6996 4.73757C25.4581 4.73757 24.4753 4.43537 23.7511 3.83097C23.0269 3.22656 22.6648 2.42886 22.6648 1.43785H25.0743C25.0688 1.81356 25.1886 2.15116 25.4336 2.45064C25.6841 2.75012 26.1061 2.89986 26.6996 2.89986C27.2768 2.89986 27.6906 2.75284 27.9411 2.45881C28.1916 2.16477 28.3168 1.82445 28.3168 1.43785ZM26.6996 27.2393C26.1823 27.2393 25.7386 27.0678 25.3683 26.7248C24.998 26.3817 24.8129 25.9679 24.8129 25.4833C24.8129 24.9987 24.998 24.5849 25.3683 24.2418C25.7386 23.8988 26.1823 23.7273 26.6996 23.7273C27.2169 23.7273 27.658 23.8988 28.0228 24.2418C28.393 24.5849 28.5782 24.9987 28.5782 25.4833C28.5782 25.9679 28.393 26.3817 28.0228 26.7248C27.658 27.0678 27.2169 27.2393 26.6996 27.2393ZM51.2308 11.6719H47.6534C47.588 11.209 47.4546 10.7979 47.2532 10.4386C47.0517 10.0737 46.793 9.76338 46.4772 9.50746C46.1614 9.25154 45.7966 9.05552 45.3828 8.91939C44.9744 8.78326 44.5306 8.7152 44.0514 8.7152C43.1857 8.7152 42.4315 8.93028 41.789 9.36044C41.1465 9.78516 40.6483 10.4059 40.2943 11.2227C39.9404 12.034 39.7635 13.0195 39.7635 14.1793C39.7635 15.3718 39.9404 16.3737 40.2943 17.185C40.6537 17.9963 41.1547 18.6089 41.7972 19.0227C42.4397 19.4366 43.183 19.6435 44.0269 19.6435C44.5007 19.6435 44.939 19.5808 45.3419 19.4556C45.7503 19.3304 46.1124 19.148 46.4282 18.9084C46.744 18.6634 47.0054 18.3666 47.2123 18.0181C47.4247 17.6696 47.5717 17.2721 47.6534 16.8256L51.2308 16.842C51.1382 17.6097 50.9068 18.3503 50.5365 19.0636C50.1717 19.7714 49.6789 20.4058 49.0582 20.9666C48.4429 21.522 47.7078 21.9631 46.8529 22.2898C46.0035 22.611 45.0425 22.7717 43.9698 22.7717C42.4778 22.7717 41.1438 22.4341 39.9676 21.7589C38.7969 21.0837 37.8713 20.1063 37.1907 18.8267C36.5155 17.5471 36.1779 15.998 36.1779 14.1793C36.1779 12.3552 36.5209 10.8034 37.207 9.52379C37.8931 8.2442 38.8242 7.26953 40.0003 6.59979C41.1764 5.9246 42.4996 5.587 43.9698 5.587C44.939 5.587 45.8374 5.72313 46.6651 5.99538C47.4982 6.26764 48.236 6.66513 48.8785 7.18785C49.521 7.70514 50.0438 8.33949 50.4467 9.09091C50.8551 9.84233 51.1164 10.7027 51.2308 11.6719ZM66.4036 16.7276H69.4093L70.9203 18.6715L72.4068 20.4031L75.2083 23.9151H71.9086L69.981 21.5465L68.9928 20.1417L66.4036 16.7276ZM75.4615 14.1793C75.4615 16.0034 75.1158 17.5553 74.4242 18.8349C73.7381 20.1145 72.8016 21.0919 71.6146 21.767C70.433 22.4368 69.1044 22.7717 67.6288 22.7717C66.1423 22.7717 64.8082 22.4341 63.6266 21.7589C62.4451 21.0837 61.5112 20.1063 60.8252 18.8267C60.1391 17.5471 59.796 15.998 59.796 14.1793C59.796 12.3552 60.1391 10.8034 60.8252 9.52379C61.5112 8.2442 62.4451 7.26953 63.6266 6.59979C64.8082 5.9246 66.1423 5.587 67.6288 5.587C69.1044 5.587 70.433 5.9246 71.6146 6.59979C72.8016 7.26953 73.7381 8.2442 74.4242 9.52379C75.1158 10.8034 75.4615 12.3552 75.4615 14.1793ZM71.8759 14.1793C71.8759 12.9978 71.699 12.0013 71.345 11.19C70.9966 10.3787 70.5038 9.76338 69.8667 9.34411C69.2296 8.92483 68.4837 8.7152 67.6288 8.7152C66.7739 8.7152 66.0279 8.92483 65.3908 9.34411C64.7538 9.76338 64.2583 10.3787 63.9043 11.19C63.5559 12.0013 63.3816 12.9978 63.3816 14.1793C63.3816 15.3609 63.5559 16.3574 63.9043 17.1687C64.2583 17.98 64.7538 18.5953 65.3908 19.0146C66.0279 19.4338 66.7739 19.6435 67.6288 19.6435C68.4837 19.6435 69.2296 19.4338 69.8667 19.0146C70.5038 18.5953 70.9966 17.98 71.345 17.1687C71.699 16.3574 71.8759 15.3609 71.8759 14.1793ZM88.9133 5.8157H92.4499V16.6786C92.4499 17.8983 92.1586 18.9656 91.576 19.8803C90.9988 20.7951 90.1902 21.5084 89.1502 22.0202C88.1102 22.5266 86.8986 22.7798 85.5156 22.7798C84.1271 22.7798 82.9128 22.5266 81.8728 22.0202C80.8328 21.5084 80.0242 20.7951 79.447 19.8803C78.8699 18.9656 78.5813 17.8983 78.5813 16.6786V5.8157H82.1179V16.3764C82.1179 17.0135 82.2567 17.5798 82.5344 18.0753C82.8175 18.5708 83.215 18.9601 83.7269 19.2433C84.2387 19.5264 84.8349 19.668 85.5156 19.668C86.2017 19.668 86.7979 19.5264 87.3043 19.2433C87.8161 18.9601 88.2109 18.5708 88.4886 18.0753C88.7717 17.5798 88.9133 17.0135 88.9133 16.3764V5.8157ZM94.8795 5.8157H98.8408L102.655 13.0195H102.818L106.633 5.8157H110.594L104.493 16.6296V22.543H100.981V16.6296L94.8795 5.8157ZM113.026 22.543V5.8157H124.297V8.73153H116.562V12.7173H123.717V15.6332H116.562V19.6271H124.33V22.543H113.026ZM119.609 1.95241L122.925 4.49254H120.417L118.686 3.12038L116.946 4.49254H114.455L117.738 1.95241H119.609ZM113.385 0.000353992L115.304 3.05504H113.36L110.714 0.000353992H113.385ZM141.6 5.8157V22.543H138.545L131.268 12.0149H131.145V22.543H127.609V5.8157H130.712L137.932 16.3356H138.08V5.8157H141.6ZM150.845 22.543V5.8157H157.542C158.773 5.8157 159.799 5.99811 160.622 6.36293C161.444 6.72775 162.062 7.23414 162.476 7.8821C162.889 8.52462 163.096 9.26515 163.096 10.1037C163.096 10.7571 162.966 11.3316 162.704 11.8271C162.443 12.3171 162.084 12.7201 161.626 13.0359C161.174 13.3462 160.657 13.5668 160.074 13.6974V13.8608C160.711 13.888 161.308 14.0677 161.863 14.3999C162.424 14.732 162.879 15.1976 163.227 15.7965C163.576 16.39 163.75 17.0979 163.75 17.9201C163.75 18.8076 163.529 19.5999 163.088 20.2969C162.653 20.9884 162.007 21.5356 161.152 21.9386C160.298 22.3415 159.244 22.543 157.992 22.543H150.845ZM154.382 19.6516H157.265C158.25 19.6516 158.969 19.4638 159.421 19.0881C159.873 18.7069 160.099 18.2005 160.099 17.5689C160.099 17.1061 159.987 16.6977 159.764 16.3438C159.541 15.9898 159.222 15.7121 158.808 15.5107C158.4 15.3092 157.913 15.2085 157.346 15.2085H154.382V19.6516ZM154.382 12.8153H157.003C157.488 12.8153 157.918 12.7309 158.294 12.5621C158.675 12.3879 158.974 12.1429 159.192 11.8271C159.415 11.5112 159.527 11.1328 159.527 10.6918C159.527 10.0874 159.312 9.60002 158.882 9.22976C158.457 8.85949 157.853 8.67436 157.069 8.67436H154.382V12.8153ZM166.551 22.543V5.8157H177.822V8.73153H170.088V12.7173H177.242V15.6332H170.088V19.6271H177.855V22.543H166.551ZM173.853 4.31285L172.211 2.31996L170.569 4.31285H167.605V4.19851L170.913 0.604758H173.502L176.818 4.19851V4.31285H173.853ZM172.154 27.2393C171.637 27.2393 171.193 27.0678 170.823 26.7248C170.452 26.3817 170.267 25.9679 170.267 25.4833C170.267 24.9987 170.452 24.5849 170.823 24.2418C171.193 23.8988 171.637 23.7273 172.154 23.7273C172.671 23.7273 173.112 23.8988 173.477 24.2418C173.847 24.5849 174.033 24.9987 174.033 25.4833C174.033 25.9679 173.847 26.3817 173.477 26.7248C173.112 27.0678 172.671 27.2393 172.154 27.2393ZM186.957 22.543V5.8157H193.557C194.825 5.8157 195.906 6.058 196.799 6.54261C197.692 7.02178 198.373 7.6888 198.841 8.54368C199.315 9.39311 199.552 10.3732 199.552 11.484C199.552 12.5948 199.312 13.5749 198.833 14.4244C198.354 15.2738 197.66 15.9354 196.75 16.4091C195.846 16.8828 194.752 17.1197 193.467 17.1197H189.261V14.2855H192.895C193.576 14.2855 194.137 14.1684 194.578 13.9343C195.024 13.6947 195.356 13.3653 195.574 12.946C195.797 12.5213 195.909 12.034 195.909 11.484C195.909 10.9286 195.797 10.444 195.574 10.0302C195.356 9.61091 195.024 9.28693 194.578 9.05824C194.131 8.8241 193.565 8.70703 192.879 8.70703H190.494V22.543H186.957ZM202.349 22.543V5.8157H205.885V12.7173H213.065V5.8157H216.593V22.543H213.065V15.6332H205.885V22.543H202.349ZM235.38 14.1793C235.38 16.0034 235.035 17.5553 234.343 18.8349C233.657 20.1145 232.721 21.0919 231.534 21.767C230.352 22.4368 229.023 22.7717 227.548 22.7717C226.061 22.7717 224.727 22.4341 223.546 21.7589C222.364 21.0837 221.43 20.1063 220.744 18.8267C220.058 17.5471 219.715 15.998 219.715 14.1793C219.715 12.3552 220.058 10.8034 220.744 9.52379C221.43 8.2442 222.364 7.26953 223.546 6.59979C224.727 5.9246 226.061 5.587 227.548 5.587C229.023 5.587 230.352 5.9246 231.534 6.59979C232.721 7.26953 233.657 8.2442 234.343 9.52379C235.035 10.8034 235.38 12.3552 235.38 14.1793ZM231.795 14.1793C231.795 12.9978 231.618 12.0013 231.264 11.19C230.915 10.3787 230.423 9.76338 229.786 9.34411C229.149 8.92483 228.403 8.7152 227.548 8.7152C226.693 8.7152 225.947 8.92483 225.31 9.34411C224.673 9.76338 224.177 10.3787 223.823 11.19C223.475 12.0013 223.301 12.9978 223.301 14.1793C223.301 15.3609 223.475 16.3574 223.823 17.1687C224.177 17.98 224.673 18.5953 225.31 19.0146C225.947 19.4338 226.693 19.6435 227.548 19.6435C228.403 19.6435 229.149 19.4338 229.786 19.0146C230.423 18.5953 230.915 17.98 231.264 17.1687C231.618 16.3574 231.795 15.3609 231.795 14.1793ZM226.298 4.19851L228.03 0.482244H231.248L228.757 4.19851H226.298ZM252.491 5.8157V22.543H249.437L242.159 12.0149H242.037V22.543H238.5V5.8157H241.604L248.824 16.3356H248.971V5.8157H252.491ZM267.005 11.2227C266.891 10.8252 266.73 10.474 266.523 10.169C266.316 9.85866 266.063 9.5973 265.763 9.38494C265.469 9.16714 265.132 9.00107 264.751 8.88672C264.375 8.77237 263.958 8.7152 263.501 8.7152C262.646 8.7152 261.895 8.92756 261.247 9.35227C260.604 9.77699 260.103 10.395 259.744 11.2063C259.385 12.0122 259.205 12.9978 259.205 14.163C259.205 15.3282 259.382 16.3192 259.736 17.136C260.09 17.9528 260.591 18.5762 261.239 19.0064C261.887 19.4311 262.652 19.6435 263.534 19.6435C264.334 19.6435 265.017 19.5019 265.584 19.2188C266.155 18.9302 266.591 18.5245 266.891 18.0018C267.196 17.479 267.348 16.861 267.348 16.1477L268.067 16.2539H263.754V13.5913H270.754V15.6985C270.754 17.1687 270.443 18.4319 269.823 19.4883C269.202 20.5392 268.347 21.3505 267.258 21.9222C266.169 22.4885 264.922 22.7717 263.517 22.7717C261.949 22.7717 260.572 22.4259 259.385 21.7344C258.198 21.0374 257.272 20.0491 256.608 18.7695C255.949 17.4845 255.619 15.9599 255.619 14.1957C255.619 12.8398 255.815 11.631 256.207 10.5692C256.605 9.50201 257.16 8.59813 257.874 7.8576C258.587 7.11707 259.417 6.5535 260.365 6.1669C261.312 5.7803 262.338 5.587 263.444 5.587C264.391 5.587 265.273 5.72585 266.09 6.00355C266.907 6.2758 267.631 6.66241 268.263 7.16335C268.9 7.6643 269.42 8.26053 269.823 8.95206C270.226 9.63814 270.484 10.395 270.599 11.2227H267.005ZM275.879 20.5991C275.34 20.5991 274.877 20.4085 274.49 20.0273C274.109 19.6462 273.919 19.1834 273.919 18.6388C273.919 18.1052 274.109 17.6478 274.49 17.2667C274.877 16.8855 275.34 16.695 275.879 16.695C276.402 16.695 276.859 16.8855 277.251 17.2667C277.643 17.6478 277.839 18.1052 277.839 18.6388C277.839 18.9982 277.746 19.3277 277.561 19.6271C277.382 19.9212 277.145 20.158 276.851 20.3377C276.557 20.512 276.233 20.5991 275.879 20.5991ZM275.879 12.3906C275.34 12.3906 274.877 12.2 274.49 11.8189C274.109 11.4377 273.919 10.9749 273.919 10.4304C273.919 9.89678 274.109 9.44212 274.49 9.06641C274.877 8.68525 275.34 8.49467 275.879 8.49467C276.402 8.49467 276.859 8.68525 277.251 9.06641C277.643 9.44212 277.839 9.89678 277.839 10.4304C277.839 10.7952 277.746 11.1274 277.561 11.4268C277.382 11.7209 277.145 11.955 276.851 12.1293C276.557 12.3035 276.233 12.3906 275.879 12.3906Z" fill="#F48345"/>
<path d="M301.075 5.8157V22.543H298.021L290.743 12.0149H290.621V22.543H287.084V5.8157H290.188L297.408 16.3356H297.555V5.8157H301.075ZM307.911 15.2901V22.543H304.432V5.8157H307.813V12.2109H307.96C308.244 11.4704 308.701 10.8905 309.333 10.4712C309.964 10.0465 310.756 9.83416 311.709 9.83416C312.581 9.83416 313.34 10.0247 313.988 10.4059C314.641 10.7816 315.148 11.3234 315.507 12.0312C315.872 12.7337 316.052 13.5749 316.046 14.555V22.543H312.567V15.1758C312.572 14.4026 312.376 13.8009 311.979 13.3707C311.587 12.9406 311.037 12.7255 310.329 12.7255C309.855 12.7255 309.436 12.8262 309.071 13.0277C308.712 13.2292 308.429 13.5232 308.222 13.9098C308.02 14.291 307.917 14.7511 307.911 15.2901ZM322.862 22.7798C322.061 22.7798 321.348 22.641 320.722 22.3633C320.096 22.0801 319.6 21.6636 319.235 21.1136C318.876 20.5582 318.696 19.8667 318.696 19.0391C318.696 18.3421 318.824 17.7567 319.08 17.283C319.336 16.8093 319.685 16.4281 320.126 16.1396C320.567 15.851 321.068 15.6332 321.629 15.4862C322.195 15.3391 322.788 15.2357 323.409 15.1758C324.139 15.0996 324.727 15.0288 325.173 14.9634C325.62 14.8926 325.944 14.7892 326.145 14.6531C326.347 14.5169 326.447 14.3155 326.447 14.0487V13.9996C326.447 13.4824 326.284 13.0821 325.957 12.799C325.636 12.5159 325.179 12.3743 324.585 12.3743C323.959 12.3743 323.461 12.5131 323.091 12.7908C322.72 13.0631 322.475 13.4061 322.356 13.82L319.137 13.5586C319.301 12.7963 319.622 12.1374 320.101 11.582C320.58 11.0212 321.198 10.591 321.955 10.2915C322.718 9.98662 323.6 9.83416 324.602 9.83416C325.299 9.83416 325.966 9.91584 326.603 10.0792C327.245 10.2425 327.814 10.4957 328.31 10.8388C328.811 11.1818 329.205 11.6229 329.494 12.1619C329.783 12.6955 329.927 13.3353 329.927 14.0813V22.543H326.627V20.8033H326.529C326.328 21.1953 326.058 21.5411 325.721 21.8406C325.383 22.1346 324.977 22.366 324.504 22.5348C324.03 22.6982 323.483 22.7798 322.862 22.7798ZM323.858 20.3786C324.37 20.3786 324.822 20.2778 325.214 20.0763C325.606 19.8694 325.914 19.5917 326.137 19.2433C326.36 18.8948 326.472 18.5 326.472 18.0589V16.7276C326.363 16.7984 326.213 16.8638 326.023 16.9237C325.838 16.9781 325.628 17.0298 325.394 17.0788C325.16 17.1224 324.926 17.1632 324.691 17.2013C324.457 17.234 324.245 17.264 324.054 17.2912C323.646 17.3511 323.289 17.4464 322.984 17.5771C322.679 17.7077 322.443 17.8847 322.274 18.108C322.105 18.3258 322.021 18.598 322.021 18.9247C322.021 19.3984 322.192 19.7605 322.535 20.011C322.884 20.256 323.325 20.3786 323.858 20.3786ZM326.496 6.00355H328.759C328.759 6.77675 328.391 7.41383 327.656 7.91477C326.927 8.41572 325.936 8.66619 324.683 8.66619C323.442 8.66619 322.456 8.41572 321.727 7.91477C321.002 7.41383 320.643 6.77675 320.648 6.00355H322.87C322.865 6.32481 323.001 6.61884 323.278 6.88565C323.556 7.14702 324.024 7.2777 324.683 7.2777C325.331 7.2777 325.794 7.14702 326.072 6.88565C326.355 6.61884 326.496 6.32481 326.496 6.00355ZM323.956 6.03622L321.914 3.94531H324.308L325.737 6.03622H323.956ZM333.126 22.543V9.99751H336.442V12.2109H336.589C336.851 11.4759 337.286 10.896 337.896 10.4712C338.506 10.0465 339.236 9.83416 340.085 9.83416C340.945 9.83416 341.678 10.0492 342.282 10.4794C342.887 10.9041 343.29 11.4813 343.491 12.2109H343.622C343.878 11.4922 344.34 10.9177 345.01 10.4876C345.685 10.052 346.483 9.83416 347.403 9.83416C348.574 9.83416 349.524 10.2071 350.254 10.9531C350.989 11.6937 351.356 12.7446 351.356 14.1058V22.543H347.885V14.7919C347.885 14.0949 347.7 13.5722 347.33 13.2237C346.96 12.8752 346.497 12.701 345.941 12.701C345.31 12.701 344.817 12.9025 344.463 13.3054C344.109 13.7029 343.932 14.2283 343.932 14.8817V22.543H340.559V14.7184C340.559 14.1031 340.382 13.613 340.028 13.2482C339.679 12.8834 339.219 12.701 338.648 12.701C338.261 12.701 337.913 12.799 337.602 12.995C337.297 13.1856 337.055 13.4551 336.875 13.8036C336.696 14.1467 336.606 14.5496 336.606 15.0124V22.543H333.126ZM367.101 9.99751V12.6112H359.546V9.99751H367.101ZM361.261 6.99183H364.741V18.6879C364.741 19.0091 364.79 19.2596 364.888 19.4393C364.986 19.6135 365.122 19.736 365.296 19.8068C365.476 19.8776 365.683 19.913 365.917 19.913C366.08 19.913 366.243 19.8994 366.407 19.8722C366.57 19.8395 366.695 19.815 366.782 19.7987L367.33 22.3878C367.155 22.4422 366.91 22.5049 366.595 22.5756C366.279 22.6519 365.895 22.6982 365.443 22.7145C364.604 22.7472 363.869 22.6355 363.238 22.3796C362.612 22.1237 362.124 21.7262 361.776 21.1871C361.427 20.6481 361.256 19.9674 361.261 19.1452V6.99183ZM369.867 22.543V9.99751H373.347V22.543H369.867ZM371.615 8.38033C371.098 8.38033 370.654 8.20881 370.284 7.86577C369.919 7.51728 369.737 7.10073 369.737 6.61612C369.737 6.13695 369.919 5.72585 370.284 5.38281C370.654 5.03433 371.098 4.86008 371.615 4.86008C372.133 4.86008 372.574 5.03433 372.939 5.38281C373.309 5.72585 373.494 6.13695 373.494 6.61612C373.494 7.10073 373.309 7.51728 372.939 7.86577C372.574 8.20881 372.133 8.38033 371.615 8.38033ZM382.351 22.788C381.061 22.788 379.95 22.5266 379.019 22.0039C378.093 21.4757 377.38 20.7298 376.879 19.766C376.378 18.7968 376.128 17.6506 376.128 16.3274C376.128 15.0369 376.378 13.9044 376.879 12.9297C377.38 11.955 378.085 11.1954 378.995 10.6509C379.909 10.1064 380.982 9.83416 382.213 9.83416C383.04 9.83416 383.811 9.96757 384.524 10.2344C385.243 10.4957 385.869 10.8905 386.403 11.4187C386.942 11.9469 387.361 12.6112 387.66 13.4116C387.96 14.2066 388.11 15.1377 388.11 16.2049V17.1605H377.516V15.0043H384.834C384.834 14.5033 384.725 14.0595 384.508 13.6729C384.29 13.2863 383.988 12.9841 383.601 12.7663C383.22 12.5431 382.776 12.4315 382.27 12.4315C381.742 12.4315 381.273 12.554 380.865 12.799C380.462 13.0386 380.146 13.3626 379.917 13.771C379.689 14.1739 379.572 14.6231 379.566 15.1186V17.1687C379.566 17.7894 379.681 18.3258 379.909 18.7777C380.143 19.2296 380.473 19.5781 380.898 19.8232C381.322 20.0682 381.826 20.1907 382.409 20.1907C382.795 20.1907 383.149 20.1362 383.47 20.0273C383.792 19.9184 384.067 19.7551 384.295 19.5373C384.524 19.3195 384.698 19.0527 384.818 18.7369L388.036 18.9492C387.873 19.7224 387.538 20.3976 387.031 20.9748C386.531 21.5465 385.883 21.993 385.088 22.3143C384.298 22.6301 383.386 22.788 382.351 22.788ZM377.884 8.62536L381.175 6.08523H383.054L386.362 8.62536H383.854L382.131 7.2532L380.383 8.62536H377.884ZM385.504 7.18785L387.415 4.125H390.111L387.473 7.18785H385.504ZM390.88 27.2475V9.99751H394.311V12.1048H394.466C394.618 11.7672 394.839 11.4241 395.127 11.0756C395.421 10.7217 395.803 10.4277 396.271 10.1935C396.745 9.95395 397.333 9.83416 398.035 9.83416C398.95 9.83416 399.794 10.0737 400.567 10.5529C401.34 11.0266 401.958 11.7427 402.421 12.701C402.884 13.6539 403.115 14.8491 403.115 16.2866C403.115 17.686 402.889 18.8675 402.437 19.8313C401.991 20.7897 401.381 21.5166 400.608 22.0121C399.84 22.5021 398.98 22.7472 398.027 22.7472C397.352 22.7472 396.777 22.6355 396.303 22.4123C395.835 22.189 395.451 21.9086 395.152 21.571C394.852 21.228 394.624 20.8822 394.466 20.5337H394.36V27.2475H390.88ZM394.286 16.2702C394.286 17.0162 394.39 17.6669 394.596 18.2223C394.803 18.7777 395.103 19.2106 395.495 19.521C395.887 19.8259 396.363 19.9783 396.924 19.9783C397.491 19.9783 397.97 19.8232 398.362 19.5128C398.754 19.197 399.051 18.7614 399.252 18.206C399.459 17.6451 399.562 16.9999 399.562 16.2702C399.562 15.546 399.462 14.909 399.26 14.359C399.059 13.8091 398.762 13.3789 398.37 13.0685C397.978 12.7582 397.496 12.603 396.924 12.603C396.358 12.603 395.879 12.7527 395.487 13.0522C395.1 13.3517 394.803 13.7764 394.596 14.3263C394.39 14.8763 394.286 15.5243 394.286 16.2702ZM415.238 5.8157V22.543H411.758V5.8157H415.238ZM431.789 9.30327H433.806C433.801 10.2507 433.659 11.0457 433.382 11.6882C433.104 12.3253 432.633 12.8045 431.969 13.1257C431.31 13.447 430.409 13.6076 429.265 13.6076V12.0558C430.022 12.0558 430.577 11.955 430.931 11.7536C431.291 11.5521 431.522 11.2499 431.626 10.8469C431.734 10.4386 431.789 9.92401 431.789 9.30327ZM426.652 17.2013V9.99751H430.123V22.543H426.79V20.2642H426.66C426.377 20.9993 425.906 21.5901 425.247 22.0366C424.593 22.4831 423.796 22.7063 422.854 22.7063C422.015 22.7063 421.277 22.5157 420.64 22.1346C420.003 21.7534 419.505 21.2116 419.145 20.5092C418.792 19.8068 418.612 18.9656 418.606 17.9854V9.99751H422.086V17.3647C422.086 18.1052 422.282 18.6906 422.674 19.1207C423.071 19.5509 423.6 19.766 424.258 19.766C424.678 19.766 425.067 19.6707 425.426 19.4801C425.791 19.2841 426.085 18.9955 426.308 18.6143C426.537 18.2332 426.652 17.7622 426.652 17.2013ZM425.663 8.20064H423.082L422.903 6.73047C423.48 6.70324 423.891 6.62701 424.136 6.50178C424.381 6.37109 424.501 6.19957 424.495 5.98722C424.501 5.69318 424.346 5.49444 424.03 5.39098C423.719 5.28752 423.33 5.2358 422.862 5.2358L422.952 3.65945C424.405 3.65945 425.511 3.85547 426.268 4.24751C427.03 4.63956 427.408 5.18407 427.403 5.88104C427.408 6.37654 427.229 6.75225 426.864 7.00817C426.504 7.25864 426.104 7.41655 425.663 7.48189V8.20064ZM438.909 22.7798C438.108 22.7798 437.395 22.641 436.769 22.3633C436.143 22.0801 435.647 21.6636 435.282 21.1136C434.923 20.5582 434.743 19.8667 434.743 19.0391C434.743 18.3421 434.871 17.7567 435.127 17.283C435.383 16.8093 435.732 16.4281 436.173 16.1396C436.614 15.851 437.115 15.6332 437.675 15.4862C438.242 15.3391 438.835 15.2357 439.456 15.1758C440.186 15.0996 440.774 15.0288 441.22 14.9634C441.667 14.8926 441.991 14.7892 442.192 14.6531C442.394 14.5169 442.494 14.3155 442.494 14.0487V13.9996C442.494 13.4824 442.331 13.0821 442.004 12.799C441.683 12.5159 441.226 12.3743 440.632 12.3743C440.006 12.3743 439.508 12.5131 439.137 12.7908C438.767 13.0631 438.522 13.4061 438.402 13.82L435.184 13.5586C435.348 12.7963 435.669 12.1374 436.148 11.582C436.627 11.0212 437.245 10.591 438.002 10.2915C438.764 9.98662 439.647 9.83416 440.648 9.83416C441.345 9.83416 442.012 9.91584 442.65 10.0792C443.292 10.2425 443.861 10.4957 444.357 10.8388C444.858 11.1818 445.252 11.6229 445.541 12.1619C445.829 12.6955 445.974 13.3353 445.974 14.0813V22.543H442.674V20.8033H442.576C442.375 21.1953 442.105 21.5411 441.767 21.8406C441.43 22.1346 441.024 22.366 440.55 22.5348C440.077 22.6982 439.53 22.7798 438.909 22.7798ZM439.905 20.3786C440.417 20.3786 440.869 20.2778 441.261 20.0763C441.653 19.8694 441.961 19.5917 442.184 19.2433C442.407 18.8948 442.519 18.5 442.519 18.0589V16.7276C442.41 16.7984 442.26 16.8638 442.07 16.9237C441.885 16.9781 441.675 17.0298 441.441 17.0788C441.207 17.1224 440.972 17.1632 440.738 17.2013C440.504 17.234 440.292 17.264 440.101 17.2912C439.693 17.3511 439.336 17.4464 439.031 17.5771C438.726 17.7077 438.49 17.8847 438.321 18.108C438.152 18.3258 438.068 18.598 438.068 18.9247C438.068 19.3984 438.239 19.7605 438.582 20.011C438.931 20.256 439.372 20.3786 439.905 20.3786ZM460.665 22.788C459.38 22.788 458.274 22.5157 457.349 21.9712C456.428 21.4213 455.721 20.659 455.225 19.6843C454.735 18.7096 454.49 17.5879 454.49 16.3192C454.49 15.0342 454.738 13.9071 455.233 12.9379C455.734 11.9632 456.445 11.2036 457.365 10.6591C458.285 10.1091 459.38 9.83416 460.648 9.83416C461.743 9.83416 462.701 10.0329 463.523 10.4304C464.346 10.8279 464.996 11.386 465.475 12.1048C465.955 12.8235 466.219 13.6675 466.268 14.6367H462.984C462.892 14.0105 462.647 13.5069 462.249 13.1257C461.857 12.7391 461.343 12.5458 460.706 12.5458C460.167 12.5458 459.696 12.6928 459.293 12.9869C458.895 13.2754 458.585 13.6974 458.361 14.2528C458.138 14.8082 458.027 15.4807 458.027 16.2702C458.027 17.0707 458.135 17.7513 458.353 18.3121C458.577 18.873 458.89 19.3004 459.293 19.5945C459.696 19.8885 460.167 20.0355 460.706 20.0355C461.103 20.0355 461.46 19.9538 461.776 19.7905C462.097 19.6271 462.361 19.3903 462.568 19.0799C462.78 18.7641 462.919 18.3857 462.984 17.9446H466.268C466.213 18.9029 465.952 19.7469 465.484 20.4766C465.021 21.2008 464.381 21.767 463.564 22.1754C462.747 22.5838 461.781 22.788 460.665 22.788ZM472.475 15.2901V22.543H468.995V5.8157H472.377V12.2109H472.524C472.807 11.4704 473.264 10.8905 473.896 10.4712C474.528 10.0465 475.32 9.83416 476.273 9.83416C477.144 9.83416 477.904 10.0247 478.552 10.4059C479.205 10.7816 479.711 11.3234 480.071 12.0312C480.436 12.7337 480.615 13.5749 480.61 14.555V22.543H477.13V15.1758C477.136 14.4026 476.94 13.8009 476.542 13.3707C476.15 12.9406 475.6 12.7255 474.892 12.7255C474.419 12.7255 473.999 12.8262 473.635 13.0277C473.275 13.2292 472.992 13.5232 472.785 13.9098C472.584 14.291 472.48 14.7511 472.475 15.2901ZM489.516 22.788C488.248 22.788 487.15 22.5185 486.225 21.9794C485.305 21.4349 484.594 20.678 484.093 19.7088C483.592 18.7341 483.342 17.6043 483.342 16.3192C483.342 15.0233 483.592 13.8907 484.093 12.9215C484.594 11.9469 485.305 11.19 486.225 10.6509C487.15 10.1064 488.248 9.83416 489.516 9.83416C490.785 9.83416 491.879 10.1064 492.8 10.6509C493.725 11.19 494.439 11.9469 494.94 12.9215C495.441 13.8907 495.691 15.0233 495.691 16.3192C495.691 17.6043 495.441 18.7341 494.94 19.7088C494.439 20.678 493.725 21.4349 492.8 21.9794C491.879 22.5185 490.785 22.788 489.516 22.788ZM489.533 20.0927C490.11 20.0927 490.592 19.9293 490.978 19.6026C491.365 19.2705 491.656 18.8185 491.852 18.2468C492.054 17.6751 492.154 17.0244 492.154 16.2947C492.154 15.5651 492.054 14.9144 491.852 14.3427C491.656 13.771 491.365 13.319 490.978 12.9869C490.592 12.6547 490.11 12.4886 489.533 12.4886C488.95 12.4886 488.46 12.6547 488.062 12.9869C487.67 13.319 487.374 13.771 487.172 14.3427C486.976 14.9144 486.878 15.5651 486.878 16.2947C486.878 17.0244 486.976 17.6751 487.172 18.2468C487.374 18.8185 487.67 19.2705 488.062 19.6026C488.46 19.9293 488.95 20.0927 489.533 20.0927ZM509.945 22.788C508.66 22.788 507.555 22.5157 506.629 21.9712C505.709 21.4213 505.001 20.659 504.505 19.6843C504.015 18.7096 503.77 17.5879 503.77 16.3192C503.77 15.0342 504.018 13.9071 504.514 12.9379C505.014 11.9632 505.725 11.2036 506.645 10.6591C507.566 10.1091 508.66 9.83416 509.929 9.83416C511.023 9.83416 511.981 10.0329 512.804 10.4304C513.626 10.8279 514.277 11.386 514.756 12.1048C515.235 12.8235 515.499 13.6675 515.548 14.6367H512.265C512.172 14.0105 511.927 13.5069 511.53 13.1257C511.137 12.7391 510.623 12.5458 509.986 12.5458C509.447 12.5458 508.976 12.6928 508.573 12.9869C508.175 13.2754 507.865 13.6974 507.642 14.2528C507.418 14.8082 507.307 15.4807 507.307 16.2702C507.307 17.0707 507.416 17.7513 507.634 18.3121C507.857 18.873 508.17 19.3004 508.573 19.5945C508.976 19.8885 509.447 20.0355 509.986 20.0355C510.383 20.0355 510.74 19.9538 511.056 19.7905C511.377 19.6271 511.641 19.3903 511.848 19.0799C512.06 18.7641 512.199 18.3857 512.265 17.9446H515.548C515.494 18.9029 515.232 19.7469 514.764 20.4766C514.301 21.2008 513.661 21.767 512.845 22.1754C512.028 22.5838 511.061 22.788 509.945 22.788ZM521.853 22.7798C521.053 22.7798 520.339 22.641 519.713 22.3633C519.087 22.0801 518.592 21.6636 518.227 21.1136C517.867 20.5582 517.688 19.8667 517.688 19.0391C517.688 18.3421 517.816 17.7567 518.072 17.283C518.327 16.8093 518.676 16.4281 519.117 16.1396C519.558 15.851 520.059 15.6332 520.62 15.4862C521.186 15.3391 521.78 15.2357 522.4 15.1758C523.13 15.0996 523.718 15.0288 524.165 14.9634C524.611 14.8926 524.935 14.7892 525.136 14.6531C525.338 14.5169 525.439 14.3155 525.439 14.0487V13.9996C525.439 13.4824 525.275 13.0821 524.949 12.799C524.627 12.5159 524.17 12.3743 523.576 12.3743C522.95 12.3743 522.452 12.5131 522.082 12.7908C521.712 13.0631 521.467 13.4061 521.347 13.82L518.129 13.5586C518.292 12.7963 518.613 12.1374 519.092 11.582C519.572 11.0212 520.19 10.591 520.947 10.2915C521.709 9.98662 522.591 9.83416 523.593 9.83416C524.29 9.83416 524.957 9.91584 525.594 10.0792C526.236 10.2425 526.805 10.4957 527.301 10.8388C527.802 11.1818 528.197 11.6229 528.485 12.1619C528.774 12.6955 528.918 13.3353 528.918 14.0813V22.543H525.618V20.8033H525.52C525.319 21.1953 525.049 21.5411 524.712 21.8406C524.374 22.1346 523.969 22.366 523.495 22.5348C523.021 22.6982 522.474 22.7798 521.853 22.7798ZM522.85 20.3786C523.361 20.3786 523.813 20.2778 524.205 20.0763C524.597 19.8694 524.905 19.5917 525.128 19.2433C525.352 18.8948 525.463 18.5 525.463 18.0589V16.7276C525.354 16.7984 525.205 16.8638 525.014 16.9237C524.829 16.9781 524.619 17.0298 524.385 17.0788C524.151 17.1224 523.917 17.1632 523.683 17.2013C523.449 17.234 523.236 17.264 523.046 17.2912C522.637 17.3511 522.281 17.4464 521.976 17.5771C521.671 17.7077 521.434 17.8847 521.265 18.108C521.096 18.3258 521.012 18.598 521.012 18.9247C521.012 19.3984 521.183 19.7605 521.526 20.011C521.875 20.256 522.316 20.3786 522.85 20.3786ZM522.474 8.38033L524.205 4.66406H527.423L524.932 8.38033H522.474ZM537.786 22.788C536.501 22.788 535.395 22.5157 534.47 21.9712C533.55 21.4213 532.842 20.659 532.346 19.6843C531.856 18.7096 531.611 17.5879 531.611 16.3192C531.611 15.0342 531.859 13.9071 532.354 12.9379C532.855 11.9632 533.566 11.2036 534.486 10.6591C535.406 10.1091 536.501 9.83416 537.769 9.83416C538.864 9.83416 539.822 10.0329 540.644 10.4304C541.467 10.8279 542.117 11.386 542.597 12.1048C543.076 12.8235 543.34 13.6675 543.389 14.6367H540.105C540.013 14.0105 539.768 13.5069 539.37 13.1257C538.978 12.7391 538.464 12.5458 537.827 12.5458C537.288 12.5458 536.817 12.6928 536.414 12.9869C536.016 13.2754 535.706 13.6974 535.483 14.2528C535.259 14.8082 535.148 15.4807 535.148 16.2702C535.148 17.0707 535.257 17.7513 535.474 18.3121C535.698 18.873 536.011 19.3004 536.414 19.5945C536.817 19.8885 537.288 20.0355 537.827 20.0355C538.224 20.0355 538.581 19.9538 538.897 19.7905C539.218 19.6271 539.482 19.3903 539.689 19.0799C539.901 18.7641 540.04 18.3857 540.105 17.9446H543.389C543.334 18.9029 543.073 19.7469 542.605 20.4766C542.142 21.2008 541.502 21.767 540.685 22.1754C539.869 22.5838 538.902 22.788 537.786 22.788ZM558.613 9.99751V12.6112H551.058V9.99751H558.613ZM552.773 6.99183H556.252V18.6879C556.252 19.0091 556.301 19.2596 556.399 19.4393C556.497 19.6135 556.633 19.736 556.808 19.8068C556.987 19.8776 557.194 19.913 557.428 19.913C557.592 19.913 557.755 19.8994 557.918 19.8722C558.082 19.8395 558.207 19.815 558.294 19.7987L558.841 22.3878C558.667 22.4422 558.422 22.5049 558.106 22.5756C557.79 22.6519 557.407 22.6982 556.955 22.7145C556.116 22.7472 555.381 22.6355 554.749 22.3796C554.123 22.1237 553.636 21.7262 553.287 21.1871C552.939 20.6481 552.767 19.9674 552.773 19.1452V6.99183ZM564.957 22.7798C564.156 22.7798 563.443 22.641 562.817 22.3633C562.191 22.0801 561.695 21.6636 561.33 21.1136C560.971 20.5582 560.791 19.8667 560.791 19.0391C560.791 18.3421 560.919 17.7567 561.175 17.283C561.431 16.8093 561.779 16.4281 562.22 16.1396C562.662 15.851 563.162 15.6332 563.723 15.4862C564.29 15.3391 564.883 15.2357 565.504 15.1758C566.234 15.0996 566.822 15.0288 567.268 14.9634C567.715 14.8926 568.039 14.7892 568.24 14.6531C568.441 14.5169 568.542 14.3155 568.542 14.0487V13.9996C568.542 13.4824 568.379 13.0821 568.052 12.799C567.731 12.5159 567.274 12.3743 566.68 12.3743C566.054 12.3743 565.556 12.5131 565.185 12.7908C564.815 13.0631 564.57 13.4061 564.45 13.82L561.232 13.5586C561.396 12.7963 561.717 12.1374 562.196 11.582C562.675 11.0212 563.293 10.591 564.05 10.2915C564.812 9.98662 565.694 9.83416 566.696 9.83416C567.393 9.83416 568.06 9.91584 568.697 10.0792C569.34 10.2425 569.909 10.4957 570.404 10.8388C570.905 11.1818 571.3 11.6229 571.589 12.1619C571.877 12.6955 572.022 13.3353 572.022 14.0813V22.543H568.722V20.8033H568.624C568.422 21.1953 568.153 21.5411 567.815 21.8406C567.478 22.1346 567.072 22.366 566.598 22.5348C566.125 22.6982 565.577 22.7798 564.957 22.7798ZM565.953 20.3786C566.465 20.3786 566.917 20.2778 567.309 20.0763C567.701 19.8694 568.009 19.5917 568.232 19.2433C568.455 18.8948 568.567 18.5 568.567 18.0589V16.7276C568.458 16.7984 568.308 16.8638 568.117 16.9237C567.932 16.9781 567.723 17.0298 567.489 17.0788C567.254 17.1224 567.02 17.1632 566.786 17.2013C566.552 17.234 566.34 17.264 566.149 17.2912C565.741 17.3511 565.384 17.4464 565.079 17.5771C564.774 17.7077 564.537 17.8847 564.369 18.108C564.2 18.3258 564.115 18.598 564.115 18.9247C564.115 19.3984 564.287 19.7605 564.63 20.011C564.978 20.256 565.419 20.3786 565.953 20.3786ZM565.618 8.38033L563.127 4.66406H566.337L568.077 8.38033H565.618ZM575.221 22.543V9.99751H578.7V22.543H575.221ZM576.969 8.38033C576.452 8.38033 576.008 8.20881 575.638 7.86577C575.273 7.51728 575.09 7.10073 575.09 6.61612C575.09 6.13695 575.273 5.72585 575.638 5.38281C576.008 5.03433 576.452 4.86008 576.969 4.86008C577.486 4.86008 577.927 5.03433 578.292 5.38281C578.662 5.72585 578.847 6.13695 578.847 6.61612C578.847 7.10073 578.662 7.51728 578.292 7.86577C577.927 8.20881 577.486 8.38033 576.969 8.38033ZM591.29 15.2901V22.543H587.811V9.99751H591.127V12.2109H591.274C591.552 11.4813 592.017 10.9041 592.671 10.4794C593.324 10.0492 594.116 9.83416 595.047 9.83416C595.919 9.83416 596.678 10.0247 597.326 10.4059C597.974 10.787 598.478 11.3316 598.837 12.0394C599.197 12.7418 599.376 13.5804 599.376 14.555V22.543H595.897V15.1758C595.902 14.408 595.706 13.8091 595.309 13.3789C594.911 12.9433 594.364 12.7255 593.667 12.7255C593.199 12.7255 592.785 12.8262 592.426 13.0277C592.072 13.2292 591.794 13.5232 591.592 13.9098C591.396 14.291 591.296 14.7511 591.29 15.2901ZM606.196 22.7798C605.395 22.7798 604.682 22.641 604.056 22.3633C603.43 22.0801 602.934 21.6636 602.569 21.1136C602.21 20.5582 602.03 19.8667 602.03 19.0391C602.03 18.3421 602.158 17.7567 602.414 17.283C602.67 16.8093 603.019 16.4281 603.46 16.1396C603.901 15.851 604.402 15.6332 604.963 15.4862C605.529 15.3391 606.122 15.2357 606.743 15.1758C607.473 15.0996 608.061 15.0288 608.507 14.9634C608.954 14.8926 609.278 14.7892 609.479 14.6531C609.681 14.5169 609.781 14.3155 609.781 14.0487V13.9996C609.781 13.4824 609.618 13.0821 609.291 12.799C608.97 12.5159 608.513 12.3743 607.919 12.3743C607.293 12.3743 606.795 12.5131 606.425 12.7908C606.054 13.0631 605.809 13.4061 605.689 13.82L602.471 13.5586C602.635 12.7963 602.956 12.1374 603.435 11.582C603.914 11.0212 604.532 10.591 605.289 10.2915C606.052 9.98662 606.934 9.83416 607.936 9.83416C608.633 9.83416 609.3 9.91584 609.937 10.0792C610.579 10.2425 611.148 10.4957 611.644 10.8388C612.145 11.1818 612.539 11.6229 612.828 12.1619C613.117 12.6955 613.261 13.3353 613.261 14.0813V22.543H609.961V20.8033H609.863C609.662 21.1953 609.392 21.5411 609.055 21.8406C608.717 22.1346 608.311 22.366 607.838 22.5348C607.364 22.6982 606.817 22.7798 606.196 22.7798ZM607.192 20.3786C607.704 20.3786 608.156 20.2778 608.548 20.0763C608.94 19.8694 609.248 19.5917 609.471 19.2433C609.694 18.8948 609.806 18.5 609.806 18.0589V16.7276C609.697 16.7984 609.547 16.8638 609.357 16.9237C609.172 16.9781 608.962 17.0298 608.728 17.0788C608.494 17.1224 608.26 17.1632 608.025 17.2013C607.791 17.234 607.579 17.264 607.388 17.2912C606.98 17.3511 606.623 17.4464 606.318 17.5771C606.013 17.7077 605.777 17.8847 605.608 18.108C605.439 18.3258 605.355 18.598 605.355 18.9247C605.355 19.3984 605.526 19.7605 605.869 20.011C606.218 20.256 606.659 20.3786 607.192 20.3786ZM609.683 5.61967H612.109C612.104 6.61068 611.736 7.40838 611.007 8.01278C610.282 8.61719 609.302 8.91939 608.066 8.91939C606.825 8.91939 605.842 8.61719 605.118 8.01278C604.394 7.40838 604.031 6.61068 604.031 5.61967H606.441C606.435 5.99538 606.555 6.33298 606.8 6.63246C607.051 6.93194 607.473 7.08168 608.066 7.08168C608.643 7.08168 609.057 6.93466 609.308 6.64062C609.558 6.34659 609.683 6.00627 609.683 5.61967ZM619.94 15.2901V22.543H616.46V9.99751H619.776V12.2109H619.923C620.201 11.4813 620.667 10.9041 621.32 10.4794C621.973 10.0492 622.766 9.83416 623.697 9.83416C624.568 9.83416 625.328 10.0247 625.976 10.4059C626.624 10.787 627.127 11.3316 627.487 12.0394C627.846 12.7418 628.026 13.5804 628.026 14.555V22.543H624.546V15.1758C624.552 14.408 624.356 13.8091 623.958 13.3789C623.561 12.9433 623.013 12.7255 622.316 12.7255C621.848 12.7255 621.434 12.8262 621.075 13.0277C620.721 13.2292 620.443 13.5232 620.242 13.9098C620.046 14.291 619.945 14.7511 619.94 15.2901ZM636.92 27.5089C635.793 27.5089 634.826 27.3537 634.02 27.0433C633.22 26.7384 632.583 26.3219 632.109 25.7937C631.635 25.2655 631.328 24.672 631.186 24.0131L634.404 23.5803C634.502 23.8307 634.657 24.0649 634.87 24.2827C635.082 24.5005 635.363 24.6747 635.711 24.8054C636.065 24.9415 636.495 25.0096 637.002 25.0096C637.758 25.0096 638.382 24.8245 638.872 24.4542C639.367 24.0894 639.615 23.4768 639.615 22.6165V20.3214H639.468C639.316 20.6699 639.087 20.9993 638.782 21.3097C638.477 21.62 638.085 21.8732 637.606 22.0692C637.127 22.2653 636.555 22.3633 635.891 22.3633C634.949 22.3633 634.091 22.1455 633.318 21.7099C632.55 21.2688 631.938 20.5964 631.48 19.6925C631.028 18.7831 630.802 17.6342 630.802 16.2457C630.802 14.8246 631.034 13.6375 631.497 12.6847C631.959 11.7318 632.575 11.0185 633.342 10.5447C634.116 10.071 634.962 9.83416 635.883 9.83416C636.585 9.83416 637.173 9.95395 637.647 10.1935C638.121 10.4277 638.502 10.7217 638.79 11.0756C639.084 11.4241 639.31 11.7672 639.468 12.1048H639.599V9.99751H643.054V22.6655C643.054 23.7327 642.792 24.6257 642.27 25.3445C641.747 26.0632 641.023 26.6023 640.097 26.9616C639.177 27.3265 638.118 27.5089 636.92 27.5089ZM636.993 19.7496C637.554 19.7496 638.028 19.6108 638.415 19.3331C638.807 19.05 639.106 18.647 639.313 18.1243C639.525 17.5961 639.632 16.9645 639.632 16.2294C639.632 15.4943 639.528 14.8572 639.321 14.3182C639.114 13.7737 638.815 13.3517 638.423 13.0522C638.031 12.7527 637.554 12.603 636.993 12.603C636.422 12.603 635.94 12.7582 635.548 13.0685C635.156 13.3735 634.859 13.7982 634.657 14.3427C634.456 14.8872 634.355 15.5161 634.355 16.2294C634.355 16.9536 634.456 17.5798 634.657 18.108C634.864 18.6307 635.161 19.0363 635.548 19.3249C635.94 19.6081 636.422 19.7496 636.993 19.7496ZM650.104 20.256L650.014 21.1545C649.944 21.8732 649.807 22.5893 649.606 23.3026C649.41 24.0213 649.203 24.672 648.985 25.2546C648.773 25.8372 648.601 26.2946 648.471 26.6268H646.216C646.298 26.3055 646.41 25.8563 646.551 25.2791C646.693 24.7074 646.826 24.0649 646.951 23.3516C647.077 22.6383 647.156 21.9113 647.188 21.1708L647.229 20.256H650.104ZM658.888 22.543V5.8157H665.585C666.816 5.8157 667.842 5.99811 668.665 6.36293C669.487 6.72775 670.105 7.23414 670.519 7.8821C670.932 8.52462 671.139 9.26515 671.139 10.1037C671.139 10.7571 671.009 11.3316 670.747 11.8271C670.486 12.3171 670.127 12.7201 669.669 13.0359C669.217 13.3462 668.7 13.5668 668.117 13.6974V13.8608C668.754 13.888 669.351 14.0677 669.906 14.3999C670.467 14.732 670.922 15.1976 671.27 15.7965C671.619 16.39 671.793 17.0979 671.793 17.9201C671.793 18.8076 671.572 19.5999 671.131 20.2969C670.696 20.9884 670.05 21.5356 669.195 21.9386C668.341 22.3415 667.287 22.543 666.035 22.543H658.888ZM662.424 19.6516H665.308C666.293 19.6516 667.012 19.4638 667.464 19.0881C667.916 18.7069 668.142 18.2005 668.142 17.5689C668.142 17.1061 668.03 16.6977 667.807 16.3438C667.584 15.9898 667.265 15.7121 666.851 15.5107C666.443 15.3092 665.956 15.2085 665.389 15.2085H662.424V19.6516ZM662.424 12.8153H665.046C665.531 12.8153 665.961 12.7309 666.337 12.5621C666.718 12.3879 667.017 12.1429 667.235 11.8271C667.458 11.5112 667.57 11.1328 667.57 10.6918C667.57 10.0874 667.355 9.60002 666.925 9.22976C666.5 8.85949 665.896 8.67436 665.112 8.67436H662.424V12.8153ZM673.957 8.73153V5.8157H687.695V8.73153H682.574V22.543H679.078V8.73153H673.957ZM704.452 11.6719H700.875C700.81 11.209 700.676 10.7979 700.475 10.4386C700.273 10.0737 700.015 9.76338 699.699 9.50746C699.383 9.25154 699.018 9.05552 698.604 8.91939C698.196 8.78326 697.752 8.7152 697.273 8.7152C696.407 8.7152 695.653 8.93028 695.011 9.36044C694.368 9.78516 693.87 10.4059 693.516 11.2227C693.162 12.034 692.985 13.0195 692.985 14.1793C692.985 15.3718 693.162 16.3737 693.516 17.185C693.875 17.9963 694.376 18.6089 695.019 19.0227C695.661 19.4366 696.405 19.6435 697.249 19.6435C697.722 19.6435 698.161 19.5808 698.564 19.4556C698.972 19.3304 699.334 19.148 699.65 18.9084C699.966 18.6634 700.227 18.3666 700.434 18.0181C700.646 17.6696 700.793 17.2721 700.875 16.8256L704.452 16.842C704.36 17.6097 704.128 18.3503 703.758 19.0636C703.393 19.7714 702.901 20.4058 702.28 20.9666C701.665 21.522 700.929 21.9631 700.075 22.2898C699.225 22.611 698.264 22.7717 697.191 22.7717C695.699 22.7717 694.365 22.4341 693.189 21.7589C692.019 21.0837 691.093 20.1063 690.412 18.8267C689.737 17.5471 689.4 15.998 689.4 14.1793C689.4 12.3552 689.743 10.8034 690.429 9.52379C691.115 8.2442 692.046 7.26953 693.222 6.59979C694.398 5.9246 695.721 5.587 697.191 5.587C698.161 5.587 699.059 5.72313 699.887 5.99538C700.72 6.26764 701.458 6.66513 702.1 7.18785C702.743 7.70514 703.265 8.33949 703.668 9.09091C704.077 9.84233 704.338 10.7027 704.452 11.6719ZM716.726 15.2901V22.543H713.246V5.8157H716.628V12.2109H716.775C717.058 11.4704 717.515 10.8905 718.147 10.4712C718.779 10.0465 719.571 9.83416 720.524 9.83416C721.395 9.83416 722.155 10.0247 722.803 10.4059C723.456 10.7816 723.962 11.3234 724.322 12.0312C724.687 12.7337 724.866 13.5749 724.861 14.555V22.543H721.381V15.1758C721.387 14.4026 721.191 13.8009 720.793 13.3707C720.401 12.9406 719.851 12.7255 719.143 12.7255C718.67 12.7255 718.25 12.8262 717.886 13.0277C717.526 13.2292 717.243 13.5232 717.036 13.9098C716.835 14.291 716.731 14.7511 716.726 15.2901ZM733.767 22.788C732.499 22.788 731.401 22.5185 730.476 21.9794C729.556 21.4349 728.845 20.678 728.344 19.7088C727.843 18.7341 727.593 17.6043 727.593 16.3192C727.593 15.0233 727.843 13.8907 728.344 12.9215C728.845 11.9469 729.556 11.19 730.476 10.6509C731.401 10.1064 732.499 9.83416 733.767 9.83416C735.036 9.83416 736.13 10.1064 737.051 10.6509C737.976 11.19 738.69 11.9469 739.191 12.9215C739.692 13.8907 739.942 15.0233 739.942 16.3192C739.942 17.6043 739.692 18.7341 739.191 19.7088C738.69 20.678 737.976 21.4349 737.051 21.9794C736.13 22.5185 735.036 22.788 733.767 22.788ZM733.784 20.0927C734.361 20.0927 734.843 19.9293 735.229 19.6026C735.616 19.2705 735.907 18.8185 736.103 18.2468C736.305 17.6751 736.405 17.0244 736.405 16.2947C736.405 15.5651 736.305 14.9144 736.103 14.3427C735.907 13.771 735.616 13.319 735.229 12.9869C734.843 12.6547 734.361 12.4886 733.784 12.4886C733.201 12.4886 732.711 12.6547 732.313 12.9869C731.921 13.319 731.625 13.771 731.423 14.3427C731.227 14.9144 731.129 15.5651 731.129 16.2947C731.129 17.0244 731.227 17.6751 731.423 18.2468C731.625 18.8185 731.921 19.2705 732.313 19.6026C732.711 19.9293 733.201 20.0927 733.784 20.0927ZM734.698 6.24041L737.99 8.74787H735.589L733.751 7.37571L731.954 8.74787H729.52L732.836 6.24041H734.698ZM735.548 3.46342L736.757 3.87997C736.751 4.32102 736.607 4.72668 736.324 5.09695C736.046 5.46177 735.673 5.64418 735.205 5.64418C734.949 5.64418 734.712 5.60878 734.494 5.538C734.282 5.46721 734.08 5.38281 733.89 5.2848C733.705 5.18679 733.52 5.10239 733.334 5.0316C733.155 4.96082 732.961 4.92543 732.754 4.92543C732.569 4.92543 732.422 5.00438 732.313 5.16229C732.21 5.31475 732.158 5.49444 732.158 5.70135L730.982 5.37464C730.982 4.94993 731.118 4.55516 731.39 4.19034C731.668 3.82007 732.044 3.63494 732.518 3.63494C732.73 3.63494 732.937 3.67034 733.138 3.74112C733.345 3.81191 733.552 3.89358 733.759 3.98615C733.966 4.07327 734.17 4.15222 734.372 4.22301C734.573 4.2938 734.772 4.32919 734.968 4.32919C735.137 4.32919 735.273 4.23662 735.376 4.05149C735.485 3.86636 735.542 3.67034 735.548 3.46342ZM755.201 9.99751V12.6112H747.646V9.99751H755.201ZM749.361 6.99183H752.84V18.6879C752.84 19.0091 752.889 19.2596 752.987 19.4393C753.085 19.6135 753.221 19.736 753.396 19.8068C753.575 19.8776 753.782 19.913 754.016 19.913C754.18 19.913 754.343 19.8994 754.506 19.8722C754.67 19.8395 754.795 19.815 754.882 19.7987L755.429 22.3878C755.255 22.4422 755.01 22.5049 754.694 22.5756C754.378 22.6519 753.995 22.6982 753.543 22.7145C752.704 22.7472 751.969 22.6355 751.337 22.3796C750.711 22.1237 750.224 21.7262 749.875 21.1871C749.527 20.6481 749.355 19.9674 749.361 19.1452V6.99183ZM757.967 22.543V9.99751H761.34V12.1864H761.471C761.7 11.4078 762.084 10.8197 762.623 10.4222C763.162 10.0193 763.782 9.81783 764.485 9.81783C764.659 9.81783 764.847 9.82872 765.048 9.8505C765.25 9.87228 765.427 9.90223 765.579 9.94034V13.0277C765.416 12.9787 765.19 12.9351 764.901 12.897C764.613 12.8589 764.349 12.8398 764.109 12.8398C763.597 12.8398 763.14 12.9515 762.737 13.1747C762.34 13.3925 762.024 13.6974 761.79 14.0895C761.561 14.4815 761.447 14.9335 761.447 15.4453V22.543H757.967ZM778.37 9.26243H780.444C780.444 10.6455 780.115 11.7236 779.456 12.4968C778.797 13.2646 777.738 13.6484 776.279 13.6484V12.2599C776.856 12.2599 777.294 12.1402 777.594 11.9006C777.893 11.6555 778.097 11.3098 778.206 10.8633C778.315 10.4168 778.37 9.88317 778.37 9.26243ZM772.963 22.788C771.694 22.788 770.597 22.5185 769.671 21.9794C768.751 21.4349 768.04 20.678 767.539 19.7088C767.038 18.7341 766.788 17.6043 766.788 16.3192C766.788 15.0233 767.038 13.8907 767.539 12.9215C768.04 11.9469 768.751 11.19 769.671 10.6509C770.597 10.1064 771.694 9.83416 772.963 9.83416C774.231 9.83416 775.326 10.1064 776.246 10.6509C777.172 11.19 777.885 11.9469 778.386 12.9215C778.887 13.8907 779.137 15.0233 779.137 16.3192C779.137 17.6043 778.887 18.7341 778.386 19.7088C777.885 20.678 777.172 21.4349 776.246 21.9794C775.326 22.5185 774.231 22.788 772.963 22.788ZM772.979 20.0927C773.556 20.0927 774.038 19.9293 774.425 19.6026C774.811 19.2705 775.102 18.8185 775.299 18.2468C775.5 17.6751 775.601 17.0244 775.601 16.2947C775.601 15.5651 775.5 14.9144 775.299 14.3427C775.102 13.771 774.811 13.319 774.425 12.9869C774.038 12.6547 773.556 12.4886 772.979 12.4886C772.396 12.4886 771.906 12.6547 771.509 12.9869C771.117 13.319 770.82 13.771 770.618 14.3427C770.422 14.9144 770.324 15.5651 770.324 16.2947C770.324 17.0244 770.422 17.6751 770.618 18.2468C770.82 18.8185 771.117 19.2705 771.509 19.6026C771.906 19.9293 772.396 20.0927 772.979 20.0927ZM772.963 27.2393C772.445 27.2393 772.002 27.0678 771.631 26.7248C771.261 26.3817 771.076 25.9679 771.076 25.4833C771.076 24.9987 771.261 24.5849 771.631 24.2418C772.002 23.8988 772.445 23.7273 772.963 23.7273C773.48 23.7273 773.921 23.8988 774.286 24.2418C774.656 24.5849 774.841 24.9987 774.841 25.4833C774.841 25.9679 774.656 26.3817 774.286 26.7248C773.921 27.0678 773.48 27.2393 772.963 27.2393ZM791.629 15.2901V22.543H788.15V9.99751H791.466V12.2109H791.613C791.89 11.4813 792.356 10.9041 793.009 10.4794C793.663 10.0492 794.455 9.83416 795.386 9.83416C796.257 9.83416 797.017 10.0247 797.665 10.4059C798.313 10.787 798.817 11.3316 799.176 12.0394C799.535 12.7418 799.715 13.5804 799.715 14.555V22.543H796.236V15.1758C796.241 14.408 796.045 13.8091 795.648 13.3789C795.25 12.9433 794.703 12.7255 794.006 12.7255C793.538 12.7255 793.124 12.8262 792.764 13.0277C792.41 13.2292 792.133 13.5232 791.931 13.9098C791.735 14.291 791.635 14.7511 791.629 15.2901ZM808.609 27.5089C807.482 27.5089 806.516 27.3537 805.71 27.0433C804.909 26.7384 804.272 26.3219 803.799 25.7937C803.325 25.2655 803.017 24.672 802.876 24.0131L806.094 23.5803C806.192 23.8307 806.347 24.0649 806.559 24.2827C806.772 24.5005 807.052 24.6747 807.401 24.8054C807.754 24.9415 808.185 25.0096 808.691 25.0096C809.448 25.0096 810.071 24.8245 810.561 24.4542C811.057 24.0894 811.305 23.4768 811.305 22.6165V20.3214H811.158C811.005 20.6699 810.776 20.9993 810.472 21.3097C810.167 21.62 809.775 21.8732 809.295 22.0692C808.816 22.2653 808.245 22.3633 807.58 22.3633C806.638 22.3633 805.781 22.1455 805.007 21.7099C804.24 21.2688 803.627 20.5964 803.17 19.6925C802.718 18.7831 802.492 17.6342 802.492 16.2457C802.492 14.8246 802.723 13.6375 803.186 12.6847C803.649 11.7318 804.264 11.0185 805.032 10.5447C805.805 10.071 806.652 9.83416 807.572 9.83416C808.274 9.83416 808.863 9.95395 809.336 10.1935C809.81 10.4277 810.191 10.7217 810.48 11.0756C810.774 11.4241 811 11.7672 811.158 12.1048H811.288V9.99751H814.743V22.6655C814.743 23.7327 814.482 24.6257 813.959 25.3445C813.436 26.0632 812.712 26.6023 811.787 26.9616C810.866 27.3265 809.807 27.5089 808.609 27.5089ZM808.683 19.7496C809.244 19.7496 809.717 19.6108 810.104 19.3331C810.496 19.05 810.796 18.647 811.002 18.1243C811.215 17.5961 811.321 16.9645 811.321 16.2294C811.321 15.4943 811.218 14.8572 811.011 14.3182C810.804 13.7737 810.504 13.3517 810.112 13.0522C809.72 12.7527 809.244 12.603 808.683 12.603C808.111 12.603 807.629 12.7582 807.237 13.0685C806.845 13.3735 806.548 13.7982 806.347 14.3427C806.145 14.8872 806.045 15.5161 806.045 16.2294C806.045 16.9536 806.145 17.5798 806.347 18.108C806.554 18.6307 806.851 19.0363 807.237 19.3249C807.629 19.6081 808.111 19.7496 808.683 19.7496ZM821.589 22.7798C820.789 22.7798 820.076 22.641 819.45 22.3633C818.823 22.0801 818.328 21.6636 817.963 21.1136C817.604 20.5582 817.424 19.8667 817.424 19.0391C817.424 18.3421 817.552 17.7567 817.808 17.283C818.064 16.8093 818.412 16.4281 818.853 16.1396C819.294 15.851 819.795 15.6332 820.356 15.4862C820.922 15.3391 821.516 15.2357 822.137 15.1758C822.866 15.0996 823.454 15.0288 823.901 14.9634C824.347 14.8926 824.671 14.7892 824.873 14.6531C825.074 14.5169 825.175 14.3155 825.175 14.0487V13.9996C825.175 13.4824 825.012 13.0821 824.685 12.799C824.364 12.5159 823.906 12.3743 823.313 12.3743C822.687 12.3743 822.188 12.5131 821.818 12.7908C821.448 13.0631 821.203 13.4061 821.083 13.82L817.865 13.5586C818.028 12.7963 818.35 12.1374 818.829 11.582C819.308 11.0212 819.926 10.591 820.683 10.2915C821.445 9.98662 822.327 9.83416 823.329 9.83416C824.026 9.83416 824.693 9.91584 825.33 10.0792C825.973 10.2425 826.542 10.4957 827.037 10.8388C827.538 11.1818 827.933 11.6229 828.222 12.1619C828.51 12.6955 828.654 13.3353 828.654 14.0813V22.543H825.355V20.8033H825.257C825.055 21.1953 824.786 21.5411 824.448 21.8406C824.111 22.1346 823.705 22.366 823.231 22.5348C822.757 22.6982 822.21 22.7798 821.589 22.7798ZM822.586 20.3786C823.098 20.3786 823.55 20.2778 823.942 20.0763C824.334 19.8694 824.641 19.5917 824.865 19.2433C825.088 18.8948 825.2 18.5 825.2 18.0589V16.7276C825.091 16.7984 824.941 16.8638 824.75 16.9237C824.565 16.9781 824.356 17.0298 824.121 17.0788C823.887 17.1224 823.653 17.1632 823.419 17.2013C823.185 17.234 822.972 17.264 822.782 17.2912C822.374 17.3511 822.017 17.4464 821.712 17.5771C821.407 17.7077 821.17 17.8847 821.001 18.108C820.833 18.3258 820.748 18.598 820.748 18.9247C820.748 19.3984 820.92 19.7605 821.263 20.011C821.611 20.256 822.052 20.3786 822.586 20.3786ZM833.553 27.2475C833.112 27.2475 832.698 27.2121 832.311 27.1413C831.93 27.076 831.614 26.9916 831.364 26.8881L832.148 24.2908C832.556 24.4161 832.924 24.4841 833.25 24.495C833.583 24.5059 833.869 24.4297 834.108 24.2663C834.353 24.103 834.552 23.8253 834.704 23.4332L834.909 22.9023L830.408 9.99751H834.067L836.665 19.2106H836.795L839.417 9.99751H843.101L838.225 23.8988C837.99 24.574 837.672 25.1621 837.269 25.663C836.871 26.1694 836.368 26.5587 835.758 26.831C835.148 27.1087 834.413 27.2475 833.553 27.2475ZM14.1733 70.9506C12.1155 70.9506 10.281 70.5721 8.6697 69.815C7.06814 69.0579 5.79659 68.0144 4.85507 66.6847C3.91354 65.3549 3.42337 63.831 3.38454 62.1129H9.4996C9.56755 63.268 10.0529 64.2047 10.9556 64.9229C11.8583 65.6412 12.9308 66.0004 14.1733 66.0004C15.1633 66.0004 16.0369 65.782 16.794 65.3452C17.5608 64.8987 18.1577 64.2823 18.5848 63.4961C19.0216 62.7002 19.24 61.7878 19.24 60.7589C19.24 59.7106 19.0168 58.7885 18.5703 57.9925C18.1335 57.1966 17.5268 56.5754 16.7503 56.1289C15.9738 55.6824 15.0857 55.4543 14.0859 55.4446C13.2123 55.4446 12.363 55.6242 11.538 55.9833C10.7226 56.3424 10.0868 56.8326 9.63064 57.4538L4.02517 56.4492L5.43746 40.7248H23.6662V45.8789H10.6353L9.86359 53.348H10.0383C10.5625 52.6103 11.3535 51.9988 12.4115 51.5135C13.4695 51.0282 14.6537 50.7855 15.9641 50.7855C17.7598 50.7855 19.3613 51.2077 20.7688 52.0522C22.1762 52.8967 23.2876 54.0566 24.1029 55.532C24.9183 56.9976 25.3211 58.6866 25.3114 60.5987C25.3211 62.608 24.8552 64.3939 23.9137 65.9567C22.9818 67.5097 21.6763 68.7327 19.9971 69.6257C18.3276 70.509 16.3863 70.9506 14.1733 70.9506ZM32.9311 70.9215C31.9701 70.9215 31.1451 70.5818 30.4559 69.9023C29.7765 69.2132 29.4367 68.3881 29.4367 67.4272C29.4367 66.476 29.7765 65.6606 30.4559 64.9812C31.1451 64.3017 31.9701 63.962 32.9311 63.962C33.8629 63.962 34.6782 64.3017 35.3771 64.9812C36.076 65.6606 36.4254 66.476 36.4254 67.4272C36.4254 68.0678 36.2604 68.6551 35.9304 69.1889C35.61 69.7131 35.1878 70.1353 34.6637 70.4556C34.1395 70.7662 33.562 70.9215 32.9311 70.9215ZM52.4496 71.1982C49.9454 71.1884 47.7905 70.5721 45.9851 69.3491C44.1894 68.1261 42.8063 66.3546 41.8356 64.0348C40.8747 61.715 40.3991 58.9244 40.4088 55.663C40.4088 52.4113 40.8892 49.6402 41.8502 47.3494C42.8208 45.0587 44.204 43.3164 45.9997 42.1225C47.8051 40.9189 49.9551 40.3171 52.4496 40.3171C54.9442 40.3171 57.0893 40.9189 58.885 42.1225C60.6904 43.3261 62.0784 45.0733 63.0491 47.364C64.0197 49.645 64.5002 52.4113 64.4905 55.663C64.4905 58.9341 64.0051 61.7295 63.0345 64.0494C62.0736 66.3692 60.6952 68.1406 58.8995 69.3636C57.1039 70.5866 54.9539 71.1982 52.4496 71.1982ZM52.4496 65.9712C54.158 65.9712 55.5217 65.1122 56.5409 63.3942C57.5601 61.6761 58.0648 59.0991 58.0551 55.663C58.0551 53.4014 57.8221 51.5183 57.3562 50.0138C56.9 48.5094 56.2497 47.3785 55.4052 46.6214C54.5705 45.8643 53.5853 45.4858 52.4496 45.4858C50.751 45.4858 49.3921 46.3351 48.3729 48.0337C47.3537 49.7324 46.8393 52.2754 46.8296 55.663C46.8296 57.9537 47.0577 59.8659 47.5139 61.3995C47.9798 62.9234 48.635 64.0688 49.4794 64.8356C50.3239 65.5927 51.314 65.9712 52.4496 65.9712ZM81.1772 71.1982C78.6729 71.1884 76.5181 70.5721 74.7127 69.3491C72.917 68.1261 71.5338 66.3546 70.5632 64.0348C69.6022 61.715 69.1266 58.9244 69.1363 55.663C69.1363 52.4113 69.6168 49.6402 70.5777 47.3494C71.5484 45.0587 72.9315 43.3164 74.7272 42.1225C76.5326 40.9189 78.6826 40.3171 81.1772 40.3171C83.6717 40.3171 85.8168 40.9189 87.6125 42.1225C89.4179 43.3261 90.8059 45.0733 91.7766 47.364C92.7472 49.645 93.2277 52.4113 93.218 55.663C93.218 58.9341 92.7327 61.7295 91.762 64.0494C90.8011 66.3692 89.4228 68.1406 87.6271 69.3636C85.8314 70.5866 83.6814 71.1982 81.1772 71.1982ZM81.1772 65.9712C82.8855 65.9712 84.2492 65.1122 85.2684 63.3942C86.2876 61.6761 86.7923 59.0991 86.7826 55.663C86.7826 53.4014 86.5497 51.5183 86.0838 50.0138C85.6276 48.5094 84.9772 47.3785 84.1328 46.6214C83.298 45.8643 82.3128 45.4858 81.1772 45.4858C79.4785 45.4858 78.1196 46.3351 77.1005 48.0337C76.0813 49.7324 75.5668 52.2754 75.5571 55.663C75.5571 57.9537 75.7852 59.8659 76.2414 61.3995C76.7073 62.9234 77.3625 64.0688 78.207 64.8356C79.0514 65.5927 80.0415 65.9712 81.1772 65.9712ZM109.905 71.1982C107.4 71.1884 105.246 70.5721 103.44 69.3491C101.645 68.1261 100.261 66.3546 99.2907 64.0348C98.3298 61.715 97.8542 58.9244 97.8639 55.663C97.8639 52.4113 98.3443 49.6402 99.3053 47.3494C100.276 45.0587 101.659 43.3164 103.455 42.1225C105.26 40.9189 107.41 40.3171 109.905 40.3171C112.399 40.3171 114.544 40.9189 116.34 42.1225C118.145 43.3261 119.533 45.0733 120.504 47.364C121.475 49.645 121.955 52.4113 121.946 55.663C121.946 58.9341 121.46 61.7295 120.49 64.0494C119.529 66.3692 118.15 68.1406 116.355 69.3636C114.559 70.5866 112.409 71.1982 109.905 71.1982ZM109.905 65.9712C111.613 65.9712 112.977 65.1122 113.996 63.3942C115.015 61.6761 115.52 59.0991 115.51 55.663C115.51 53.4014 115.277 51.5183 114.811 50.0138C114.355 48.5094 113.705 47.3785 112.86 46.6214C112.026 45.8643 111.04 45.4858 109.905 45.4858C108.206 45.4858 106.847 46.3351 105.828 48.0337C104.809 49.7324 104.294 52.2754 104.285 55.663C104.285 57.9537 104.513 59.8659 104.969 61.3995C105.435 62.9234 106.09 64.0688 106.935 64.8356C107.779 65.5927 108.769 65.9712 109.905 65.9712ZM129.423 70.9215C128.462 70.9215 127.637 70.5818 126.948 69.9023C126.269 69.2132 125.929 68.3881 125.929 67.4272C125.929 66.476 126.269 65.6606 126.948 64.9812C127.637 64.3017 128.462 63.962 129.423 63.962C130.355 63.962 131.17 64.3017 131.869 64.9812C132.568 65.6606 132.918 66.476 132.918 67.4272C132.918 68.0678 132.753 68.6551 132.423 69.1889C132.102 69.7131 131.68 70.1353 131.156 70.4556C130.632 70.7662 130.054 70.9215 129.423 70.9215ZM148.942 71.1982C146.438 71.1884 144.283 70.5721 142.477 69.3491C140.682 68.1261 139.298 66.3546 138.328 64.0348C137.367 61.715 136.891 58.9244 136.901 55.663C136.901 52.4113 137.381 49.6402 138.342 47.3494C139.313 45.0587 140.696 43.3164 142.492 42.1225C144.297 40.9189 146.447 40.3171 148.942 40.3171C151.436 40.3171 153.581 40.9189 155.377 42.1225C157.183 43.3261 158.571 45.0733 159.541 47.364C160.512 49.645 160.992 52.4113 160.983 55.663C160.983 58.9341 160.497 61.7295 159.527 64.0494C158.566 66.3692 157.187 68.1406 155.392 69.3636C153.596 70.5866 151.446 71.1982 148.942 71.1982ZM148.942 65.9712C150.65 65.9712 152.014 65.1122 153.033 63.3942C154.052 61.6761 154.557 59.0991 154.547 55.663C154.547 53.4014 154.314 51.5183 153.848 50.0138C153.392 48.5094 152.742 47.3785 151.897 46.6214C151.063 45.8643 150.077 45.4858 148.942 45.4858C147.243 45.4858 145.884 46.3351 144.865 48.0337C143.846 49.7324 143.331 52.2754 143.322 55.663C143.322 57.9537 143.55 59.8659 144.006 61.3995C144.472 62.9234 145.127 64.0688 145.972 64.8356C146.816 65.5927 147.806 65.9712 148.942 65.9712ZM177.669 71.1982C175.165 71.1884 173.01 70.5721 171.205 69.3491C169.409 68.1261 168.026 66.3546 167.055 64.0348C166.094 61.715 165.619 58.9244 165.629 55.663C165.629 52.4113 166.109 49.6402 167.07 47.3494C168.041 45.0587 169.424 43.3164 171.219 42.1225C173.025 40.9189 175.175 40.3171 177.669 40.3171C180.164 40.3171 182.309 40.9189 184.105 42.1225C185.91 43.3261 187.298 45.0733 188.269 47.364C189.239 49.645 189.72 52.4113 189.71 55.663C189.71 58.9341 189.225 61.7295 188.254 64.0494C187.293 66.3692 185.915 68.1406 184.119 69.3636C182.324 70.5866 180.174 71.1982 177.669 71.1982ZM177.669 65.9712C179.378 65.9712 180.741 65.1122 181.761 63.3942C182.78 61.6761 183.285 59.0991 183.275 55.663C183.275 53.4014 183.042 51.5183 182.576 50.0138C182.12 48.5094 181.469 47.3785 180.625 46.6214C179.79 45.8643 178.805 45.4858 177.669 45.4858C175.971 45.4858 174.612 46.3351 173.593 48.0337C172.573 49.7324 172.059 52.2754 172.049 55.663C172.049 57.9537 172.277 59.8659 172.734 61.3995C173.2 62.9234 173.855 64.0688 174.699 64.8356C175.544 65.5927 176.534 65.9712 177.669 65.9712ZM206.397 71.1982C203.893 71.1884 201.738 70.5721 199.932 69.3491C198.137 68.1261 196.754 66.3546 195.783 64.0348C194.822 61.715 194.346 58.9244 194.356 55.663C194.356 52.4113 194.837 49.6402 195.797 47.3494C196.768 45.0587 198.151 43.3164 199.947 42.1225C201.752 40.9189 203.902 40.3171 206.397 40.3171C208.891 40.3171 211.037 40.9189 212.832 42.1225C214.638 43.3261 216.026 45.0733 216.996 47.364C217.967 49.645 218.447 52.4113 218.438 55.663C218.438 58.9341 217.952 61.7295 216.982 64.0494C216.021 66.3692 214.643 68.1406 212.847 69.3636C211.051 70.5866 208.901 71.1982 206.397 71.1982ZM206.397 65.9712C208.105 65.9712 209.469 65.1122 210.488 63.3942C211.507 61.6761 212.012 59.0991 212.002 55.663C212.002 53.4014 211.769 51.5183 211.303 50.0138C210.847 48.5094 210.197 47.3785 209.352 46.6214C208.518 45.8643 207.533 45.4858 206.397 45.4858C204.698 45.4858 203.339 46.3351 202.32 48.0337C201.301 49.7324 200.787 52.2754 200.777 55.663C200.777 57.9537 201.005 59.8659 201.461 61.3995C201.927 62.9234 202.582 64.0688 203.427 64.8356C204.271 65.5927 205.261 65.9712 206.397 65.9712ZM238.984 40.7248L246.191 63.3796H246.468L253.689 40.7248H260.678L250.399 70.543H242.275L231.981 40.7248H238.984ZM289.708 40.7248V70.543H284.262L271.29 51.7756H271.071V70.543H264.767V40.7248H270.3L283.17 59.4776H283.432V40.7248H289.708ZM305.987 70.543H298.226V65.1413H305.725C307.588 65.1413 309.156 64.8113 310.427 64.1513C311.709 63.4815 312.67 62.4478 313.31 61.0501C313.96 59.6426 314.286 57.8275 314.286 55.6048C314.286 53.4014 313.96 51.6009 313.31 50.2031C312.67 48.8054 311.713 47.7765 310.442 47.1165C309.17 46.4564 307.603 46.1264 305.739 46.1264H298.095V40.7248H306.074C309.073 40.7248 311.655 41.3217 313.82 42.5156C315.984 43.6998 317.649 45.4033 318.814 47.6261C319.988 49.8488 320.575 52.5084 320.575 55.6048C320.575 58.7108 319.988 61.3801 318.814 63.6126C317.649 65.8451 315.975 67.5582 313.791 68.7521C311.616 69.946 309.015 70.543 305.987 70.543ZM301.721 40.7248V70.543H295.416V40.7248H301.721ZM291.281 56.6531V52.984H305.797V56.6531H291.281ZM338.616 39.3271L329.007 75.0273H323.663L333.273 39.3271H338.616ZM350.345 70.907C348.647 70.907 347.108 70.4702 345.73 69.5966C344.361 68.7133 343.274 67.4175 342.469 65.7092C341.673 63.9911 341.275 61.8848 341.275 59.3903C341.275 56.8278 341.687 54.6972 342.512 52.9986C343.337 51.2902 344.434 50.0138 345.803 49.1694C347.181 48.3152 348.69 47.8881 350.331 47.8881C351.583 47.8881 352.626 48.1017 353.461 48.5288C354.306 48.9461 354.985 49.4703 355.499 50.1012C356.024 50.7224 356.422 51.3339 356.693 51.9357H356.883V40.7248H363.07V70.543H356.955V66.9613H356.693C356.402 67.5825 355.99 68.1989 355.456 68.8104C354.932 69.4122 354.247 69.9121 353.403 70.31C352.568 70.708 351.549 70.907 350.345 70.907ZM352.311 65.9712C353.311 65.9712 354.155 65.6995 354.844 65.1559C355.543 64.6026 356.077 63.831 356.446 62.8409C356.824 61.8509 357.014 60.6909 357.014 59.3612C357.014 58.0314 356.829 56.8763 356.46 55.896C356.092 54.9156 355.558 54.1585 354.859 53.6246C354.16 53.0908 353.311 52.8239 352.311 52.8239C351.292 52.8239 350.433 53.1005 349.734 53.6538C349.035 54.207 348.506 54.9738 348.147 55.9542C347.788 56.9345 347.608 58.0702 347.608 59.3612C347.608 60.6618 347.788 61.812 348.147 62.8118C348.516 63.8018 349.045 64.5784 349.734 65.1413C350.433 65.6946 351.292 65.9712 352.311 65.9712ZM351.088 46.6506V42.9961H365.618V46.6506H351.088ZM378.774 70.9798C376.513 70.9798 374.557 70.4993 372.907 69.5384C371.266 68.5677 370 67.2185 369.107 65.4908C368.214 63.7533 367.767 61.7392 367.767 59.4485C367.767 57.1384 368.214 55.1194 369.107 53.3917C370 51.6542 371.266 50.305 372.907 49.3441C374.557 48.3735 376.513 47.8881 378.774 47.8881C381.036 47.8881 382.987 48.3735 384.627 49.3441C386.277 50.305 387.549 51.6542 388.442 53.3917C389.335 55.1194 389.781 57.1384 389.781 59.4485C389.781 61.7392 389.335 63.7533 388.442 65.4908C387.549 67.2185 386.277 68.5677 384.627 69.5384C382.987 70.4993 381.036 70.9798 378.774 70.9798ZM378.803 66.1751C379.832 66.1751 380.691 65.8839 381.381 65.3015C382.07 64.7094 382.589 63.9038 382.938 62.8846C383.298 61.8654 383.477 60.7055 383.477 59.4048C383.477 58.1042 383.298 56.9442 382.938 55.9251C382.589 54.9059 382.07 54.1003 381.381 53.5082C380.691 52.9161 379.832 52.62 378.803 52.62C377.765 52.62 376.891 52.9161 376.183 53.5082C375.484 54.1003 374.955 54.9059 374.596 55.9251C374.246 56.9442 374.072 58.1042 374.072 59.4048C374.072 60.7055 374.246 61.8654 374.596 62.8846C374.955 63.9038 375.484 64.7094 376.183 65.3015C376.891 65.8839 377.765 66.1751 378.803 66.1751ZM381.701 45.5004L378.774 41.9478L375.848 45.5004H370.563V45.2965L376.459 38.8903H381.075L386.986 45.2965V45.5004H381.701ZM378.774 78.9148C377.852 78.9148 377.061 78.609 376.401 77.9975C375.741 77.386 375.411 76.6483 375.411 75.7844C375.411 74.9206 375.741 74.1829 376.401 73.5714C377.061 72.9599 377.852 72.6541 378.774 72.6541C379.696 72.6541 380.483 72.9599 381.133 73.5714C381.793 74.1829 382.123 74.9206 382.123 75.7844C382.123 76.6483 381.793 77.386 381.133 77.9975C380.483 78.609 379.696 78.9148 378.774 78.9148ZM394.314 70.543V48.1793H400.517V70.543H394.314ZM397.43 45.2965C396.508 45.2965 395.717 44.9908 395.057 44.3793C394.407 43.758 394.082 43.0155 394.082 42.1516C394.082 41.2975 394.407 40.5646 395.057 39.9531C395.717 39.3319 396.508 39.0213 397.43 39.0213C398.352 39.0213 399.139 39.3319 399.789 39.9531C400.449 40.5646 400.779 41.2975 400.779 42.1516C400.779 43.0155 400.449 43.758 399.789 44.3793C399.139 44.9908 398.352 45.2965 397.43 45.2965ZM413.507 53.8157V70.543H410.028V53.8157H413.507ZM420.372 70.7798C419.571 70.7798 418.858 70.641 418.232 70.3633C417.606 70.0801 417.11 69.6636 416.745 69.1136C416.386 68.5582 416.206 67.8667 416.206 67.0391C416.206 66.3421 416.334 65.7567 416.59 65.283C416.846 64.8093 417.194 64.4281 417.636 64.1396C418.077 63.851 418.578 63.6332 419.138 63.4862C419.705 63.3391 420.298 63.2357 420.919 63.1758C421.649 63.0996 422.237 63.0288 422.683 62.9634C423.13 62.8926 423.454 62.7892 423.655 62.6531C423.857 62.5169 423.957 62.3155 423.957 62.0487V61.9996C423.957 61.4824 423.794 61.0821 423.467 60.799C423.146 60.5159 422.689 60.3743 422.095 60.3743C421.469 60.3743 420.971 60.5131 420.6 60.7908C420.23 61.0631 419.985 61.4061 419.865 61.82L416.647 61.5586C416.811 60.7963 417.132 60.1374 417.611 59.582C418.09 59.0212 418.708 58.591 419.465 58.2915C420.227 57.9866 421.109 57.8342 422.111 57.8342C422.808 57.8342 423.475 57.9158 424.112 58.0792C424.755 58.2425 425.324 58.4957 425.819 58.8388C426.32 59.1818 426.715 59.6229 427.004 60.1619C427.292 60.6955 427.437 61.3353 427.437 62.0813V70.543H424.137V68.8033H424.039C423.837 69.1953 423.568 69.5411 423.23 69.8406C422.893 70.1346 422.487 70.366 422.013 70.5348C421.54 70.6982 420.992 70.7798 420.372 70.7798ZM421.368 68.3786C421.88 68.3786 422.332 68.2778 422.724 68.0763C423.116 67.8694 423.424 67.5917 423.647 67.2433C423.87 66.8948 423.982 66.5 423.982 66.0589V64.7276C423.873 64.7984 423.723 64.8638 423.533 64.9237C423.347 64.9781 423.138 65.0298 422.904 65.0788C422.669 65.1224 422.435 65.1632 422.201 65.2013C421.967 65.234 421.755 65.264 421.564 65.2912C421.156 65.3511 420.799 65.4464 420.494 65.5771C420.189 65.7077 419.952 65.8847 419.784 66.108C419.615 66.3258 419.53 66.598 419.53 66.9247C419.53 67.3984 419.702 67.7605 420.045 68.011C420.393 68.256 420.835 68.3786 421.368 68.3786ZM421.033 56.3803L418.542 52.6641H421.752L423.492 56.3803H421.033ZM430.636 70.543V57.9975H433.952V60.2109H434.099C434.36 59.4759 434.796 58.896 435.406 58.4712C436.016 58.0465 436.745 57.8342 437.595 57.8342C438.455 57.8342 439.188 58.0492 439.792 58.4794C440.396 58.9041 440.799 59.4813 441.001 60.2109H441.131C441.387 59.4922 441.85 58.9177 442.52 58.4876C443.195 58.052 443.993 57.8342 444.913 57.8342C446.084 57.8342 447.034 58.2071 447.764 58.9531C448.499 59.6937 448.866 60.7446 448.866 62.1058V70.543H445.395V62.7919C445.395 62.0949 445.21 61.5722 444.84 61.2237C444.469 60.8752 444.006 60.701 443.451 60.701C442.819 60.701 442.327 60.9025 441.973 61.3054C441.619 61.7029 441.442 62.2283 441.442 62.8817V70.543H438.069V62.7184C438.069 62.1031 437.892 61.613 437.538 61.2482C437.189 60.8834 436.729 60.701 436.157 60.701C435.771 60.701 435.422 60.799 435.112 60.995C434.807 61.1856 434.565 61.4551 434.385 61.8036C434.205 62.1467 434.115 62.5496 434.115 63.0124V70.543H430.636ZM461.091 66.9329L461.099 62.7592H461.605L465.624 57.9975H469.617L464.219 64.3029H463.394L461.091 66.9329ZM457.938 70.543V53.8157H461.417V70.543H457.938ZM465.779 70.543L462.087 65.0788L464.407 62.6204L469.854 70.543H465.779ZM471.825 70.543V57.9975H475.304V70.543H471.825ZM473.572 56.3803C473.055 56.3803 472.611 56.2088 472.241 55.8658C471.876 55.5173 471.694 55.1007 471.694 54.6161C471.694 54.137 471.876 53.7259 472.241 53.3828C472.611 53.0343 473.055 52.8601 473.572 52.8601C474.09 52.8601 474.531 53.0343 474.896 53.3828C475.266 53.7259 475.451 54.137 475.451 54.6161C475.451 55.1007 475.266 55.5173 474.896 55.8658C474.531 56.2088 474.09 56.3803 473.572 56.3803ZM482.071 63.2901V70.543H478.591V57.9975H481.907V60.2109H482.054C482.332 59.4813 482.797 58.9041 483.451 58.4794C484.104 58.0492 484.897 57.8342 485.828 57.8342C486.699 57.8342 487.458 58.0247 488.106 58.4059C488.754 58.787 489.258 59.3316 489.617 60.0394C489.977 60.7418 490.156 61.5804 490.156 62.555V70.543H486.677V63.1758C486.683 62.408 486.486 61.8091 486.089 61.3789C485.692 60.9433 485.144 60.7255 484.447 60.7255C483.979 60.7255 483.565 60.8262 483.206 61.0277C482.852 61.2292 482.574 61.5232 482.373 61.9098C482.177 62.291 482.076 62.7511 482.071 63.2901ZM496.878 63.2901V70.543H493.399V53.8157H496.78V60.2109H496.927C497.21 59.4704 497.668 58.8905 498.299 58.4712C498.931 58.0465 499.723 57.8342 500.676 57.8342C501.547 57.8342 502.307 58.0247 502.955 58.4059C503.608 58.7816 504.115 59.3234 504.474 60.0312C504.839 60.7337 505.019 61.5749 505.013 62.555V70.543H501.534V63.1758C501.539 62.4026 501.343 61.8009 500.946 61.3707C500.554 60.9406 500.004 60.7255 499.296 60.7255C498.822 60.7255 498.403 60.8262 498.038 61.0277C497.679 61.2292 497.395 61.5232 497.189 61.9098C496.987 62.291 496.884 62.7511 496.878 63.2901ZM514.075 75.2475V57.9975H517.505V60.1048H517.66C517.813 59.7672 518.033 59.4241 518.322 59.0756C518.616 58.7217 518.997 58.4277 519.465 58.1935C519.939 57.954 520.527 57.8342 521.229 57.8342C522.144 57.8342 522.988 58.0737 523.761 58.5529C524.535 59.0266 525.153 59.7427 525.615 60.701C526.078 61.6539 526.31 62.8491 526.31 64.2866C526.31 65.686 526.084 66.8675 525.632 67.8313C525.185 68.7897 524.575 69.5166 523.802 70.0121C523.034 70.5021 522.174 70.7472 521.221 70.7472C520.546 70.7472 519.972 70.6355 519.498 70.4123C519.03 70.189 518.646 69.9086 518.346 69.571C518.047 69.228 517.818 68.8822 517.66 68.5337H517.554V75.2475H514.075ZM517.48 64.2702C517.48 65.0162 517.584 65.6669 517.791 66.2223C517.998 66.7777 518.297 67.2106 518.689 67.521C519.081 67.8259 519.558 67.9783 520.119 67.9783C520.685 67.9783 521.164 67.8232 521.556 67.5128C521.948 67.197 522.245 66.7614 522.446 66.206C522.653 65.6451 522.757 64.9999 522.757 64.2702C522.757 63.546 522.656 62.909 522.455 62.359C522.253 61.8091 521.956 61.3789 521.564 61.0685C521.172 60.7582 520.69 60.603 520.119 60.603C519.552 60.603 519.073 60.7527 518.681 61.0522C518.294 61.3517 517.998 61.7764 517.791 62.3263C517.584 62.8763 517.48 63.5243 517.48 64.2702ZM532.609 63.2901V70.543H529.129V53.8157H532.511V60.2109H532.658C532.941 59.4704 533.398 58.8905 534.03 58.4712C534.661 58.0465 535.454 57.8342 536.407 57.8342C537.278 57.8342 538.037 58.0247 538.685 58.4059C539.339 58.7816 539.845 59.3234 540.205 60.0312C540.569 60.7337 540.749 61.5749 540.744 62.555V70.543H537.264V63.1758C537.27 62.4026 537.074 61.8009 536.676 61.3707C536.284 60.9406 535.734 60.7255 535.026 60.7255C534.553 60.7255 534.133 60.8262 533.768 61.0277C533.409 61.2292 533.126 61.5232 532.919 61.9098C532.718 62.291 532.614 62.7511 532.609 63.2901ZM543.982 70.543V57.9975H547.461V70.543H543.982ZM544.48 56.3803L546.212 52.6641H549.43L546.938 56.3803H544.48ZM561.194 70.7472C560.242 70.7472 559.379 70.5021 558.605 70.0121C557.838 69.5166 557.228 68.7897 556.776 67.8313C556.329 66.8675 556.106 65.686 556.106 64.2866C556.106 62.8491 556.337 61.6539 556.8 60.701C557.263 59.7427 557.878 59.0266 558.646 58.5529C559.419 58.0737 560.266 57.8342 561.186 57.8342C561.889 57.8342 562.474 57.954 562.942 58.1935C563.416 58.4277 563.797 58.7217 564.086 59.0756C564.38 59.4241 564.603 59.7672 564.756 60.1048H564.862V53.8157H568.333V70.543H564.903V68.5337H564.756C564.592 68.8822 564.361 69.228 564.061 69.571C563.767 69.9086 563.383 70.189 562.91 70.4123C562.441 70.6355 561.87 70.7472 561.194 70.7472ZM562.297 67.9783C562.858 67.9783 563.332 67.8259 563.718 67.521C564.11 67.2106 564.41 66.7777 564.617 66.2223C564.829 65.6669 564.935 65.0162 564.935 64.2702C564.935 63.5243 564.832 62.8763 564.625 62.3263C564.418 61.7764 564.118 61.3517 563.726 61.0522C563.334 60.7527 562.858 60.603 562.297 60.603C561.725 60.603 561.243 60.7582 560.851 61.0685C560.459 61.3789 560.163 61.8091 559.961 62.359C559.76 62.909 559.659 63.546 559.659 64.2702C559.659 64.9999 559.76 65.6451 559.961 66.206C560.168 66.7614 560.465 67.197 560.851 67.5128C561.243 67.8232 561.725 67.9783 562.297 67.9783ZM561.611 57.1399V55.0898H569.762V57.1399H561.611ZM575.271 70.7798C574.471 70.7798 573.757 70.641 573.131 70.3633C572.505 70.0801 572.009 69.6636 571.645 69.1136C571.285 68.5582 571.106 67.8667 571.106 67.0391C571.106 66.3421 571.234 65.7567 571.489 65.283C571.745 64.8093 572.094 64.4281 572.535 64.1396C572.976 63.851 573.477 63.6332 574.038 63.4862C574.604 63.3391 575.198 63.2357 575.818 63.1758C576.548 63.0996 577.136 63.0288 577.583 62.9634C578.029 62.8926 578.353 62.7892 578.554 62.6531C578.756 62.5169 578.857 62.3155 578.857 62.0487V61.9996C578.857 61.4824 578.693 61.0821 578.367 60.799C578.045 60.5159 577.588 60.3743 576.994 60.3743C576.368 60.3743 575.87 60.5131 575.5 60.7908C575.13 61.0631 574.884 61.4061 574.765 61.82L571.547 61.5586C571.71 60.7963 572.031 60.1374 572.51 59.582C572.99 59.0212 573.608 58.591 574.364 58.2915C575.127 57.9866 576.009 57.8342 577.011 57.8342C577.708 57.8342 578.375 57.9158 579.012 58.0792C579.654 58.2425 580.223 58.4957 580.719 58.8388C581.22 59.1818 581.615 59.6229 581.903 60.1619C582.192 60.6955 582.336 61.3353 582.336 62.0813V70.543H579.036V68.8033H578.938C578.737 69.1953 578.467 69.5411 578.13 69.8406C577.792 70.1346 577.386 70.366 576.913 70.5348C576.439 70.6982 575.892 70.7798 575.271 70.7798ZM576.268 68.3786C576.779 68.3786 577.231 68.2778 577.623 68.0763C578.015 67.8694 578.323 67.5917 578.546 67.2433C578.77 66.8948 578.881 66.5 578.881 66.0589V64.7276C578.772 64.7984 578.623 64.8638 578.432 64.9237C578.247 64.9781 578.037 65.0298 577.803 65.0788C577.569 65.1224 577.335 65.1632 577.101 65.2013C576.866 65.234 576.654 65.264 576.464 65.2912C576.055 65.3511 575.699 65.4464 575.394 65.5771C575.089 65.7077 574.852 65.8847 574.683 66.108C574.514 66.3258 574.43 66.598 574.43 66.9247C574.43 67.3984 574.601 67.7605 574.944 68.011C575.293 68.256 575.734 68.3786 576.268 68.3786ZM578.056 54.1342L581.372 56.6744H578.865L577.133 55.3022L575.394 56.6744H572.902L576.186 54.1342H578.056ZM571.833 52.1822L573.752 55.2369H571.808L569.162 52.1822H571.833ZM593.581 65.2013V57.9975H597.06V70.543H593.719V68.2642H593.589C593.306 68.9993 592.835 69.5901 592.176 70.0366C591.522 70.4831 590.725 70.7063 589.783 70.7063C588.944 70.7063 588.206 70.5157 587.569 70.1346C586.932 69.7534 586.434 69.2116 586.075 68.5092C585.721 67.8068 585.541 66.9656 585.535 65.9854V57.9975H589.015V65.3647C589.02 66.1052 589.219 66.6906 589.611 67.1207C590.003 67.5509 590.529 67.766 591.187 67.766C591.607 67.766 591.999 67.6707 592.364 67.4801C592.728 67.2841 593.022 66.9955 593.246 66.6143C593.474 66.2332 593.586 65.7622 593.581 65.2013ZM612.839 57.9975V60.6112H605.284V57.9975H612.839ZM606.999 54.9918H610.479V66.6879C610.479 67.0091 610.528 67.2596 610.626 67.4393C610.724 67.6135 610.86 67.736 611.034 67.8068C611.214 67.8776 611.421 67.913 611.655 67.913C611.818 67.913 611.982 67.8994 612.145 67.8722C612.308 67.8395 612.434 67.815 612.521 67.7987L613.068 70.3878C612.894 70.4422 612.649 70.5049 612.333 70.5756C612.017 70.6519 611.633 70.6982 611.181 70.7145C610.343 70.7472 609.608 70.6355 608.976 70.3796C608.35 70.1237 607.862 69.7262 607.514 69.1871C607.165 68.6481 606.994 67.9674 606.999 67.1452V54.9918ZM628.87 57.3033H630.887C630.882 58.2507 630.74 59.0457 630.463 59.6882C630.185 60.3253 629.714 60.8045 629.05 61.1257C628.391 61.447 627.49 61.6076 626.346 61.6076V60.0558C627.103 60.0558 627.658 59.955 628.012 59.7536C628.372 59.5521 628.603 59.2499 628.707 58.8469C628.816 58.4386 628.87 57.924 628.87 57.3033ZM623.733 65.2013V57.9975H627.204V70.543H623.871V68.2642H623.741C623.458 68.9993 622.987 69.5901 622.328 70.0366C621.674 70.4831 620.877 70.7063 619.935 70.7063C619.096 70.7063 618.358 70.5157 617.721 70.1346C617.084 69.7534 616.586 69.2116 616.227 68.5092C615.873 67.8068 615.693 66.9656 615.687 65.9854V57.9975H619.167V65.3647C619.167 66.1052 619.363 66.6906 619.755 67.1207C620.152 67.5509 620.681 67.766 621.339 67.766C621.759 67.766 622.148 67.6707 622.507 67.4801C622.872 67.2841 623.166 66.9955 623.39 66.6143C623.618 66.2332 623.733 65.7622 623.733 65.2013ZM638.301 70.543V53.8157H641.78V60.1048H641.887C642.039 59.7672 642.26 59.4241 642.548 59.0756C642.842 58.7217 643.223 58.4277 643.692 58.1935C644.165 57.954 644.753 57.8342 645.456 57.8342C646.371 57.8342 647.215 58.0737 647.988 58.5529C648.761 59.0266 649.379 59.7427 649.842 60.701C650.305 61.6539 650.536 62.8491 650.536 64.2866C650.536 65.686 650.31 66.8675 649.858 67.8313C649.412 68.7897 648.802 69.5166 648.029 70.0121C647.261 70.5021 646.401 70.7472 645.448 70.7472C644.772 70.7472 644.198 70.6355 643.724 70.4123C643.256 70.189 642.872 69.9086 642.573 69.571C642.273 69.228 642.044 68.8822 641.887 68.5337H641.731V70.543H638.301ZM641.707 64.2702C641.707 65.0162 641.81 65.6669 642.017 66.2223C642.224 66.7777 642.524 67.2106 642.916 67.521C643.308 67.8259 643.784 67.9783 644.345 67.9783C644.911 67.9783 645.39 67.8232 645.783 67.5128C646.175 67.197 646.471 66.7614 646.673 66.206C646.88 65.6451 646.983 64.9999 646.983 64.2702C646.983 63.546 646.882 62.909 646.681 62.359C646.48 61.8091 646.183 61.3789 645.791 61.0685C645.399 60.7582 644.917 60.603 644.345 60.603C643.779 60.603 643.3 60.7527 642.908 61.0522C642.521 61.3517 642.224 61.7764 642.017 62.3263C641.81 62.8763 641.707 63.5243 641.707 64.2702ZM656.935 70.7798C656.135 70.7798 655.421 70.641 654.795 70.3633C654.169 70.0801 653.674 69.6636 653.309 69.1136C652.949 68.5582 652.77 67.8667 652.77 67.0391C652.77 66.3421 652.898 65.7567 653.154 65.283C653.409 64.8093 653.758 64.4281 654.199 64.1396C654.64 63.851 655.141 63.6332 655.702 63.4862C656.268 63.3391 656.862 63.2357 657.482 63.1758C658.212 63.0996 658.8 63.0288 659.247 62.9634C659.693 62.8926 660.017 62.7892 660.219 62.6531C660.42 62.5169 660.521 62.3155 660.521 62.0487V61.9996C660.521 61.4824 660.357 61.0821 660.031 60.799C659.709 60.5159 659.252 60.3743 658.659 60.3743C658.032 60.3743 657.534 60.5131 657.164 60.7908C656.794 61.0631 656.549 61.4061 656.429 61.82L653.211 61.5586C653.374 60.7963 653.695 60.1374 654.174 59.582C654.654 59.0212 655.272 58.591 656.029 58.2915C656.791 57.9866 657.673 57.8342 658.675 57.8342C659.372 57.8342 660.039 57.9158 660.676 58.0792C661.318 58.2425 661.887 58.4957 662.383 58.8388C662.884 59.1818 663.279 59.6229 663.567 60.1619C663.856 60.6955 664 61.3353 664 62.0813V70.543H660.7V68.8033H660.602C660.401 69.1953 660.131 69.5411 659.794 69.8406C659.456 70.1346 659.051 70.366 658.577 70.5348C658.103 70.6982 657.556 70.7798 656.935 70.7798ZM657.932 68.3786C658.443 68.3786 658.895 68.2778 659.287 68.0763C659.679 67.8694 659.987 67.5917 660.21 67.2433C660.434 66.8948 660.545 66.5 660.545 66.0589V64.7276C660.436 64.7984 660.287 64.8638 660.096 64.9237C659.911 64.9781 659.701 65.0298 659.467 65.0788C659.233 65.1224 658.999 65.1632 658.765 65.2013C658.531 65.234 658.318 65.264 658.128 65.2912C657.719 65.3511 657.363 65.4464 657.058 65.5771C656.753 65.7077 656.516 65.8847 656.347 66.108C656.178 66.3258 656.094 66.598 656.094 66.9247C656.094 67.3984 656.265 67.7605 656.608 68.011C656.957 68.256 657.398 68.3786 657.932 68.3786ZM670.679 63.2901V70.543H667.2V57.9975H670.516V60.2109H670.663C670.94 59.4813 671.406 58.9041 672.059 58.4794C672.713 58.0492 673.505 57.8342 674.436 57.8342C675.307 57.8342 676.067 58.0247 676.715 58.4059C677.363 58.787 677.866 59.3316 678.226 60.0394C678.585 60.7418 678.765 61.5804 678.765 62.555V70.543H675.285V63.1758C675.291 62.408 675.095 61.8091 674.697 61.3789C674.3 60.9433 673.753 60.7255 673.056 60.7255C672.587 60.7255 672.174 60.8262 671.814 61.0277C671.46 61.2292 671.183 61.5232 670.981 61.9098C670.785 62.291 670.684 62.7511 670.679 63.2901ZM692.453 70.7472C691.5 70.7472 690.637 70.5021 689.864 70.0121C689.096 69.5166 688.487 68.7897 688.035 67.8313C687.588 66.8675 687.365 65.686 687.365 64.2866C687.365 62.8491 687.596 61.6539 688.059 60.701C688.522 59.7427 689.137 59.0266 689.905 58.5529C690.678 58.0737 691.525 57.8342 692.445 57.8342C693.148 57.8342 693.733 57.954 694.201 58.1935C694.675 58.4277 695.056 58.7217 695.345 59.0756C695.639 59.4241 695.862 59.7672 696.014 60.1048H696.121V53.8157H699.592V70.543H696.161V68.5337H696.014C695.851 68.8822 695.62 69.228 695.32 69.571C695.026 69.9086 694.642 70.189 694.168 70.4123C693.7 70.6355 693.128 70.7472 692.453 70.7472ZM693.556 67.9783C694.117 67.9783 694.59 67.8259 694.977 67.521C695.369 67.2106 695.669 66.7777 695.875 66.2223C696.088 65.6669 696.194 65.0162 696.194 64.2702C696.194 63.5243 696.091 62.8763 695.884 62.3263C695.677 61.7764 695.377 61.3517 694.985 61.0522C694.593 60.7527 694.117 60.603 693.556 60.603C692.984 60.603 692.502 60.7582 692.11 61.0685C691.718 61.3789 691.421 61.8091 691.22 62.359C691.018 62.909 690.918 63.546 690.918 64.2702C690.918 64.9999 691.018 65.6451 691.22 66.206C691.427 66.7614 691.724 67.197 692.11 67.5128C692.502 67.8232 692.984 67.9783 693.556 67.9783ZM692.87 57.1399V55.0898H701.021V57.1399H692.87ZM706.53 70.7798C705.729 70.7798 705.016 70.641 704.39 70.3633C703.764 70.0801 703.268 69.6636 702.903 69.1136C702.544 68.5582 702.364 67.8667 702.364 67.0391C702.364 66.3421 702.492 65.7567 702.748 65.283C703.004 64.8093 703.353 64.4281 703.794 64.1396C704.235 63.851 704.736 63.6332 705.297 63.4862C705.863 63.3391 706.456 63.2357 707.077 63.1758C707.807 63.0996 708.395 63.0288 708.841 62.9634C709.288 62.8926 709.612 62.7892 709.813 62.6531C710.015 62.5169 710.115 62.3155 710.115 62.0487V61.9996C710.115 61.4824 709.952 61.0821 709.625 60.799C709.304 60.5159 708.847 60.3743 708.253 60.3743C707.627 60.3743 707.129 60.5131 706.759 60.7908C706.388 61.0631 706.143 61.4061 706.023 61.82L702.805 61.5586C702.969 60.7963 703.29 60.1374 703.769 59.582C704.248 59.0212 704.866 58.591 705.623 58.2915C706.386 57.9866 707.268 57.8342 708.27 57.8342C708.967 57.8342 709.634 57.9158 710.271 58.0792C710.913 58.2425 711.482 58.4957 711.978 58.8388C712.479 59.1818 712.873 59.6229 713.162 60.1619C713.451 60.6955 713.595 61.3353 713.595 62.0813V70.543H710.295V68.8033H710.197C709.996 69.1953 709.726 69.5411 709.389 69.8406C709.051 70.1346 708.645 70.366 708.172 70.5348C707.698 70.6982 707.151 70.7798 706.53 70.7798ZM707.526 68.3786C708.038 68.3786 708.49 68.2778 708.882 68.0763C709.274 67.8694 709.582 67.5917 709.805 67.2433C710.028 66.8948 710.14 66.5 710.14 66.0589V64.7276C710.031 64.7984 709.881 64.8638 709.691 64.9237C709.506 64.9781 709.296 65.0298 709.062 65.0788C708.828 65.1224 708.594 65.1632 708.359 65.2013C708.125 65.234 707.913 65.264 707.722 65.2912C707.314 65.3511 706.957 65.4464 706.652 65.5771C706.347 65.7077 706.111 65.8847 705.942 66.108C705.773 66.3258 705.689 66.598 705.689 66.9247C705.689 67.3984 705.86 67.7605 706.203 68.011C706.552 68.256 706.993 68.3786 707.526 68.3786ZM709.315 54.1342L712.631 56.6744H710.124L708.392 55.3022L706.652 56.6744H704.161L707.445 54.1342H709.315ZM703.091 52.1822L705.011 55.2369H703.067L700.42 52.1822H703.091ZM724.839 65.2013V57.9975H728.319V70.543H724.978V68.2642H724.848C724.564 68.9993 724.093 69.5901 723.435 70.0366C722.781 70.4831 721.983 70.7063 721.041 70.7063C720.203 70.7063 719.465 70.5157 718.828 70.1346C718.191 69.7534 717.693 69.2116 717.333 68.5092C716.979 67.8068 716.8 66.9656 716.794 65.9854V57.9975H720.274V65.3647C720.279 66.1052 720.478 66.6906 720.87 67.1207C721.262 67.5509 721.787 67.766 722.446 67.766C722.866 67.766 723.258 67.6707 723.622 67.4801C723.987 67.2841 724.281 66.9955 724.504 66.6143C724.733 66.2332 724.845 65.7622 724.839 65.2013ZM743.093 70.788C741.808 70.788 740.703 70.5157 739.777 69.9712C738.857 69.4213 738.149 68.659 737.654 67.6843C737.164 66.7096 736.919 65.5879 736.919 64.3192C736.919 63.0342 737.166 61.9071 737.662 60.9379C738.163 59.9632 738.874 59.2036 739.794 58.6591C740.714 58.1091 741.808 57.8342 743.077 57.8342C744.172 57.8342 745.13 58.0329 745.952 58.4304C746.774 58.8279 747.425 59.386 747.904 60.1048C748.383 60.8235 748.647 61.6675 748.696 62.6367H745.413C745.32 62.0105 745.075 61.5069 744.678 61.1257C744.286 60.7391 743.771 60.5458 743.134 60.5458C742.595 60.5458 742.124 60.6928 741.721 60.9869C741.324 61.2754 741.013 61.6974 740.79 62.2528C740.567 62.8082 740.455 63.4807 740.455 64.2702C740.455 65.0707 740.564 65.7513 740.782 66.3121C741.005 66.873 741.318 67.3004 741.721 67.5945C742.124 67.8885 742.595 68.0355 743.134 68.0355C743.532 68.0355 743.888 67.9538 744.204 67.7905C744.525 67.6271 744.79 67.3903 744.996 67.0799C745.209 66.7641 745.348 66.3857 745.413 65.9446H748.696C748.642 66.9029 748.381 67.7469 747.912 68.4766C747.45 69.2008 746.81 69.767 745.993 70.1754C745.176 70.5838 744.21 70.788 743.093 70.788ZM754.904 63.2901V70.543H751.424V53.8157H754.806V60.2109H754.953C755.236 59.4704 755.693 58.8905 756.325 58.4712C756.956 58.0465 757.749 57.8342 758.701 57.8342C759.573 57.8342 760.332 58.0247 760.98 58.4059C761.634 58.7816 762.14 59.3234 762.499 60.0312C762.864 60.7337 763.044 61.5749 763.038 62.555V70.543H759.559V63.1758C759.565 62.4026 759.369 61.8009 758.971 61.3707C758.579 60.9406 758.029 60.7255 757.321 60.7255C756.847 60.7255 756.428 60.8262 756.063 61.0277C755.704 61.2292 755.421 61.5232 755.214 61.9098C755.012 62.291 754.909 62.7511 754.904 63.2901ZM771.945 70.788C770.676 70.788 769.579 70.5185 768.653 69.9794C767.733 69.4349 767.023 68.678 766.522 67.7088C766.021 66.7341 765.77 65.6043 765.77 64.3192C765.77 63.0233 766.021 61.8907 766.522 60.9215C767.023 59.9469 767.733 59.19 768.653 58.6509C769.579 58.1064 770.676 57.8342 771.945 57.8342C773.214 57.8342 774.308 58.1064 775.228 58.6509C776.154 59.19 776.867 59.9469 777.368 60.9215C777.869 61.8907 778.12 63.0233 778.12 64.3192C778.12 65.6043 777.869 66.7341 777.368 67.7088C776.867 68.678 776.154 69.4349 775.228 69.9794C774.308 70.5185 773.214 70.788 771.945 70.788ZM771.961 68.0927C772.539 68.0927 773.02 67.9293 773.407 67.6026C773.794 67.2705 774.085 66.8185 774.281 66.2468C774.482 65.6751 774.583 65.0244 774.583 64.2947C774.583 63.5651 774.482 62.9144 774.281 62.3427C774.085 61.771 773.794 61.319 773.407 60.9869C773.02 60.6547 772.539 60.4886 771.961 60.4886C771.379 60.4886 770.889 60.6547 770.491 60.9869C770.099 61.319 769.802 61.771 769.601 62.3427C769.405 62.9144 769.307 63.5651 769.307 64.2947C769.307 65.0244 769.405 65.6751 769.601 66.2468C769.802 66.8185 770.099 67.2705 770.491 67.6026C770.889 67.9293 771.379 68.0927 771.961 68.0927ZM793.378 57.9975V60.6112H785.823V57.9975H793.378ZM787.538 54.9918H791.018V66.6879C791.018 67.0091 791.067 67.2596 791.165 67.4393C791.263 67.6135 791.399 67.736 791.573 67.8068C791.753 67.8776 791.96 67.913 792.194 67.913C792.357 67.913 792.521 67.8994 792.684 67.8722C792.847 67.8395 792.973 67.815 793.06 67.7987L793.607 70.3878C793.433 70.4422 793.188 70.5049 792.872 70.5756C792.556 70.6519 792.172 70.6982 791.72 70.7145C790.882 70.7472 790.147 70.6355 789.515 70.3796C788.889 70.1237 788.402 69.7262 788.053 69.1871C787.705 68.6481 787.533 67.9674 787.538 67.1452V54.9918ZM796.145 70.543V57.9975H799.624V70.543H796.145ZM797.893 56.3803C797.375 56.3803 796.932 56.2088 796.561 55.8658C796.197 55.5173 796.014 55.1007 796.014 54.6161C796.014 54.137 796.197 53.7259 796.561 53.3828C796.932 53.0343 797.375 52.8601 797.893 52.8601C798.41 52.8601 798.851 53.0343 799.216 53.3828C799.586 53.7259 799.771 54.137 799.771 54.6161C799.771 55.1007 799.586 55.5173 799.216 55.8658C798.851 56.2088 798.41 56.3803 797.893 56.3803ZM808.629 70.788C807.338 70.788 806.227 70.5266 805.296 70.0039C804.371 69.4757 803.657 68.7298 803.156 67.766C802.656 66.7968 802.405 65.6506 802.405 64.3274C802.405 63.0369 802.656 61.9044 803.156 60.9297C803.657 59.955 804.363 59.1954 805.272 58.6509C806.187 58.1064 807.259 57.8342 808.49 57.8342C809.318 57.8342 810.088 57.9676 810.801 58.2344C811.52 58.4957 812.146 58.8905 812.68 59.4187C813.219 59.9469 813.638 60.6112 813.938 61.4116C814.237 62.2066 814.387 63.1377 814.387 64.2049V65.1605H803.794V63.0043H811.112C811.112 62.5033 811.003 62.0595 810.785 61.6729C810.567 61.2863 810.265 60.9841 809.878 60.7663C809.497 60.5431 809.053 60.4315 808.547 60.4315C808.019 60.4315 807.551 60.554 807.142 60.799C806.739 61.0386 806.424 61.3626 806.195 61.771C805.966 62.1739 805.849 62.6231 805.844 63.1186V65.1687C805.844 65.7894 805.958 66.3258 806.187 66.7777C806.421 67.2296 806.75 67.5781 807.175 67.8232C807.6 68.0682 808.103 68.1907 808.686 68.1907C809.073 68.1907 809.426 68.1362 809.748 68.0273C810.069 67.9184 810.344 67.7551 810.573 67.5373C810.801 67.3195 810.976 67.0527 811.095 66.7369L814.313 66.9492C814.15 67.7224 813.815 68.3976 813.309 68.9748C812.808 69.5465 812.16 69.993 811.365 70.3143C810.575 70.6301 809.663 70.788 808.629 70.788ZM804.161 56.6254L807.453 54.0852H809.331L812.639 56.6254H810.132L808.408 55.2532L806.66 56.6254H804.161ZM811.781 55.1879L813.693 52.125H816.388L813.75 55.1879H811.781ZM823.83 57.9975V60.6112H816.275V57.9975H823.83ZM817.991 54.9918H821.47V66.6879C821.47 67.0091 821.519 67.2596 821.617 67.4393C821.715 67.6135 821.851 67.736 822.025 67.8068C822.205 67.8776 822.412 67.913 822.646 67.913C822.81 67.913 822.973 67.8994 823.136 67.8722C823.3 67.8395 823.425 67.815 823.512 67.7987L824.059 70.3878C823.885 70.4422 823.64 70.5049 823.324 70.5756C823.008 70.6519 822.624 70.6982 822.172 70.7145C821.334 70.7472 820.599 70.6355 819.967 70.3796C819.341 70.1237 818.854 69.7262 818.505 69.1871C818.157 68.6481 817.985 67.9674 817.991 67.1452V54.9918ZM832.42 70.543V57.9975H835.736V60.2109H835.883C836.145 59.4759 836.58 58.896 837.19 58.4712C837.8 58.0465 838.53 57.8342 839.379 57.8342C840.239 57.8342 840.972 58.0492 841.576 58.4794C842.181 58.9041 842.583 59.4813 842.785 60.2109H842.916C843.172 59.4922 843.634 58.9177 844.304 58.4876C844.979 58.052 845.777 57.8342 846.697 57.8342C847.868 57.8342 848.818 58.2071 849.548 58.9531C850.283 59.6937 850.65 60.7446 850.65 62.1058V70.543H847.179V62.7919C847.179 62.0949 846.994 61.5722 846.624 61.2237C846.253 60.8752 845.791 60.701 845.235 60.701C844.604 60.701 844.111 60.9025 843.757 61.3054C843.403 61.7029 843.226 62.2283 843.226 62.8817V70.543H839.853V62.7184C839.853 62.1031 839.676 61.613 839.322 61.2482C838.973 60.8834 838.513 60.701 837.942 60.701C837.555 60.701 837.206 60.799 836.896 60.995C836.591 61.1856 836.349 61.4551 836.169 61.8036C835.989 62.1467 835.9 62.5496 835.9 63.0124V70.543H832.42ZM861.944 65.2013V57.9975H865.423V70.543H862.083V68.2642H861.952C861.669 68.9993 861.198 69.5901 860.539 70.0366C859.886 70.4831 859.088 70.7063 858.146 70.7063C857.307 70.7063 856.57 70.5157 855.932 70.1346C855.295 69.7534 854.797 69.2116 854.438 68.5092C854.084 67.8068 853.904 66.9656 853.899 65.9854V57.9975H857.378V65.3647C857.384 66.1052 857.582 66.6906 857.974 67.1207C858.366 67.5509 858.892 67.766 859.551 67.766C859.97 67.766 860.362 67.6707 860.727 67.4801C861.092 67.2841 861.386 66.9955 861.609 66.6143C861.838 66.2332 861.949 65.7622 861.944 65.2013ZM860.188 75.2393C859.671 75.2393 859.227 75.0678 858.856 74.7248C858.486 74.3817 858.301 73.9679 858.301 73.4833C858.301 72.9987 858.486 72.5849 858.856 72.2418C859.227 71.8988 859.671 71.7273 860.188 71.7273C860.705 71.7273 861.146 71.8988 861.511 72.2418C861.881 72.5849 862.066 72.9987 862.066 73.4833C862.066 73.9679 861.881 74.3817 861.511 74.7248C861.146 75.0678 860.705 75.2393 860.188 75.2393ZM874.375 70.788C873.09 70.788 871.984 70.5157 871.059 69.9712C870.138 69.4213 869.431 68.659 868.935 67.6843C868.445 66.7096 868.2 65.5879 868.2 64.3192C868.2 63.0342 868.448 61.9071 868.943 60.9379C869.444 59.9632 870.155 59.2036 871.075 58.6591C871.995 58.1091 873.09 57.8342 874.358 57.8342C875.453 57.8342 876.411 58.0329 877.233 58.4304C878.056 58.8279 878.706 59.386 879.185 60.1048C879.665 60.8235 879.929 61.6675 879.978 62.6367H876.694C876.602 62.0105 876.357 61.5069 875.959 61.1257C875.567 60.7391 875.053 60.5458 874.416 60.5458C873.876 60.5458 873.405 60.6928 873.003 60.9869C872.605 61.2754 872.295 61.6974 872.071 62.2528C871.848 62.8082 871.737 63.4807 871.737 64.2702C871.737 65.0707 871.845 65.7513 872.063 66.3121C872.287 66.873 872.6 67.3004 873.003 67.5945C873.405 67.8885 873.876 68.0355 874.416 68.0355C874.813 68.0355 875.17 67.9538 875.485 67.7905C875.807 67.6271 876.071 67.3903 876.278 67.0799C876.49 66.7641 876.629 66.3857 876.694 65.9446H879.978C879.923 66.9029 879.662 67.7469 879.194 68.4766C878.731 69.2008 878.091 69.767 877.274 70.1754C876.457 70.5838 875.491 70.788 874.375 70.788ZM899.686 59.2227C899.571 58.8252 899.411 58.474 899.204 58.169C898.997 57.8587 898.744 57.5973 898.444 57.3849C898.15 57.1671 897.812 57.0011 897.431 56.8867C897.056 56.7724 896.639 56.7152 896.182 56.7152C895.327 56.7152 894.575 56.9276 893.927 57.3523C893.285 57.777 892.784 58.395 892.425 59.2063C892.065 60.0122 891.886 60.9978 891.886 62.163C891.886 63.3282 892.062 64.3192 892.416 65.136C892.77 65.9528 893.271 66.5762 893.919 67.0064C894.567 67.4311 895.332 67.6435 896.214 67.6435C897.015 67.6435 897.698 67.5019 898.264 67.2188C898.836 66.9302 899.272 66.5245 899.571 66.0018C899.876 65.479 900.029 64.861 900.029 64.1477L900.747 64.2539H896.435V61.5913H903.435V63.6985C903.435 65.1687 903.124 66.4319 902.503 67.4883C901.883 68.5392 901.028 69.3505 899.939 69.9222C898.85 70.4885 897.603 70.7717 896.198 70.7717C894.63 70.7717 893.252 70.4259 892.065 69.7344C890.878 69.0374 889.953 68.0491 889.288 66.7695C888.629 65.4845 888.3 63.9599 888.3 62.1957C888.3 60.8398 888.496 59.631 888.888 58.5692C889.285 57.502 889.841 56.5981 890.554 55.8576C891.268 55.1171 892.098 54.5535 893.045 54.1669C893.993 53.7803 895.019 53.587 896.125 53.587C897.072 53.587 897.954 53.7259 898.771 54.0036C899.588 54.2758 900.312 54.6624 900.943 55.1634C901.58 55.6643 902.1 56.2605 902.503 56.9521C902.906 57.6381 903.165 58.395 903.279 59.2227H899.686ZM912.194 70.788C910.925 70.788 909.828 70.5185 908.902 69.9794C907.982 69.4349 907.272 68.678 906.771 67.7088C906.27 66.7341 906.019 65.6043 906.019 64.3192C906.019 63.0233 906.27 61.8907 906.771 60.9215C907.272 59.9469 907.982 59.19 908.902 58.6509C909.828 58.1064 910.925 57.8342 912.194 57.8342C913.463 57.8342 914.557 58.1064 915.477 58.6509C916.403 59.19 917.116 59.9469 917.617 60.9215C918.118 61.8907 918.369 63.0233 918.369 64.3192C918.369 65.6043 918.118 66.7341 917.617 67.7088C917.116 68.678 916.403 69.4349 915.477 69.9794C914.557 70.5185 913.463 70.788 912.194 70.788ZM912.21 68.0927C912.788 68.0927 913.269 67.9293 913.656 67.6026C914.043 67.2705 914.334 66.8185 914.53 66.2468C914.731 65.6751 914.832 65.0244 914.832 64.2947C914.832 63.5651 914.731 62.9144 914.53 62.3427C914.334 61.771 914.043 61.319 913.656 60.9869C913.269 60.6547 912.788 60.4886 912.21 60.4886C911.628 60.4886 911.138 60.6547 910.74 60.9869C910.348 61.319 910.051 61.771 909.85 62.3427C909.654 62.9144 909.556 63.5651 909.556 64.2947C909.556 65.0244 909.654 65.6751 909.85 66.2468C910.051 66.8185 910.348 67.2705 910.74 67.6026C911.138 67.9293 911.628 68.0927 912.21 68.0927ZM927.804 57.9975V60.6112H920.249V57.9975H927.804ZM921.964 54.9918H925.444V66.6879C925.444 67.0091 925.493 67.2596 925.591 67.4393C925.689 67.6135 925.825 67.736 925.999 67.8068C926.179 67.8776 926.386 67.913 926.62 67.913C926.783 67.913 926.947 67.8994 927.11 67.8722C927.273 67.8395 927.398 67.815 927.486 67.7987L928.033 70.3878C927.859 70.4422 927.614 70.5049 927.298 70.5756C926.982 70.6519 926.598 70.6982 926.146 70.7145C925.308 70.7472 924.572 70.6355 923.941 70.3796C923.315 70.1237 922.827 69.7262 922.479 69.1871C922.13 68.6481 921.959 67.9674 921.964 67.1452V54.9918ZM935.822 56.7315V53.8157H949.56V56.7315H944.439V70.543H940.943V56.7315H935.822ZM954.128 70.7798C953.327 70.7798 952.614 70.641 951.988 70.3633C951.361 70.0801 950.866 69.6636 950.501 69.1136C950.142 68.5582 949.962 67.8667 949.962 67.0391C949.962 66.3421 950.09 65.7567 950.346 65.283C950.602 64.8093 950.95 64.4281 951.391 64.1396C951.832 63.851 952.333 63.6332 952.894 63.4862C953.461 63.3391 954.054 63.2357 954.675 63.1758C955.404 63.0996 955.992 63.0288 956.439 62.9634C956.885 62.8926 957.209 62.7892 957.411 62.6531C957.612 62.5169 957.713 62.3155 957.713 62.0487V61.9996C957.713 61.4824 957.55 61.0821 957.223 60.799C956.902 60.5159 956.444 60.3743 955.851 60.3743C955.225 60.3743 954.726 60.5131 954.356 60.7908C953.986 61.0631 953.741 61.4061 953.621 61.82L950.403 61.5586C950.566 60.7963 950.888 60.1374 951.367 59.582C951.846 59.0212 952.464 58.591 953.221 58.2915C953.983 57.9866 954.865 57.8342 955.867 57.8342C956.564 57.8342 957.231 57.9158 957.868 58.0792C958.511 58.2425 959.08 58.4957 959.575 58.8388C960.076 59.1818 960.471 59.6229 960.76 60.1619C961.048 60.6955 961.193 61.3353 961.193 62.0813V70.543H957.893V68.8033H957.795C957.593 69.1953 957.324 69.5411 956.986 69.8406C956.649 70.1346 956.243 70.366 955.769 70.5348C955.295 70.6982 954.748 70.7798 954.128 70.7798ZM955.124 68.3786C955.636 68.3786 956.088 68.2778 956.48 68.0763C956.872 67.8694 957.179 67.5917 957.403 67.2433C957.626 66.8948 957.738 66.5 957.738 66.0589V64.7276C957.629 64.7984 957.479 64.8638 957.288 64.9237C957.103 64.9781 956.894 65.0298 956.659 65.0788C956.425 65.1224 956.191 65.1632 955.957 65.2013C955.723 65.234 955.511 65.264 955.32 65.2912C954.912 65.3511 954.555 65.4464 954.25 65.5771C953.945 65.7077 953.708 65.8847 953.539 66.108C953.371 66.3258 953.286 66.598 953.286 66.9247C953.286 67.3984 953.458 67.7605 953.801 68.011C954.149 68.256 954.59 68.3786 955.124 68.3786ZM967.871 53.8157V70.543H964.392V53.8157H967.871ZM976.876 70.788C975.585 70.788 974.475 70.5266 973.543 70.0039C972.618 69.4757 971.904 68.7298 971.404 67.766C970.903 66.7968 970.652 65.6506 970.652 64.3274C970.652 63.0369 970.903 61.9044 971.404 60.9297C971.904 59.955 972.61 59.1954 973.519 58.6509C974.434 58.1064 975.506 57.8342 976.737 57.8342C977.565 57.8342 978.335 57.9676 979.048 58.2344C979.767 58.4957 980.393 58.8905 980.927 59.4187C981.466 59.9469 981.885 60.6112 982.185 61.4116C982.484 62.2066 982.634 63.1377 982.634 64.2049V65.1605H972.041V63.0043H979.359C979.359 62.5033 979.25 62.0595 979.032 61.6729C978.814 61.2863 978.512 60.9841 978.125 60.7663C977.744 60.5431 977.301 60.4315 976.794 60.4315C976.266 60.4315 975.798 60.554 975.389 60.799C974.986 61.0386 974.671 61.3626 974.442 61.771C974.213 62.1739 974.096 62.6231 974.091 63.1186V65.1687C974.091 65.7894 974.205 66.3258 974.434 66.7777C974.668 67.2296 974.997 67.5781 975.422 67.8232C975.847 68.0682 976.35 68.1907 976.933 68.1907C977.32 68.1907 977.674 68.1362 977.995 68.0273C978.316 67.9184 978.591 67.7551 978.82 67.5373C979.048 67.3195 979.223 67.0527 979.342 66.7369L982.561 66.9492C982.397 67.7224 982.062 68.3976 981.556 68.9748C981.055 69.5465 980.407 69.993 979.612 70.3143C978.822 70.6301 977.91 70.788 976.876 70.788ZM988.884 63.2901V70.543H985.405V57.9975H988.721V60.2109H988.868C989.145 59.4813 989.611 58.9041 990.264 58.4794C990.918 58.0492 991.71 57.8342 992.641 57.8342C993.512 57.8342 994.272 58.0247 994.92 58.4059C995.568 58.787 996.072 59.3316 996.431 60.0394C996.79 60.7418 996.97 61.5804 996.97 62.555V70.543H993.491V63.1758C993.496 62.408 993.3 61.8091 992.902 61.3789C992.505 60.9433 991.958 60.7255 991.261 60.7255C990.793 60.7255 990.379 60.8262 990.019 61.0277C989.665 61.2292 989.388 61.5232 989.186 61.9098C988.99 62.291 988.889 62.7511 988.884 63.2901ZM1006.89 57.9975V60.6112H999.33V57.9975H1006.89ZM1001.05 54.9918H1004.52V66.6879C1004.52 67.0091 1004.57 67.2596 1004.67 67.4393C1004.77 67.6135 1004.91 67.736 1005.08 67.8068C1005.26 67.8776 1005.47 67.913 1005.7 67.913C1005.86 67.913 1006.03 67.8994 1006.19 67.8722C1006.35 67.8395 1006.48 67.815 1006.57 67.7987L1007.11 70.3878C1006.94 70.4422 1006.69 70.5049 1006.38 70.5756C1006.06 70.6519 1005.68 70.6982 1005.23 70.7145C1004.39 70.7472 1003.65 70.6355 1003.02 70.3796C1002.4 70.1237 1001.91 69.7262 1001.56 69.1871C1001.21 68.6481 1001.04 67.9674 1001.05 67.1452V54.9918ZM1013.81 53.8157L1013.49 65.5281H1010.5L1010.17 53.8157H1013.81ZM1012 70.7553C1011.46 70.7553 1010.99 70.5647 1010.61 70.1836C1010.22 69.797 1010.03 69.3342 1010.04 68.7951C1010.03 68.2615 1010.22 67.8041 1010.61 67.4229C1010.99 67.0418 1011.46 66.8512 1012 66.8512C1012.51 66.8512 1012.97 67.0418 1013.36 67.4229C1013.75 67.8041 1013.95 68.2615 1013.96 68.7951C1013.95 69.1545 1013.86 69.4839 1013.67 69.7834C1013.49 70.0774 1013.25 70.3143 1012.96 70.494C1012.67 70.6682 1012.34 70.7553 1012 70.7553Z" fill="#1E1E1E"/>
</svg>
