<svg width="167" height="232" viewBox="0 0 167 232" fill="none" xmlns="http://www.w3.org/2000/svg">
<path d="M131.848 0H34.5967L41.2365 36.4442H131.848V0Z" fill="url(#paint0_linear_8632_2889)"/>
<g opacity="0.75" style="mix-blend-mode:multiply">
<path d="M46.4286 0H34.5967L41.2365 36.4442H65.9487L46.4286 0Z" fill="#389C5E"/>
</g>
<g opacity="0.75" style="mix-blend-mode:multiply">
<path d="M120.016 0H131.848L125.208 36.4442H100.496L120.016 0Z" fill="#389C5E"/>
</g>
<path d="M131.848 0L63.3025 120.516H103.092L166.395 20.8181L131.848 0Z" fill="url(#paint1_linear_8632_2889)"/>
<path d="M159.606 16.6229L94.4058 120.514H71.5408L138.738 3.99219L159.606 16.6229Z" fill="url(#paint2_linear_8632_2889)"/>
<g opacity="0.5" style="mix-blend-mode:multiply">
<path d="M89.2128 75.0371L63.3025 120.517H103.092L111.079 107.937L89.2128 75.0371Z" fill="#771A1F"/>
</g>
<path d="M81.8749 101.992C81.8749 101.992 81.7252 101.992 81.6753 101.992C81.6253 101.992 81.5255 101.992 81.4756 101.992C39.9391 101.992 47.9768 131.098 50.8225 138.037C51.0721 137.787 51.3217 137.588 51.5713 137.338C52.0206 136.939 52.47 136.589 53.0191 136.29C53.0191 136.29 53.069 136.29 53.119 136.24C53.4684 136.04 58.5606 135.84 58.96 135.641C56.6136 127.004 51.1719 112.476 81.4756 112.276C81.5255 112.276 81.6253 112.276 81.6753 112.276C81.7252 112.276 81.825 112.276 81.8749 112.276C112.179 112.476 106.787 127.004 104.39 135.641C104.79 135.84 109.832 135.99 110.232 136.24C110.232 136.24 110.281 136.24 110.331 136.29C110.831 136.589 111.33 136.939 111.779 137.338C112.029 137.538 112.278 137.787 112.528 138.037C115.324 131.048 123.411 101.992 81.8749 101.992Z" fill="url(#paint3_radial_8632_2889)"/>
<path d="M81.8749 101.992C81.8749 101.992 81.7252 101.992 81.6753 101.992C81.6253 101.992 81.5255 101.992 81.4756 101.992C39.9391 101.992 47.9768 131.098 50.8225 138.037C51.0721 137.787 51.3217 137.588 51.5713 137.338C52.0206 136.939 52.47 136.589 53.0191 136.29C53.0191 136.29 53.069 136.29 53.119 136.24C53.4684 136.04 58.5606 135.84 58.96 135.641C56.6136 127.004 51.1719 112.476 81.4756 112.276C81.5255 112.276 81.6253 112.276 81.6753 112.276C81.7252 112.276 81.825 112.276 81.8749 112.276C112.179 112.476 106.787 127.004 104.39 135.641C104.79 135.84 109.832 135.99 110.232 136.24C110.232 136.24 110.281 136.24 110.331 136.29C110.831 136.589 111.33 136.939 111.779 137.338C112.029 137.538 112.278 137.787 112.528 138.037C115.324 131.048 123.411 101.992 81.8749 101.992Z" fill="url(#paint4_linear_8632_2889)"/>
<path opacity="0.75" d="M81.8749 101.992C81.8749 101.992 81.7252 101.992 81.6753 101.992C81.6253 101.992 81.5255 101.992 81.4756 101.992C39.9391 101.992 47.9768 131.098 50.8225 138.037C50.9722 137.887 51.122 137.737 51.2718 137.588C48.1266 128.701 43.0843 103.14 81.4756 103.14C81.5255 103.14 81.6253 103.14 81.6753 103.14C81.7252 103.14 81.825 103.14 81.8749 103.14C120.316 103.14 115.224 128.701 112.079 137.588C112.228 137.737 112.378 137.887 112.528 138.037C115.324 131.048 123.411 101.992 81.8749 101.992Z" fill="url(#paint5_radial_8632_2889)"/>
<path opacity="0.55" d="M57.2121 123.36C54.0669 124.309 51.0715 124.908 48.3257 126.705C48.5753 131.598 49.9232 135.891 50.8219 138.038C51.0715 137.788 51.3211 137.589 51.5707 137.339C52.02 136.94 52.4693 136.59 53.0185 136.291C53.0185 136.291 53.0684 136.291 53.1183 136.241C53.4678 136.041 58.56 135.841 58.9594 135.642C58.0109 132.097 56.5132 127.504 57.2121 123.36Z" fill="url(#paint6_linear_8632_2889)" style="mix-blend-mode:multiply"/>
<path opacity="0.55" d="M106.037 122.762C107.036 127.055 105.438 131.898 104.39 135.642C104.789 135.842 109.832 135.991 110.231 136.241C110.231 136.241 110.281 136.241 110.331 136.291C110.83 136.591 111.329 136.94 111.779 137.339C112.028 137.539 112.278 137.789 112.527 138.038C113.426 135.842 114.824 131.398 115.024 126.406C111.679 124.259 106.836 123.061 106.037 122.762Z" fill="url(#paint7_linear_8632_2889)" style="mix-blend-mode:multiply"/>
<path opacity="0.55" d="M81.8747 109.831C81.8747 109.831 81.7749 109.831 81.725 109.831C81.6751 109.831 81.6251 109.831 81.5752 109.831C52.0704 109.831 53.2186 125.707 55.1157 136.74C55.3154 136.64 58.6103 135.841 59.0097 135.691C56.6633 127.055 51.2217 112.527 81.5253 112.327C81.5752 112.327 81.6751 112.327 81.725 112.327C81.7749 112.327 81.8747 112.327 81.9247 112.327C112.228 112.527 106.837 127.055 104.44 135.691C104.84 135.891 108.135 136.64 108.334 136.74C110.231 125.707 111.43 109.831 81.8747 109.831Z" fill="url(#paint8_radial_8632_2889)" style="mix-blend-mode:multiply"/>
<path d="M0 20.8181L63.3031 120.516H103.092L34.5471 0L0 20.8181Z" fill="url(#paint9_linear_8632_2889)"/>
<path d="M7.03857 16.6229L72.2388 120.514H95.0539L27.9066 3.99219L7.03857 16.6229Z" fill="url(#paint10_linear_8632_2889)"/>
<mask id="mask0_8632_2889" style="mask-type:luminance" maskUnits="userSpaceOnUse" x="26" y="121" width="112" height="111">
<path d="M81.8753 231.546C112.342 231.546 137.041 206.848 137.041 176.38C137.041 145.913 112.342 121.215 81.8753 121.215C51.4082 121.215 26.7097 145.913 26.7097 176.38C26.7097 206.848 51.4082 231.546 81.8753 231.546Z" fill="white"/>
</mask>
<g mask="url(#mask0_8632_2889)">
<path d="M81.8753 231.546C112.342 231.546 137.041 206.848 137.041 176.38C137.041 145.913 112.342 121.215 81.8753 121.215C51.4082 121.215 26.7097 145.913 26.7097 176.38C26.7097 206.848 51.4082 231.546 81.8753 231.546Z" fill="url(#paint11_linear_8632_2889)"/>
<path opacity="0.75" d="M81.8753 121.215C51.4219 121.215 26.7097 145.927 26.7097 176.38C26.7097 206.834 51.4219 231.546 81.8753 231.546C112.329 231.546 137.041 206.834 137.041 176.38C137.041 145.927 112.329 121.215 81.8753 121.215ZM81.8753 230.048C52.2207 230.048 28.2074 206.035 28.2074 176.38C28.2074 146.726 52.2207 122.713 81.8753 122.713C111.53 122.713 135.543 146.726 135.543 176.38C135.543 206.035 111.53 230.048 81.8753 230.048Z" fill="url(#paint12_radial_8632_2889)"/>
<path opacity="0.75" d="M124.154 186.947C129.977 163.592 115.764 139.938 92.4087 134.115C69.0533 128.292 45.3994 142.504 39.5762 165.86C33.7531 189.215 47.9658 212.869 71.3212 218.692C94.6766 224.515 118.33 210.303 124.154 186.947Z" fill="url(#paint13_radial_8632_2889)"/>
<path d="M81.8755 218.517C105.146 218.517 124.011 199.652 124.011 176.382C124.011 153.111 105.146 134.246 81.8755 134.246C58.6047 134.246 39.74 153.111 39.74 176.382C39.74 199.652 58.6047 218.517 81.8755 218.517Z" fill="url(#paint14_linear_8632_2889)"/>
<g opacity="0.75">
<g style="mix-blend-mode:multiply" opacity="0.85">
<path d="M116.272 181.475C115.573 181.375 115.074 180.726 115.224 180.077C115.324 179.428 115.873 178.879 116.572 178.929C117.271 178.929 117.82 179.628 117.77 180.327C117.67 181.026 117.021 181.575 116.322 181.425L116.272 181.475Z" fill="url(#paint15_linear_8632_2889)"/>
<path d="M115.175 186.415C114.526 186.216 114.076 185.517 114.276 184.868C114.426 184.219 115.125 183.819 115.824 183.969C116.523 184.119 116.922 184.818 116.722 185.517C116.523 186.216 115.824 186.615 115.175 186.415Z" fill="url(#paint16_linear_8632_2889)"/>
<path d="M113.327 191.158C112.678 190.858 112.428 190.109 112.728 189.51C112.977 188.861 113.676 188.562 114.325 188.811C114.974 189.061 115.324 189.81 115.074 190.509C114.775 191.158 113.976 191.457 113.377 191.158H113.327Z" fill="url(#paint17_linear_8632_2889)"/>
<path d="M110.881 195.604C110.281 195.204 110.132 194.406 110.431 193.856C110.731 193.307 111.58 193.108 112.179 193.457C112.778 193.807 112.977 194.555 112.628 195.204C112.229 195.853 111.48 196.003 110.881 195.604Z" fill="url(#paint18_linear_8632_2889)"/>
<path d="M107.736 199.596C107.236 199.146 107.137 198.348 107.636 197.848C108.085 197.349 108.834 197.249 109.383 197.649C109.932 198.048 110.032 198.897 109.583 199.446C109.084 199.995 108.285 200.045 107.736 199.596Z" fill="url(#paint19_linear_8632_2889)"/>
<path d="M104.141 203.139C103.691 202.59 103.741 201.791 104.24 201.342C104.74 200.893 105.538 200.943 106.038 201.442C106.537 201.941 106.487 202.74 105.938 203.239C105.389 203.739 104.59 203.689 104.141 203.139Z" fill="url(#paint20_linear_8632_2889)"/>
<path d="M99.9974 206.037C99.648 205.438 99.7977 204.689 100.397 204.34C100.946 203.99 101.695 204.09 102.144 204.639C102.544 205.188 102.444 206.037 101.795 206.436C101.146 206.836 100.347 206.636 99.9974 206.037Z" fill="url(#paint21_linear_8632_2889)"/>
<path d="M95.504 208.431C95.2544 207.782 95.5041 207.033 96.1031 206.734C96.7022 206.434 97.4511 206.734 97.8005 207.333C98.15 207.932 97.8505 208.731 97.2015 209.03C96.5524 209.33 95.8036 209.03 95.504 208.431Z" fill="url(#paint22_linear_8632_2889)"/>
<path d="M90.662 210.031C90.5122 209.332 90.8617 208.683 91.5107 208.483C92.1597 208.333 92.8586 208.633 93.0583 209.282C93.3079 209.931 92.9085 210.73 92.2096 210.929C91.5107 211.129 90.7618 210.73 90.6121 210.031H90.662Z" fill="url(#paint23_linear_8632_2889)"/>
<path d="M85.6698 210.979C85.6199 210.28 86.0692 209.631 86.7182 209.531C87.3672 209.431 88.0162 209.931 88.166 210.58C88.3157 211.279 87.8165 211.928 87.1176 212.027C86.4187 212.127 85.7696 211.678 85.6698 210.979Z" fill="url(#paint24_linear_8632_2889)"/>
<path d="M80.6264 211.128C80.6264 210.429 81.2255 209.88 81.8745 209.93C82.5235 209.93 83.1226 210.429 83.1226 211.128C83.1226 211.827 82.5735 212.426 81.8745 212.476C81.1257 212.476 80.5765 211.827 80.6264 211.128Z" fill="url(#paint25_linear_8632_2889)"/>
<path d="M75.5845 210.581C75.7343 209.882 76.3833 209.433 77.0323 209.532C77.6813 209.632 78.1805 210.281 78.0807 210.98C77.9809 211.679 77.3818 212.178 76.6329 212.029C75.934 211.929 75.4347 211.28 75.5845 210.581Z" fill="url(#paint26_linear_8632_2889)"/>
<path d="M70.642 209.28C70.8916 208.581 71.5406 208.282 72.1897 208.482C72.8387 208.631 73.2381 209.33 73.0384 210.029C72.8886 210.728 72.1397 211.128 71.4408 210.928C70.7419 210.728 70.3924 209.979 70.5921 209.28H70.642Z" fill="url(#paint27_linear_8632_2889)"/>
<path d="M65.9987 207.333C66.3481 206.734 67.097 206.434 67.6961 206.734C68.2952 207.033 68.5947 207.782 68.2952 208.431C68.0455 209.08 67.2468 209.33 66.5978 209.03C65.9488 208.731 65.6492 207.932 65.9987 207.333Z" fill="url(#paint28_linear_8632_2889)"/>
<path d="M61.6558 204.635C62.0552 204.036 62.804 203.936 63.4031 204.335C63.9522 204.685 64.1519 205.434 63.8025 206.033C63.453 206.632 62.6542 206.832 62.0052 206.432C61.4061 206.033 61.2564 205.184 61.6558 204.635Z" fill="url(#paint29_linear_8632_2889)"/>
<path d="M57.7622 201.394C58.2615 200.895 59.0602 200.845 59.5595 201.294C60.0587 201.744 60.1086 202.542 59.6593 203.092C59.21 203.641 58.4112 203.691 57.8621 203.191C57.3129 202.692 57.263 201.893 57.7622 201.394Z" fill="url(#paint30_linear_8632_2889)"/>
<path d="M54.3674 197.647C54.9166 197.198 55.7154 197.298 56.1147 197.847C56.5641 198.346 56.5141 199.145 56.0149 199.594C55.5157 200.044 54.667 199.994 54.1677 199.444C53.7184 198.895 53.8183 198.047 54.3674 197.647Z" fill="url(#paint31_linear_8632_2889)"/>
<path d="M51.5717 193.402C52.1708 193.053 52.9695 193.253 53.319 193.802C53.6685 194.351 53.4688 195.15 52.8697 195.549C52.2706 195.948 51.5218 195.749 51.1224 195.15C50.723 194.551 50.9227 193.752 51.5717 193.402Z" fill="url(#paint32_linear_8632_2889)"/>
<path d="M49.4245 188.811C50.0735 188.562 50.7725 188.861 51.0221 189.51C51.3216 190.109 51.0221 190.858 50.423 191.158C49.774 191.457 49.0252 191.158 48.7256 190.509C48.476 189.81 48.7755 189.061 49.4745 188.811H49.4245Z" fill="url(#paint33_linear_8632_2889)"/>
<path d="M47.9265 183.969C48.6254 183.819 49.3243 184.219 49.4741 184.868C49.6239 185.517 49.2245 186.216 48.5755 186.415C47.9265 186.615 47.2275 186.216 47.0278 185.517C46.8282 184.818 47.2775 184.119 47.9265 183.969Z" fill="url(#paint34_linear_8632_2889)"/>
<path d="M47.2275 178.926C47.9265 178.926 48.4756 179.375 48.5755 180.074C48.6753 180.723 48.1761 181.372 47.5271 181.472C46.8281 181.572 46.1791 181.072 46.0793 180.374C45.9794 179.625 46.5785 179.026 47.2775 178.976L47.2275 178.926Z" fill="url(#paint35_linear_8632_2889)"/>
<path d="M47.2278 173.837C47.9267 173.887 48.4759 174.486 48.426 175.135C48.426 175.784 47.777 176.333 47.078 176.333C46.3791 176.333 45.8299 175.734 45.8799 175.035C45.8799 174.286 46.5289 173.737 47.2278 173.837Z" fill="url(#paint36_linear_8632_2889)"/>
<path d="M47.9271 168.843C48.626 168.993 49.0254 169.642 48.9256 170.34C48.8257 170.989 48.1767 171.439 47.4778 171.389C46.7788 171.339 46.3295 170.64 46.4294 169.891C46.5292 169.142 47.2282 168.743 47.9271 168.893V168.843Z" fill="url(#paint37_linear_8632_2889)"/>
<path d="M49.4249 163.999C50.0739 164.249 50.4234 164.998 50.1738 165.597C49.9242 166.246 49.2252 166.595 48.5762 166.396C47.8773 166.196 47.5278 165.447 47.7774 164.798C48.0271 164.099 48.7759 163.75 49.4249 163.999Z" fill="url(#paint38_linear_8632_2889)"/>
<path d="M51.5708 159.358C52.1699 159.707 52.3696 160.456 52.12 161.055C51.8205 161.654 51.0716 161.904 50.4226 161.604C49.7736 161.305 49.524 160.556 49.8235 159.857C50.1231 159.208 50.9218 158.958 51.5708 159.308V159.358Z" fill="url(#paint39_linear_8632_2889)"/>
<path d="M54.3673 155.165C54.9165 155.614 55.0663 156.363 54.617 156.912C54.2176 157.461 53.4188 157.561 52.8696 157.211C52.2705 156.812 52.1208 156.013 52.5701 155.414C53.0194 154.815 53.8182 154.715 54.3673 155.115V155.165Z" fill="url(#paint40_linear_8632_2889)"/>
<path d="M57.7618 151.368C58.2611 151.867 58.2112 152.616 57.7618 153.165C57.3125 153.664 56.5138 153.664 56.0145 153.215C55.4654 152.766 55.4654 151.917 55.9646 151.368C56.4638 150.819 57.3125 150.869 57.7618 151.368Z" fill="url(#paint41_linear_8632_2889)"/>
<path d="M61.6552 148.126C62.0546 148.675 61.9547 149.474 61.4056 149.873C60.8564 150.272 60.0576 150.173 59.6083 149.623C59.159 149.074 59.2589 148.275 59.858 147.826C60.457 147.377 61.2558 147.477 61.6552 148.076V148.126Z" fill="url(#paint42_linear_8632_2889)"/>
<path d="M65.999 145.479C66.3484 146.128 66.0489 146.827 65.4997 147.176C64.9506 147.526 64.1518 147.326 63.8023 146.727C63.4529 146.128 63.6526 145.329 64.2516 144.98C64.8507 144.58 65.6994 144.88 65.999 145.479Z" fill="url(#paint43_linear_8632_2889)"/>
<path d="M70.6415 143.482C70.8412 144.131 70.5416 144.88 69.8926 145.13C69.2436 145.379 68.5447 145.03 68.2452 144.381C67.9456 143.732 68.2452 142.983 68.994 142.733C69.6929 142.484 70.4418 142.833 70.6415 143.482Z" fill="url(#paint44_linear_8632_2889)"/>
<path d="M75.5852 142.232C75.735 142.931 75.2358 143.53 74.6367 143.73C73.9877 143.88 73.2887 143.48 73.139 142.781C72.9393 142.083 73.3886 141.384 74.0875 141.234C74.7864 141.034 75.4854 141.533 75.5852 142.232Z" fill="url(#paint45_linear_8632_2889)"/>
<path d="M80.6267 141.686C80.6267 142.385 80.1274 142.984 79.4285 143.034C78.7795 143.034 78.1305 142.535 78.0806 141.836C77.9807 141.137 78.5299 140.488 79.2787 140.488C80.0276 140.488 80.6267 140.988 80.6267 141.686Z" fill="url(#paint46_linear_8632_2889)"/>
<path d="M85.6694 141.834C85.5695 142.532 84.9705 143.032 84.3215 143.032C83.6724 143.032 83.1233 142.383 83.1233 141.684C83.1233 140.985 83.7723 140.436 84.4712 140.486C85.2201 140.486 85.7193 141.135 85.6694 141.834Z" fill="url(#paint47_linear_8632_2889)"/>
<path d="M90.6617 142.781C90.462 143.48 89.813 143.88 89.164 143.73C88.515 143.53 88.0657 142.931 88.2154 142.232C88.3153 141.533 89.0142 141.034 89.7131 141.234C90.4121 141.434 90.8614 142.132 90.6617 142.781Z" fill="url(#paint48_linear_8632_2889)"/>
<path d="M95.5046 144.381C95.255 145.03 94.5061 145.379 93.8571 145.13C93.2081 144.88 92.9086 144.181 93.1083 143.482C93.308 142.833 94.0568 142.484 94.7558 142.733C95.4547 142.983 95.7542 143.682 95.5046 144.381Z" fill="url(#paint49_linear_8632_2889)"/>
<path d="M99.9974 146.727C99.6479 147.326 98.8491 147.526 98.3 147.176C97.7508 146.827 97.4513 146.128 97.8007 145.479C98.1003 144.88 98.949 144.58 99.5481 144.98C100.197 145.379 100.397 146.128 99.9974 146.727Z" fill="url(#paint50_linear_8632_2889)"/>
<path d="M104.141 149.671C103.691 150.17 102.893 150.32 102.343 149.921C101.794 149.521 101.694 148.722 102.094 148.173C102.493 147.624 103.292 147.474 103.891 147.924C104.49 148.373 104.59 149.172 104.141 149.721V149.671Z" fill="url(#paint51_linear_8632_2889)"/>
<path d="M107.735 153.215C107.186 153.664 106.437 153.664 105.988 153.165C105.539 152.666 105.539 151.917 105.988 151.368C106.487 150.869 107.336 150.819 107.785 151.368C108.285 151.917 108.235 152.716 107.735 153.215Z" fill="url(#paint52_linear_8632_2889)"/>
<path d="M110.881 157.212C110.282 157.612 109.533 157.462 109.134 156.913C108.734 156.364 108.834 155.565 109.383 155.166C109.933 154.716 110.731 154.866 111.181 155.465C111.63 156.064 111.48 156.863 110.881 157.262V157.212Z" fill="url(#paint53_linear_8632_2889)"/>
<path d="M113.327 161.653C112.678 161.953 111.929 161.653 111.63 161.104C111.38 160.505 111.58 159.756 112.179 159.407C112.778 159.057 113.627 159.257 113.926 159.956C114.226 160.605 113.976 161.404 113.327 161.703V161.653Z" fill="url(#paint54_linear_8632_2889)"/>
<path d="M115.174 166.396C114.525 166.595 113.826 166.246 113.576 165.597C113.327 164.948 113.676 164.249 114.325 163.999C114.974 163.75 115.723 164.099 115.973 164.798C116.222 165.497 115.873 166.196 115.174 166.396Z" fill="url(#paint55_linear_8632_2889)"/>
<path d="M116.273 171.34C115.574 171.439 114.925 170.99 114.825 170.291C114.725 169.642 115.124 168.993 115.823 168.793C116.522 168.644 117.221 169.093 117.321 169.792C117.421 170.491 116.971 171.19 116.273 171.29V171.34Z" fill="url(#paint56_linear_8632_2889)"/>
<path d="M116.672 176.382C115.973 176.382 115.374 175.833 115.324 175.184C115.324 174.535 115.823 173.936 116.522 173.886C117.221 173.836 117.82 174.385 117.87 175.084C117.87 175.833 117.371 176.382 116.672 176.382Z" fill="url(#paint57_linear_8632_2889)"/>
</g>
<g style="mix-blend-mode:multiply" opacity="0.85">
<path d="M116.272 181.475C115.573 181.375 115.074 180.726 115.224 180.077C115.324 179.428 115.873 178.879 116.572 178.929C117.271 178.929 117.82 179.628 117.77 180.327C117.67 181.026 117.021 181.575 116.322 181.425L116.272 181.475Z" fill="url(#paint58_linear_8632_2889)"/>
<path d="M115.175 186.415C114.526 186.216 114.076 185.517 114.276 184.868C114.426 184.219 115.125 183.819 115.824 183.969C116.523 184.119 116.922 184.818 116.722 185.517C116.523 186.216 115.824 186.615 115.175 186.415Z" fill="url(#paint59_linear_8632_2889)"/>
<path d="M113.327 191.158C112.678 190.858 112.428 190.109 112.728 189.51C112.977 188.861 113.676 188.562 114.325 188.811C114.974 189.061 115.324 189.81 115.074 190.509C114.775 191.158 113.976 191.457 113.377 191.158H113.327Z" fill="url(#paint60_linear_8632_2889)"/>
<path d="M110.881 195.604C110.281 195.204 110.132 194.406 110.431 193.856C110.731 193.307 111.58 193.108 112.179 193.457C112.778 193.807 112.977 194.555 112.628 195.204C112.229 195.853 111.48 196.003 110.881 195.604Z" fill="url(#paint61_linear_8632_2889)"/>
<path d="M107.736 199.596C107.236 199.146 107.137 198.348 107.636 197.848C108.085 197.349 108.834 197.249 109.383 197.649C109.932 198.048 110.032 198.897 109.583 199.446C109.084 199.995 108.285 200.045 107.736 199.596Z" fill="url(#paint62_linear_8632_2889)"/>
<path d="M104.141 203.139C103.691 202.59 103.741 201.791 104.24 201.342C104.74 200.893 105.538 200.943 106.038 201.442C106.537 201.941 106.487 202.74 105.938 203.239C105.389 203.739 104.59 203.689 104.141 203.139Z" fill="url(#paint63_linear_8632_2889)"/>
<path d="M99.9974 206.037C99.648 205.438 99.7977 204.689 100.397 204.34C100.946 203.99 101.695 204.09 102.144 204.639C102.544 205.188 102.444 206.037 101.795 206.436C101.146 206.836 100.347 206.636 99.9974 206.037Z" fill="url(#paint64_linear_8632_2889)"/>
<path d="M95.504 208.431C95.2544 207.782 95.5041 207.033 96.1031 206.734C96.7022 206.434 97.4511 206.734 97.8005 207.333C98.15 207.932 97.8505 208.731 97.2015 209.03C96.5524 209.33 95.8036 209.03 95.504 208.431Z" fill="url(#paint65_linear_8632_2889)"/>
<path d="M90.662 210.031C90.5122 209.332 90.8617 208.683 91.5107 208.483C92.1597 208.333 92.8586 208.633 93.0583 209.282C93.3079 209.931 92.9085 210.73 92.2096 210.929C91.5107 211.129 90.7618 210.73 90.6121 210.031H90.662Z" fill="url(#paint66_linear_8632_2889)"/>
<path d="M85.6698 210.979C85.6199 210.28 86.0692 209.631 86.7182 209.531C87.3672 209.431 88.0162 209.931 88.166 210.58C88.3157 211.279 87.8165 211.928 87.1176 212.027C86.4187 212.127 85.7696 211.678 85.6698 210.979Z" fill="url(#paint67_linear_8632_2889)"/>
<path d="M80.6264 211.128C80.6264 210.429 81.2255 209.88 81.8745 209.93C82.5235 209.93 83.1226 210.429 83.1226 211.128C83.1226 211.827 82.5735 212.426 81.8745 212.476C81.1257 212.476 80.5765 211.827 80.6264 211.128Z" fill="url(#paint68_linear_8632_2889)"/>
<path d="M75.5845 210.581C75.7343 209.882 76.3833 209.433 77.0323 209.532C77.6813 209.632 78.1805 210.281 78.0807 210.98C77.9809 211.679 77.3818 212.178 76.6329 212.029C75.934 211.929 75.4347 211.28 75.5845 210.581Z" fill="url(#paint69_linear_8632_2889)"/>
<path d="M70.642 209.28C70.8916 208.581 71.5406 208.282 72.1897 208.482C72.8387 208.631 73.2381 209.33 73.0384 210.029C72.8886 210.728 72.1397 211.128 71.4408 210.928C70.7419 210.728 70.3924 209.979 70.5921 209.28H70.642Z" fill="url(#paint70_linear_8632_2889)"/>
<path d="M65.9987 207.333C66.3481 206.734 67.097 206.434 67.6961 206.734C68.2952 207.033 68.5947 207.782 68.2952 208.431C68.0455 209.08 67.2468 209.33 66.5978 209.03C65.9488 208.731 65.6492 207.932 65.9987 207.333Z" fill="url(#paint71_linear_8632_2889)"/>
<path d="M61.6558 204.635C62.0552 204.036 62.804 203.936 63.4031 204.335C63.9522 204.685 64.1519 205.434 63.8025 206.033C63.453 206.632 62.6542 206.832 62.0052 206.432C61.4061 206.033 61.2564 205.184 61.6558 204.635Z" fill="url(#paint72_linear_8632_2889)"/>
<path d="M57.7622 201.394C58.2615 200.895 59.0602 200.845 59.5595 201.294C60.0587 201.744 60.1086 202.542 59.6593 203.092C59.21 203.641 58.4112 203.691 57.8621 203.191C57.3129 202.692 57.263 201.893 57.7622 201.394Z" fill="url(#paint73_linear_8632_2889)"/>
<path d="M54.3674 197.647C54.9166 197.198 55.7154 197.298 56.1147 197.847C56.5641 198.346 56.5141 199.145 56.0149 199.594C55.5157 200.044 54.667 199.994 54.1677 199.444C53.7184 198.895 53.8183 198.047 54.3674 197.647Z" fill="url(#paint74_linear_8632_2889)"/>
<path d="M51.5717 193.402C52.1708 193.053 52.9695 193.253 53.319 193.802C53.6685 194.351 53.4688 195.15 52.8697 195.549C52.2706 195.948 51.5218 195.749 51.1224 195.15C50.723 194.551 50.9227 193.752 51.5717 193.402Z" fill="url(#paint75_linear_8632_2889)"/>
<path d="M49.4245 188.811C50.0735 188.562 50.7725 188.861 51.0221 189.51C51.3216 190.109 51.0221 190.858 50.423 191.158C49.774 191.457 49.0252 191.158 48.7256 190.509C48.476 189.81 48.7755 189.061 49.4745 188.811H49.4245Z" fill="url(#paint76_linear_8632_2889)"/>
<path d="M47.9265 183.969C48.6254 183.819 49.3243 184.219 49.4741 184.868C49.6239 185.517 49.2245 186.216 48.5755 186.415C47.9265 186.615 47.2275 186.216 47.0278 185.517C46.8282 184.818 47.2775 184.119 47.9265 183.969Z" fill="url(#paint77_linear_8632_2889)"/>
<path d="M47.2275 178.926C47.9265 178.926 48.4756 179.375 48.5755 180.074C48.6753 180.723 48.1761 181.372 47.5271 181.472C46.8281 181.572 46.1791 181.072 46.0793 180.374C45.9794 179.625 46.5785 179.026 47.2775 178.976L47.2275 178.926Z" fill="url(#paint78_linear_8632_2889)"/>
<path d="M47.2278 173.837C47.9267 173.887 48.4759 174.486 48.426 175.135C48.426 175.784 47.777 176.333 47.078 176.333C46.3791 176.333 45.8299 175.734 45.8799 175.035C45.8799 174.286 46.5289 173.737 47.2278 173.837Z" fill="url(#paint79_linear_8632_2889)"/>
<path d="M47.9271 168.843C48.626 168.993 49.0254 169.642 48.9256 170.34C48.8257 170.989 48.1767 171.439 47.4778 171.389C46.7788 171.339 46.3295 170.64 46.4294 169.891C46.5292 169.142 47.2282 168.743 47.9271 168.893V168.843Z" fill="url(#paint80_linear_8632_2889)"/>
<path d="M49.4249 163.999C50.0739 164.249 50.4234 164.998 50.1738 165.597C49.9242 166.246 49.2252 166.595 48.5762 166.396C47.8773 166.196 47.5278 165.447 47.7774 164.798C48.0271 164.099 48.7759 163.75 49.4249 163.999Z" fill="url(#paint81_linear_8632_2889)"/>
<path d="M51.5708 159.358C52.1699 159.707 52.3696 160.456 52.12 161.055C51.8205 161.654 51.0716 161.904 50.4226 161.604C49.7736 161.305 49.524 160.556 49.8235 159.857C50.1231 159.208 50.9218 158.958 51.5708 159.308V159.358Z" fill="url(#paint82_linear_8632_2889)"/>
<path d="M54.3673 155.165C54.9165 155.614 55.0663 156.363 54.617 156.912C54.2176 157.461 53.4188 157.561 52.8696 157.211C52.2705 156.812 52.1208 156.013 52.5701 155.414C53.0194 154.815 53.8182 154.715 54.3673 155.115V155.165Z" fill="url(#paint83_linear_8632_2889)"/>
<path d="M57.7618 151.368C58.2611 151.867 58.2112 152.616 57.7618 153.165C57.3125 153.664 56.5138 153.664 56.0145 153.215C55.4654 152.766 55.4654 151.917 55.9646 151.368C56.4638 150.819 57.3125 150.869 57.7618 151.368Z" fill="url(#paint84_linear_8632_2889)"/>
<path d="M61.6552 148.126C62.0546 148.675 61.9547 149.474 61.4056 149.873C60.8564 150.272 60.0576 150.173 59.6083 149.623C59.159 149.074 59.2589 148.275 59.858 147.826C60.457 147.377 61.2558 147.477 61.6552 148.076V148.126Z" fill="url(#paint85_linear_8632_2889)"/>
<path d="M65.999 145.479C66.3484 146.128 66.0489 146.827 65.4997 147.176C64.9506 147.526 64.1518 147.326 63.8023 146.727C63.4529 146.128 63.6526 145.329 64.2516 144.98C64.8507 144.58 65.6994 144.88 65.999 145.479Z" fill="url(#paint86_linear_8632_2889)"/>
<path d="M70.6415 143.482C70.8412 144.131 70.5416 144.88 69.8926 145.13C69.2436 145.379 68.5447 145.03 68.2452 144.381C67.9456 143.732 68.2452 142.983 68.994 142.733C69.6929 142.484 70.4418 142.833 70.6415 143.482Z" fill="url(#paint87_linear_8632_2889)"/>
<path d="M75.5852 142.232C75.735 142.931 75.2358 143.53 74.6367 143.73C73.9877 143.88 73.2887 143.48 73.139 142.781C72.9393 142.083 73.3886 141.384 74.0875 141.234C74.7864 141.034 75.4854 141.533 75.5852 142.232Z" fill="url(#paint88_linear_8632_2889)"/>
<path d="M80.6267 141.686C80.6267 142.385 80.1274 142.984 79.4285 143.034C78.7795 143.034 78.1305 142.535 78.0806 141.836C77.9807 141.137 78.5299 140.488 79.2787 140.488C80.0276 140.488 80.6267 140.988 80.6267 141.686Z" fill="url(#paint89_linear_8632_2889)"/>
<path d="M85.6694 141.834C85.5695 142.532 84.9705 143.032 84.3215 143.032C83.6724 143.032 83.1233 142.383 83.1233 141.684C83.1233 140.985 83.7723 140.436 84.4712 140.486C85.2201 140.486 85.7193 141.135 85.6694 141.834Z" fill="url(#paint90_linear_8632_2889)"/>
<path d="M90.6617 142.781C90.462 143.48 89.813 143.88 89.164 143.73C88.515 143.53 88.0657 142.931 88.2154 142.232C88.3153 141.533 89.0142 141.034 89.7131 141.234C90.4121 141.434 90.8614 142.132 90.6617 142.781Z" fill="url(#paint91_linear_8632_2889)"/>
<path d="M95.5046 144.381C95.255 145.03 94.5061 145.379 93.8571 145.13C93.2081 144.88 92.9086 144.181 93.1083 143.482C93.308 142.833 94.0568 142.484 94.7558 142.733C95.4547 142.983 95.7542 143.682 95.5046 144.381Z" fill="url(#paint92_linear_8632_2889)"/>
<path d="M99.9974 146.727C99.6479 147.326 98.8491 147.526 98.3 147.176C97.7508 146.827 97.4513 146.128 97.8007 145.479C98.1003 144.88 98.949 144.58 99.5481 144.98C100.197 145.379 100.397 146.128 99.9974 146.727Z" fill="url(#paint93_linear_8632_2889)"/>
<path d="M104.141 149.671C103.691 150.17 102.893 150.32 102.343 149.921C101.794 149.521 101.694 148.722 102.094 148.173C102.493 147.624 103.292 147.474 103.891 147.924C104.49 148.373 104.59 149.172 104.141 149.721V149.671Z" fill="url(#paint94_linear_8632_2889)"/>
<path d="M107.735 153.215C107.186 153.664 106.437 153.664 105.988 153.165C105.539 152.666 105.539 151.917 105.988 151.368C106.487 150.869 107.336 150.819 107.785 151.368C108.285 151.917 108.235 152.716 107.735 153.215Z" fill="url(#paint95_linear_8632_2889)"/>
<path d="M110.881 157.212C110.282 157.612 109.533 157.462 109.134 156.913C108.734 156.364 108.834 155.565 109.383 155.166C109.933 154.716 110.731 154.866 111.181 155.465C111.63 156.064 111.48 156.863 110.881 157.262V157.212Z" fill="url(#paint96_linear_8632_2889)"/>
<path d="M113.327 161.653C112.678 161.953 111.929 161.653 111.63 161.104C111.38 160.505 111.58 159.756 112.179 159.407C112.778 159.057 113.627 159.257 113.926 159.956C114.226 160.605 113.976 161.404 113.327 161.703V161.653Z" fill="url(#paint97_linear_8632_2889)"/>
<path d="M115.174 166.396C114.525 166.595 113.826 166.246 113.576 165.597C113.327 164.948 113.676 164.249 114.325 163.999C114.974 163.75 115.723 164.099 115.973 164.798C116.222 165.497 115.873 166.196 115.174 166.396Z" fill="url(#paint98_linear_8632_2889)"/>
<path d="M116.273 171.34C115.574 171.439 114.925 170.99 114.825 170.291C114.725 169.642 115.124 168.993 115.823 168.793C116.522 168.644 117.221 169.093 117.321 169.792C117.421 170.491 116.971 171.19 116.273 171.29V171.34Z" fill="url(#paint99_linear_8632_2889)"/>
<path d="M116.672 176.382C115.973 176.382 115.374 175.833 115.324 175.184C115.324 174.535 115.823 173.936 116.522 173.886C117.221 173.836 117.82 174.385 117.87 175.084C117.87 175.833 117.371 176.382 116.672 176.382Z" fill="url(#paint100_linear_8632_2889)"/>
</g>
</g>
<path opacity="0.75" d="M81.8755 134.246C58.6111 134.246 39.74 153.117 39.74 176.382C39.74 199.646 58.6111 218.517 81.8755 218.517C105.14 218.517 124.011 199.646 124.011 176.382C124.011 153.117 105.14 134.246 81.8755 134.246ZM81.8755 215.821C60.1088 215.821 42.4858 198.198 42.4858 176.432C42.4858 154.665 60.1088 137.042 81.8755 137.042C103.642 137.042 121.265 154.665 121.265 176.432C121.265 198.198 103.642 215.821 81.8755 215.821Z" fill="url(#paint101_linear_8632_2889)" style="mix-blend-mode:multiply"/>
<mask id="mask1_8632_2889" style="mask-type:luminance" maskUnits="userSpaceOnUse" x="73" y="118" width="68" height="47">
<path d="M114.924 126.607C132.996 135.993 144.129 150.421 139.786 158.758C135.443 167.095 117.271 166.246 99.1982 156.861C81.1259 147.475 69.9929 133.047 74.3363 124.71C78.6796 116.373 96.8518 117.221 114.924 126.657V126.607Z" fill="url(#paint102_radial_8632_2889)" style="mix-blend-mode:multiply"/>
</mask>
<g mask="url(#mask1_8632_2889)">
<path d="M114.924 126.607C132.996 135.993 144.129 150.421 139.786 158.758C135.443 167.095 117.271 166.246 99.1982 156.861C81.1259 147.475 69.9929 133.047 74.3363 124.71C78.6796 116.373 96.8518 117.221 114.924 126.657V126.607Z" fill="url(#paint103_radial_8632_2889)" style="mix-blend-mode:screen"/>
</g>
<mask id="mask2_8632_2889" style="mask-type:luminance" maskUnits="userSpaceOnUse" x="94" y="128" width="26" height="27">
<path d="M118.419 147.577C115.174 153.867 107.436 156.413 101.195 153.168C94.9048 149.923 92.4585 142.235 95.7035 135.895C98.9486 129.604 106.687 127.058 112.927 130.303C119.168 133.548 121.664 141.236 118.419 147.577Z" fill="url(#paint104_radial_8632_2889)"/>
</mask>
<g mask="url(#mask2_8632_2889)">
<path d="M118.419 147.577C115.174 153.867 107.436 156.413 101.195 153.168C94.9048 149.923 92.4585 142.235 95.7035 135.895C98.9486 129.604 106.687 127.058 112.927 130.303C119.168 133.548 121.664 141.236 118.419 147.577Z" fill="url(#paint105_radial_8632_2889)" style="mix-blend-mode:screen"/>
</g>
<mask id="mask3_8632_2889" style="mask-type:luminance" maskUnits="userSpaceOnUse" x="35" y="193" width="38" height="30">
<path d="M59.5093 198.896C69.1945 204.937 74.4365 214.023 71.2414 219.265C67.9963 224.507 57.5124 223.808 47.7773 217.818C38.0921 211.777 32.8501 202.691 36.0452 197.449C39.2903 192.207 49.7742 192.906 59.5093 198.896Z" fill="url(#paint106_radial_8632_2889)" style="mix-blend-mode:multiply"/>
</mask>
<g mask="url(#mask3_8632_2889)">
<path d="M59.5093 198.896C69.1945 204.937 74.4365 214.023 71.2414 219.265C67.9963 224.507 57.5124 223.808 47.7773 217.818C38.0921 211.777 32.8501 202.691 36.0452 197.449C39.2903 192.207 49.7742 192.906 59.5093 198.896Z" fill="url(#paint107_radial_8632_2889)" style="mix-blend-mode:screen"/>
</g>
<path d="M92.5085 173.486V173.286C95.4041 172.188 96.6522 169.243 96.6522 165.898C96.6522 160.905 91.9094 156.762 83.4723 156.762C75.0352 156.762 69.8432 160.905 69.8432 165.948V166.247C69.8432 166.247 69.7933 166.597 69.7933 166.796V167.945H79.0291C79.0291 166.048 81.0261 164.999 82.1743 164.999C84.8203 164.999 85.669 166.197 85.669 168.094C85.669 170.341 84.2212 170.391 82.4739 170.391H79.8279V177.48H83.1728C84.97 177.48 86.4178 178.129 86.4178 180.376C86.4178 182.822 85.1697 183.571 81.6252 183.571C79.4285 183.571 78.3302 181.724 78.3302 179.677H68.7449V180.875V181.923C68.7449 187.215 73.2879 191.558 83.2227 191.558C93.1575 191.558 97.3511 187.215 97.6007 181.873C97.6007 177.78 96.2028 174.734 92.4586 173.586L92.5085 173.486Z" fill="url(#paint108_linear_8632_2889)"/>
<path d="M95.7032 166.395C95.7032 169.59 93.8061 172.386 91.1102 173.385V173.584C94.6049 174.683 96.6517 177.528 96.6517 181.422C96.4021 186.465 92.4082 190.558 83.3221 190.558C74.2361 190.558 69.8428 186.464 69.8428 181.472V180.524H77.9304C77.9304 182.57 79.0287 184.318 82.7231 184.318C86.4174 184.318 87.5157 182.521 87.5157 180.074C87.5157 177.828 86.0679 176.779 84.3206 176.779H80.9757V171.138H83.6217C85.4189 171.138 86.8168 170.09 86.8168 167.843C86.8168 165.946 85.369 164.199 82.773 164.199C80.0272 164.199 78.5794 165.796 78.5794 167.693H70.8912V166.545C70.8912 161.802 75.4342 157.908 83.5218 157.908C91.6095 157.908 95.7531 161.802 95.7531 166.495L95.7032 166.395Z" fill="url(#paint109_linear_8632_2889)"/>
</g>
<path opacity="0.55" d="M114.375 131.848C115.673 125.608 115.773 116.821 109.532 110.381L111.13 107.885L166.445 20.8181L159.606 16.6745V16.5746L138.788 3.99389V4.09373L131.898 0H34.597V0.149771L34.5471 0L27.9073 3.99389L24.7122 5.94091L0 20.8181L55.7647 108.634C47.4274 115.224 47.5772 125.258 49.025 132.098C35.4957 142.132 26.7091 158.208 26.7091 176.38C26.7091 206.833 51.4213 231.546 81.8747 231.546C112.328 231.546 137.04 206.833 137.04 176.38C137.04 158.058 128.104 141.883 114.375 131.848ZM65.9491 36.4442H111.13L83.2226 85.5191L55.3153 36.4442H65.9491ZM57.0627 127.155C56.7631 123.461 57.512 119.767 61.0565 116.971L63.3031 120.516H103.092L104.191 118.818C106.088 121.264 106.537 124.11 106.337 126.956C98.9486 123.311 90.7112 121.214 81.9246 121.214C73.1381 121.214 64.6011 123.361 57.1126 127.155H57.0627Z" fill="url(#paint110_radial_8632_2889)" style="mix-blend-mode:overlay"/>
<defs>
<linearGradient id="paint0_linear_8632_2889" x1="34.5967" y1="18.2221" x2="131.848" y2="18.2221" gradientUnits="userSpaceOnUse">
<stop stop-color="#056839"/>
<stop offset="0.5" stop-color="#04A852"/>
<stop offset="0.77" stop-color="#048343"/>
<stop offset="1" stop-color="#056839"/>
</linearGradient>
<linearGradient id="paint1_linear_8632_2889" x1="149.82" y1="9.18593" x2="83.7712" y2="122.213" gradientUnits="userSpaceOnUse">
<stop stop-color="#04A852"/>
<stop offset="0.29" stop-color="#019D4F"/>
<stop offset="0.61" stop-color="#01994E"/>
<stop offset="1" stop-color="#056839"/>
</linearGradient>
<linearGradient id="paint2_linear_8632_2889" x1="148.673" y1="11.1313" x2="84.8704" y2="121.163" gradientUnits="userSpaceOnUse">
<stop stop-color="#F0E8E5"/>
<stop offset="0.58" stop-color="#EEE6E2"/>
<stop offset="0.82" stop-color="#EAE0DB"/>
<stop offset="0.99" stop-color="#E3D5CF"/>
<stop offset="1" stop-color="#E3D5CF"/>
</linearGradient>
<radialGradient id="paint3_radial_8632_2889" cx="0" cy="0" r="1" gradientUnits="userSpaceOnUse" gradientTransform="translate(81.6752 120.015) scale(26.8339)">
<stop offset="0.01" stop-color="#F6C054"/>
<stop offset="0.54" stop-color="#FFEA72"/>
<stop offset="0.58" stop-color="#FFEF71"/>
<stop offset="0.59" stop-color="#FFF171"/>
<stop offset="0.82" stop-color="#FFE05A"/>
<stop offset="0.96" stop-color="#FFD44A"/>
</radialGradient>
<linearGradient id="paint4_linear_8632_2889" x1="81.6753" y1="103.54" x2="81.6753" y2="139.385" gradientUnits="userSpaceOnUse">
<stop offset="0.01" stop-color="#C37948"/>
<stop offset="0.39" stop-color="#D69249"/>
<stop offset="0.73" stop-color="#B46D43"/>
<stop offset="0.96" stop-color="#B98457"/>
</linearGradient>
<radialGradient id="paint5_radial_8632_2889" cx="0" cy="0" r="1" gradientUnits="userSpaceOnUse" gradientTransform="translate(81.6752 120.015) scale(26.8339)">
<stop stop-color="#D59F81"/>
<stop offset="1" stop-color="#E5BC84"/>
</radialGradient>
<linearGradient id="paint6_linear_8632_2889" x1="48.2758" y1="130.699" x2="115.074" y2="130.699" gradientUnits="userSpaceOnUse">
<stop stop-color="#AA7238"/>
<stop offset="0.25" stop-color="#C08443"/>
<stop offset="0.35" stop-color="#BE8241"/>
<stop offset="0.39" stop-color="#B77B3D"/>
<stop offset="0.42" stop-color="#AC6F35"/>
<stop offset="0.44" stop-color="#9C5E2B"/>
<stop offset="0.46" stop-color="#88481D"/>
<stop offset="0.47" stop-color="#7A3A14"/>
<stop offset="0.64" stop-color="#7B3C15"/>
<stop offset="0.72" stop-color="#82431A"/>
<stop offset="0.79" stop-color="#8D5122"/>
<stop offset="0.85" stop-color="#9D642E"/>
<stop offset="0.9" stop-color="#B27C3E"/>
<stop offset="0.95" stop-color="#CC9A51"/>
<stop offset="0.99" stop-color="#EABD67"/>
<stop offset="1" stop-color="#F0C46C"/>
</linearGradient>
<linearGradient id="paint7_linear_8632_2889" x1="48.2758" y1="130.4" x2="115.074" y2="130.4" gradientUnits="userSpaceOnUse">
<stop stop-color="#AA7238"/>
<stop offset="0.25" stop-color="#C08443"/>
<stop offset="0.35" stop-color="#BE8241"/>
<stop offset="0.39" stop-color="#B77B3D"/>
<stop offset="0.42" stop-color="#AC6F35"/>
<stop offset="0.44" stop-color="#9C5E2B"/>
<stop offset="0.46" stop-color="#88481D"/>
<stop offset="0.47" stop-color="#7A3A14"/>
<stop offset="0.64" stop-color="#7B3C15"/>
<stop offset="0.72" stop-color="#82431A"/>
<stop offset="0.79" stop-color="#8D5122"/>
<stop offset="0.85" stop-color="#9D642E"/>
<stop offset="0.9" stop-color="#B27C3E"/>
<stop offset="0.95" stop-color="#CC9A51"/>
<stop offset="0.99" stop-color="#EABD67"/>
<stop offset="1" stop-color="#F0C46C"/>
</linearGradient>
<radialGradient id="paint8_radial_8632_2889" cx="0" cy="0" r="1" gradientUnits="userSpaceOnUse" gradientTransform="translate(81.6751 123.236) scale(21.6169 21.6169)">
<stop offset="0.34" stop-color="#FFEA72"/>
<stop offset="0.99" stop-color="#B35C00"/>
</radialGradient>
<linearGradient id="paint9_linear_8632_2889" x1="16.6246" y1="9.38564" x2="84.5706" y2="119.767" gradientUnits="userSpaceOnUse">
<stop stop-color="#04A852"/>
<stop offset="0.29" stop-color="#019D4F"/>
<stop offset="0.61" stop-color="#01994E"/>
<stop offset="1" stop-color="#056839"/>
</linearGradient>
<linearGradient id="paint10_linear_8632_2889" x1="17.9219" y1="11.1313" x2="81.7742" y2="121.163" gradientUnits="userSpaceOnUse">
<stop stop-color="#F0E8E5"/>
<stop offset="0.58" stop-color="#EEE6E2"/>
<stop offset="0.82" stop-color="#EAE0DB"/>
<stop offset="0.99" stop-color="#E3D5CF"/>
<stop offset="1" stop-color="#E3D5CF"/>
</linearGradient>
<linearGradient id="paint11_linear_8632_2889" x1="123.911" y1="143.131" x2="40.9879" y2="208.681" gradientUnits="userSpaceOnUse">
<stop offset="0.01" stop-color="#C37948"/>
<stop offset="0.39" stop-color="#D69249"/>
<stop offset="0.73" stop-color="#B46D43"/>
<stop offset="0.96" stop-color="#B98457"/>
</linearGradient>
<radialGradient id="paint12_radial_8632_2889" cx="0" cy="0" r="1" gradientUnits="userSpaceOnUse" gradientTransform="translate(43.484 214.722) scale(107.186)">
<stop stop-color="#D59F81"/>
<stop offset="1" stop-color="#E5BC84"/>
</radialGradient>
<radialGradient id="paint13_radial_8632_2889" cx="0" cy="0" r="1" gradientUnits="userSpaceOnUse" gradientTransform="translate(81.9021 176.367) scale(43.6083)">
<stop stop-color="#C05F43"/>
<stop offset="1" stop-color="#D99D4B"/>
</radialGradient>
<linearGradient id="paint14_linear_8632_2889" x1="109.583" y1="151.919" x2="50.6233" y2="204.039" gradientUnits="userSpaceOnUse">
<stop offset="0.01" stop-color="#C37948"/>
<stop offset="0.39" stop-color="#DB9E5D"/>
<stop offset="0.73" stop-color="#B46D43"/>
</linearGradient>
<linearGradient id="paint15_linear_8632_2889" x1="115.174" y1="180.177" x2="117.72" y2="180.177" gradientUnits="userSpaceOnUse">
<stop stop-color="#C97E5E"/>
<stop offset="1" stop-color="#F2BE4A"/>
</linearGradient>
<linearGradient id="paint16_linear_8632_2889" x1="114.226" y1="185.217" x2="116.772" y2="185.217" gradientUnits="userSpaceOnUse">
<stop stop-color="#C97E5E"/>
<stop offset="1" stop-color="#F2BE4A"/>
</linearGradient>
<linearGradient id="paint17_linear_8632_2889" x1="112.628" y1="190.009" x2="115.174" y2="190.009" gradientUnits="userSpaceOnUse">
<stop stop-color="#C97E5E"/>
<stop offset="1" stop-color="#F2BE4A"/>
</linearGradient>
<linearGradient id="paint18_linear_8632_2889" x1="110.281" y1="194.505" x2="112.828" y2="194.505" gradientUnits="userSpaceOnUse">
<stop stop-color="#C97E5E"/>
<stop offset="1" stop-color="#F2BE4A"/>
</linearGradient>
<linearGradient id="paint19_linear_8632_2889" x1="107.336" y1="198.647" x2="109.882" y2="198.647" gradientUnits="userSpaceOnUse">
<stop stop-color="#C97E5E"/>
<stop offset="1" stop-color="#F2BE4A"/>
</linearGradient>
<linearGradient id="paint20_linear_8632_2889" x1="103.791" y1="202.291" x2="106.337" y2="202.291" gradientUnits="userSpaceOnUse">
<stop stop-color="#C97E5E"/>
<stop offset="1" stop-color="#F2BE4A"/>
</linearGradient>
<linearGradient id="paint21_linear_8632_2889" x1="99.7977" y1="205.388" x2="102.344" y2="205.388" gradientUnits="userSpaceOnUse">
<stop stop-color="#C97E5E"/>
<stop offset="1" stop-color="#F2BE4A"/>
</linearGradient>
<linearGradient id="paint22_linear_8632_2889" x1="95.4042" y1="207.882" x2="97.9004" y2="207.882" gradientUnits="userSpaceOnUse">
<stop stop-color="#C97E5E"/>
<stop offset="1" stop-color="#F2BE4A"/>
</linearGradient>
<linearGradient id="paint23_linear_8632_2889" x1="90.6121" y1="209.681" x2="93.1582" y2="209.681" gradientUnits="userSpaceOnUse">
<stop stop-color="#C97E5E"/>
<stop offset="1" stop-color="#F2BE4A"/>
</linearGradient>
<linearGradient id="paint24_linear_8632_2889" x1="85.6698" y1="210.779" x2="88.2159" y2="210.779" gradientUnits="userSpaceOnUse">
<stop stop-color="#C97E5E"/>
<stop offset="1" stop-color="#F2BE4A"/>
</linearGradient>
<linearGradient id="paint25_linear_8632_2889" x1="80.6264" y1="211.178" x2="83.1725" y2="211.178" gradientUnits="userSpaceOnUse">
<stop stop-color="#C97E5E"/>
<stop offset="1" stop-color="#F2BE4A"/>
</linearGradient>
<linearGradient id="paint26_linear_8632_2889" x1="75.5346" y1="210.78" x2="78.0807" y2="210.78" gradientUnits="userSpaceOnUse">
<stop stop-color="#C97E5E"/>
<stop offset="1" stop-color="#F2BE4A"/>
</linearGradient>
<linearGradient id="paint27_linear_8632_2889" x1="70.5921" y1="209.68" x2="73.1382" y2="209.68" gradientUnits="userSpaceOnUse">
<stop stop-color="#C97E5E"/>
<stop offset="1" stop-color="#F2BE4A"/>
</linearGradient>
<linearGradient id="paint28_linear_8632_2889" x1="65.8489" y1="207.882" x2="68.395" y2="207.882" gradientUnits="userSpaceOnUse">
<stop stop-color="#C97E5E"/>
<stop offset="1" stop-color="#F2BE4A"/>
</linearGradient>
<linearGradient id="paint29_linear_8632_2889" x1="61.4061" y1="205.384" x2="63.9522" y2="205.384" gradientUnits="userSpaceOnUse">
<stop stop-color="#C97E5E"/>
<stop offset="1" stop-color="#F2BE4A"/>
</linearGradient>
<linearGradient id="paint30_linear_8632_2889" x1="57.4128" y1="202.293" x2="59.9589" y2="202.293" gradientUnits="userSpaceOnUse">
<stop stop-color="#C97E5E"/>
<stop offset="1" stop-color="#F2BE4A"/>
</linearGradient>
<linearGradient id="paint31_linear_8632_2889" x1="53.8682" y1="198.646" x2="56.4143" y2="198.646" gradientUnits="userSpaceOnUse">
<stop stop-color="#C97E5E"/>
<stop offset="1" stop-color="#F2BE4A"/>
</linearGradient>
<linearGradient id="paint32_linear_8632_2889" x1="50.9227" y1="194.501" x2="53.4688" y2="194.501" gradientUnits="userSpaceOnUse">
<stop stop-color="#C97E5E"/>
<stop offset="1" stop-color="#F2BE4A"/>
</linearGradient>
<linearGradient id="paint33_linear_8632_2889" x1="48.5758" y1="190.009" x2="51.1719" y2="190.009" gradientUnits="userSpaceOnUse">
<stop stop-color="#C97E5E"/>
<stop offset="1" stop-color="#F2BE4A"/>
</linearGradient>
<linearGradient id="paint34_linear_8632_2889" x1="46.9779" y1="185.217" x2="49.524" y2="185.217" gradientUnits="userSpaceOnUse">
<stop stop-color="#C97E5E"/>
<stop offset="1" stop-color="#F2BE4A"/>
</linearGradient>
<linearGradient id="paint35_linear_8632_2889" x1="46.0294" y1="180.174" x2="48.5755" y2="180.174" gradientUnits="userSpaceOnUse">
<stop stop-color="#C97E5E"/>
<stop offset="1" stop-color="#F2BE4A"/>
</linearGradient>
<linearGradient id="paint36_linear_8632_2889" x1="45.8799" y1="175.135" x2="48.426" y2="175.135" gradientUnits="userSpaceOnUse">
<stop stop-color="#C97E5E"/>
<stop offset="1" stop-color="#F2BE4A"/>
</linearGradient>
<linearGradient id="paint37_linear_8632_2889" x1="46.4294" y1="170.091" x2="48.9755" y2="170.091" gradientUnits="userSpaceOnUse">
<stop stop-color="#C97E5E"/>
<stop offset="1" stop-color="#F2BE4A"/>
</linearGradient>
<linearGradient id="paint38_linear_8632_2889" x1="47.6776" y1="165.148" x2="50.2736" y2="165.148" gradientUnits="userSpaceOnUse">
<stop stop-color="#C97E5E"/>
<stop offset="1" stop-color="#F2BE4A"/>
</linearGradient>
<linearGradient id="paint39_linear_8632_2889" x1="49.6737" y1="160.506" x2="52.2198" y2="160.506" gradientUnits="userSpaceOnUse">
<stop stop-color="#C97E5E"/>
<stop offset="1" stop-color="#F2BE4A"/>
</linearGradient>
<linearGradient id="paint40_linear_8632_2889" x1="52.3205" y1="156.163" x2="54.8666" y2="156.163" gradientUnits="userSpaceOnUse">
<stop stop-color="#C97E5E"/>
<stop offset="1" stop-color="#F2BE4A"/>
</linearGradient>
<linearGradient id="paint41_linear_8632_2889" x1="55.5652" y1="152.267" x2="58.1113" y2="152.267" gradientUnits="userSpaceOnUse">
<stop stop-color="#C97E5E"/>
<stop offset="1" stop-color="#F2BE4A"/>
</linearGradient>
<linearGradient id="paint42_linear_8632_2889" x1="59.3587" y1="148.875" x2="61.9048" y2="148.875" gradientUnits="userSpaceOnUse">
<stop stop-color="#C97E5E"/>
<stop offset="1" stop-color="#F2BE4A"/>
</linearGradient>
<linearGradient id="paint43_linear_8632_2889" x1="63.6026" y1="146.078" x2="66.1487" y2="146.078" gradientUnits="userSpaceOnUse">
<stop stop-color="#C97E5E"/>
<stop offset="1" stop-color="#F2BE4A"/>
</linearGradient>
<linearGradient id="paint44_linear_8632_2889" x1="68.1952" y1="143.931" x2="70.7413" y2="143.931" gradientUnits="userSpaceOnUse">
<stop stop-color="#C97E5E"/>
<stop offset="1" stop-color="#F2BE4A"/>
</linearGradient>
<linearGradient id="paint45_linear_8632_2889" x1="73.0391" y1="142.432" x2="75.5852" y2="142.432" gradientUnits="userSpaceOnUse">
<stop stop-color="#C97E5E"/>
<stop offset="1" stop-color="#F2BE4A"/>
</linearGradient>
<linearGradient id="paint46_linear_8632_2889" x1="78.0806" y1="141.736" x2="80.6267" y2="141.736" gradientUnits="userSpaceOnUse">
<stop stop-color="#C97E5E"/>
<stop offset="1" stop-color="#F2BE4A"/>
</linearGradient>
<linearGradient id="paint47_linear_8632_2889" x1="83.1233" y1="141.734" x2="85.6694" y2="141.734" gradientUnits="userSpaceOnUse">
<stop stop-color="#C97E5E"/>
<stop offset="1" stop-color="#F2BE4A"/>
</linearGradient>
<linearGradient id="paint48_linear_8632_2889" x1="88.1655" y1="142.432" x2="90.7116" y2="142.432" gradientUnits="userSpaceOnUse">
<stop stop-color="#C97E5E"/>
<stop offset="1" stop-color="#F2BE4A"/>
</linearGradient>
<linearGradient id="paint49_linear_8632_2889" x1="93.0084" y1="143.931" x2="95.6045" y2="143.931" gradientUnits="userSpaceOnUse">
<stop stop-color="#C97E5E"/>
<stop offset="1" stop-color="#F2BE4A"/>
</linearGradient>
<linearGradient id="paint50_linear_8632_2889" x1="97.651" y1="146.078" x2="100.147" y2="146.078" gradientUnits="userSpaceOnUse">
<stop stop-color="#C97E5E"/>
<stop offset="1" stop-color="#F2BE4A"/>
</linearGradient>
<linearGradient id="paint51_linear_8632_2889" x1="101.844" y1="148.872" x2="104.39" y2="148.872" gradientUnits="userSpaceOnUse">
<stop stop-color="#C97E5E"/>
<stop offset="1" stop-color="#F2BE4A"/>
</linearGradient>
<linearGradient id="paint52_linear_8632_2889" x1="105.639" y1="152.267" x2="108.185" y2="152.267" gradientUnits="userSpaceOnUse">
<stop stop-color="#C97E5E"/>
<stop offset="1" stop-color="#F2BE4A"/>
</linearGradient>
<linearGradient id="paint53_linear_8632_2889" x1="108.884" y1="156.164" x2="111.43" y2="156.164" gradientUnits="userSpaceOnUse">
<stop stop-color="#C97E5E"/>
<stop offset="1" stop-color="#F2BE4A"/>
</linearGradient>
<linearGradient id="paint54_linear_8632_2889" x1="111.53" y1="160.505" x2="114.076" y2="160.505" gradientUnits="userSpaceOnUse">
<stop stop-color="#C97E5E"/>
<stop offset="1" stop-color="#F2BE4A"/>
</linearGradient>
<linearGradient id="paint55_linear_8632_2889" x1="113.476" y1="165.148" x2="116.072" y2="165.148" gradientUnits="userSpaceOnUse">
<stop stop-color="#C97E5E"/>
<stop offset="1" stop-color="#F2BE4A"/>
</linearGradient>
<linearGradient id="paint56_linear_8632_2889" x1="114.825" y1="170.091" x2="117.321" y2="170.091" gradientUnits="userSpaceOnUse">
<stop stop-color="#C97E5E"/>
<stop offset="1" stop-color="#F2BE4A"/>
</linearGradient>
<linearGradient id="paint57_linear_8632_2889" x1="115.324" y1="175.134" x2="117.87" y2="175.134" gradientUnits="userSpaceOnUse">
<stop stop-color="#C97E5E"/>
<stop offset="1" stop-color="#F2BE4A"/>
</linearGradient>
<linearGradient id="paint58_linear_8632_2889" x1="115.174" y1="180.177" x2="117.72" y2="180.177" gradientUnits="userSpaceOnUse">
<stop stop-color="#C97E5E"/>
<stop offset="1" stop-color="#F2BE4A"/>
</linearGradient>
<linearGradient id="paint59_linear_8632_2889" x1="114.226" y1="185.217" x2="116.772" y2="185.217" gradientUnits="userSpaceOnUse">
<stop stop-color="#C97E5E"/>
<stop offset="1" stop-color="#F2BE4A"/>
</linearGradient>
<linearGradient id="paint60_linear_8632_2889" x1="112.628" y1="190.009" x2="115.174" y2="190.009" gradientUnits="userSpaceOnUse">
<stop stop-color="#C97E5E"/>
<stop offset="1" stop-color="#F2BE4A"/>
</linearGradient>
<linearGradient id="paint61_linear_8632_2889" x1="110.281" y1="194.505" x2="112.828" y2="194.505" gradientUnits="userSpaceOnUse">
<stop stop-color="#C97E5E"/>
<stop offset="1" stop-color="#F2BE4A"/>
</linearGradient>
<linearGradient id="paint62_linear_8632_2889" x1="107.336" y1="198.647" x2="109.882" y2="198.647" gradientUnits="userSpaceOnUse">
<stop stop-color="#C97E5E"/>
<stop offset="1" stop-color="#F2BE4A"/>
</linearGradient>
<linearGradient id="paint63_linear_8632_2889" x1="103.791" y1="202.291" x2="106.337" y2="202.291" gradientUnits="userSpaceOnUse">
<stop stop-color="#C97E5E"/>
<stop offset="1" stop-color="#F2BE4A"/>
</linearGradient>
<linearGradient id="paint64_linear_8632_2889" x1="99.7977" y1="205.388" x2="102.344" y2="205.388" gradientUnits="userSpaceOnUse">
<stop stop-color="#C97E5E"/>
<stop offset="1" stop-color="#F2BE4A"/>
</linearGradient>
<linearGradient id="paint65_linear_8632_2889" x1="95.4042" y1="207.882" x2="97.9004" y2="207.882" gradientUnits="userSpaceOnUse">
<stop stop-color="#C97E5E"/>
<stop offset="1" stop-color="#F2BE4A"/>
</linearGradient>
<linearGradient id="paint66_linear_8632_2889" x1="90.6121" y1="209.681" x2="93.1582" y2="209.681" gradientUnits="userSpaceOnUse">
<stop stop-color="#C97E5E"/>
<stop offset="1" stop-color="#F2BE4A"/>
</linearGradient>
<linearGradient id="paint67_linear_8632_2889" x1="85.6698" y1="210.779" x2="88.2159" y2="210.779" gradientUnits="userSpaceOnUse">
<stop stop-color="#C97E5E"/>
<stop offset="1" stop-color="#F2BE4A"/>
</linearGradient>
<linearGradient id="paint68_linear_8632_2889" x1="80.6264" y1="211.178" x2="83.1725" y2="211.178" gradientUnits="userSpaceOnUse">
<stop stop-color="#C97E5E"/>
<stop offset="1" stop-color="#F2BE4A"/>
</linearGradient>
<linearGradient id="paint69_linear_8632_2889" x1="75.5346" y1="210.78" x2="78.0807" y2="210.78" gradientUnits="userSpaceOnUse">
<stop stop-color="#C97E5E"/>
<stop offset="1" stop-color="#F2BE4A"/>
</linearGradient>
<linearGradient id="paint70_linear_8632_2889" x1="70.5921" y1="209.68" x2="73.1382" y2="209.68" gradientUnits="userSpaceOnUse">
<stop stop-color="#C97E5E"/>
<stop offset="1" stop-color="#F2BE4A"/>
</linearGradient>
<linearGradient id="paint71_linear_8632_2889" x1="65.8489" y1="207.882" x2="68.395" y2="207.882" gradientUnits="userSpaceOnUse">
<stop stop-color="#C97E5E"/>
<stop offset="1" stop-color="#F2BE4A"/>
</linearGradient>
<linearGradient id="paint72_linear_8632_2889" x1="61.4061" y1="205.384" x2="63.9522" y2="205.384" gradientUnits="userSpaceOnUse">
<stop stop-color="#C97E5E"/>
<stop offset="1" stop-color="#F2BE4A"/>
</linearGradient>
<linearGradient id="paint73_linear_8632_2889" x1="57.4128" y1="202.293" x2="59.9589" y2="202.293" gradientUnits="userSpaceOnUse">
<stop stop-color="#C97E5E"/>
<stop offset="1" stop-color="#F2BE4A"/>
</linearGradient>
<linearGradient id="paint74_linear_8632_2889" x1="53.8682" y1="198.646" x2="56.4143" y2="198.646" gradientUnits="userSpaceOnUse">
<stop stop-color="#C97E5E"/>
<stop offset="1" stop-color="#F2BE4A"/>
</linearGradient>
<linearGradient id="paint75_linear_8632_2889" x1="50.9227" y1="194.501" x2="53.4688" y2="194.501" gradientUnits="userSpaceOnUse">
<stop stop-color="#C97E5E"/>
<stop offset="1" stop-color="#F2BE4A"/>
</linearGradient>
<linearGradient id="paint76_linear_8632_2889" x1="48.5758" y1="190.009" x2="51.1719" y2="190.009" gradientUnits="userSpaceOnUse">
<stop stop-color="#C97E5E"/>
<stop offset="1" stop-color="#F2BE4A"/>
</linearGradient>
<linearGradient id="paint77_linear_8632_2889" x1="46.9779" y1="185.217" x2="49.524" y2="185.217" gradientUnits="userSpaceOnUse">
<stop stop-color="#C97E5E"/>
<stop offset="1" stop-color="#F2BE4A"/>
</linearGradient>
<linearGradient id="paint78_linear_8632_2889" x1="46.0294" y1="180.174" x2="48.5755" y2="180.174" gradientUnits="userSpaceOnUse">
<stop stop-color="#C97E5E"/>
<stop offset="1" stop-color="#F2BE4A"/>
</linearGradient>
<linearGradient id="paint79_linear_8632_2889" x1="45.8799" y1="175.135" x2="48.426" y2="175.135" gradientUnits="userSpaceOnUse">
<stop stop-color="#C97E5E"/>
<stop offset="1" stop-color="#F2BE4A"/>
</linearGradient>
<linearGradient id="paint80_linear_8632_2889" x1="46.4294" y1="170.091" x2="48.9755" y2="170.091" gradientUnits="userSpaceOnUse">
<stop stop-color="#C97E5E"/>
<stop offset="1" stop-color="#F2BE4A"/>
</linearGradient>
<linearGradient id="paint81_linear_8632_2889" x1="47.6776" y1="165.148" x2="50.2736" y2="165.148" gradientUnits="userSpaceOnUse">
<stop stop-color="#C97E5E"/>
<stop offset="1" stop-color="#F2BE4A"/>
</linearGradient>
<linearGradient id="paint82_linear_8632_2889" x1="49.6737" y1="160.506" x2="52.2198" y2="160.506" gradientUnits="userSpaceOnUse">
<stop stop-color="#C97E5E"/>
<stop offset="1" stop-color="#F2BE4A"/>
</linearGradient>
<linearGradient id="paint83_linear_8632_2889" x1="52.3205" y1="156.163" x2="54.8666" y2="156.163" gradientUnits="userSpaceOnUse">
<stop stop-color="#C97E5E"/>
<stop offset="1" stop-color="#F2BE4A"/>
</linearGradient>
<linearGradient id="paint84_linear_8632_2889" x1="55.5652" y1="152.267" x2="58.1113" y2="152.267" gradientUnits="userSpaceOnUse">
<stop stop-color="#C97E5E"/>
<stop offset="1" stop-color="#F2BE4A"/>
</linearGradient>
<linearGradient id="paint85_linear_8632_2889" x1="59.3587" y1="148.875" x2="61.9048" y2="148.875" gradientUnits="userSpaceOnUse">
<stop stop-color="#C97E5E"/>
<stop offset="1" stop-color="#F2BE4A"/>
</linearGradient>
<linearGradient id="paint86_linear_8632_2889" x1="63.6026" y1="146.078" x2="66.1487" y2="146.078" gradientUnits="userSpaceOnUse">
<stop stop-color="#C97E5E"/>
<stop offset="1" stop-color="#F2BE4A"/>
</linearGradient>
<linearGradient id="paint87_linear_8632_2889" x1="68.1952" y1="143.931" x2="70.7413" y2="143.931" gradientUnits="userSpaceOnUse">
<stop stop-color="#C97E5E"/>
<stop offset="1" stop-color="#F2BE4A"/>
</linearGradient>
<linearGradient id="paint88_linear_8632_2889" x1="73.0391" y1="142.432" x2="75.5852" y2="142.432" gradientUnits="userSpaceOnUse">
<stop stop-color="#C97E5E"/>
<stop offset="1" stop-color="#F2BE4A"/>
</linearGradient>
<linearGradient id="paint89_linear_8632_2889" x1="78.0806" y1="141.736" x2="80.6267" y2="141.736" gradientUnits="userSpaceOnUse">
<stop stop-color="#C97E5E"/>
<stop offset="1" stop-color="#F2BE4A"/>
</linearGradient>
<linearGradient id="paint90_linear_8632_2889" x1="83.1233" y1="141.734" x2="85.6694" y2="141.734" gradientUnits="userSpaceOnUse">
<stop stop-color="#C97E5E"/>
<stop offset="1" stop-color="#F2BE4A"/>
</linearGradient>
<linearGradient id="paint91_linear_8632_2889" x1="88.1655" y1="142.432" x2="90.7116" y2="142.432" gradientUnits="userSpaceOnUse">
<stop stop-color="#C97E5E"/>
<stop offset="1" stop-color="#F2BE4A"/>
</linearGradient>
<linearGradient id="paint92_linear_8632_2889" x1="93.0084" y1="143.931" x2="95.6045" y2="143.931" gradientUnits="userSpaceOnUse">
<stop stop-color="#C97E5E"/>
<stop offset="1" stop-color="#F2BE4A"/>
</linearGradient>
<linearGradient id="paint93_linear_8632_2889" x1="97.651" y1="146.078" x2="100.147" y2="146.078" gradientUnits="userSpaceOnUse">
<stop stop-color="#C97E5E"/>
<stop offset="1" stop-color="#F2BE4A"/>
</linearGradient>
<linearGradient id="paint94_linear_8632_2889" x1="101.844" y1="148.872" x2="104.39" y2="148.872" gradientUnits="userSpaceOnUse">
<stop stop-color="#C97E5E"/>
<stop offset="1" stop-color="#F2BE4A"/>
</linearGradient>
<linearGradient id="paint95_linear_8632_2889" x1="105.639" y1="152.267" x2="108.185" y2="152.267" gradientUnits="userSpaceOnUse">
<stop stop-color="#C97E5E"/>
<stop offset="1" stop-color="#F2BE4A"/>
</linearGradient>
<linearGradient id="paint96_linear_8632_2889" x1="108.884" y1="156.164" x2="111.43" y2="156.164" gradientUnits="userSpaceOnUse">
<stop stop-color="#C97E5E"/>
<stop offset="1" stop-color="#F2BE4A"/>
</linearGradient>
<linearGradient id="paint97_linear_8632_2889" x1="111.53" y1="160.505" x2="114.076" y2="160.505" gradientUnits="userSpaceOnUse">
<stop stop-color="#C97E5E"/>
<stop offset="1" stop-color="#F2BE4A"/>
</linearGradient>
<linearGradient id="paint98_linear_8632_2889" x1="113.476" y1="165.148" x2="116.072" y2="165.148" gradientUnits="userSpaceOnUse">
<stop stop-color="#C97E5E"/>
<stop offset="1" stop-color="#F2BE4A"/>
</linearGradient>
<linearGradient id="paint99_linear_8632_2889" x1="114.825" y1="170.091" x2="117.321" y2="170.091" gradientUnits="userSpaceOnUse">
<stop stop-color="#C97E5E"/>
<stop offset="1" stop-color="#F2BE4A"/>
</linearGradient>
<linearGradient id="paint100_linear_8632_2889" x1="115.324" y1="175.134" x2="117.87" y2="175.134" gradientUnits="userSpaceOnUse">
<stop stop-color="#C97E5E"/>
<stop offset="1" stop-color="#F2BE4A"/>
</linearGradient>
<linearGradient id="paint101_linear_8632_2889" x1="110.631" y1="147.875" x2="54.767" y2="203.241" gradientUnits="userSpaceOnUse">
<stop stop-color="#AA7238"/>
<stop offset="0.25" stop-color="#C08443"/>
<stop offset="0.35" stop-color="#BE8241"/>
<stop offset="0.39" stop-color="#B77B3D"/>
<stop offset="0.42" stop-color="#AC6F35"/>
<stop offset="0.44" stop-color="#9C5E2B"/>
<stop offset="0.46" stop-color="#88481D"/>
<stop offset="0.47" stop-color="#7A3A14"/>
<stop offset="0.64" stop-color="#7B3C15"/>
<stop offset="0.72" stop-color="#82431A"/>
<stop offset="0.79" stop-color="#8D5122"/>
<stop offset="0.85" stop-color="#9D642E"/>
<stop offset="0.9" stop-color="#B27C3E"/>
<stop offset="0.95" stop-color="#CC9A51"/>
<stop offset="0.99" stop-color="#EABD67"/>
<stop offset="1" stop-color="#F0C46C"/>
</linearGradient>
<radialGradient id="paint102_radial_8632_2889" cx="0" cy="0" r="1" gradientTransform="matrix(7.91991 -15.2205 32.8164 17.0826 113.951 129.837)" gradientUnits="userSpaceOnUse">
<stop stop-color="white"/>
<stop offset="0.14" stop-color="#E2E2E2"/>
<stop offset="0.43" stop-color="#999999"/>
<stop offset="0.87" stop-color="#252525"/>
<stop offset="1"/>
</radialGradient>
<radialGradient id="paint103_radial_8632_2889" cx="0" cy="0" r="1" gradientTransform="matrix(7.91991 -15.2205 32.8164 17.0826 113.951 129.837)" gradientUnits="userSpaceOnUse">
<stop stop-color="#ECCE88"/>
<stop offset="1"/>
</radialGradient>
<radialGradient id="paint104_radial_8632_2889" cx="0" cy="0" r="1" gradientUnits="userSpaceOnUse" gradientTransform="translate(108.459 138.911) rotate(27.21) scale(12.1564 13.6152)">
<stop stop-color="white"/>
<stop offset="0.21" stop-color="#C3C3C3"/>
<stop offset="0.6" stop-color="#5B5B5B"/>
<stop offset="0.87" stop-color="#191919"/>
<stop offset="1"/>
</radialGradient>
<radialGradient id="paint105_radial_8632_2889" cx="0" cy="0" r="1" gradientUnits="userSpaceOnUse" gradientTransform="translate(108.459 138.911) rotate(27.21) scale(12.1564 13.6152)">
<stop stop-color="#FFA177"/>
<stop offset="0.13" stop-color="#E5906B"/>
<stop offset="0.4" stop-color="#A3674C"/>
<stop offset="0.79" stop-color="#3B251B"/>
<stop offset="1"/>
</radialGradient>
<radialGradient id="paint106_radial_8632_2889" cx="0" cy="0" r="1" gradientUnits="userSpaceOnUse" gradientTransform="translate(59.4435 199.59) rotate(-58.17) scale(11.2148 20.6774)">
<stop stop-color="white"/>
<stop offset="0.14" stop-color="#E2E2E2"/>
<stop offset="0.43" stop-color="#999999"/>
<stop offset="0.87" stop-color="#252525"/>
<stop offset="1"/>
</radialGradient>
<radialGradient id="paint107_radial_8632_2889" cx="0" cy="0" r="1" gradientUnits="userSpaceOnUse" gradientTransform="translate(59.4435 199.59) rotate(-58.17) scale(11.2148 20.6774)">
<stop stop-color="#ECC29A"/>
<stop offset="1"/>
</radialGradient>
<linearGradient id="paint108_linear_8632_2889" x1="69.344" y1="182.472" x2="97.2013" y2="166.197" gradientUnits="userSpaceOnUse">
<stop offset="0.39" stop-color="#864A25"/>
<stop offset="1" stop-color="#E8B175"/>
</linearGradient>
<linearGradient id="paint109_linear_8632_2889" x1="83.2223" y1="159.955" x2="83.2223" y2="189.71" gradientUnits="userSpaceOnUse">
<stop stop-color="#E59F69"/>
<stop offset="0.21" stop-color="#C37948"/>
<stop offset="0.32" stop-color="#B46D43"/>
<stop offset="0.45" stop-color="#984B28"/>
<stop offset="0.57" stop-color="#873717"/>
<stop offset="0.65" stop-color="#813012"/>
<stop offset="0.7" stop-color="#964824"/>
<stop offset="0.77" stop-color="#AE6238"/>
<stop offset="0.84" stop-color="#C07547"/>
<stop offset="0.92" stop-color="#CA8150"/>
<stop offset="1" stop-color="#CE8553"/>
</linearGradient>
<radialGradient id="paint110_radial_8632_2889" cx="0" cy="0" r="1" gradientUnits="userSpaceOnUse" gradientTransform="translate(85.1447 131.399) scale(100.821 100.821)">
<stop stop-color="#ECECBB"/>
<stop offset="1" stop-color="#784F58"/>
</radialGradient>
</defs>
</svg>
