<svg width="167" height="232" viewBox="0 0 167 232" fill="none" xmlns="http://www.w3.org/2000/svg">
<path d="M131.848 0H34.5969L41.2368 36.4442H131.848V0Z" fill="url(#paint0_linear_8632_2617)"/>
<g opacity="0.75" style="mix-blend-mode:multiply">
<path d="M46.4288 0H34.5969L41.2368 36.4442H65.9489L46.4288 0Z" fill="#9D0000"/>
</g>
<g opacity="0.75" style="mix-blend-mode:multiply">
<path d="M120.016 0H131.848L125.208 36.4442H100.496L120.016 0Z" fill="#9D0000"/>
</g>
<path d="M131.848 0L63.3027 120.516H103.092L166.395 20.8181L131.848 0Z" fill="url(#paint1_linear_8632_2617)"/>
<path d="M159.606 16.6238L94.4055 120.515H71.5405L138.738 3.99316L159.606 16.6238Z" fill="url(#paint2_linear_8632_2617)"/>
<g opacity="0.5" style="mix-blend-mode:multiply">
<path d="M89.2131 75.0371L63.3027 120.517H103.092L111.08 107.937L89.2131 75.0371Z" fill="#771A1F"/>
</g>
<path d="M81.8752 101.993C81.8752 101.993 81.7254 101.993 81.6755 101.993C81.6256 101.993 81.5257 101.993 81.4758 101.993C39.9394 101.993 47.9771 131.099 50.8227 138.038C51.0723 137.788 51.322 137.589 51.5716 137.339C52.0209 136.94 52.4702 136.59 53.0194 136.291C53.0194 136.291 53.0693 136.291 53.1192 136.241C53.4687 136.041 58.5609 135.841 58.9603 135.642C56.6139 127.005 51.1722 112.477 81.4758 112.277C81.5257 112.277 81.6256 112.277 81.6755 112.277C81.7254 112.277 81.8253 112.277 81.8752 112.277C112.179 112.477 106.787 127.005 104.391 135.642C104.79 135.841 109.832 135.991 110.232 136.241C110.232 136.241 110.282 136.241 110.332 136.291C110.831 136.59 111.33 136.94 111.779 137.339C112.029 137.539 112.279 137.788 112.528 138.038C115.324 131.049 123.412 101.993 81.8752 101.993Z" fill="url(#paint3_radial_8632_2617)"/>
<path d="M81.8752 101.993C81.8752 101.993 81.7254 101.993 81.6755 101.993C81.6256 101.993 81.5257 101.993 81.4758 101.993C39.9394 101.993 47.9771 131.099 50.8227 138.038C51.0723 137.788 51.322 137.589 51.5716 137.339C52.0209 136.94 52.4702 136.59 53.0194 136.291C53.0194 136.291 53.0693 136.291 53.1192 136.241C53.4687 136.041 58.5609 135.841 58.9603 135.642C56.6139 127.005 51.1722 112.477 81.4758 112.277C81.5257 112.277 81.6256 112.277 81.6755 112.277C81.7254 112.277 81.8253 112.277 81.8752 112.277C112.179 112.477 106.787 127.005 104.391 135.642C104.79 135.841 109.832 135.991 110.232 136.241C110.232 136.241 110.282 136.241 110.332 136.291C110.831 136.59 111.33 136.94 111.779 137.339C112.029 137.539 112.279 137.788 112.528 138.038C115.324 131.049 123.412 101.993 81.8752 101.993Z" fill="url(#paint4_radial_8632_2617)"/>
<path opacity="0.75" d="M81.8752 101.993C81.8752 101.993 81.7254 101.993 81.6755 101.993C81.6256 101.993 81.5257 101.993 81.4758 101.993C39.9394 101.993 47.9771 131.099 50.8227 138.038C50.9725 137.888 51.1223 137.738 51.272 137.589C48.1268 128.702 43.0846 103.141 81.4758 103.141C81.5257 103.141 81.6256 103.141 81.6755 103.141C81.7254 103.141 81.8253 103.141 81.8752 103.141C120.316 103.141 115.224 128.702 112.079 137.589C112.229 137.738 112.379 137.888 112.528 138.038C115.324 131.049 123.412 101.993 81.8752 101.993Z" fill="url(#paint5_radial_8632_2617)" style="mix-blend-mode:overlay"/>
<path opacity="0.55" d="M57.2118 123.361C54.0667 124.31 51.0712 124.909 48.3254 126.706C48.5751 131.599 49.923 135.892 50.8216 138.039C51.0712 137.789 51.3209 137.59 51.5705 137.34C52.0198 136.941 52.4691 136.591 53.0183 136.292C53.0183 136.292 53.0682 136.292 53.1181 136.242C53.4676 136.042 58.5598 135.842 58.9592 135.643C58.0106 132.098 56.5129 127.505 57.2118 123.361Z" fill="url(#paint6_linear_8632_2617)" style="mix-blend-mode:multiply"/>
<path opacity="0.55" d="M106.037 122.762C107.036 127.055 105.438 131.898 104.39 135.642C104.789 135.842 109.832 135.991 110.231 136.241C110.231 136.241 110.281 136.241 110.331 136.291C110.83 136.591 111.329 136.94 111.779 137.339C112.028 137.539 112.278 137.789 112.527 138.038C113.426 135.842 114.824 131.398 115.024 126.406C111.679 124.259 106.836 123.061 106.037 122.762Z" fill="url(#paint7_linear_8632_2617)" style="mix-blend-mode:multiply"/>
<path opacity="0.55" d="M81.8747 109.833C81.8747 109.833 81.7749 109.833 81.725 109.833C81.6751 109.833 81.6251 109.833 81.5752 109.833C52.0704 109.833 53.2186 125.709 55.1157 136.742C55.3154 136.642 58.6103 135.843 59.0097 135.693C56.6633 127.057 51.2217 112.529 81.5253 112.329C81.5752 112.329 81.6751 112.329 81.725 112.329C81.7749 112.329 81.8747 112.329 81.9247 112.329C112.228 112.529 106.837 127.057 104.44 135.693C104.84 135.893 108.135 136.642 108.334 136.742C110.231 125.709 111.43 109.833 81.8747 109.833Z" fill="url(#paint8_radial_8632_2617)" style="mix-blend-mode:multiply"/>
<path d="M0 20.8181L63.3031 120.516H103.092L34.5471 0L0 20.8181Z" fill="url(#paint9_linear_8632_2617)"/>
<path d="M7.03882 16.6238L72.239 120.515H95.0541L27.9069 3.99316L7.03882 16.6238Z" fill="url(#paint10_linear_8632_2617)"/>
<mask id="mask0_8632_2617" style="mask-type:luminance" maskUnits="userSpaceOnUse" x="26" y="121" width="112" height="111">
<path d="M81.875 231.547C112.342 231.547 137.041 206.848 137.041 176.381C137.041 145.914 112.342 121.216 81.875 121.216C51.4079 121.216 26.7095 145.914 26.7095 176.381C26.7095 206.848 51.4079 231.547 81.875 231.547Z" fill="white"/>
</mask>
<g mask="url(#mask0_8632_2617)">
<path d="M81.875 231.547C112.342 231.547 137.041 206.848 137.041 176.381C137.041 145.914 112.342 121.216 81.875 121.216C51.4079 121.216 26.7095 145.914 26.7095 176.381C26.7095 206.848 51.4079 231.547 81.875 231.547Z" fill="url(#paint11_radial_8632_2617)"/>
<path opacity="0.75" d="M81.875 121.216C51.4216 121.216 26.7095 145.928 26.7095 176.381C26.7095 206.835 51.4216 231.547 81.875 231.547C112.328 231.547 137.041 206.835 137.041 176.381C137.041 145.928 112.328 121.216 81.875 121.216ZM81.875 230.049C52.2204 230.049 28.2072 206.036 28.2072 176.381C28.2072 146.727 52.2204 122.714 81.875 122.714C111.53 122.714 135.543 146.727 135.543 176.381C135.543 206.036 111.53 230.049 81.875 230.049Z" fill="url(#paint12_radial_8632_2617)" style="mix-blend-mode:overlay"/>
<path opacity="0.75" d="M98.6526 216.607C120.87 207.345 131.372 181.826 122.11 159.609C112.849 137.392 87.33 126.889 65.1128 136.151C42.8956 145.413 32.3932 170.931 41.6549 193.149C50.9167 215.366 76.4354 225.868 98.6526 216.607Z" fill="url(#paint13_linear_8632_2617)" style="mix-blend-mode:screen"/>
<path opacity="0.32" d="M98.6526 216.607C120.87 207.345 131.372 181.826 122.11 159.609C112.849 137.392 87.33 126.889 65.1128 136.151C42.8956 145.413 32.3932 170.931 41.6549 193.149C50.9167 215.366 76.4354 225.868 98.6526 216.607Z" fill="url(#paint14_linear_8632_2617)" style="mix-blend-mode:screen"/>
<path d="M81.8743 218.519C105.145 218.519 124.01 199.654 124.01 176.384C124.01 153.113 105.145 134.248 81.8743 134.248C58.6035 134.248 39.7388 153.113 39.7388 176.384C39.7388 199.654 58.6035 218.519 81.8743 218.519Z" fill="url(#paint15_linear_8632_2617)"/>
<g opacity="0.75">
<g style="mix-blend-mode:multiply" opacity="0.85">
<path d="M116.272 181.475C115.573 181.375 115.074 180.726 115.224 180.077C115.324 179.428 115.873 178.879 116.572 178.929C117.271 178.929 117.82 179.628 117.77 180.327C117.67 181.026 117.021 181.575 116.322 181.425L116.272 181.475Z" fill="url(#paint16_linear_8632_2617)"/>
<path d="M115.175 186.416C114.526 186.216 114.076 185.518 114.276 184.869C114.426 184.22 115.125 183.82 115.824 183.97C116.522 184.12 116.922 184.819 116.722 185.518C116.522 186.216 115.824 186.616 115.175 186.416Z" fill="url(#paint17_linear_8632_2617)"/>
<path d="M113.327 191.159C112.678 190.859 112.429 190.11 112.728 189.511C112.978 188.862 113.677 188.563 114.326 188.812C114.975 189.062 115.324 189.811 115.074 190.51C114.775 191.159 113.976 191.458 113.377 191.159H113.327Z" fill="url(#paint18_linear_8632_2617)"/>
<path d="M110.881 195.604C110.281 195.204 110.132 194.406 110.431 193.856C110.781 193.307 111.58 193.108 112.179 193.457C112.778 193.807 112.977 194.555 112.628 195.204C112.229 195.853 111.48 196.003 110.881 195.604Z" fill="url(#paint19_linear_8632_2617)"/>
<path d="M107.735 199.597C107.236 199.147 107.136 198.349 107.636 197.849C108.085 197.35 108.834 197.25 109.383 197.65C109.932 198.049 110.032 198.898 109.583 199.447C109.083 199.996 108.285 200.046 107.735 199.597Z" fill="url(#paint20_linear_8632_2617)"/>
<path d="M104.141 203.14C103.691 202.591 103.741 201.792 104.241 201.343C104.74 200.894 105.539 200.944 106.038 201.443C106.537 201.942 106.487 202.741 105.938 203.24C105.389 203.739 104.59 203.69 104.141 203.14Z" fill="url(#paint21_linear_8632_2617)"/>
<path d="M99.9972 206.037C99.6477 205.438 99.7975 204.689 100.397 204.34C100.946 203.99 101.695 204.09 102.144 204.639C102.543 205.188 102.443 206.037 101.794 206.436C101.145 206.836 100.347 206.636 99.9972 206.037Z" fill="url(#paint22_linear_8632_2617)"/>
<path d="M95.5043 208.432C95.2547 207.783 95.5043 207.034 96.1034 206.735C96.7025 206.435 97.4513 206.735 97.8008 207.334C98.1502 207.933 97.8507 208.732 97.2017 209.031C96.5527 209.331 95.8038 209.031 95.5043 208.432Z" fill="url(#paint23_linear_8632_2617)"/>
<path d="M90.662 210.031C90.5122 209.332 90.8617 208.683 91.5107 208.483C92.1597 208.333 92.8586 208.633 93.0583 209.282C93.3079 209.931 92.9085 210.73 92.2096 210.929C91.5107 211.129 90.7618 210.73 90.6121 210.031H90.662Z" fill="url(#paint24_linear_8632_2617)"/>
<path d="M85.6698 210.979C85.6199 210.28 86.0692 209.631 86.7182 209.531C87.3672 209.431 88.0162 209.931 88.166 210.58C88.3157 211.279 87.8165 211.928 87.1176 212.027C86.4187 212.127 85.7696 211.678 85.6698 210.979Z" fill="url(#paint25_linear_8632_2617)"/>
<path d="M80.6267 211.129C80.6267 210.43 81.2258 209.881 81.8748 209.931C82.5238 209.931 83.1229 210.43 83.1229 211.129C83.1229 211.828 82.5737 212.427 81.8748 212.477C81.1259 212.477 80.5768 211.828 80.6267 211.129Z" fill="url(#paint26_linear_8632_2617)"/>
<path d="M75.585 210.581C75.7348 209.882 76.3838 209.433 77.0328 209.532C77.6818 209.632 78.181 210.281 78.0812 210.98C77.9813 211.679 77.3823 212.178 76.6334 212.029C75.9345 211.929 75.4352 211.28 75.585 210.581Z" fill="url(#paint27_linear_8632_2617)"/>
<path d="M70.642 209.28C70.8916 208.581 71.5406 208.282 72.1897 208.482C72.8387 208.631 73.2381 209.33 73.0384 210.029C72.8886 210.728 72.1397 211.128 71.4408 210.928C70.7419 210.728 70.3924 209.979 70.5921 209.28H70.642Z" fill="url(#paint28_linear_8632_2617)"/>
<path d="M65.9987 207.334C66.3481 206.735 67.097 206.435 67.6961 206.735C68.2952 207.034 68.5947 207.783 68.2952 208.432C68.0455 209.081 67.2468 209.331 66.5978 209.031C65.9488 208.732 65.6492 207.933 65.9987 207.334Z" fill="url(#paint29_linear_8632_2617)"/>
<path d="M61.6558 204.636C62.0552 204.037 62.804 203.937 63.4031 204.336C64.0022 204.686 64.1519 205.435 63.8025 206.034C63.453 206.633 62.6542 206.832 62.0052 206.433C61.4061 206.034 61.2564 205.185 61.6558 204.636Z" fill="url(#paint30_linear_8632_2617)"/>
<path d="M57.7622 201.395C58.2615 200.896 59.0602 200.846 59.5595 201.295C60.0587 201.745 60.1086 202.543 59.6593 203.093C59.21 203.642 58.4112 203.692 57.8621 203.192C57.3129 202.693 57.263 201.894 57.7622 201.395Z" fill="url(#paint31_linear_8632_2617)"/>
<path d="M54.3674 197.647C54.9166 197.198 55.7154 197.298 56.1147 197.847C56.5641 198.346 56.5141 199.145 56.0149 199.594C55.5157 200.044 54.667 199.994 54.1677 199.444C53.7184 198.895 53.8183 198.047 54.3674 197.647Z" fill="url(#paint32_linear_8632_2617)"/>
<path d="M51.5717 193.404C52.1708 193.055 52.9695 193.255 53.319 193.804C53.6685 194.353 53.4688 195.152 52.8697 195.551C52.2706 195.95 51.5218 195.751 51.1224 195.152C50.723 194.503 50.9227 193.754 51.5717 193.404Z" fill="url(#paint33_linear_8632_2617)"/>
<path d="M49.4248 188.812C50.0738 188.563 50.7727 188.862 51.0223 189.511C51.3219 190.11 51.0223 190.859 50.4233 191.159C49.7743 191.458 49.0254 191.159 48.7259 190.51C48.4762 189.811 48.7758 189.062 49.4747 188.812H49.4248Z" fill="url(#paint34_linear_8632_2617)"/>
<path d="M47.9265 183.97C48.6254 183.82 49.3243 184.22 49.4741 184.869C49.6239 185.518 49.2245 186.216 48.5755 186.416C47.9265 186.616 47.2275 186.216 47.0278 185.518C46.8282 184.819 47.2775 184.12 47.9265 183.97Z" fill="url(#paint35_linear_8632_2617)"/>
<path d="M47.2273 178.926C47.9262 178.926 48.4754 179.375 48.5752 180.074C48.6751 180.723 48.1758 181.372 47.5268 181.472C46.8279 181.572 46.1789 181.072 46.079 180.374C45.9792 179.625 46.5783 179.026 47.2772 178.976L47.2273 178.926Z" fill="url(#paint36_linear_8632_2617)"/>
<path d="M47.2278 173.838C47.9267 173.888 48.4759 174.487 48.426 175.136C48.426 175.785 47.777 176.334 47.078 176.334C46.3791 176.334 45.8299 175.735 45.8799 175.036C45.8799 174.287 46.5289 173.738 47.2278 173.838Z" fill="url(#paint37_linear_8632_2617)"/>
<path d="M47.9273 168.843C48.6263 168.993 49.0256 169.642 48.9258 170.34C48.826 170.989 48.1769 171.439 47.478 171.389C46.7791 171.289 46.3298 170.64 46.4296 169.891C46.5295 169.142 47.2284 168.743 47.9273 168.893V168.843Z" fill="url(#paint38_linear_8632_2617)"/>
<path d="M49.4247 164C50.0737 164.25 50.4232 164.999 50.1735 165.598C49.9239 166.247 49.225 166.596 48.576 166.397C47.877 166.197 47.5276 165.448 47.7772 164.799C48.0268 164.1 48.7757 163.751 49.4247 164Z" fill="url(#paint39_linear_8632_2617)"/>
<path d="M51.5711 159.36C52.1702 159.709 52.3699 160.458 52.1202 161.057C51.8207 161.656 51.0719 161.906 50.4228 161.606C49.7738 161.307 49.5242 160.558 49.8238 159.859C50.1233 159.21 50.9221 158.96 51.5711 159.31V159.36Z" fill="url(#paint40_linear_8632_2617)"/>
<path d="M54.3673 155.165C54.9165 155.614 55.0663 156.363 54.617 156.912C54.2176 157.461 53.4188 157.561 52.8696 157.211C52.2705 156.812 52.1208 156.013 52.5701 155.414C53.0194 154.815 53.8182 154.715 54.3673 155.115V155.165Z" fill="url(#paint41_linear_8632_2617)"/>
<path d="M57.7618 151.369C58.2611 151.868 58.2112 152.617 57.7618 153.166C57.3125 153.665 56.5138 153.665 56.0145 153.216C55.4654 152.767 55.4654 151.918 55.9646 151.369C56.4638 150.82 57.3125 150.87 57.7618 151.369Z" fill="url(#paint42_linear_8632_2617)"/>
<path d="M61.6554 148.128C62.0548 148.677 61.955 149.476 61.4058 149.875C60.8567 150.274 60.0579 150.174 59.6086 149.625C59.1593 149.076 59.2591 148.277 59.8582 147.828C60.4573 147.379 61.2561 147.479 61.6554 148.078V148.128Z" fill="url(#paint43_linear_8632_2617)"/>
<path d="M65.9992 145.48C66.3487 146.129 66.0491 146.828 65.5 147.177C64.9508 147.527 64.152 147.327 63.8026 146.728C63.4531 146.129 63.6528 145.33 64.2519 144.981C64.851 144.581 65.6997 144.881 65.9992 145.48Z" fill="url(#paint44_linear_8632_2617)"/>
<path d="M70.6417 143.483C70.8414 144.132 70.5419 144.881 69.8929 145.131C69.2439 145.38 68.5449 145.031 68.2454 144.382C67.9459 143.733 68.2454 142.984 68.9943 142.734C69.6932 142.485 70.442 142.834 70.6417 143.483Z" fill="url(#paint45_linear_8632_2617)"/>
<path d="M75.5845 142.234C75.7343 142.933 75.235 143.532 74.6359 143.732C73.9869 143.882 73.288 143.482 73.1382 142.783C72.9885 142.084 73.3879 141.386 74.0868 141.236C74.7857 141.036 75.4846 141.535 75.5845 142.234Z" fill="url(#paint46_linear_8632_2617)"/>
<path d="M80.6269 141.686C80.6269 142.385 80.1277 142.984 79.4288 143.034C78.7798 143.034 78.1307 142.535 78.0808 141.836C77.981 141.137 78.5301 140.488 79.279 140.488C80.0278 140.488 80.6269 140.988 80.6269 141.686Z" fill="url(#paint47_linear_8632_2617)"/>
<path d="M85.6696 141.834C85.5698 142.532 84.9707 143.032 84.3217 143.032C83.6727 143.032 83.1235 142.383 83.1235 141.684C83.1235 140.985 83.7725 140.436 84.4715 140.486C85.2203 140.486 85.7196 141.135 85.6696 141.834Z" fill="url(#paint48_linear_8632_2617)"/>
<path d="M90.6619 142.783C90.4622 143.482 89.8132 143.882 89.1642 143.732C88.5152 143.532 88.0659 142.933 88.2157 142.234C88.3155 141.535 89.0145 141.036 89.7134 141.236C90.4123 141.435 90.8616 142.134 90.6619 142.783Z" fill="url(#paint49_linear_8632_2617)"/>
<path d="M95.5046 144.382C95.255 145.031 94.5061 145.38 93.8571 145.131C93.2081 144.881 92.9086 144.182 93.1083 143.483C93.308 142.834 94.0568 142.485 94.7558 142.734C95.4547 142.984 95.7542 143.683 95.5046 144.382Z" fill="url(#paint50_linear_8632_2617)"/>
<path d="M99.9974 146.728C99.6479 147.327 98.8491 147.527 98.3 147.177C97.7508 146.828 97.4513 146.129 97.8007 145.48C98.1003 144.881 98.949 144.581 99.5481 144.981C100.197 145.38 100.397 146.129 99.9974 146.728Z" fill="url(#paint51_linear_8632_2617)"/>
<path d="M104.141 149.673C103.692 150.172 102.893 150.322 102.344 149.922C101.794 149.523 101.695 148.724 102.094 148.175C102.493 147.626 103.292 147.476 103.891 147.926C104.49 148.375 104.59 149.174 104.141 149.723V149.673Z" fill="url(#paint52_linear_8632_2617)"/>
<path d="M107.735 153.216C107.186 153.665 106.437 153.665 105.988 153.166C105.539 152.667 105.539 151.918 105.988 151.369C106.487 150.87 107.336 150.82 107.785 151.369C108.285 151.918 108.235 152.717 107.735 153.216Z" fill="url(#paint53_linear_8632_2617)"/>
<path d="M110.881 157.212C110.282 157.612 109.533 157.462 109.134 156.913C108.735 156.364 108.834 155.565 109.384 155.166C109.933 154.716 110.732 154.866 111.181 155.465C111.63 156.064 111.48 156.863 110.881 157.262V157.212Z" fill="url(#paint54_linear_8632_2617)"/>
<path d="M113.327 161.654C112.678 161.954 111.929 161.654 111.63 161.105C111.38 160.506 111.58 159.757 112.179 159.408C112.778 159.058 113.627 159.258 113.926 159.957C114.226 160.606 113.976 161.405 113.327 161.704V161.654Z" fill="url(#paint55_linear_8632_2617)"/>
<path d="M115.174 166.397C114.525 166.596 113.826 166.247 113.576 165.598C113.327 164.949 113.676 164.25 114.325 164C114.974 163.751 115.723 164.1 115.973 164.799C116.222 165.498 115.873 166.197 115.174 166.397Z" fill="url(#paint56_linear_8632_2617)"/>
<path d="M116.273 171.341C115.574 171.44 114.925 170.991 114.825 170.292C114.725 169.643 115.124 168.994 115.823 168.794C116.522 168.645 117.221 169.094 117.321 169.793C117.421 170.492 116.971 171.191 116.273 171.291V171.341Z" fill="url(#paint57_linear_8632_2617)"/>
<path d="M116.672 176.383C115.973 176.383 115.374 175.834 115.324 175.185C115.324 174.536 115.823 173.937 116.522 173.887C117.221 173.837 117.82 174.386 117.87 175.085C117.87 175.834 117.371 176.383 116.672 176.383Z" fill="url(#paint58_linear_8632_2617)"/>
</g>
<g style="mix-blend-mode:multiply" opacity="0.85">
<path d="M116.272 181.475C115.573 181.375 115.074 180.726 115.224 180.077C115.324 179.428 115.873 178.879 116.572 178.929C117.271 178.929 117.82 179.628 117.77 180.327C117.67 181.026 117.021 181.575 116.322 181.425L116.272 181.475Z" fill="url(#paint59_linear_8632_2617)"/>
<path d="M115.175 186.416C114.526 186.216 114.076 185.518 114.276 184.869C114.426 184.22 115.125 183.82 115.824 183.97C116.522 184.12 116.922 184.819 116.722 185.518C116.522 186.216 115.824 186.616 115.175 186.416Z" fill="url(#paint60_linear_8632_2617)"/>
<path d="M113.327 191.159C112.678 190.859 112.429 190.11 112.728 189.511C112.978 188.862 113.677 188.563 114.326 188.812C114.975 189.062 115.324 189.811 115.074 190.51C114.775 191.159 113.976 191.458 113.377 191.159H113.327Z" fill="url(#paint61_linear_8632_2617)"/>
<path d="M110.881 195.604C110.281 195.204 110.132 194.406 110.431 193.856C110.781 193.307 111.58 193.108 112.179 193.457C112.778 193.807 112.977 194.555 112.628 195.204C112.229 195.853 111.48 196.003 110.881 195.604Z" fill="url(#paint62_linear_8632_2617)"/>
<path d="M107.735 199.597C107.236 199.147 107.136 198.349 107.636 197.849C108.085 197.35 108.834 197.25 109.383 197.65C109.932 198.049 110.032 198.898 109.583 199.447C109.083 199.996 108.285 200.046 107.735 199.597Z" fill="url(#paint63_linear_8632_2617)"/>
<path d="M104.141 203.14C103.691 202.591 103.741 201.792 104.241 201.343C104.74 200.894 105.539 200.944 106.038 201.443C106.537 201.942 106.487 202.741 105.938 203.24C105.389 203.739 104.59 203.69 104.141 203.14Z" fill="url(#paint64_linear_8632_2617)"/>
<path d="M99.9972 206.037C99.6477 205.438 99.7975 204.689 100.397 204.34C100.946 203.99 101.695 204.09 102.144 204.639C102.543 205.188 102.443 206.037 101.794 206.436C101.145 206.836 100.347 206.636 99.9972 206.037Z" fill="url(#paint65_linear_8632_2617)"/>
<path d="M95.5043 208.432C95.2547 207.783 95.5043 207.034 96.1034 206.735C96.7025 206.435 97.4513 206.735 97.8008 207.334C98.1502 207.933 97.8507 208.732 97.2017 209.031C96.5527 209.331 95.8038 209.031 95.5043 208.432Z" fill="url(#paint66_linear_8632_2617)"/>
<path d="M90.662 210.031C90.5122 209.332 90.8617 208.683 91.5107 208.483C92.1597 208.333 92.8586 208.633 93.0583 209.282C93.3079 209.931 92.9085 210.73 92.2096 210.929C91.5107 211.129 90.7618 210.73 90.6121 210.031H90.662Z" fill="url(#paint67_linear_8632_2617)"/>
<path d="M85.6698 210.979C85.6199 210.28 86.0692 209.631 86.7182 209.531C87.3672 209.431 88.0162 209.931 88.166 210.58C88.3157 211.279 87.8165 211.928 87.1176 212.027C86.4187 212.127 85.7696 211.678 85.6698 210.979Z" fill="url(#paint68_linear_8632_2617)"/>
<path d="M80.6267 211.129C80.6267 210.43 81.2258 209.881 81.8748 209.931C82.5238 209.931 83.1229 210.43 83.1229 211.129C83.1229 211.828 82.5737 212.427 81.8748 212.477C81.1259 212.477 80.5768 211.828 80.6267 211.129Z" fill="url(#paint69_linear_8632_2617)"/>
<path d="M75.585 210.581C75.7348 209.882 76.3838 209.433 77.0328 209.532C77.6818 209.632 78.181 210.281 78.0812 210.98C77.9813 211.679 77.3823 212.178 76.6334 212.029C75.9345 211.929 75.4352 211.28 75.585 210.581Z" fill="url(#paint70_linear_8632_2617)"/>
<path d="M70.642 209.28C70.8916 208.581 71.5406 208.282 72.1897 208.482C72.8387 208.631 73.2381 209.33 73.0384 210.029C72.8886 210.728 72.1397 211.128 71.4408 210.928C70.7419 210.728 70.3924 209.979 70.5921 209.28H70.642Z" fill="url(#paint71_linear_8632_2617)"/>
<path d="M65.9987 207.334C66.3481 206.735 67.097 206.435 67.6961 206.735C68.2952 207.034 68.5947 207.783 68.2952 208.432C68.0455 209.081 67.2468 209.331 66.5978 209.031C65.9488 208.732 65.6492 207.933 65.9987 207.334Z" fill="url(#paint72_linear_8632_2617)"/>
<path d="M61.6558 204.636C62.0552 204.037 62.804 203.937 63.4031 204.336C64.0022 204.686 64.1519 205.435 63.8025 206.034C63.453 206.633 62.6542 206.832 62.0052 206.433C61.4061 206.034 61.2564 205.185 61.6558 204.636Z" fill="url(#paint73_linear_8632_2617)"/>
<path d="M57.7622 201.395C58.2615 200.896 59.0602 200.846 59.5595 201.295C60.0587 201.745 60.1086 202.543 59.6593 203.093C59.21 203.642 58.4112 203.692 57.8621 203.192C57.3129 202.693 57.263 201.894 57.7622 201.395Z" fill="url(#paint74_linear_8632_2617)"/>
<path d="M54.3674 197.647C54.9166 197.198 55.7154 197.298 56.1147 197.847C56.5641 198.346 56.5141 199.145 56.0149 199.594C55.5157 200.044 54.667 199.994 54.1677 199.444C53.7184 198.895 53.8183 198.047 54.3674 197.647Z" fill="url(#paint75_linear_8632_2617)"/>
<path d="M51.5717 193.404C52.1708 193.055 52.9695 193.255 53.319 193.804C53.6685 194.353 53.4688 195.152 52.8697 195.551C52.2706 195.95 51.5218 195.751 51.1224 195.152C50.723 194.503 50.9227 193.754 51.5717 193.404Z" fill="url(#paint76_linear_8632_2617)"/>
<path d="M49.4248 188.812C50.0738 188.563 50.7727 188.862 51.0223 189.511C51.3219 190.11 51.0223 190.859 50.4233 191.159C49.7743 191.458 49.0254 191.159 48.7259 190.51C48.4762 189.811 48.7758 189.062 49.4747 188.812H49.4248Z" fill="url(#paint77_linear_8632_2617)"/>
<path d="M47.9265 183.97C48.6254 183.82 49.3243 184.22 49.4741 184.869C49.6239 185.518 49.2245 186.216 48.5755 186.416C47.9265 186.616 47.2275 186.216 47.0278 185.518C46.8282 184.819 47.2775 184.12 47.9265 183.97Z" fill="url(#paint78_linear_8632_2617)"/>
<path d="M47.2273 178.926C47.9262 178.926 48.4754 179.375 48.5752 180.074C48.6751 180.723 48.1758 181.372 47.5268 181.472C46.8279 181.572 46.1789 181.072 46.079 180.374C45.9792 179.625 46.5783 179.026 47.2772 178.976L47.2273 178.926Z" fill="url(#paint79_linear_8632_2617)"/>
<path d="M47.2278 173.838C47.9267 173.888 48.4759 174.487 48.426 175.136C48.426 175.785 47.777 176.334 47.078 176.334C46.3791 176.334 45.8299 175.735 45.8799 175.036C45.8799 174.287 46.5289 173.738 47.2278 173.838Z" fill="url(#paint80_linear_8632_2617)"/>
<path d="M47.9273 168.843C48.6263 168.993 49.0256 169.642 48.9258 170.34C48.826 170.989 48.1769 171.439 47.478 171.389C46.7791 171.289 46.3298 170.64 46.4296 169.891C46.5295 169.142 47.2284 168.743 47.9273 168.893V168.843Z" fill="url(#paint81_linear_8632_2617)"/>
<path d="M49.4247 164C50.0737 164.25 50.4232 164.999 50.1735 165.598C49.9239 166.247 49.225 166.596 48.576 166.397C47.877 166.197 47.5276 165.448 47.7772 164.799C48.0268 164.1 48.7757 163.751 49.4247 164Z" fill="url(#paint82_linear_8632_2617)"/>
<path d="M51.5711 159.36C52.1702 159.709 52.3699 160.458 52.1202 161.057C51.8207 161.656 51.0719 161.906 50.4228 161.606C49.7738 161.307 49.5242 160.558 49.8238 159.859C50.1233 159.21 50.9221 158.96 51.5711 159.31V159.36Z" fill="url(#paint83_linear_8632_2617)"/>
<path d="M54.3673 155.165C54.9165 155.614 55.0663 156.363 54.617 156.912C54.2176 157.461 53.4188 157.561 52.8696 157.211C52.2705 156.812 52.1208 156.013 52.5701 155.414C53.0194 154.815 53.8182 154.715 54.3673 155.115V155.165Z" fill="url(#paint84_linear_8632_2617)"/>
<path d="M57.7618 151.369C58.2611 151.868 58.2112 152.617 57.7618 153.166C57.3125 153.665 56.5138 153.665 56.0145 153.216C55.4654 152.767 55.4654 151.918 55.9646 151.369C56.4638 150.82 57.3125 150.87 57.7618 151.369Z" fill="url(#paint85_linear_8632_2617)"/>
<path d="M61.6554 148.128C62.0548 148.677 61.955 149.476 61.4058 149.875C60.8567 150.274 60.0579 150.174 59.6086 149.625C59.1593 149.076 59.2591 148.277 59.8582 147.828C60.4573 147.379 61.2561 147.479 61.6554 148.078V148.128Z" fill="url(#paint86_linear_8632_2617)"/>
<path d="M65.9992 145.48C66.3487 146.129 66.0491 146.828 65.5 147.177C64.9508 147.527 64.152 147.327 63.8026 146.728C63.4531 146.129 63.6528 145.33 64.2519 144.981C64.851 144.581 65.6997 144.881 65.9992 145.48Z" fill="url(#paint87_linear_8632_2617)"/>
<path d="M70.6417 143.483C70.8414 144.132 70.5419 144.881 69.8929 145.131C69.2439 145.38 68.5449 145.031 68.2454 144.382C67.9459 143.733 68.2454 142.984 68.9943 142.734C69.6932 142.485 70.442 142.834 70.6417 143.483Z" fill="url(#paint88_linear_8632_2617)"/>
<path d="M75.5845 142.234C75.7343 142.933 75.235 143.532 74.6359 143.732C73.9869 143.882 73.288 143.482 73.1382 142.783C72.9885 142.084 73.3879 141.386 74.0868 141.236C74.7857 141.036 75.4846 141.535 75.5845 142.234Z" fill="url(#paint89_linear_8632_2617)"/>
<path d="M80.6269 141.686C80.6269 142.385 80.1277 142.984 79.4288 143.034C78.7798 143.034 78.1307 142.535 78.0808 141.836C77.981 141.137 78.5301 140.488 79.279 140.488C80.0278 140.488 80.6269 140.988 80.6269 141.686Z" fill="url(#paint90_linear_8632_2617)"/>
<path d="M85.6696 141.834C85.5698 142.532 84.9707 143.032 84.3217 143.032C83.6727 143.032 83.1235 142.383 83.1235 141.684C83.1235 140.985 83.7725 140.436 84.4715 140.486C85.2203 140.486 85.7196 141.135 85.6696 141.834Z" fill="url(#paint91_linear_8632_2617)"/>
<path d="M90.6619 142.783C90.4622 143.482 89.8132 143.882 89.1642 143.732C88.5152 143.532 88.0659 142.933 88.2157 142.234C88.3155 141.535 89.0145 141.036 89.7134 141.236C90.4123 141.435 90.8616 142.134 90.6619 142.783Z" fill="url(#paint92_linear_8632_2617)"/>
<path d="M95.5046 144.382C95.255 145.031 94.5061 145.38 93.8571 145.131C93.2081 144.881 92.9086 144.182 93.1083 143.483C93.308 142.834 94.0568 142.485 94.7558 142.734C95.4547 142.984 95.7542 143.683 95.5046 144.382Z" fill="url(#paint93_linear_8632_2617)"/>
<path d="M99.9974 146.728C99.6479 147.327 98.8491 147.527 98.3 147.177C97.7508 146.828 97.4513 146.129 97.8007 145.48C98.1003 144.881 98.949 144.581 99.5481 144.981C100.197 145.38 100.397 146.129 99.9974 146.728Z" fill="url(#paint94_linear_8632_2617)"/>
<path d="M104.141 149.673C103.692 150.172 102.893 150.322 102.344 149.922C101.794 149.523 101.695 148.724 102.094 148.175C102.493 147.626 103.292 147.476 103.891 147.926C104.49 148.375 104.59 149.174 104.141 149.723V149.673Z" fill="url(#paint95_linear_8632_2617)"/>
<path d="M107.735 153.216C107.186 153.665 106.437 153.665 105.988 153.166C105.539 152.667 105.539 151.918 105.988 151.369C106.487 150.87 107.336 150.82 107.785 151.369C108.285 151.918 108.235 152.717 107.735 153.216Z" fill="url(#paint96_linear_8632_2617)"/>
<path d="M110.881 157.212C110.282 157.612 109.533 157.462 109.134 156.913C108.735 156.364 108.834 155.565 109.384 155.166C109.933 154.716 110.732 154.866 111.181 155.465C111.63 156.064 111.48 156.863 110.881 157.262V157.212Z" fill="url(#paint97_linear_8632_2617)"/>
<path d="M113.327 161.654C112.678 161.954 111.929 161.654 111.63 161.105C111.38 160.506 111.58 159.757 112.179 159.408C112.778 159.058 113.627 159.258 113.926 159.957C114.226 160.606 113.976 161.405 113.327 161.704V161.654Z" fill="url(#paint98_linear_8632_2617)"/>
<path d="M115.174 166.397C114.525 166.596 113.826 166.247 113.576 165.598C113.327 164.949 113.676 164.25 114.325 164C114.974 163.751 115.723 164.1 115.973 164.799C116.222 165.498 115.873 166.197 115.174 166.397Z" fill="url(#paint99_linear_8632_2617)"/>
<path d="M116.273 171.341C115.574 171.44 114.925 170.991 114.825 170.292C114.725 169.643 115.124 168.994 115.823 168.794C116.522 168.645 117.221 169.094 117.321 169.793C117.421 170.492 116.971 171.191 116.273 171.291V171.341Z" fill="url(#paint100_linear_8632_2617)"/>
<path d="M116.672 176.383C115.973 176.383 115.374 175.834 115.324 175.185C115.324 174.536 115.823 173.937 116.522 173.887C117.221 173.837 117.82 174.386 117.87 175.085C117.87 175.834 117.371 176.383 116.672 176.383Z" fill="url(#paint101_linear_8632_2617)"/>
</g>
</g>
<path d="M81.8743 134.248C58.6099 134.248 39.7388 153.119 39.7388 176.384C39.7388 199.648 58.6099 218.519 81.8743 218.519C105.139 218.519 124.01 199.648 124.01 176.384C124.01 153.119 105.139 134.248 81.8743 134.248ZM81.8743 215.823C60.1076 215.823 42.4846 198.2 42.4846 176.433C42.4846 154.667 60.1076 137.044 81.8743 137.044C103.641 137.044 121.264 154.667 121.264 176.433C121.264 198.2 103.641 215.823 81.8743 215.823Z" fill="url(#paint102_linear_8632_2617)"/>
<mask id="mask1_8632_2617" style="mask-type:luminance" maskUnits="userSpaceOnUse" x="73" y="118" width="68" height="47">
<path d="M114.924 126.608C132.996 135.994 144.129 150.422 139.786 158.759C135.443 167.096 117.271 166.247 99.1982 156.862C81.1259 147.476 69.9929 133.048 74.3363 124.711C78.6796 116.374 96.8518 117.222 114.924 126.658V126.608Z" fill="url(#paint103_radial_8632_2617)" style="mix-blend-mode:multiply"/>
</mask>
<g mask="url(#mask1_8632_2617)">
<path d="M114.924 126.608C132.996 135.994 144.129 150.422 139.786 158.759C135.443 167.096 117.271 166.247 99.1982 156.862C81.1259 147.476 69.9929 133.048 74.3363 124.711C78.6796 116.374 96.8518 117.222 114.924 126.658V126.608Z" fill="url(#paint104_radial_8632_2617)" style="mix-blend-mode:screen"/>
</g>
<mask id="mask2_8632_2617" style="mask-type:luminance" maskUnits="userSpaceOnUse" x="94" y="128" width="26" height="27">
<path d="M118.419 147.577C115.174 153.867 107.436 156.413 101.195 153.168C94.9048 149.923 92.4585 142.235 95.7035 135.895C98.9486 129.604 106.687 127.058 112.927 130.303C119.168 133.548 121.664 141.236 118.419 147.577Z" fill="url(#paint105_radial_8632_2617)"/>
</mask>
<g mask="url(#mask2_8632_2617)">
<path d="M118.419 147.577C115.174 153.867 107.436 156.413 101.195 153.168C94.9048 149.923 92.4585 142.235 95.7035 135.895C98.9486 129.604 106.687 127.058 112.927 130.303C119.168 133.548 121.664 141.236 118.419 147.577Z" fill="url(#paint106_radial_8632_2617)" style="mix-blend-mode:screen"/>
</g>
<mask id="mask3_8632_2617" style="mask-type:luminance" maskUnits="userSpaceOnUse" x="35" y="193" width="38" height="30">
<path d="M59.509 198.897C69.1941 204.938 74.4361 214.024 71.241 219.266C67.996 224.508 57.512 223.809 47.7769 217.818C38.0418 211.828 32.8498 202.692 36.0449 197.45C39.2899 192.208 49.7739 192.907 59.509 198.897Z" fill="url(#paint107_radial_8632_2617)" style="mix-blend-mode:multiply"/>
</mask>
<g mask="url(#mask3_8632_2617)">
<path d="M59.509 198.897C69.1941 204.938 74.4361 214.024 71.241 219.266C67.996 224.508 57.512 223.809 47.7769 217.818C38.0418 211.828 32.8498 202.692 36.0449 197.45C39.2899 192.208 49.7739 192.907 59.509 198.897Z" fill="url(#paint108_radial_8632_2617)" style="mix-blend-mode:screen"/>
</g>
</g>
<path d="M98.2997 183.92H90.3119C89.9625 183.92 89.6629 183.621 89.6629 183.271V154.565C89.6629 154.216 89.3634 153.916 89.0139 153.916H85.8687C85.8687 153.916 85.669 153.916 85.5692 154.016C83.073 155.514 79.778 156.862 76.533 158.16C73.238 159.507 69.5936 159.857 68.1958 159.907C67.8463 159.907 67.5967 160.206 67.5967 160.556V167.445C67.5967 167.795 67.8962 168.094 68.2457 168.094H76.5829C76.9324 168.094 77.2319 168.394 77.2319 168.743V183.271C77.2319 183.621 76.9324 183.92 76.5829 183.92H68.2457C67.8962 183.92 67.5967 184.22 67.5967 184.569V193.555C67.5967 193.905 67.8962 194.204 68.2457 194.204H98.3496C98.6991 194.204 98.9986 193.905 98.9986 193.555V184.569C98.9986 184.22 98.6991 183.92 98.3496 183.92H98.2997Z" fill="url(#paint109_linear_8632_2617)"/>
<path d="M89.6627 184.816H97.2511C97.6006 184.816 97.9001 185.116 97.9001 185.465V192.854C97.9001 193.203 97.6006 193.503 97.2511 193.503H69.244C68.8945 193.503 68.595 193.203 68.595 192.854V185.465C68.595 185.116 68.8945 184.816 69.244 184.816H77.1319C77.4814 184.816 77.7809 184.517 77.7809 184.167V167.892C77.7809 167.543 77.4814 167.243 77.1319 167.243H69.244C68.8945 167.243 68.595 166.943 68.595 166.594V161.302C68.595 160.953 68.8446 160.703 69.1441 160.653C74.2863 160.154 80.8262 157.458 85.1197 154.712C85.2195 154.662 85.3194 154.612 85.4691 154.612H88.4146C88.7641 154.612 89.0636 154.912 89.0636 155.261V184.217C89.0636 184.566 89.3632 184.866 89.7126 184.866L89.6627 184.816Z" fill="url(#paint110_linear_8632_2617)"/>
<path opacity="0.55" d="M116.971 133.795C116.122 133.096 115.224 132.497 114.375 131.848V131.798C114.375 131.748 114.375 131.698 114.375 131.599C114.375 131.349 114.475 131.099 114.525 130.85C114.525 130.65 114.575 130.4 114.625 130.151C114.625 130.101 114.625 130.001 114.625 129.951C114.874 128.403 115.024 126.806 114.974 125.109C114.974 124.609 114.974 124.11 114.974 123.561C114.974 123.062 114.924 122.512 114.824 122.013C114.724 120.965 114.525 119.966 114.225 118.918C114.075 118.269 113.826 117.62 113.576 116.971C113.327 116.272 113.027 115.573 112.678 114.874C111.879 113.277 110.78 111.779 109.433 110.381L111.03 107.885L166.345 20.8181L159.506 16.6745V16.5746L138.688 3.99389V4.09373L131.798 0H34.597V0.149771L34.5471 0L27.9073 3.99389L24.7122 5.94091L0 20.8181L55.7646 108.634C52.0703 111.579 50.0234 115.174 49.025 118.918C48.6256 120.466 48.376 122.013 48.326 123.561C48.326 124.06 48.326 124.559 48.326 125.109C48.326 126.107 48.326 127.105 48.4758 128.054C48.4758 128.154 48.4758 128.254 48.4758 128.403C48.4758 128.503 48.4758 128.653 48.4758 128.753C48.5257 129.202 48.5756 129.652 48.6256 130.051C48.6256 130.151 48.6256 130.301 48.6755 130.4C48.7254 130.85 48.8253 131.299 48.9251 131.698C48.9251 131.748 48.9251 131.848 48.9251 131.898C48.9251 131.948 48.9251 131.998 48.9251 132.048C45.3306 134.694 42.0357 137.789 39.19 141.234C36.9435 143.98 34.9465 146.925 33.2491 150.02C29.0056 157.858 26.6093 166.795 26.6093 176.33C26.6093 182.021 27.458 187.563 29.1055 192.755C30.2038 196.2 31.6016 199.545 33.299 202.64C34.9964 205.785 36.9934 208.731 39.2399 211.426C40.3882 212.774 41.5364 214.072 42.7845 215.32C45.2807 217.817 48.0265 220.063 50.972 222.06C59.7585 228.001 70.3923 231.496 81.8248 231.496C93.2573 231.496 103.891 228.001 112.678 222.06C122.962 215.121 130.75 204.787 134.544 192.705C136.142 187.513 137.04 182.021 137.04 176.28C137.04 166.745 134.644 157.808 130.4 149.97C127.006 143.73 122.413 138.189 116.971 133.695V133.795ZM63.3031 120.516H103.092L104.191 118.818C104.889 119.717 105.439 120.715 105.788 121.714C105.888 122.063 105.988 122.413 106.088 122.762C106.337 123.811 106.387 124.909 106.387 126.007C106.387 126.007 106.387 126.057 106.387 126.107C106.387 126.407 106.387 126.656 106.337 126.956C98.9485 123.311 90.7112 121.214 81.9246 121.214C73.1381 121.214 64.6011 123.361 57.1126 127.155C57.0627 126.407 57.0127 125.708 57.0627 125.009C57.0627 125.009 57.0627 125.009 57.0627 124.959C57.0627 124.46 57.1625 123.91 57.2124 123.411C57.3123 122.862 57.462 122.313 57.6118 121.764C58.2109 120.016 59.2593 118.419 61.0565 117.021L63.3031 120.565V120.516ZM65.9491 36.4442H111.13L83.2226 85.5191L55.3153 36.4442H65.9491Z" fill="url(#paint111_radial_8632_2617)" style="mix-blend-mode:overlay"/>
<defs>
<linearGradient id="paint0_linear_8632_2617" x1="34.5969" y1="18.2221" x2="131.848" y2="18.2221" gradientUnits="userSpaceOnUse">
<stop stop-color="#9D0000"/>
<stop offset="0.5" stop-color="#BE0000"/>
<stop offset="1" stop-color="#9D0000"/>
</linearGradient>
<linearGradient id="paint1_linear_8632_2617" x1="148.373" y1="11.6322" x2="81.3252" y2="120.715" gradientUnits="userSpaceOnUse">
<stop stop-color="#DB1A1F"/>
<stop offset="0.67" stop-color="#DE1E23"/>
<stop offset="0.71" stop-color="#DF1F24"/>
<stop offset="0.73" stop-color="#D81B20"/>
<stop offset="0.82" stop-color="#C31217"/>
<stop offset="0.91" stop-color="#B70C11"/>
<stop offset="1" stop-color="#B30B10"/>
</linearGradient>
<linearGradient id="paint2_linear_8632_2617" x1="148.672" y1="11.1322" x2="84.8701" y2="121.164" gradientUnits="userSpaceOnUse">
<stop stop-color="#F0E8E5"/>
<stop offset="0.58" stop-color="#EEE6E2"/>
<stop offset="0.82" stop-color="#EAE0DB"/>
<stop offset="0.99" stop-color="#E3D5CF"/>
<stop offset="1" stop-color="#E3D5CF"/>
</linearGradient>
<radialGradient id="paint3_radial_8632_2617" cx="0" cy="0" r="1" gradientUnits="userSpaceOnUse" gradientTransform="translate(81.7005 120.016) scale(26.8339)">
<stop offset="0.01" stop-color="#F6C054"/>
<stop offset="0.54" stop-color="#FFEA72"/>
<stop offset="0.58" stop-color="#FFEF71"/>
<stop offset="0.59" stop-color="#FFF171"/>
<stop offset="0.82" stop-color="#FFE05A"/>
<stop offset="0.96" stop-color="#FFD44A"/>
</radialGradient>
<radialGradient id="paint4_radial_8632_2617" cx="0" cy="0" r="1" gradientUnits="userSpaceOnUse" gradientTransform="translate(81.7005 120.016) scale(26.8339)">
<stop offset="0.01" stop-color="#F6C054"/>
<stop offset="0.54" stop-color="#FFEA72"/>
<stop offset="0.58" stop-color="#FFEF71"/>
<stop offset="0.59" stop-color="#FFF171"/>
<stop offset="0.82" stop-color="#FFE05A"/>
<stop offset="0.96" stop-color="#FFD44A"/>
</radialGradient>
<radialGradient id="paint5_radial_8632_2617" cx="0" cy="0" r="1" gradientUnits="userSpaceOnUse" gradientTransform="translate(109.059 108.583) scale(39.4896 39.4896)">
<stop stop-color="#FFFFC3"/>
<stop offset="0.95" stop-color="#FFEA72"/>
</radialGradient>
<linearGradient id="paint6_linear_8632_2617" x1="48.2755" y1="130.7" x2="115.073" y2="130.7" gradientUnits="userSpaceOnUse">
<stop stop-color="#AA7238"/>
<stop offset="0.25" stop-color="#C08443"/>
<stop offset="0.35" stop-color="#BE8241"/>
<stop offset="0.39" stop-color="#B77B3D"/>
<stop offset="0.42" stop-color="#AC6F35"/>
<stop offset="0.44" stop-color="#9C5E2B"/>
<stop offset="0.46" stop-color="#88481D"/>
<stop offset="0.47" stop-color="#7A3A14"/>
<stop offset="0.64" stop-color="#7B3C15"/>
<stop offset="0.72" stop-color="#82431A"/>
<stop offset="0.79" stop-color="#8D5122"/>
<stop offset="0.85" stop-color="#9D642E"/>
<stop offset="0.9" stop-color="#B27C3E"/>
<stop offset="0.95" stop-color="#CC9A51"/>
<stop offset="0.99" stop-color="#EABD67"/>
<stop offset="1" stop-color="#F0C46C"/>
</linearGradient>
<linearGradient id="paint7_linear_8632_2617" x1="48.2758" y1="130.4" x2="115.074" y2="130.4" gradientUnits="userSpaceOnUse">
<stop stop-color="#AA7238"/>
<stop offset="0.25" stop-color="#C08443"/>
<stop offset="0.35" stop-color="#BE8241"/>
<stop offset="0.39" stop-color="#B77B3D"/>
<stop offset="0.42" stop-color="#AC6F35"/>
<stop offset="0.44" stop-color="#9C5E2B"/>
<stop offset="0.46" stop-color="#88481D"/>
<stop offset="0.47" stop-color="#7A3A14"/>
<stop offset="0.64" stop-color="#7B3C15"/>
<stop offset="0.72" stop-color="#82431A"/>
<stop offset="0.79" stop-color="#8D5122"/>
<stop offset="0.85" stop-color="#9D642E"/>
<stop offset="0.9" stop-color="#B27C3E"/>
<stop offset="0.95" stop-color="#CC9A51"/>
<stop offset="0.99" stop-color="#EABD67"/>
<stop offset="1" stop-color="#F0C46C"/>
</linearGradient>
<radialGradient id="paint8_radial_8632_2617" cx="0" cy="0" r="1" gradientUnits="userSpaceOnUse" gradientTransform="translate(81.7 123.237) scale(21.6169 21.6169)">
<stop offset="0.34" stop-color="#FFEA72"/>
<stop offset="0.99" stop-color="#B35C00"/>
</radialGradient>
<linearGradient id="paint9_linear_8632_2617" x1="17.3235" y1="10.5339" x2="82.4738" y2="121.214" gradientUnits="userSpaceOnUse">
<stop stop-color="#DB1A1F"/>
<stop offset="0.67" stop-color="#DE1E23"/>
<stop offset="0.71" stop-color="#DF1F24"/>
<stop offset="0.73" stop-color="#D81B20"/>
<stop offset="0.82" stop-color="#C31217"/>
<stop offset="0.91" stop-color="#B70C11"/>
<stop offset="1" stop-color="#B30B10"/>
</linearGradient>
<linearGradient id="paint10_linear_8632_2617" x1="17.9222" y1="11.1322" x2="81.7744" y2="121.164" gradientUnits="userSpaceOnUse">
<stop stop-color="#F0E8E5"/>
<stop offset="0.58" stop-color="#EEE6E2"/>
<stop offset="0.82" stop-color="#EAE0DB"/>
<stop offset="0.99" stop-color="#E3D5CF"/>
<stop offset="1" stop-color="#E3D5CF"/>
</linearGradient>
<radialGradient id="paint11_radial_8632_2617" cx="0" cy="0" r="1" gradientUnits="userSpaceOnUse" gradientTransform="translate(43.5088 214.723) scale(107.186)">
<stop offset="0.01" stop-color="#F6C054"/>
<stop offset="0.3" stop-color="#F2A942"/>
<stop offset="0.54" stop-color="#FFEA72"/>
<stop offset="0.58" stop-color="#FFEF71"/>
<stop offset="0.59" stop-color="#FFF171"/>
<stop offset="0.76" stop-color="#FADA61"/>
<stop offset="0.96" stop-color="#F3B94A"/>
</radialGradient>
<radialGradient id="paint12_radial_8632_2617" cx="0" cy="0" r="1" gradientUnits="userSpaceOnUse" gradientTransform="translate(43.5088 214.723) scale(107.186)">
<stop stop-color="#FFFFC3"/>
<stop offset="0.95" stop-color="#FFEA72"/>
</radialGradient>
<linearGradient id="paint13_linear_8632_2617" x1="115.546" y1="149.216" x2="48.1492" y2="203.632" gradientUnits="userSpaceOnUse">
<stop offset="0.48" stop-color="#CC9434"/>
<stop offset="0.68" stop-color="#FFEA72"/>
<stop offset="0.76" stop-color="#FFE66C"/>
<stop offset="0.87" stop-color="#FFDE5C"/>
<stop offset="0.96" stop-color="#FFD44A"/>
</linearGradient>
<linearGradient id="paint14_linear_8632_2617" x1="61.9781" y1="136.385" x2="101.717" y2="216.163" gradientUnits="userSpaceOnUse">
<stop offset="0.48" stop-color="#CC9434"/>
<stop offset="0.68" stop-color="#FFEA72"/>
<stop offset="0.76" stop-color="#FFE66C"/>
<stop offset="0.87" stop-color="#FFDE5C"/>
<stop offset="0.96" stop-color="#FFD44A"/>
</linearGradient>
<linearGradient id="paint15_linear_8632_2617" x1="109.582" y1="151.921" x2="50.6221" y2="204.041" gradientUnits="userSpaceOnUse">
<stop offset="0.01" stop-color="#F6C054"/>
<stop offset="0.54" stop-color="#FFEA72"/>
<stop offset="0.58" stop-color="#FFEF71"/>
<stop offset="0.59" stop-color="#FFF171"/>
<stop offset="0.82" stop-color="#FFE05A"/>
<stop offset="0.96" stop-color="#FFD44A"/>
</linearGradient>
<linearGradient id="paint16_linear_8632_2617" x1="115.174" y1="180.177" x2="117.72" y2="180.177" gradientUnits="userSpaceOnUse">
<stop stop-color="#F3CE5E"/>
<stop offset="1" stop-color="#F2BE4A"/>
</linearGradient>
<linearGradient id="paint17_linear_8632_2617" x1="114.226" y1="185.218" x2="116.772" y2="185.218" gradientUnits="userSpaceOnUse">
<stop stop-color="#F3CE5E"/>
<stop offset="1" stop-color="#F2BE4A"/>
</linearGradient>
<linearGradient id="paint18_linear_8632_2617" x1="112.628" y1="190.01" x2="115.174" y2="190.01" gradientUnits="userSpaceOnUse">
<stop stop-color="#F3CE5E"/>
<stop offset="1" stop-color="#F2BE4A"/>
</linearGradient>
<linearGradient id="paint19_linear_8632_2617" x1="110.281" y1="194.505" x2="112.828" y2="194.505" gradientUnits="userSpaceOnUse">
<stop stop-color="#F3CE5E"/>
<stop offset="1" stop-color="#F2BE4A"/>
</linearGradient>
<linearGradient id="paint20_linear_8632_2617" x1="107.336" y1="198.648" x2="109.882" y2="198.648" gradientUnits="userSpaceOnUse">
<stop stop-color="#F3CE5E"/>
<stop offset="1" stop-color="#F2BE4A"/>
</linearGradient>
<linearGradient id="paint21_linear_8632_2617" x1="103.791" y1="202.292" x2="106.337" y2="202.292" gradientUnits="userSpaceOnUse">
<stop stop-color="#F3CE5E"/>
<stop offset="1" stop-color="#F2BE4A"/>
</linearGradient>
<linearGradient id="paint22_linear_8632_2617" x1="99.7975" y1="205.388" x2="102.344" y2="205.388" gradientUnits="userSpaceOnUse">
<stop stop-color="#F3CE5E"/>
<stop offset="1" stop-color="#F2BE4A"/>
</linearGradient>
<linearGradient id="paint23_linear_8632_2617" x1="95.4044" y1="207.883" x2="97.9006" y2="207.883" gradientUnits="userSpaceOnUse">
<stop stop-color="#F3CE5E"/>
<stop offset="1" stop-color="#F2BE4A"/>
</linearGradient>
<linearGradient id="paint24_linear_8632_2617" x1="90.6121" y1="209.681" x2="93.1582" y2="209.681" gradientUnits="userSpaceOnUse">
<stop stop-color="#F3CE5E"/>
<stop offset="1" stop-color="#F2BE4A"/>
</linearGradient>
<linearGradient id="paint25_linear_8632_2617" x1="85.6698" y1="210.779" x2="88.2159" y2="210.779" gradientUnits="userSpaceOnUse">
<stop stop-color="#F3CE5E"/>
<stop offset="1" stop-color="#F2BE4A"/>
</linearGradient>
<linearGradient id="paint26_linear_8632_2617" x1="80.6267" y1="211.179" x2="83.1728" y2="211.179" gradientUnits="userSpaceOnUse">
<stop stop-color="#F3CE5E"/>
<stop offset="1" stop-color="#F2BE4A"/>
</linearGradient>
<linearGradient id="paint27_linear_8632_2617" x1="75.5351" y1="210.78" x2="78.0812" y2="210.78" gradientUnits="userSpaceOnUse">
<stop stop-color="#F3CE5E"/>
<stop offset="1" stop-color="#F2BE4A"/>
</linearGradient>
<linearGradient id="paint28_linear_8632_2617" x1="70.5921" y1="209.68" x2="73.1382" y2="209.68" gradientUnits="userSpaceOnUse">
<stop stop-color="#F3CE5E"/>
<stop offset="1" stop-color="#F2BE4A"/>
</linearGradient>
<linearGradient id="paint29_linear_8632_2617" x1="65.8489" y1="207.883" x2="68.395" y2="207.883" gradientUnits="userSpaceOnUse">
<stop stop-color="#F3CE5E"/>
<stop offset="1" stop-color="#F2BE4A"/>
</linearGradient>
<linearGradient id="paint30_linear_8632_2617" x1="61.4061" y1="205.385" x2="63.9522" y2="205.385" gradientUnits="userSpaceOnUse">
<stop stop-color="#F3CE5E"/>
<stop offset="1" stop-color="#F2BE4A"/>
</linearGradient>
<linearGradient id="paint31_linear_8632_2617" x1="57.4128" y1="202.294" x2="59.9589" y2="202.294" gradientUnits="userSpaceOnUse">
<stop stop-color="#F3CE5E"/>
<stop offset="1" stop-color="#F2BE4A"/>
</linearGradient>
<linearGradient id="paint32_linear_8632_2617" x1="53.8682" y1="198.646" x2="56.4143" y2="198.646" gradientUnits="userSpaceOnUse">
<stop stop-color="#F3CE5E"/>
<stop offset="1" stop-color="#F2BE4A"/>
</linearGradient>
<linearGradient id="paint33_linear_8632_2617" x1="50.9227" y1="194.503" x2="53.4688" y2="194.503" gradientUnits="userSpaceOnUse">
<stop stop-color="#F3CE5E"/>
<stop offset="1" stop-color="#F2BE4A"/>
</linearGradient>
<linearGradient id="paint34_linear_8632_2617" x1="48.5761" y1="190.01" x2="51.1721" y2="190.01" gradientUnits="userSpaceOnUse">
<stop stop-color="#F3CE5E"/>
<stop offset="1" stop-color="#F2BE4A"/>
</linearGradient>
<linearGradient id="paint35_linear_8632_2617" x1="46.9779" y1="185.218" x2="49.524" y2="185.218" gradientUnits="userSpaceOnUse">
<stop stop-color="#F3CE5E"/>
<stop offset="1" stop-color="#F2BE4A"/>
</linearGradient>
<linearGradient id="paint36_linear_8632_2617" x1="46.0291" y1="180.174" x2="48.5752" y2="180.174" gradientUnits="userSpaceOnUse">
<stop stop-color="#F3CE5E"/>
<stop offset="1" stop-color="#F2BE4A"/>
</linearGradient>
<linearGradient id="paint37_linear_8632_2617" x1="45.8799" y1="175.136" x2="48.426" y2="175.136" gradientUnits="userSpaceOnUse">
<stop stop-color="#F3CE5E"/>
<stop offset="1" stop-color="#F2BE4A"/>
</linearGradient>
<linearGradient id="paint38_linear_8632_2617" x1="46.4296" y1="170.091" x2="48.9757" y2="170.091" gradientUnits="userSpaceOnUse">
<stop stop-color="#F3CE5E"/>
<stop offset="1" stop-color="#F2BE4A"/>
</linearGradient>
<linearGradient id="paint39_linear_8632_2617" x1="47.6774" y1="165.149" x2="50.2734" y2="165.149" gradientUnits="userSpaceOnUse">
<stop stop-color="#F3CE5E"/>
<stop offset="1" stop-color="#F2BE4A"/>
</linearGradient>
<linearGradient id="paint40_linear_8632_2617" x1="49.674" y1="160.508" x2="52.2201" y2="160.508" gradientUnits="userSpaceOnUse">
<stop stop-color="#F3CE5E"/>
<stop offset="1" stop-color="#F2BE4A"/>
</linearGradient>
<linearGradient id="paint41_linear_8632_2617" x1="52.3205" y1="156.163" x2="54.8666" y2="156.163" gradientUnits="userSpaceOnUse">
<stop stop-color="#F3CE5E"/>
<stop offset="1" stop-color="#F2BE4A"/>
</linearGradient>
<linearGradient id="paint42_linear_8632_2617" x1="55.5652" y1="152.268" x2="58.1113" y2="152.268" gradientUnits="userSpaceOnUse">
<stop stop-color="#F3CE5E"/>
<stop offset="1" stop-color="#F2BE4A"/>
</linearGradient>
<linearGradient id="paint43_linear_8632_2617" x1="59.359" y1="148.876" x2="61.9051" y2="148.876" gradientUnits="userSpaceOnUse">
<stop stop-color="#F3CE5E"/>
<stop offset="1" stop-color="#F2BE4A"/>
</linearGradient>
<linearGradient id="paint44_linear_8632_2617" x1="63.6029" y1="146.079" x2="66.149" y2="146.079" gradientUnits="userSpaceOnUse">
<stop stop-color="#F3CE5E"/>
<stop offset="1" stop-color="#F2BE4A"/>
</linearGradient>
<linearGradient id="paint45_linear_8632_2617" x1="68.1955" y1="143.932" x2="70.7416" y2="143.932" gradientUnits="userSpaceOnUse">
<stop stop-color="#F3CE5E"/>
<stop offset="1" stop-color="#F2BE4A"/>
</linearGradient>
<linearGradient id="paint46_linear_8632_2617" x1="73.0384" y1="142.434" x2="75.5845" y2="142.434" gradientUnits="userSpaceOnUse">
<stop stop-color="#F3CE5E"/>
<stop offset="1" stop-color="#F2BE4A"/>
</linearGradient>
<linearGradient id="paint47_linear_8632_2617" x1="78.0808" y1="141.736" x2="80.6269" y2="141.736" gradientUnits="userSpaceOnUse">
<stop stop-color="#F3CE5E"/>
<stop offset="1" stop-color="#F2BE4A"/>
</linearGradient>
<linearGradient id="paint48_linear_8632_2617" x1="83.1235" y1="141.734" x2="85.6696" y2="141.734" gradientUnits="userSpaceOnUse">
<stop stop-color="#F3CE5E"/>
<stop offset="1" stop-color="#F2BE4A"/>
</linearGradient>
<linearGradient id="paint49_linear_8632_2617" x1="88.1658" y1="142.434" x2="90.7119" y2="142.434" gradientUnits="userSpaceOnUse">
<stop stop-color="#F3CE5E"/>
<stop offset="1" stop-color="#F2BE4A"/>
</linearGradient>
<linearGradient id="paint50_linear_8632_2617" x1="93.0084" y1="143.932" x2="95.6045" y2="143.932" gradientUnits="userSpaceOnUse">
<stop stop-color="#F3CE5E"/>
<stop offset="1" stop-color="#F2BE4A"/>
</linearGradient>
<linearGradient id="paint51_linear_8632_2617" x1="97.651" y1="146.079" x2="100.147" y2="146.079" gradientUnits="userSpaceOnUse">
<stop stop-color="#F3CE5E"/>
<stop offset="1" stop-color="#F2BE4A"/>
</linearGradient>
<linearGradient id="paint52_linear_8632_2617" x1="101.844" y1="148.874" x2="104.39" y2="148.874" gradientUnits="userSpaceOnUse">
<stop stop-color="#F3CE5E"/>
<stop offset="1" stop-color="#F2BE4A"/>
</linearGradient>
<linearGradient id="paint53_linear_8632_2617" x1="105.639" y1="152.268" x2="108.185" y2="152.268" gradientUnits="userSpaceOnUse">
<stop stop-color="#F3CE5E"/>
<stop offset="1" stop-color="#F2BE4A"/>
</linearGradient>
<linearGradient id="paint54_linear_8632_2617" x1="108.884" y1="156.164" x2="111.431" y2="156.164" gradientUnits="userSpaceOnUse">
<stop stop-color="#F3CE5E"/>
<stop offset="1" stop-color="#F2BE4A"/>
</linearGradient>
<linearGradient id="paint55_linear_8632_2617" x1="111.53" y1="160.506" x2="114.076" y2="160.506" gradientUnits="userSpaceOnUse">
<stop stop-color="#F3CE5E"/>
<stop offset="1" stop-color="#F2BE4A"/>
</linearGradient>
<linearGradient id="paint56_linear_8632_2617" x1="113.476" y1="165.149" x2="116.072" y2="165.149" gradientUnits="userSpaceOnUse">
<stop stop-color="#F3CE5E"/>
<stop offset="1" stop-color="#F2BE4A"/>
</linearGradient>
<linearGradient id="paint57_linear_8632_2617" x1="114.825" y1="170.092" x2="117.321" y2="170.092" gradientUnits="userSpaceOnUse">
<stop stop-color="#F3CE5E"/>
<stop offset="1" stop-color="#F2BE4A"/>
</linearGradient>
<linearGradient id="paint58_linear_8632_2617" x1="115.324" y1="175.135" x2="117.87" y2="175.135" gradientUnits="userSpaceOnUse">
<stop stop-color="#F3CE5E"/>
<stop offset="1" stop-color="#F2BE4A"/>
</linearGradient>
<linearGradient id="paint59_linear_8632_2617" x1="115.174" y1="180.177" x2="117.72" y2="180.177" gradientUnits="userSpaceOnUse">
<stop stop-color="#F3CE5E"/>
<stop offset="1" stop-color="#F2BE4A"/>
</linearGradient>
<linearGradient id="paint60_linear_8632_2617" x1="114.226" y1="185.218" x2="116.772" y2="185.218" gradientUnits="userSpaceOnUse">
<stop stop-color="#F3CE5E"/>
<stop offset="1" stop-color="#F2BE4A"/>
</linearGradient>
<linearGradient id="paint61_linear_8632_2617" x1="112.628" y1="190.01" x2="115.174" y2="190.01" gradientUnits="userSpaceOnUse">
<stop stop-color="#F3CE5E"/>
<stop offset="1" stop-color="#F2BE4A"/>
</linearGradient>
<linearGradient id="paint62_linear_8632_2617" x1="110.281" y1="194.505" x2="112.828" y2="194.505" gradientUnits="userSpaceOnUse">
<stop stop-color="#F3CE5E"/>
<stop offset="1" stop-color="#F2BE4A"/>
</linearGradient>
<linearGradient id="paint63_linear_8632_2617" x1="107.336" y1="198.648" x2="109.882" y2="198.648" gradientUnits="userSpaceOnUse">
<stop stop-color="#F3CE5E"/>
<stop offset="1" stop-color="#F2BE4A"/>
</linearGradient>
<linearGradient id="paint64_linear_8632_2617" x1="103.791" y1="202.292" x2="106.337" y2="202.292" gradientUnits="userSpaceOnUse">
<stop stop-color="#F3CE5E"/>
<stop offset="1" stop-color="#F2BE4A"/>
</linearGradient>
<linearGradient id="paint65_linear_8632_2617" x1="99.7975" y1="205.388" x2="102.344" y2="205.388" gradientUnits="userSpaceOnUse">
<stop stop-color="#F3CE5E"/>
<stop offset="1" stop-color="#F2BE4A"/>
</linearGradient>
<linearGradient id="paint66_linear_8632_2617" x1="95.4044" y1="207.883" x2="97.9006" y2="207.883" gradientUnits="userSpaceOnUse">
<stop stop-color="#F3CE5E"/>
<stop offset="1" stop-color="#F2BE4A"/>
</linearGradient>
<linearGradient id="paint67_linear_8632_2617" x1="90.6121" y1="209.681" x2="93.1582" y2="209.681" gradientUnits="userSpaceOnUse">
<stop stop-color="#F3CE5E"/>
<stop offset="1" stop-color="#F2BE4A"/>
</linearGradient>
<linearGradient id="paint68_linear_8632_2617" x1="85.6698" y1="210.779" x2="88.2159" y2="210.779" gradientUnits="userSpaceOnUse">
<stop stop-color="#F3CE5E"/>
<stop offset="1" stop-color="#F2BE4A"/>
</linearGradient>
<linearGradient id="paint69_linear_8632_2617" x1="80.6267" y1="211.179" x2="83.1728" y2="211.179" gradientUnits="userSpaceOnUse">
<stop stop-color="#F3CE5E"/>
<stop offset="1" stop-color="#F2BE4A"/>
</linearGradient>
<linearGradient id="paint70_linear_8632_2617" x1="75.5351" y1="210.78" x2="78.0812" y2="210.78" gradientUnits="userSpaceOnUse">
<stop stop-color="#F3CE5E"/>
<stop offset="1" stop-color="#F2BE4A"/>
</linearGradient>
<linearGradient id="paint71_linear_8632_2617" x1="70.5921" y1="209.68" x2="73.1382" y2="209.68" gradientUnits="userSpaceOnUse">
<stop stop-color="#F3CE5E"/>
<stop offset="1" stop-color="#F2BE4A"/>
</linearGradient>
<linearGradient id="paint72_linear_8632_2617" x1="65.8489" y1="207.883" x2="68.395" y2="207.883" gradientUnits="userSpaceOnUse">
<stop stop-color="#F3CE5E"/>
<stop offset="1" stop-color="#F2BE4A"/>
</linearGradient>
<linearGradient id="paint73_linear_8632_2617" x1="61.4061" y1="205.385" x2="63.9522" y2="205.385" gradientUnits="userSpaceOnUse">
<stop stop-color="#F3CE5E"/>
<stop offset="1" stop-color="#F2BE4A"/>
</linearGradient>
<linearGradient id="paint74_linear_8632_2617" x1="57.4128" y1="202.294" x2="59.9589" y2="202.294" gradientUnits="userSpaceOnUse">
<stop stop-color="#F3CE5E"/>
<stop offset="1" stop-color="#F2BE4A"/>
</linearGradient>
<linearGradient id="paint75_linear_8632_2617" x1="53.8682" y1="198.646" x2="56.4143" y2="198.646" gradientUnits="userSpaceOnUse">
<stop stop-color="#F3CE5E"/>
<stop offset="1" stop-color="#F2BE4A"/>
</linearGradient>
<linearGradient id="paint76_linear_8632_2617" x1="50.9227" y1="194.503" x2="53.4688" y2="194.503" gradientUnits="userSpaceOnUse">
<stop stop-color="#F3CE5E"/>
<stop offset="1" stop-color="#F2BE4A"/>
</linearGradient>
<linearGradient id="paint77_linear_8632_2617" x1="48.5761" y1="190.01" x2="51.1721" y2="190.01" gradientUnits="userSpaceOnUse">
<stop stop-color="#F3CE5E"/>
<stop offset="1" stop-color="#F2BE4A"/>
</linearGradient>
<linearGradient id="paint78_linear_8632_2617" x1="46.9779" y1="185.218" x2="49.524" y2="185.218" gradientUnits="userSpaceOnUse">
<stop stop-color="#F3CE5E"/>
<stop offset="1" stop-color="#F2BE4A"/>
</linearGradient>
<linearGradient id="paint79_linear_8632_2617" x1="46.0291" y1="180.174" x2="48.5752" y2="180.174" gradientUnits="userSpaceOnUse">
<stop stop-color="#F3CE5E"/>
<stop offset="1" stop-color="#F2BE4A"/>
</linearGradient>
<linearGradient id="paint80_linear_8632_2617" x1="45.8799" y1="175.136" x2="48.426" y2="175.136" gradientUnits="userSpaceOnUse">
<stop stop-color="#F3CE5E"/>
<stop offset="1" stop-color="#F2BE4A"/>
</linearGradient>
<linearGradient id="paint81_linear_8632_2617" x1="46.4296" y1="170.091" x2="48.9757" y2="170.091" gradientUnits="userSpaceOnUse">
<stop stop-color="#F3CE5E"/>
<stop offset="1" stop-color="#F2BE4A"/>
</linearGradient>
<linearGradient id="paint82_linear_8632_2617" x1="47.6774" y1="165.149" x2="50.2734" y2="165.149" gradientUnits="userSpaceOnUse">
<stop stop-color="#F3CE5E"/>
<stop offset="1" stop-color="#F2BE4A"/>
</linearGradient>
<linearGradient id="paint83_linear_8632_2617" x1="49.674" y1="160.508" x2="52.2201" y2="160.508" gradientUnits="userSpaceOnUse">
<stop stop-color="#F3CE5E"/>
<stop offset="1" stop-color="#F2BE4A"/>
</linearGradient>
<linearGradient id="paint84_linear_8632_2617" x1="52.3205" y1="156.163" x2="54.8666" y2="156.163" gradientUnits="userSpaceOnUse">
<stop stop-color="#F3CE5E"/>
<stop offset="1" stop-color="#F2BE4A"/>
</linearGradient>
<linearGradient id="paint85_linear_8632_2617" x1="55.5652" y1="152.268" x2="58.1113" y2="152.268" gradientUnits="userSpaceOnUse">
<stop stop-color="#F3CE5E"/>
<stop offset="1" stop-color="#F2BE4A"/>
</linearGradient>
<linearGradient id="paint86_linear_8632_2617" x1="59.359" y1="148.876" x2="61.9051" y2="148.876" gradientUnits="userSpaceOnUse">
<stop stop-color="#F3CE5E"/>
<stop offset="1" stop-color="#F2BE4A"/>
</linearGradient>
<linearGradient id="paint87_linear_8632_2617" x1="63.6029" y1="146.079" x2="66.149" y2="146.079" gradientUnits="userSpaceOnUse">
<stop stop-color="#F3CE5E"/>
<stop offset="1" stop-color="#F2BE4A"/>
</linearGradient>
<linearGradient id="paint88_linear_8632_2617" x1="68.1955" y1="143.932" x2="70.7416" y2="143.932" gradientUnits="userSpaceOnUse">
<stop stop-color="#F3CE5E"/>
<stop offset="1" stop-color="#F2BE4A"/>
</linearGradient>
<linearGradient id="paint89_linear_8632_2617" x1="73.0384" y1="142.434" x2="75.5845" y2="142.434" gradientUnits="userSpaceOnUse">
<stop stop-color="#F3CE5E"/>
<stop offset="1" stop-color="#F2BE4A"/>
</linearGradient>
<linearGradient id="paint90_linear_8632_2617" x1="78.0808" y1="141.736" x2="80.6269" y2="141.736" gradientUnits="userSpaceOnUse">
<stop stop-color="#F3CE5E"/>
<stop offset="1" stop-color="#F2BE4A"/>
</linearGradient>
<linearGradient id="paint91_linear_8632_2617" x1="83.1235" y1="141.734" x2="85.6696" y2="141.734" gradientUnits="userSpaceOnUse">
<stop stop-color="#F3CE5E"/>
<stop offset="1" stop-color="#F2BE4A"/>
</linearGradient>
<linearGradient id="paint92_linear_8632_2617" x1="88.1658" y1="142.434" x2="90.7119" y2="142.434" gradientUnits="userSpaceOnUse">
<stop stop-color="#F3CE5E"/>
<stop offset="1" stop-color="#F2BE4A"/>
</linearGradient>
<linearGradient id="paint93_linear_8632_2617" x1="93.0084" y1="143.932" x2="95.6045" y2="143.932" gradientUnits="userSpaceOnUse">
<stop stop-color="#F3CE5E"/>
<stop offset="1" stop-color="#F2BE4A"/>
</linearGradient>
<linearGradient id="paint94_linear_8632_2617" x1="97.651" y1="146.079" x2="100.147" y2="146.079" gradientUnits="userSpaceOnUse">
<stop stop-color="#F3CE5E"/>
<stop offset="1" stop-color="#F2BE4A"/>
</linearGradient>
<linearGradient id="paint95_linear_8632_2617" x1="101.844" y1="148.874" x2="104.39" y2="148.874" gradientUnits="userSpaceOnUse">
<stop stop-color="#F3CE5E"/>
<stop offset="1" stop-color="#F2BE4A"/>
</linearGradient>
<linearGradient id="paint96_linear_8632_2617" x1="105.639" y1="152.268" x2="108.185" y2="152.268" gradientUnits="userSpaceOnUse">
<stop stop-color="#F3CE5E"/>
<stop offset="1" stop-color="#F2BE4A"/>
</linearGradient>
<linearGradient id="paint97_linear_8632_2617" x1="108.884" y1="156.164" x2="111.431" y2="156.164" gradientUnits="userSpaceOnUse">
<stop stop-color="#F3CE5E"/>
<stop offset="1" stop-color="#F2BE4A"/>
</linearGradient>
<linearGradient id="paint98_linear_8632_2617" x1="111.53" y1="160.506" x2="114.076" y2="160.506" gradientUnits="userSpaceOnUse">
<stop stop-color="#F3CE5E"/>
<stop offset="1" stop-color="#F2BE4A"/>
</linearGradient>
<linearGradient id="paint99_linear_8632_2617" x1="113.476" y1="165.149" x2="116.072" y2="165.149" gradientUnits="userSpaceOnUse">
<stop stop-color="#F3CE5E"/>
<stop offset="1" stop-color="#F2BE4A"/>
</linearGradient>
<linearGradient id="paint100_linear_8632_2617" x1="114.825" y1="170.092" x2="117.321" y2="170.092" gradientUnits="userSpaceOnUse">
<stop stop-color="#F3CE5E"/>
<stop offset="1" stop-color="#F2BE4A"/>
</linearGradient>
<linearGradient id="paint101_linear_8632_2617" x1="115.324" y1="175.135" x2="117.87" y2="175.135" gradientUnits="userSpaceOnUse">
<stop stop-color="#F3CE5E"/>
<stop offset="1" stop-color="#F2BE4A"/>
</linearGradient>
<linearGradient id="paint102_linear_8632_2617" x1="110.63" y1="147.877" x2="54.7658" y2="203.242" gradientUnits="userSpaceOnUse">
<stop stop-color="#AA7238"/>
<stop offset="0.25" stop-color="#C08443"/>
<stop offset="0.35" stop-color="#BE8241"/>
<stop offset="0.39" stop-color="#B77B3D"/>
<stop offset="0.42" stop-color="#AC6F35"/>
<stop offset="0.44" stop-color="#9C5E2B"/>
<stop offset="0.46" stop-color="#88481D"/>
<stop offset="0.47" stop-color="#7A3A14"/>
<stop offset="0.64" stop-color="#7B3C15"/>
<stop offset="0.72" stop-color="#82431A"/>
<stop offset="0.79" stop-color="#8D5122"/>
<stop offset="0.85" stop-color="#9D642E"/>
<stop offset="0.9" stop-color="#B27C3E"/>
<stop offset="0.95" stop-color="#CC9A51"/>
<stop offset="0.99" stop-color="#EABD67"/>
<stop offset="1" stop-color="#F0C46C"/>
</linearGradient>
<radialGradient id="paint103_radial_8632_2617" cx="0" cy="0" r="1" gradientTransform="matrix(7.91991 -15.2205 32.8164 17.0826 112.248 129.669)" gradientUnits="userSpaceOnUse">
<stop stop-color="white"/>
<stop offset="0.14" stop-color="#E2E2E2"/>
<stop offset="0.43" stop-color="#999999"/>
<stop offset="0.87" stop-color="#252525"/>
<stop offset="1"/>
</radialGradient>
<radialGradient id="paint104_radial_8632_2617" cx="0" cy="0" r="1" gradientTransform="matrix(7.91991 -15.2205 32.8164 17.0826 112.248 129.669)" gradientUnits="userSpaceOnUse">
<stop stop-color="#ECCE88"/>
<stop offset="1"/>
</radialGradient>
<radialGradient id="paint105_radial_8632_2617" cx="0" cy="0" r="1" gradientUnits="userSpaceOnUse" gradientTransform="translate(107.892 140.12) rotate(27.21) scale(12.1564 13.6152)">
<stop stop-color="white"/>
<stop offset="0.21" stop-color="#C3C3C3"/>
<stop offset="0.6" stop-color="#5B5B5B"/>
<stop offset="0.87" stop-color="#191919"/>
<stop offset="1"/>
</radialGradient>
<radialGradient id="paint106_radial_8632_2617" cx="0" cy="0" r="1" gradientUnits="userSpaceOnUse" gradientTransform="translate(107.892 140.12) rotate(27.21) scale(12.1564 13.6152)">
<stop stop-color="#FFA177"/>
<stop offset="0.13" stop-color="#E5906B"/>
<stop offset="0.4" stop-color="#A3674C"/>
<stop offset="0.79" stop-color="#3B251B"/>
<stop offset="1"/>
</radialGradient>
<radialGradient id="paint107_radial_8632_2617" cx="0" cy="0" r="1" gradientUnits="userSpaceOnUse" gradientTransform="translate(59.3831 200.583) rotate(-58.17) scale(11.2148 20.6774)">
<stop stop-color="white"/>
<stop offset="0.14" stop-color="#E2E2E2"/>
<stop offset="0.43" stop-color="#999999"/>
<stop offset="0.87" stop-color="#252525"/>
<stop offset="1"/>
</radialGradient>
<radialGradient id="paint108_radial_8632_2617" cx="0" cy="0" r="1" gradientUnits="userSpaceOnUse" gradientTransform="translate(59.3831 200.583) rotate(-58.17) scale(11.2148 20.6774)">
<stop stop-color="#ECC29A"/>
<stop offset="1"/>
</radialGradient>
<linearGradient id="paint109_linear_8632_2617" x1="70.4423" y1="183.071" x2="96.2029" y2="170.94" gradientUnits="userSpaceOnUse">
<stop stop-color="#F1C848"/>
<stop offset="0.19" stop-color="#EFC84E"/>
<stop offset="0.45" stop-color="#EBCB61"/>
<stop offset="0.48" stop-color="#EBCC64"/>
<stop offset="0.75" stop-color="#F4E478"/>
<stop offset="1" stop-color="#FFFF8E"/>
</linearGradient>
<linearGradient id="paint110_linear_8632_2617" x1="83.2226" y1="155.86" x2="83.2226" y2="193.952" gradientUnits="userSpaceOnUse">
<stop stop-color="#FFEE7B"/>
<stop offset="0.15" stop-color="#FFC757"/>
<stop offset="0.27" stop-color="#E1A11B"/>
<stop offset="0.28" stop-color="#E2A621"/>
<stop offset="0.31" stop-color="#ECBF43"/>
<stop offset="0.34" stop-color="#F4D35E"/>
<stop offset="0.37" stop-color="#F9E171"/>
<stop offset="0.41" stop-color="#FCEA7D"/>
<stop offset="0.44" stop-color="#FEED81"/>
<stop offset="0.47" stop-color="#F8E27B"/>
<stop offset="0.51" stop-color="#E8C76A"/>
<stop offset="0.57" stop-color="#CE9B50"/>
<stop offset="0.63" stop-color="#AA5E2C"/>
<stop offset="0.65" stop-color="#A24F24"/>
<stop offset="0.76" stop-color="#E0B439"/>
<stop offset="0.86" stop-color="#F1C848"/>
<stop offset="1" stop-color="#FFFF8E"/>
</linearGradient>
<radialGradient id="paint111_radial_8632_2617" cx="0" cy="0" r="1" gradientUnits="userSpaceOnUse" gradientTransform="translate(84.0963 90.5863) scale(100.821 100.821)">
<stop stop-color="#ECECBB"/>
<stop offset="1" stop-color="#784F58"/>
</radialGradient>
</defs>
</svg>
