<svg width="167" height="232" viewBox="0 0 167 232" fill="none" xmlns="http://www.w3.org/2000/svg">
<path d="M131.848 0H34.5969L41.2368 36.4442H131.848V0Z" fill="url(#paint0_linear_8632_2754)"/>
<g opacity="0.75" style="mix-blend-mode:multiply">
<path d="M46.4288 0H34.5969L41.2368 36.4442H65.9489L46.4288 0Z" fill="#4A8195"/>
</g>
<g opacity="0.75" style="mix-blend-mode:multiply">
<path d="M120.016 0H131.848L125.208 36.4442H100.496L120.016 0Z" fill="#4A8195"/>
</g>
<path d="M131.848 0L63.3027 120.516H103.092L166.395 20.8181L131.848 0Z" fill="url(#paint1_linear_8632_2754)"/>
<path d="M159.606 16.6229L94.406 120.514H71.541L138.738 3.99219L159.606 16.6229Z" fill="url(#paint2_linear_8632_2754)"/>
<g opacity="0.5" style="mix-blend-mode:multiply">
<path d="M89.2131 75.0371L63.3027 120.517H103.092L111.08 107.937L89.2131 75.0371Z" fill="#771A1F"/>
</g>
<path d="M81.8754 101.992C81.8754 101.992 81.7257 101.992 81.6757 101.992C81.6258 101.992 81.526 101.992 81.476 101.992C39.9396 101.992 47.9773 131.098 50.823 138.037C51.0726 137.787 51.3222 137.588 51.5718 137.338C52.0211 136.939 52.4704 136.589 53.0196 136.29C53.0196 136.29 53.0695 136.29 53.1194 136.24C53.4689 136.04 58.5611 135.84 58.9605 135.641C56.6141 127.004 51.1724 112.476 81.476 112.276C81.526 112.276 81.6258 112.276 81.6757 112.276C81.7257 112.276 81.8255 112.276 81.8754 112.276C112.179 112.476 106.787 127.004 104.391 135.641C104.79 135.84 109.833 135.99 110.232 136.24C110.232 136.24 110.282 136.24 110.332 136.29C110.831 136.589 111.33 136.939 111.78 137.338C112.029 137.538 112.279 137.787 112.529 138.037C115.324 131.048 123.412 101.992 81.8754 101.992Z" fill="url(#paint3_radial_8632_2754)"/>
<path d="M81.8754 101.992C81.8754 101.992 81.7257 101.992 81.6757 101.992C81.6258 101.992 81.526 101.992 81.476 101.992C39.9396 101.992 47.9773 131.098 50.823 138.037C51.0726 137.787 51.3222 137.588 51.5718 137.338C52.0211 136.939 52.4704 136.589 53.0196 136.29C53.0196 136.29 53.0695 136.29 53.1194 136.24C53.4689 136.04 58.5611 135.84 58.9605 135.641C56.6141 127.004 51.1724 112.476 81.476 112.276C81.526 112.276 81.6258 112.276 81.6757 112.276C81.7257 112.276 81.8255 112.276 81.8754 112.276C112.179 112.476 106.787 127.004 104.391 135.641C104.79 135.84 109.833 135.99 110.232 136.24C110.232 136.24 110.282 136.24 110.332 136.29C110.831 136.589 111.33 136.939 111.78 137.338C112.029 137.538 112.279 137.787 112.529 138.037C115.324 131.048 123.412 101.992 81.8754 101.992Z" fill="url(#paint4_linear_8632_2754)"/>
<path d="M81.8754 101.992C81.8754 101.992 81.7257 101.992 81.6757 101.992C81.6258 101.992 81.526 101.992 81.476 101.992C39.9396 101.992 47.9773 131.098 50.823 138.037C50.9727 137.887 51.1225 137.737 51.2723 137.588C48.1271 128.701 43.0848 103.14 81.476 103.14C81.526 103.14 81.6258 103.14 81.6757 103.14C81.7257 103.14 81.8255 103.14 81.8754 103.14C120.317 103.14 115.224 128.701 112.079 137.588C112.229 137.737 112.379 137.887 112.529 138.037C115.324 131.048 123.412 101.992 81.8754 101.992Z" fill="url(#paint5_linear_8632_2754)"/>
<path d="M57.2121 123.361C54.0669 124.31 51.0715 124.909 48.3257 126.706C48.5753 131.599 49.9232 135.892 50.8219 138.039C51.0715 137.789 51.3211 137.59 51.5707 137.34C52.02 136.941 52.4693 136.591 53.0185 136.292C53.0185 136.292 53.0684 136.292 53.1183 136.242C53.4678 136.042 58.56 135.842 58.9594 135.643C58.0109 132.098 56.5132 127.505 57.2121 123.361Z" fill="url(#paint6_linear_8632_2754)" style="mix-blend-mode:multiply"/>
<path d="M106.037 122.762C107.036 127.055 105.438 131.898 104.39 135.642C104.789 135.842 109.832 135.991 110.231 136.241C110.231 136.241 110.281 136.241 110.331 136.291C110.83 136.591 111.329 136.94 111.779 137.339C112.028 137.539 112.278 137.789 112.527 138.038C113.426 135.842 114.824 131.398 115.024 126.406C111.679 124.259 106.836 123.061 106.037 122.762Z" fill="url(#paint7_linear_8632_2754)" style="mix-blend-mode:multiply"/>
<path opacity="0.55" d="M81.8747 109.832C81.8747 109.832 81.7749 109.832 81.725 109.832C81.6751 109.832 81.6251 109.832 81.5752 109.832C52.0704 109.832 53.2186 125.708 55.1157 136.741C55.3154 136.641 58.6103 135.842 59.0097 135.692C56.6633 127.056 51.2217 112.528 81.5253 112.328C81.5752 112.328 81.6751 112.328 81.725 112.328C81.7749 112.328 81.8747 112.328 81.9247 112.328C112.228 112.528 106.837 127.056 104.44 135.692C104.84 135.892 108.135 136.641 108.334 136.741C110.231 125.708 111.43 109.832 81.8747 109.832Z" fill="url(#paint8_radial_8632_2754)" style="mix-blend-mode:multiply"/>
<path d="M0 20.8181L63.3031 120.516H103.092L34.5471 0L0 20.8181Z" fill="url(#paint9_linear_8632_2754)"/>
<path d="M7.03857 16.6229L72.2388 120.514H95.0539L27.9066 3.99219L7.03857 16.6229Z" fill="url(#paint10_linear_8632_2754)"/>
<mask id="mask0_8632_2754" style="mask-type:luminance" maskUnits="userSpaceOnUse" x="26" y="121" width="112" height="111">
<path d="M81.8753 231.546C112.342 231.546 137.041 206.848 137.041 176.38C137.041 145.913 112.342 121.215 81.8753 121.215C51.4082 121.215 26.7097 145.913 26.7097 176.38C26.7097 206.848 51.4082 231.546 81.8753 231.546Z" fill="white"/>
</mask>
<g mask="url(#mask0_8632_2754)">
<path d="M81.8753 231.548C112.342 231.548 137.041 206.849 137.041 176.382C137.041 145.915 112.342 121.217 81.8753 121.217C51.4082 121.217 26.7097 145.915 26.7097 176.382C26.7097 206.849 51.4082 231.548 81.8753 231.548Z" fill="url(#paint11_linear_8632_2754)"/>
<path d="M81.8753 121.217C51.4219 121.217 26.7097 145.929 26.7097 176.382C26.7097 206.836 51.4219 231.548 81.8753 231.548C112.329 231.548 137.041 206.836 137.041 176.382C137.041 145.929 112.329 121.217 81.8753 121.217ZM81.8753 230.05C52.2207 230.05 28.2074 206.037 28.2074 176.382C28.2074 146.728 52.2207 122.715 81.8753 122.715C111.53 122.715 135.543 146.728 135.543 176.382C135.543 206.037 111.53 230.05 81.8753 230.05Z" fill="url(#paint12_linear_8632_2754)"/>
<path opacity="0.75" d="M98.6526 216.607C120.87 207.345 131.372 181.826 122.11 159.609C112.849 137.392 87.33 126.889 65.1128 136.151C42.8956 145.413 32.3932 170.931 41.6549 193.149C50.9167 215.366 76.4354 225.868 98.6526 216.607Z" fill="url(#paint13_linear_8632_2754)" style="mix-blend-mode:screen"/>
<path d="M98.6526 216.607C120.87 207.345 131.372 181.826 122.11 159.609C112.849 137.392 87.33 126.889 65.1128 136.151C42.8956 145.413 32.3932 170.931 41.6549 193.149C50.9167 215.366 76.4354 225.868 98.6526 216.607Z" fill="url(#paint14_linear_8632_2754)"/>
<path d="M81.8745 218.519C105.145 218.519 124.01 199.654 124.01 176.384C124.01 153.113 105.145 134.248 81.8745 134.248C58.6037 134.248 39.739 153.113 39.739 176.384C39.739 199.654 58.6037 218.519 81.8745 218.519Z" fill="url(#paint15_linear_8632_2754)"/>
<g opacity="0.5">
<g style="mix-blend-mode:multiply" opacity="0.85">
<path d="M116.272 181.477C115.573 181.377 115.074 180.728 115.224 180.079C115.324 179.43 115.873 178.881 116.572 178.931C117.271 178.931 117.82 179.63 117.77 180.329C117.67 181.028 117.021 181.577 116.322 181.427L116.272 181.477Z" fill="url(#paint16_linear_8632_2754)"/>
<path d="M115.175 186.416C114.526 186.216 114.076 185.518 114.276 184.869C114.426 184.22 115.125 183.82 115.824 183.97C116.523 184.12 116.922 184.819 116.722 185.518C116.523 186.216 115.824 186.616 115.175 186.416Z" fill="url(#paint17_linear_8632_2754)"/>
<path d="M113.327 191.16C112.678 190.86 112.429 190.111 112.728 189.512C112.978 188.863 113.677 188.564 114.326 188.813C114.975 189.063 115.324 189.812 115.074 190.511C114.775 191.16 113.976 191.459 113.377 191.16H113.327Z" fill="url(#paint18_linear_8632_2754)"/>
<path d="M110.881 195.606C110.281 195.206 110.132 194.408 110.431 193.858C110.731 193.309 111.58 193.11 112.179 193.459C112.778 193.808 112.977 194.557 112.628 195.206C112.229 195.855 111.48 196.005 110.881 195.606Z" fill="url(#paint19_linear_8632_2754)"/>
<path d="M107.736 199.598C107.236 199.148 107.137 198.35 107.636 197.85C108.085 197.351 108.834 197.251 109.383 197.651C109.932 198.05 110.032 198.899 109.583 199.448C109.084 199.997 108.285 200.047 107.736 199.598Z" fill="url(#paint20_linear_8632_2754)"/>
<path d="M104.141 203.141C103.692 202.592 103.742 201.793 104.241 201.344C104.74 200.895 105.539 200.945 106.038 201.444C106.537 201.943 106.487 202.742 105.938 203.241C105.389 203.74 104.59 203.691 104.141 203.141Z" fill="url(#paint21_linear_8632_2754)"/>
<path d="M99.9974 206.038C99.648 205.439 99.7977 204.69 100.397 204.341C100.946 203.991 101.695 204.091 102.144 204.64C102.544 205.189 102.444 206.038 101.795 206.437C101.146 206.837 100.347 206.637 99.9974 206.038Z" fill="url(#paint22_linear_8632_2754)"/>
<path d="M95.5043 208.433C95.2547 207.784 95.5043 207.035 96.1034 206.736C96.7025 206.436 97.4513 206.736 97.8008 207.335C98.1502 207.934 97.8507 208.733 97.2017 209.032C96.5527 209.332 95.8038 209.032 95.5043 208.433Z" fill="url(#paint23_linear_8632_2754)"/>
<path d="M90.662 210.033C90.5122 209.334 90.8617 208.685 91.5107 208.485C92.1597 208.335 92.8586 208.635 93.0583 209.284C93.3079 209.933 92.9085 210.732 92.2096 210.931C91.5107 211.131 90.7618 210.732 90.6121 210.033H90.662Z" fill="url(#paint24_linear_8632_2754)"/>
<path d="M85.67 210.981C85.6201 210.282 86.0694 209.633 86.7184 209.533C87.3674 209.433 88.0165 209.933 88.1662 210.582C88.316 211.281 87.8168 211.93 87.1178 212.029C86.4189 212.129 85.7699 211.68 85.67 210.981Z" fill="url(#paint25_linear_8632_2754)"/>
<path d="M80.6272 211.13C80.6272 210.431 81.2263 209.882 81.8753 209.932C82.5243 209.932 83.1234 210.431 83.1234 211.13C83.1234 211.829 82.5742 212.428 81.8753 212.478C81.1264 212.478 80.5772 211.829 80.6272 211.13Z" fill="url(#paint26_linear_8632_2754)"/>
<path d="M75.5846 210.583C75.7344 209.884 76.3834 209.435 77.0324 209.534C77.6814 209.634 78.1806 210.283 78.0808 210.982C78.0309 211.681 77.3819 212.18 76.633 212.031C75.8841 211.881 75.4348 211.282 75.5846 210.583Z" fill="url(#paint27_linear_8632_2754)"/>
<path d="M70.642 209.282C70.8916 208.583 71.5406 208.284 72.1897 208.484C72.8387 208.633 73.2381 209.332 73.0384 210.031C72.8886 210.73 72.1397 211.13 71.4408 210.93C70.7419 210.73 70.3924 209.981 70.5921 209.282H70.642Z" fill="url(#paint28_linear_8632_2754)"/>
<path d="M65.9992 207.335C66.3486 206.736 67.0975 206.436 67.6966 206.736C68.2956 207.035 68.5952 207.784 68.2956 208.433C68.046 209.082 67.2473 209.332 66.5982 209.032C65.9492 208.733 65.6497 207.934 65.9992 207.335Z" fill="url(#paint29_linear_8632_2754)"/>
<path d="M61.656 204.637C62.0554 204.038 62.8043 203.938 63.4033 204.337C63.9525 204.687 64.1522 205.436 63.8027 206.035C63.4533 206.634 62.6545 206.833 62.0055 206.434C61.4064 206.035 61.2566 205.186 61.656 204.637Z" fill="url(#paint30_linear_8632_2754)"/>
<path d="M57.7625 201.395C58.2617 200.896 59.0605 200.846 59.5597 201.295C60.059 201.745 60.1089 202.543 59.6596 203.093C59.2102 203.642 58.4115 203.692 57.8623 203.192C57.3132 202.693 57.2632 201.894 57.7625 201.395Z" fill="url(#paint31_linear_8632_2754)"/>
<path d="M54.3674 197.648C54.9166 197.199 55.7154 197.299 56.1147 197.848C56.5641 198.347 56.5141 199.146 56.0149 199.595C55.5157 200.045 54.667 199.995 54.1677 199.445C53.7184 198.896 53.8183 198.048 54.3674 197.648Z" fill="url(#paint32_linear_8632_2754)"/>
<path d="M51.5719 193.405C52.171 193.056 52.9698 193.256 53.3193 193.805C53.6687 194.354 53.469 195.153 52.8699 195.552C52.2709 195.951 51.522 195.752 51.1226 195.153C50.7232 194.504 50.9229 193.755 51.5719 193.405Z" fill="url(#paint33_linear_8632_2754)"/>
<path d="M49.4248 188.813C50.0738 188.564 50.7727 188.863 51.0223 189.512C51.3219 190.111 51.0223 190.86 50.4233 191.16C49.7743 191.459 49.0254 191.16 48.7259 190.511C48.4762 189.812 48.7758 189.063 49.4747 188.813H49.4248Z" fill="url(#paint34_linear_8632_2754)"/>
<path d="M47.9267 183.97C48.6256 183.82 49.3246 184.22 49.4743 184.869C49.6241 185.518 49.2247 186.216 48.5757 186.416C47.9267 186.616 47.2278 186.216 47.0281 185.518C46.8284 184.819 47.2777 184.12 47.9267 183.97Z" fill="url(#paint35_linear_8632_2754)"/>
<path d="M47.2275 178.928C47.9265 178.928 48.4756 179.377 48.5755 180.076C48.6753 180.725 48.1761 181.374 47.5271 181.474C46.8281 181.574 46.1791 181.074 46.0793 180.376C45.9794 179.627 46.5785 179.028 47.2775 178.978L47.2275 178.928Z" fill="url(#paint36_linear_8632_2754)"/>
<path d="M47.2283 173.84C47.9272 173.89 48.4764 174.489 48.4265 175.138C48.4265 175.787 47.7775 176.336 47.0785 176.336C46.3796 176.336 45.8304 175.737 45.8804 175.038C45.8804 174.289 46.5294 173.74 47.2283 173.84Z" fill="url(#paint37_linear_8632_2754)"/>
<path d="M47.9276 168.845C48.6265 168.994 49.0259 169.644 48.926 170.342C48.8262 170.991 48.1772 171.441 47.4783 171.391C46.7793 171.291 46.33 170.642 46.4299 169.893C46.5297 169.144 47.2286 168.745 47.9276 168.895V168.845Z" fill="url(#paint38_linear_8632_2754)"/>
<path d="M49.4249 164.001C50.0739 164.251 50.4234 165 50.1738 165.599C49.9242 166.248 49.2252 166.597 48.5762 166.398C47.8773 166.198 47.5278 165.449 47.7774 164.8C48.0271 164.101 48.7759 163.752 49.4249 164.001Z" fill="url(#paint39_linear_8632_2754)"/>
<path d="M51.5713 159.361C52.1704 159.71 52.3701 160.459 52.1205 161.058C51.8209 161.657 51.0721 161.907 50.4231 161.607C49.7741 161.308 49.5245 160.559 49.824 159.86C50.1235 159.211 50.9223 158.961 51.5713 159.311V159.361Z" fill="url(#paint40_linear_8632_2754)"/>
<path d="M54.3676 155.167C54.9167 155.616 55.0665 156.365 54.6172 156.914C54.2178 157.463 53.419 157.563 52.8699 157.213C52.2708 156.814 52.121 156.015 52.5703 155.416C53.0196 154.817 53.8184 154.717 54.3676 155.117V155.167Z" fill="url(#paint41_linear_8632_2754)"/>
<path d="M57.7618 151.37C58.2611 151.869 58.2112 152.618 57.7618 153.167C57.3125 153.666 56.5138 153.666 56.0145 153.217C55.4654 152.768 55.4654 151.919 55.9646 151.37C56.4638 150.821 57.3125 150.871 57.7618 151.37Z" fill="url(#paint42_linear_8632_2754)"/>
<path d="M61.6554 148.127C62.0548 148.676 61.955 149.475 61.4058 149.874C60.8567 150.273 60.0579 150.173 59.6086 149.624C59.1593 149.075 59.2591 148.276 59.8582 147.827C60.4573 147.378 61.2561 147.478 61.6554 148.077V148.127Z" fill="url(#paint43_linear_8632_2754)"/>
<path d="M65.999 145.481C66.3484 146.13 66.0489 146.829 65.4997 147.178C64.9506 147.528 64.1518 147.328 63.8023 146.729C63.4529 146.13 63.6526 145.331 64.2516 144.982C64.8507 144.582 65.6994 144.882 65.999 145.481Z" fill="url(#paint44_linear_8632_2754)"/>
<path d="M70.642 143.484C70.8417 144.133 70.5421 144.882 69.8931 145.132C69.2441 145.381 68.5452 145.032 68.2456 144.383C67.9461 143.734 68.2456 142.985 68.9945 142.735C69.6934 142.486 70.4423 142.835 70.642 143.484Z" fill="url(#paint45_linear_8632_2754)"/>
<path d="M75.5845 142.234C75.7343 142.933 75.235 143.532 74.6359 143.732C73.9869 143.882 73.288 143.482 73.1382 142.783C72.9885 142.084 73.3879 141.386 74.0868 141.236C74.7857 141.036 75.4846 141.535 75.5845 142.234Z" fill="url(#paint46_linear_8632_2754)"/>
<path d="M80.6267 141.688C80.6267 142.387 80.1274 142.986 79.4285 143.036C78.7795 143.036 78.1305 142.537 78.0806 141.838C77.9807 141.139 78.5299 140.49 79.2787 140.49C80.0276 140.49 80.6267 140.989 80.6267 141.688Z" fill="url(#paint47_linear_8632_2754)"/>
<path d="M85.6694 141.835C85.5695 142.534 84.9705 143.034 84.3215 143.034C83.6724 143.034 83.1233 142.385 83.1233 141.686C83.1233 140.987 83.7723 140.438 84.4712 140.488C85.2201 140.488 85.7193 141.137 85.6694 141.835Z" fill="url(#paint48_linear_8632_2754)"/>
<path d="M90.6619 142.783C90.4622 143.482 89.8132 143.882 89.1642 143.732C88.5152 143.532 88.0659 142.933 88.2157 142.234C88.3155 141.535 89.0145 141.036 89.7134 141.236C90.4123 141.435 90.8616 142.134 90.6619 142.783Z" fill="url(#paint49_linear_8632_2754)"/>
<path d="M95.5051 144.383C95.2555 145.032 94.5066 145.381 93.8576 145.132C93.2086 144.882 92.9091 144.183 93.1088 143.484C93.3085 142.835 94.0573 142.486 94.7562 142.735C95.4552 142.985 95.7547 143.684 95.5051 144.383Z" fill="url(#paint50_linear_8632_2754)"/>
<path d="M99.9974 146.729C99.6479 147.328 98.8491 147.528 98.3 147.178C97.7508 146.829 97.4513 146.13 97.8007 145.481C98.1003 144.882 98.949 144.582 99.5481 144.982C100.197 145.381 100.397 146.13 99.9974 146.729Z" fill="url(#paint51_linear_8632_2754)"/>
<path d="M104.141 149.673C103.691 150.172 102.893 150.322 102.343 149.922C101.794 149.523 101.694 148.724 102.094 148.175C102.493 147.626 103.292 147.476 103.891 147.926C104.49 148.375 104.59 149.174 104.141 149.723V149.673Z" fill="url(#paint52_linear_8632_2754)"/>
<path d="M107.735 153.217C107.186 153.666 106.437 153.666 105.988 153.167C105.539 152.668 105.539 151.919 105.988 151.37C106.487 150.871 107.336 150.821 107.785 151.37C108.285 151.919 108.235 152.718 107.735 153.217Z" fill="url(#paint53_linear_8632_2754)"/>
<path d="M110.881 157.214C110.282 157.614 109.533 157.464 109.134 156.915C108.735 156.366 108.834 155.567 109.384 155.168C109.933 154.718 110.732 154.868 111.181 155.467C111.63 156.066 111.48 156.865 110.881 157.264V157.214Z" fill="url(#paint54_linear_8632_2754)"/>
<path d="M113.327 161.655C112.678 161.955 111.93 161.655 111.63 161.106C111.38 160.507 111.58 159.758 112.179 159.409C112.778 159.059 113.627 159.259 113.926 159.958C114.226 160.607 113.976 161.406 113.327 161.705V161.655Z" fill="url(#paint55_linear_8632_2754)"/>
<path d="M115.174 166.398C114.525 166.597 113.826 166.248 113.577 165.599C113.327 164.95 113.677 164.251 114.326 164.001C114.975 163.752 115.724 164.101 115.973 164.8C116.223 165.499 115.873 166.198 115.174 166.398Z" fill="url(#paint56_linear_8632_2754)"/>
<path d="M116.273 171.342C115.574 171.441 114.925 170.992 114.825 170.293C114.725 169.644 115.125 168.995 115.823 168.795C116.522 168.646 117.221 169.095 117.321 169.794C117.421 170.493 116.972 171.192 116.273 171.292V171.342Z" fill="url(#paint57_linear_8632_2754)"/>
<path d="M116.672 176.384C115.973 176.384 115.374 175.835 115.324 175.186C115.324 174.537 115.823 173.938 116.522 173.888C117.221 173.838 117.82 174.387 117.87 175.086C117.87 175.835 117.371 176.384 116.672 176.384Z" fill="url(#paint58_linear_8632_2754)"/>
</g>
<g style="mix-blend-mode:multiply" opacity="0.85">
<path d="M116.272 181.477C115.573 181.377 115.074 180.728 115.224 180.079C115.324 179.43 115.873 178.881 116.572 178.931C117.271 178.931 117.82 179.63 117.77 180.329C117.67 181.028 117.021 181.577 116.322 181.427L116.272 181.477Z" fill="url(#paint59_linear_8632_2754)"/>
<path d="M115.175 186.416C114.526 186.216 114.076 185.518 114.276 184.869C114.426 184.22 115.125 183.82 115.824 183.97C116.523 184.12 116.922 184.819 116.722 185.518C116.523 186.216 115.824 186.616 115.175 186.416Z" fill="url(#paint60_linear_8632_2754)"/>
<path d="M113.327 191.16C112.678 190.86 112.429 190.111 112.728 189.512C112.978 188.863 113.677 188.564 114.326 188.813C114.975 189.063 115.324 189.812 115.074 190.511C114.775 191.16 113.976 191.459 113.377 191.16H113.327Z" fill="url(#paint61_linear_8632_2754)"/>
<path d="M110.881 195.606C110.281 195.206 110.132 194.408 110.431 193.858C110.731 193.309 111.58 193.11 112.179 193.459C112.778 193.808 112.977 194.557 112.628 195.206C112.229 195.855 111.48 196.005 110.881 195.606Z" fill="url(#paint62_linear_8632_2754)"/>
<path d="M107.736 199.598C107.236 199.148 107.137 198.35 107.636 197.85C108.085 197.351 108.834 197.251 109.383 197.651C109.932 198.05 110.032 198.899 109.583 199.448C109.084 199.997 108.285 200.047 107.736 199.598Z" fill="url(#paint63_linear_8632_2754)"/>
<path d="M104.141 203.141C103.692 202.592 103.742 201.793 104.241 201.344C104.74 200.895 105.539 200.945 106.038 201.444C106.537 201.943 106.487 202.742 105.938 203.241C105.389 203.74 104.59 203.691 104.141 203.141Z" fill="url(#paint64_linear_8632_2754)"/>
<path d="M99.9974 206.038C99.648 205.439 99.7977 204.69 100.397 204.341C100.946 203.991 101.695 204.091 102.144 204.64C102.544 205.189 102.444 206.038 101.795 206.437C101.146 206.837 100.347 206.637 99.9974 206.038Z" fill="url(#paint65_linear_8632_2754)"/>
<path d="M95.5043 208.433C95.2547 207.784 95.5043 207.035 96.1034 206.736C96.7025 206.436 97.4513 206.736 97.8008 207.335C98.1502 207.934 97.8507 208.733 97.2017 209.032C96.5527 209.332 95.8038 209.032 95.5043 208.433Z" fill="url(#paint66_linear_8632_2754)"/>
<path d="M90.662 210.033C90.5122 209.334 90.8617 208.685 91.5107 208.485C92.1597 208.335 92.8586 208.635 93.0583 209.284C93.3079 209.933 92.9085 210.732 92.2096 210.931C91.5107 211.131 90.7618 210.732 90.6121 210.033H90.662Z" fill="url(#paint67_linear_8632_2754)"/>
<path d="M85.67 210.981C85.6201 210.282 86.0694 209.633 86.7184 209.533C87.3674 209.433 88.0165 209.933 88.1662 210.582C88.316 211.281 87.8168 211.93 87.1178 212.029C86.4189 212.129 85.7699 211.68 85.67 210.981Z" fill="url(#paint68_linear_8632_2754)"/>
<path d="M80.6272 211.13C80.6272 210.431 81.2263 209.882 81.8753 209.932C82.5243 209.932 83.1234 210.431 83.1234 211.13C83.1234 211.829 82.5742 212.428 81.8753 212.478C81.1264 212.478 80.5772 211.829 80.6272 211.13Z" fill="url(#paint69_linear_8632_2754)"/>
<path d="M75.5846 210.583C75.7344 209.884 76.3834 209.435 77.0324 209.534C77.6814 209.634 78.1806 210.283 78.0808 210.982C78.0309 211.681 77.3819 212.18 76.633 212.031C75.8841 211.881 75.4348 211.282 75.5846 210.583Z" fill="url(#paint70_linear_8632_2754)"/>
<path d="M70.642 209.282C70.8916 208.583 71.5406 208.284 72.1897 208.484C72.8387 208.633 73.2381 209.332 73.0384 210.031C72.8886 210.73 72.1397 211.13 71.4408 210.93C70.7419 210.73 70.3924 209.981 70.5921 209.282H70.642Z" fill="url(#paint71_linear_8632_2754)"/>
<path d="M65.9992 207.335C66.3486 206.736 67.0975 206.436 67.6966 206.736C68.2956 207.035 68.5952 207.784 68.2956 208.433C68.046 209.082 67.2473 209.332 66.5982 209.032C65.9492 208.733 65.6497 207.934 65.9992 207.335Z" fill="url(#paint72_linear_8632_2754)"/>
<path d="M61.656 204.637C62.0554 204.038 62.8043 203.938 63.4033 204.337C63.9525 204.687 64.1522 205.436 63.8027 206.035C63.4533 206.634 62.6545 206.833 62.0055 206.434C61.4064 206.035 61.2566 205.186 61.656 204.637Z" fill="url(#paint73_linear_8632_2754)"/>
<path d="M57.7625 201.395C58.2617 200.896 59.0605 200.846 59.5597 201.295C60.059 201.745 60.1089 202.543 59.6596 203.093C59.2102 203.642 58.4115 203.692 57.8623 203.192C57.3132 202.693 57.2632 201.894 57.7625 201.395Z" fill="url(#paint74_linear_8632_2754)"/>
<path d="M54.3674 197.648C54.9166 197.199 55.7154 197.299 56.1147 197.848C56.5641 198.347 56.5141 199.146 56.0149 199.595C55.5157 200.045 54.667 199.995 54.1677 199.445C53.7184 198.896 53.8183 198.048 54.3674 197.648Z" fill="url(#paint75_linear_8632_2754)"/>
<path d="M51.5719 193.405C52.171 193.056 52.9698 193.256 53.3193 193.805C53.6687 194.354 53.469 195.153 52.8699 195.552C52.2709 195.951 51.522 195.752 51.1226 195.153C50.7232 194.504 50.9229 193.755 51.5719 193.405Z" fill="url(#paint76_linear_8632_2754)"/>
<path d="M49.4248 188.813C50.0738 188.564 50.7727 188.863 51.0223 189.512C51.3219 190.111 51.0223 190.86 50.4233 191.16C49.7743 191.459 49.0254 191.16 48.7259 190.511C48.4762 189.812 48.7758 189.063 49.4747 188.813H49.4248Z" fill="url(#paint77_linear_8632_2754)"/>
<path d="M47.9267 183.97C48.6256 183.82 49.3246 184.22 49.4743 184.869C49.6241 185.518 49.2247 186.216 48.5757 186.416C47.9267 186.616 47.2278 186.216 47.0281 185.518C46.8284 184.819 47.2777 184.12 47.9267 183.97Z" fill="url(#paint78_linear_8632_2754)"/>
<path d="M47.2275 178.928C47.9265 178.928 48.4756 179.377 48.5755 180.076C48.6753 180.725 48.1761 181.374 47.5271 181.474C46.8281 181.574 46.1791 181.074 46.0793 180.376C45.9794 179.627 46.5785 179.028 47.2775 178.978L47.2275 178.928Z" fill="url(#paint79_linear_8632_2754)"/>
<path d="M47.2283 173.84C47.9272 173.89 48.4764 174.489 48.4265 175.138C48.4265 175.787 47.7775 176.336 47.0785 176.336C46.3796 176.336 45.8304 175.737 45.8804 175.038C45.8804 174.289 46.5294 173.74 47.2283 173.84Z" fill="url(#paint80_linear_8632_2754)"/>
<path d="M47.9276 168.845C48.6265 168.994 49.0259 169.644 48.926 170.342C48.8262 170.991 48.1772 171.441 47.4783 171.391C46.7793 171.291 46.33 170.642 46.4299 169.893C46.5297 169.144 47.2286 168.745 47.9276 168.895V168.845Z" fill="url(#paint81_linear_8632_2754)"/>
<path d="M49.4249 164.001C50.0739 164.251 50.4234 165 50.1738 165.599C49.9242 166.248 49.2252 166.597 48.5762 166.398C47.8773 166.198 47.5278 165.449 47.7774 164.8C48.0271 164.101 48.7759 163.752 49.4249 164.001Z" fill="url(#paint82_linear_8632_2754)"/>
<path d="M51.5713 159.361C52.1704 159.71 52.3701 160.459 52.1205 161.058C51.8209 161.657 51.0721 161.907 50.4231 161.607C49.7741 161.308 49.5245 160.559 49.824 159.86C50.1235 159.211 50.9223 158.961 51.5713 159.311V159.361Z" fill="url(#paint83_linear_8632_2754)"/>
<path d="M54.3676 155.167C54.9167 155.616 55.0665 156.365 54.6172 156.914C54.2178 157.463 53.419 157.563 52.8699 157.213C52.2708 156.814 52.121 156.015 52.5703 155.416C53.0196 154.817 53.8184 154.717 54.3676 155.117V155.167Z" fill="url(#paint84_linear_8632_2754)"/>
<path d="M57.7618 151.37C58.2611 151.869 58.2112 152.618 57.7618 153.167C57.3125 153.666 56.5138 153.666 56.0145 153.217C55.4654 152.768 55.4654 151.919 55.9646 151.37C56.4638 150.821 57.3125 150.871 57.7618 151.37Z" fill="url(#paint85_linear_8632_2754)"/>
<path d="M61.6554 148.127C62.0548 148.676 61.955 149.475 61.4058 149.874C60.8567 150.273 60.0579 150.173 59.6086 149.624C59.1593 149.075 59.2591 148.276 59.8582 147.827C60.4573 147.378 61.2561 147.478 61.6554 148.077V148.127Z" fill="url(#paint86_linear_8632_2754)"/>
<path d="M65.999 145.481C66.3484 146.13 66.0489 146.829 65.4997 147.178C64.9506 147.528 64.1518 147.328 63.8023 146.729C63.4529 146.13 63.6526 145.331 64.2516 144.982C64.8507 144.582 65.6994 144.882 65.999 145.481Z" fill="url(#paint87_linear_8632_2754)"/>
<path d="M70.642 143.484C70.8417 144.133 70.5421 144.882 69.8931 145.132C69.2441 145.381 68.5452 145.032 68.2456 144.383C67.9461 143.734 68.2456 142.985 68.9945 142.735C69.6934 142.486 70.4423 142.835 70.642 143.484Z" fill="url(#paint88_linear_8632_2754)"/>
<path d="M75.5845 142.234C75.7343 142.933 75.235 143.532 74.6359 143.732C73.9869 143.882 73.288 143.482 73.1382 142.783C72.9885 142.084 73.3879 141.386 74.0868 141.236C74.7857 141.036 75.4846 141.535 75.5845 142.234Z" fill="url(#paint89_linear_8632_2754)"/>
<path d="M80.6267 141.688C80.6267 142.387 80.1274 142.986 79.4285 143.036C78.7795 143.036 78.1305 142.537 78.0806 141.838C77.9807 141.139 78.5299 140.49 79.2787 140.49C80.0276 140.49 80.6267 140.989 80.6267 141.688Z" fill="url(#paint90_linear_8632_2754)"/>
<path d="M85.6694 141.835C85.5695 142.534 84.9705 143.034 84.3215 143.034C83.6724 143.034 83.1233 142.385 83.1233 141.686C83.1233 140.987 83.7723 140.438 84.4712 140.488C85.2201 140.488 85.7193 141.137 85.6694 141.835Z" fill="url(#paint91_linear_8632_2754)"/>
<path d="M90.6619 142.783C90.4622 143.482 89.8132 143.882 89.1642 143.732C88.5152 143.532 88.0659 142.933 88.2157 142.234C88.3155 141.535 89.0145 141.036 89.7134 141.236C90.4123 141.435 90.8616 142.134 90.6619 142.783Z" fill="url(#paint92_linear_8632_2754)"/>
<path d="M95.5051 144.383C95.2555 145.032 94.5066 145.381 93.8576 145.132C93.2086 144.882 92.9091 144.183 93.1088 143.484C93.3085 142.835 94.0573 142.486 94.7562 142.735C95.4552 142.985 95.7547 143.684 95.5051 144.383Z" fill="url(#paint93_linear_8632_2754)"/>
<path d="M99.9974 146.729C99.6479 147.328 98.8491 147.528 98.3 147.178C97.7508 146.829 97.4513 146.13 97.8007 145.481C98.1003 144.882 98.949 144.582 99.5481 144.982C100.197 145.381 100.397 146.13 99.9974 146.729Z" fill="url(#paint94_linear_8632_2754)"/>
<path d="M104.141 149.673C103.691 150.172 102.893 150.322 102.343 149.922C101.794 149.523 101.694 148.724 102.094 148.175C102.493 147.626 103.292 147.476 103.891 147.926C104.49 148.375 104.59 149.174 104.141 149.723V149.673Z" fill="url(#paint95_linear_8632_2754)"/>
<path d="M107.735 153.217C107.186 153.666 106.437 153.666 105.988 153.167C105.539 152.668 105.539 151.919 105.988 151.37C106.487 150.871 107.336 150.821 107.785 151.37C108.285 151.919 108.235 152.718 107.735 153.217Z" fill="url(#paint96_linear_8632_2754)"/>
<path d="M110.881 157.214C110.282 157.614 109.533 157.464 109.134 156.915C108.735 156.366 108.834 155.567 109.384 155.168C109.933 154.718 110.732 154.868 111.181 155.467C111.63 156.066 111.48 156.865 110.881 157.264V157.214Z" fill="url(#paint97_linear_8632_2754)"/>
<path d="M113.327 161.655C112.678 161.955 111.93 161.655 111.63 161.106C111.38 160.507 111.58 159.758 112.179 159.409C112.778 159.059 113.627 159.259 113.926 159.958C114.226 160.607 113.976 161.406 113.327 161.705V161.655Z" fill="url(#paint98_linear_8632_2754)"/>
<path d="M115.174 166.398C114.525 166.597 113.826 166.248 113.577 165.599C113.327 164.95 113.677 164.251 114.326 164.001C114.975 163.752 115.724 164.101 115.973 164.8C116.223 165.499 115.873 166.198 115.174 166.398Z" fill="url(#paint99_linear_8632_2754)"/>
<path d="M116.273 171.342C115.574 171.441 114.925 170.992 114.825 170.293C114.725 169.644 115.125 168.995 115.823 168.795C116.522 168.646 117.221 169.095 117.321 169.794C117.421 170.493 116.972 171.192 116.273 171.292V171.342Z" fill="url(#paint100_linear_8632_2754)"/>
<path d="M116.672 176.384C115.973 176.384 115.374 175.835 115.324 175.186C115.324 174.537 115.823 173.938 116.522 173.888C117.221 173.838 117.82 174.387 117.87 175.086C117.87 175.835 117.371 176.384 116.672 176.384Z" fill="url(#paint101_linear_8632_2754)"/>
</g>
</g>
<path opacity="0.55" d="M81.8745 134.248C58.6101 134.248 39.739 153.119 39.739 176.384C39.739 199.648 58.6101 218.519 81.8745 218.519C105.139 218.519 124.01 199.648 124.01 176.384C124.01 153.119 105.139 134.248 81.8745 134.248ZM81.8745 215.823C60.1078 215.823 42.4848 198.2 42.4848 176.433C42.4848 154.667 60.1078 137.044 81.8745 137.044C103.641 137.044 121.264 154.667 121.264 176.433C121.264 198.2 103.641 215.823 81.8745 215.823Z" fill="url(#paint102_radial_8632_2754)" style="mix-blend-mode:multiply"/>
<mask id="mask1_8632_2754" style="mask-type:luminance" maskUnits="userSpaceOnUse" x="74" y="120" width="66" height="45">
<path d="M114.675 127.907C132.148 136.993 142.882 150.922 138.688 158.96C134.494 167.047 116.921 166.199 99.4481 157.113C81.9748 148.026 71.2412 134.098 75.4348 126.06C79.6284 117.972 97.2015 118.821 114.675 127.907Z" fill="url(#paint103_radial_8632_2754)" style="mix-blend-mode:multiply"/>
</mask>
<g mask="url(#mask1_8632_2754)">
<path d="M114.675 127.907C132.148 136.993 142.882 150.922 138.688 158.96C134.494 167.047 116.921 166.199 99.4481 157.113C81.9748 148.026 71.2412 134.098 75.4348 126.06C79.6284 117.972 97.2015 118.821 114.675 127.907Z" fill="url(#paint104_radial_8632_2754)" style="mix-blend-mode:screen"/>
</g>
<mask id="mask2_8632_2754" style="mask-type:luminance" maskUnits="userSpaceOnUse" x="94" y="130" width="26" height="25">
<path d="M118.019 148.126C114.874 154.217 107.435 156.663 101.345 153.518C95.3038 150.423 92.9075 142.934 96.0527 136.844C99.1979 130.753 106.636 128.307 112.727 131.452C118.768 134.547 121.164 142.036 118.019 148.126Z" fill="url(#paint105_radial_8632_2754)"/>
</mask>
<g mask="url(#mask2_8632_2754)">
<path d="M118.019 148.126C114.874 154.217 107.435 156.663 101.345 153.518C95.3038 150.423 92.9075 142.934 96.0527 136.844C99.1979 130.753 106.636 128.307 112.727 131.452C118.768 134.547 121.164 142.036 118.019 148.126Z" fill="url(#paint106_radial_8632_2754)" style="mix-blend-mode:screen"/>
</g>
<mask id="mask3_8632_2754" style="mask-type:luminance" maskUnits="userSpaceOnUse" x="35" y="193" width="38" height="30">
<path d="M59.5093 198.896C69.1945 204.937 74.4365 214.023 71.2414 219.265C67.9963 224.507 57.5124 223.808 47.7773 217.818C38.0921 211.777 32.8501 202.691 36.0452 197.449C39.2903 192.207 49.7742 192.906 59.5093 198.896Z" fill="url(#paint107_radial_8632_2754)" style="mix-blend-mode:multiply"/>
</mask>
<g mask="url(#mask3_8632_2754)">
<path d="M59.5093 198.896C69.1945 204.937 74.4365 214.023 71.2414 219.265C67.9963 224.507 57.5124 223.808 47.7773 217.818C38.0921 211.777 32.8501 202.691 36.0452 197.449C39.2903 192.207 49.7742 192.906 59.5093 198.896Z" fill="url(#paint108_radial_8632_2754)" style="mix-blend-mode:screen"/>
</g>
<path d="M84.3215 181.873C92.5589 176.381 96.9023 174.184 96.9023 166.696C96.9023 160.855 92.1096 157.011 84.4713 157.011C74.3368 157.011 69.1448 161.304 69.1448 167.944C69.1448 168.293 69.1448 169.741 69.1448 170.141H78.9797V168.643C78.9797 167.245 80.2777 164.999 83.1733 164.999C83.4728 164.999 83.6725 164.999 83.9222 164.999C85.4199 165.448 85.969 166.546 85.969 167.894C85.969 169.941 81.2762 172.537 73.3883 179.476C70.7423 181.823 69.1448 184.269 69.1448 188.762V191.009H97.2018V181.923H84.2716L84.3215 181.873Z" fill="url(#paint109_linear_8632_2754)"/>
<path d="M95.9534 167.296C95.9534 174.136 89.0141 177.53 82.4741 182.173H96.3029V189.961H70.093V187.765C70.093 184.32 71.9402 181.874 74.4863 179.577C81.6753 173.187 86.8174 170.591 86.8174 167.645C86.8174 165.898 85.6692 164.301 82.8735 164.301C80.7767 164.301 79.5286 165.399 78.7298 166.847C78.2805 167.645 78.3803 169.543 78.3803 169.543H70.1929C70.1929 169.543 70.1929 167.246 70.2927 166.647C71.0915 161.255 75.5846 157.811 83.7222 157.811C91.2107 157.811 95.9035 161.605 95.9035 167.346L95.9534 167.296Z" fill="url(#paint110_linear_8632_2754)"/>
</g>
<path opacity="0.35" d="M116.971 133.795C116.122 133.096 115.224 132.497 114.375 131.848V131.798C114.375 131.748 114.375 131.698 114.375 131.599C114.375 131.349 114.475 131.099 114.525 130.85C114.525 130.65 114.575 130.4 114.625 130.151C114.625 130.101 114.625 130.001 114.625 129.951C114.874 128.403 115.024 126.806 114.974 125.109C114.974 124.609 114.974 124.11 114.974 123.561C114.974 123.062 114.924 122.512 114.824 122.013C114.724 120.965 114.525 119.966 114.225 118.918C114.075 118.269 113.826 117.62 113.576 116.971C113.327 116.272 113.027 115.573 112.678 114.874C111.879 113.277 110.78 111.779 109.433 110.381L111.03 107.885L166.345 20.8181L159.506 16.6745V16.5746L138.688 3.99389V4.09373L131.798 0H34.597V0.149771L34.5471 0L0 20.8181L55.7646 108.634C52.0703 111.579 50.0234 115.174 49.025 118.918C48.6256 120.466 48.376 122.013 48.326 123.561C48.326 124.06 48.326 124.559 48.326 125.109C48.326 126.107 48.326 127.105 48.4758 128.054C48.4758 128.154 48.4758 128.254 48.4758 128.403C48.4758 128.503 48.4758 128.653 48.4758 128.753C48.5257 129.202 48.5756 129.652 48.6256 130.051C48.6256 130.151 48.6256 130.301 48.6755 130.4C48.7254 130.85 48.8253 131.299 48.9251 131.698C48.9251 131.748 48.9251 131.848 48.9251 131.898C48.9251 131.948 48.9251 131.998 48.9251 132.048C45.3306 134.694 42.0357 137.789 39.19 141.234C36.9435 143.98 34.9465 146.925 33.2491 150.02C29.0056 157.858 26.6093 166.795 26.6093 176.33C26.6093 182.021 27.458 187.563 29.1055 192.755C30.2038 196.2 31.6016 199.545 33.299 202.64C34.9964 205.785 36.9934 208.731 39.2399 211.426C40.3882 212.774 41.5364 214.072 42.7845 215.32C45.2807 217.817 48.0265 220.063 50.972 222.06C59.7585 228.001 70.3923 231.496 81.8248 231.496C93.2573 231.496 103.891 228.001 112.678 222.06C122.962 215.121 130.75 204.787 134.544 192.705C136.142 187.513 137.04 182.021 137.04 176.28C137.04 166.745 134.644 157.808 130.4 149.97C127.006 143.73 122.413 138.189 116.971 133.695V133.795ZM63.3031 120.516H103.092L104.191 118.818C104.889 119.717 105.439 120.715 105.788 121.714C105.888 122.063 105.988 122.413 106.088 122.762C106.337 123.811 106.387 124.909 106.387 126.007C106.387 126.007 106.387 126.057 106.387 126.107C106.387 126.407 106.387 126.656 106.337 126.956C98.9485 123.311 90.7112 121.214 81.9246 121.214C73.1381 121.214 64.6011 123.361 57.1126 127.155C57.0627 126.407 57.0127 125.708 57.0627 125.009C57.0627 125.009 57.0627 125.009 57.0627 124.959C57.0627 124.46 57.1625 123.91 57.2124 123.411C57.3123 122.862 57.462 122.313 57.6118 121.764C58.2109 120.016 59.2593 118.419 61.0565 117.021L63.3031 120.565V120.516ZM65.9491 36.4442H111.13L89.2135 74.9852L83.2226 85.5191L55.3153 36.4442H65.9491Z" fill="url(#paint111_radial_8632_2754)" style="mix-blend-mode:overlay"/>
<defs>
<linearGradient id="paint0_linear_8632_2754" x1="34.5969" y1="18.2221" x2="131.848" y2="18.2221" gradientUnits="userSpaceOnUse">
<stop stop-color="#005898"/>
<stop offset="0.5" stop-color="#3CA6DA"/>
<stop offset="1" stop-color="#005898"/>
</linearGradient>
<linearGradient id="paint1_linear_8632_2754" x1="149.571" y1="9.7351" x2="79.1785" y2="121.814" gradientUnits="userSpaceOnUse">
<stop stop-color="#3CA6DA"/>
<stop offset="0.4" stop-color="#0674B3"/>
<stop offset="0.62" stop-color="#056FAE"/>
<stop offset="0.87" stop-color="#0261A1"/>
<stop offset="1" stop-color="#005898"/>
</linearGradient>
<linearGradient id="paint2_linear_8632_2754" x1="148.673" y1="11.1313" x2="84.8706" y2="121.163" gradientUnits="userSpaceOnUse">
<stop stop-color="#F0E8E5"/>
<stop offset="0.58" stop-color="#EEE6E2"/>
<stop offset="0.82" stop-color="#EAE0DB"/>
<stop offset="0.99" stop-color="#E3D5CF"/>
<stop offset="1" stop-color="#E3D5CF"/>
</linearGradient>
<radialGradient id="paint3_radial_8632_2754" cx="0" cy="0" r="1" gradientUnits="userSpaceOnUse" gradientTransform="translate(81.6757 120.015) scale(26.8339)">
<stop offset="0.01" stop-color="#F6C054"/>
<stop offset="0.54" stop-color="#FFEA72"/>
<stop offset="0.58" stop-color="#FFEF71"/>
<stop offset="0.59" stop-color="#FFF171"/>
<stop offset="0.82" stop-color="#FFE05A"/>
<stop offset="0.96" stop-color="#FFD44A"/>
</radialGradient>
<linearGradient id="paint4_linear_8632_2754" x1="81.6757" y1="99.5459" x2="81.6757" y2="126.555" gradientUnits="userSpaceOnUse">
<stop offset="0.05" stop-color="#EEEFF4"/>
<stop offset="0.1" stop-color="#C4C3C9"/>
<stop offset="0.31" stop-color="#E5E5E8"/>
<stop offset="0.5" stop-color="#C2C3CA"/>
<stop offset="0.69" stop-color="#DBDCDE"/>
<stop offset="0.84" stop-color="#DDE0E5"/>
<stop offset="0.92" stop-color="#DFE2E7"/>
<stop offset="0.98" stop-color="#E9EAEF"/>
<stop offset="1" stop-color="#EEEFF4"/>
</linearGradient>
<linearGradient id="paint5_linear_8632_2754" x1="48.2769" y1="120.015" x2="115.075" y2="120.015" gradientUnits="userSpaceOnUse">
<stop offset="0.05" stop-color="#EEEFF4"/>
<stop offset="0.31" stop-color="#E5E5E8"/>
<stop offset="1" stop-color="#EEEFF4"/>
</linearGradient>
<linearGradient id="paint6_linear_8632_2754" x1="53.6176" y1="131.748" x2="53.6176" y2="119.467" gradientUnits="userSpaceOnUse">
<stop offset="0.5" stop-color="#C2C3CA"/>
<stop offset="1" stop-color="#EEEFF4"/>
</linearGradient>
<linearGradient id="paint7_linear_8632_2754" x1="109.732" y1="131.748" x2="109.732" y2="119.467" gradientUnits="userSpaceOnUse">
<stop offset="0.5" stop-color="#C2C3CA"/>
<stop offset="1" stop-color="#EEEFF4"/>
</linearGradient>
<radialGradient id="paint8_radial_8632_2754" cx="0" cy="0" r="1" gradientUnits="userSpaceOnUse" gradientTransform="translate(81.6751 123.237) scale(21.6169 21.6169)">
<stop offset="0.34" stop-color="#F6F2F3"/>
<stop offset="0.99" stop-color="#565C59"/>
</radialGradient>
<linearGradient id="paint9_linear_8632_2754" x1="16.6745" y1="9.43556" x2="85.3693" y2="123.761" gradientUnits="userSpaceOnUse">
<stop stop-color="#3CA6DA"/>
<stop offset="0.4" stop-color="#0674B3"/>
<stop offset="0.62" stop-color="#056FAE"/>
<stop offset="0.87" stop-color="#0261A1"/>
<stop offset="1" stop-color="#005898"/>
</linearGradient>
<linearGradient id="paint10_linear_8632_2754" x1="17.9219" y1="11.1313" x2="81.7742" y2="121.163" gradientUnits="userSpaceOnUse">
<stop stop-color="#F0E8E5"/>
<stop offset="0.58" stop-color="#EEE6E2"/>
<stop offset="0.82" stop-color="#EAE0DB"/>
<stop offset="0.99" stop-color="#E3D5CF"/>
<stop offset="1" stop-color="#E3D5CF"/>
</linearGradient>
<linearGradient id="paint11_linear_8632_2754" x1="120.316" y1="138.091" x2="41.8366" y2="216.221" gradientUnits="userSpaceOnUse">
<stop offset="0.05" stop-color="#EEEFF4"/>
<stop offset="0.1" stop-color="#C4C3C9"/>
<stop offset="0.31" stop-color="#E5E5E8"/>
<stop offset="0.5" stop-color="#C2C3CA"/>
<stop offset="0.69" stop-color="#DBDCDE"/>
<stop offset="0.84" stop-color="#DDE0E5"/>
<stop offset="0.92" stop-color="#DFE2E7"/>
<stop offset="0.98" stop-color="#E9EAEF"/>
<stop offset="1" stop-color="#EEEFF4"/>
</linearGradient>
<linearGradient id="paint12_linear_8632_2754" x1="118.769" y1="134.896" x2="45.4311" y2="217.37" gradientUnits="userSpaceOnUse">
<stop offset="0.05" stop-color="#EEEFF4"/>
<stop offset="0.31" stop-color="#E5E5E8"/>
<stop offset="1" stop-color="#EEEFF4"/>
</linearGradient>
<linearGradient id="paint13_linear_8632_2754" x1="115.546" y1="149.216" x2="48.1492" y2="203.632" gradientUnits="userSpaceOnUse">
<stop offset="0.48" stop-color="#CC9434"/>
<stop offset="0.68" stop-color="#FFEA72"/>
<stop offset="0.76" stop-color="#FFE66C"/>
<stop offset="0.87" stop-color="#FFDE5C"/>
<stop offset="0.96" stop-color="#FFD44A"/>
</linearGradient>
<linearGradient id="paint14_linear_8632_2754" x1="111.103" y1="142.326" x2="53.7906" y2="209.174" gradientUnits="userSpaceOnUse">
<stop offset="0.05" stop-color="#EEEFF4"/>
<stop offset="0.31" stop-color="#E5E5E8"/>
<stop offset="1" stop-color="#EEEFF4"/>
</linearGradient>
<linearGradient id="paint15_linear_8632_2754" x1="106.387" y1="156.314" x2="44.9311" y2="206.687" gradientUnits="userSpaceOnUse">
<stop stop-color="#EEEFF4"/>
<stop offset="0.26" stop-color="#C4C3C9"/>
<stop offset="0.65" stop-color="#EEEEF0"/>
<stop offset="0.95" stop-color="#DDDDE2"/>
</linearGradient>
<linearGradient id="paint16_linear_8632_2754" x1="115.174" y1="180.179" x2="117.72" y2="180.179" gradientUnits="userSpaceOnUse">
<stop stop-color="#EBECE8"/>
<stop offset="1" stop-color="#444444"/>
</linearGradient>
<linearGradient id="paint17_linear_8632_2754" x1="114.226" y1="185.218" x2="116.772" y2="185.218" gradientUnits="userSpaceOnUse">
<stop stop-color="#EBECE8"/>
<stop offset="1" stop-color="#444444"/>
</linearGradient>
<linearGradient id="paint18_linear_8632_2754" x1="112.628" y1="190.011" x2="115.174" y2="190.011" gradientUnits="userSpaceOnUse">
<stop stop-color="#EBECE8"/>
<stop offset="1" stop-color="#444444"/>
</linearGradient>
<linearGradient id="paint19_linear_8632_2754" x1="110.281" y1="194.507" x2="112.828" y2="194.507" gradientUnits="userSpaceOnUse">
<stop stop-color="#EBECE8"/>
<stop offset="1" stop-color="#444444"/>
</linearGradient>
<linearGradient id="paint20_linear_8632_2754" x1="107.336" y1="198.649" x2="109.882" y2="198.649" gradientUnits="userSpaceOnUse">
<stop stop-color="#EBECE8"/>
<stop offset="1" stop-color="#444444"/>
</linearGradient>
<linearGradient id="paint21_linear_8632_2754" x1="103.792" y1="202.293" x2="106.338" y2="202.293" gradientUnits="userSpaceOnUse">
<stop stop-color="#EBECE8"/>
<stop offset="1" stop-color="#444444"/>
</linearGradient>
<linearGradient id="paint22_linear_8632_2754" x1="99.7977" y1="205.389" x2="102.344" y2="205.389" gradientUnits="userSpaceOnUse">
<stop stop-color="#EBECE8"/>
<stop offset="1" stop-color="#444444"/>
</linearGradient>
<linearGradient id="paint23_linear_8632_2754" x1="95.4044" y1="207.884" x2="97.9006" y2="207.884" gradientUnits="userSpaceOnUse">
<stop stop-color="#EBECE8"/>
<stop offset="1" stop-color="#444444"/>
</linearGradient>
<linearGradient id="paint24_linear_8632_2754" x1="90.6121" y1="209.683" x2="93.1582" y2="209.683" gradientUnits="userSpaceOnUse">
<stop stop-color="#EBECE8"/>
<stop offset="1" stop-color="#444444"/>
</linearGradient>
<linearGradient id="paint25_linear_8632_2754" x1="85.67" y1="210.781" x2="88.2161" y2="210.781" gradientUnits="userSpaceOnUse">
<stop stop-color="#EBECE8"/>
<stop offset="1" stop-color="#444444"/>
</linearGradient>
<linearGradient id="paint26_linear_8632_2754" x1="80.6272" y1="211.18" x2="83.1733" y2="211.18" gradientUnits="userSpaceOnUse">
<stop stop-color="#EBECE8"/>
<stop offset="1" stop-color="#444444"/>
</linearGradient>
<linearGradient id="paint27_linear_8632_2754" x1="75.5347" y1="210.782" x2="78.0808" y2="210.782" gradientUnits="userSpaceOnUse">
<stop stop-color="#EBECE8"/>
<stop offset="1" stop-color="#444444"/>
</linearGradient>
<linearGradient id="paint28_linear_8632_2754" x1="70.5921" y1="209.682" x2="73.1382" y2="209.682" gradientUnits="userSpaceOnUse">
<stop stop-color="#EBECE8"/>
<stop offset="1" stop-color="#444444"/>
</linearGradient>
<linearGradient id="paint29_linear_8632_2754" x1="65.8494" y1="207.884" x2="68.3955" y2="207.884" gradientUnits="userSpaceOnUse">
<stop stop-color="#EBECE8"/>
<stop offset="1" stop-color="#444444"/>
</linearGradient>
<linearGradient id="paint30_linear_8632_2754" x1="61.4064" y1="205.386" x2="63.9525" y2="205.386" gradientUnits="userSpaceOnUse">
<stop stop-color="#EBECE8"/>
<stop offset="1" stop-color="#444444"/>
</linearGradient>
<linearGradient id="paint31_linear_8632_2754" x1="57.413" y1="202.294" x2="59.9591" y2="202.294" gradientUnits="userSpaceOnUse">
<stop stop-color="#EBECE8"/>
<stop offset="1" stop-color="#444444"/>
</linearGradient>
<linearGradient id="paint32_linear_8632_2754" x1="53.8682" y1="198.647" x2="56.4143" y2="198.647" gradientUnits="userSpaceOnUse">
<stop stop-color="#EBECE8"/>
<stop offset="1" stop-color="#444444"/>
</linearGradient>
<linearGradient id="paint33_linear_8632_2754" x1="50.9229" y1="194.504" x2="53.469" y2="194.504" gradientUnits="userSpaceOnUse">
<stop stop-color="#EBECE8"/>
<stop offset="1" stop-color="#444444"/>
</linearGradient>
<linearGradient id="paint34_linear_8632_2754" x1="48.5761" y1="190.011" x2="51.1721" y2="190.011" gradientUnits="userSpaceOnUse">
<stop stop-color="#EBECE8"/>
<stop offset="1" stop-color="#444444"/>
</linearGradient>
<linearGradient id="paint35_linear_8632_2754" x1="46.9782" y1="185.218" x2="49.5243" y2="185.218" gradientUnits="userSpaceOnUse">
<stop stop-color="#EBECE8"/>
<stop offset="1" stop-color="#444444"/>
</linearGradient>
<linearGradient id="paint36_linear_8632_2754" x1="46.0294" y1="180.176" x2="48.5755" y2="180.176" gradientUnits="userSpaceOnUse">
<stop stop-color="#EBECE8"/>
<stop offset="1" stop-color="#444444"/>
</linearGradient>
<linearGradient id="paint37_linear_8632_2754" x1="45.8804" y1="175.138" x2="48.4265" y2="175.138" gradientUnits="userSpaceOnUse">
<stop stop-color="#EBECE8"/>
<stop offset="1" stop-color="#444444"/>
</linearGradient>
<linearGradient id="paint38_linear_8632_2754" x1="46.4299" y1="170.093" x2="48.976" y2="170.093" gradientUnits="userSpaceOnUse">
<stop stop-color="#EBECE8"/>
<stop offset="1" stop-color="#444444"/>
</linearGradient>
<linearGradient id="paint39_linear_8632_2754" x1="47.6776" y1="165.15" x2="50.2736" y2="165.15" gradientUnits="userSpaceOnUse">
<stop stop-color="#EBECE8"/>
<stop offset="1" stop-color="#444444"/>
</linearGradient>
<linearGradient id="paint40_linear_8632_2754" x1="49.6742" y1="160.509" x2="52.2203" y2="160.509" gradientUnits="userSpaceOnUse">
<stop stop-color="#EBECE8"/>
<stop offset="1" stop-color="#444444"/>
</linearGradient>
<linearGradient id="paint41_linear_8632_2754" x1="52.3207" y1="156.165" x2="54.8668" y2="156.165" gradientUnits="userSpaceOnUse">
<stop stop-color="#EBECE8"/>
<stop offset="1" stop-color="#444444"/>
</linearGradient>
<linearGradient id="paint42_linear_8632_2754" x1="55.5652" y1="152.269" x2="58.1113" y2="152.269" gradientUnits="userSpaceOnUse">
<stop stop-color="#EBECE8"/>
<stop offset="1" stop-color="#444444"/>
</linearGradient>
<linearGradient id="paint43_linear_8632_2754" x1="59.359" y1="148.875" x2="61.9051" y2="148.875" gradientUnits="userSpaceOnUse">
<stop stop-color="#EBECE8"/>
<stop offset="1" stop-color="#444444"/>
</linearGradient>
<linearGradient id="paint44_linear_8632_2754" x1="63.6026" y1="146.08" x2="66.1487" y2="146.08" gradientUnits="userSpaceOnUse">
<stop stop-color="#EBECE8"/>
<stop offset="1" stop-color="#444444"/>
</linearGradient>
<linearGradient id="paint45_linear_8632_2754" x1="68.1957" y1="143.933" x2="70.7418" y2="143.933" gradientUnits="userSpaceOnUse">
<stop stop-color="#EBECE8"/>
<stop offset="1" stop-color="#444444"/>
</linearGradient>
<linearGradient id="paint46_linear_8632_2754" x1="73.0384" y1="142.434" x2="75.5845" y2="142.434" gradientUnits="userSpaceOnUse">
<stop stop-color="#EBECE8"/>
<stop offset="1" stop-color="#444444"/>
</linearGradient>
<linearGradient id="paint47_linear_8632_2754" x1="78.0806" y1="141.738" x2="80.6267" y2="141.738" gradientUnits="userSpaceOnUse">
<stop stop-color="#EBECE8"/>
<stop offset="1" stop-color="#444444"/>
</linearGradient>
<linearGradient id="paint48_linear_8632_2754" x1="83.1233" y1="141.736" x2="85.6694" y2="141.736" gradientUnits="userSpaceOnUse">
<stop stop-color="#EBECE8"/>
<stop offset="1" stop-color="#444444"/>
</linearGradient>
<linearGradient id="paint49_linear_8632_2754" x1="88.1658" y1="142.434" x2="90.7119" y2="142.434" gradientUnits="userSpaceOnUse">
<stop stop-color="#EBECE8"/>
<stop offset="1" stop-color="#444444"/>
</linearGradient>
<linearGradient id="paint50_linear_8632_2754" x1="93.0089" y1="143.933" x2="95.6049" y2="143.933" gradientUnits="userSpaceOnUse">
<stop stop-color="#EBECE8"/>
<stop offset="1" stop-color="#444444"/>
</linearGradient>
<linearGradient id="paint51_linear_8632_2754" x1="97.651" y1="146.08" x2="100.147" y2="146.08" gradientUnits="userSpaceOnUse">
<stop stop-color="#EBECE8"/>
<stop offset="1" stop-color="#444444"/>
</linearGradient>
<linearGradient id="paint52_linear_8632_2754" x1="101.844" y1="148.874" x2="104.39" y2="148.874" gradientUnits="userSpaceOnUse">
<stop stop-color="#EBECE8"/>
<stop offset="1" stop-color="#444444"/>
</linearGradient>
<linearGradient id="paint53_linear_8632_2754" x1="105.639" y1="152.269" x2="108.185" y2="152.269" gradientUnits="userSpaceOnUse">
<stop stop-color="#EBECE8"/>
<stop offset="1" stop-color="#444444"/>
</linearGradient>
<linearGradient id="paint54_linear_8632_2754" x1="108.884" y1="156.166" x2="111.431" y2="156.166" gradientUnits="userSpaceOnUse">
<stop stop-color="#EBECE8"/>
<stop offset="1" stop-color="#444444"/>
</linearGradient>
<linearGradient id="paint55_linear_8632_2754" x1="111.53" y1="160.507" x2="114.076" y2="160.507" gradientUnits="userSpaceOnUse">
<stop stop-color="#EBECE8"/>
<stop offset="1" stop-color="#444444"/>
</linearGradient>
<linearGradient id="paint56_linear_8632_2754" x1="113.477" y1="165.15" x2="116.073" y2="165.15" gradientUnits="userSpaceOnUse">
<stop stop-color="#EBECE8"/>
<stop offset="1" stop-color="#444444"/>
</linearGradient>
<linearGradient id="paint57_linear_8632_2754" x1="114.825" y1="170.093" x2="117.321" y2="170.093" gradientUnits="userSpaceOnUse">
<stop stop-color="#EBECE8"/>
<stop offset="1" stop-color="#444444"/>
</linearGradient>
<linearGradient id="paint58_linear_8632_2754" x1="115.324" y1="175.136" x2="117.87" y2="175.136" gradientUnits="userSpaceOnUse">
<stop stop-color="#EBECE8"/>
<stop offset="1" stop-color="#444444"/>
</linearGradient>
<linearGradient id="paint59_linear_8632_2754" x1="115.174" y1="180.179" x2="117.72" y2="180.179" gradientUnits="userSpaceOnUse">
<stop stop-color="#EBECE8"/>
<stop offset="1" stop-color="#444444"/>
</linearGradient>
<linearGradient id="paint60_linear_8632_2754" x1="114.226" y1="185.218" x2="116.772" y2="185.218" gradientUnits="userSpaceOnUse">
<stop stop-color="#EBECE8"/>
<stop offset="1" stop-color="#444444"/>
</linearGradient>
<linearGradient id="paint61_linear_8632_2754" x1="112.628" y1="190.011" x2="115.174" y2="190.011" gradientUnits="userSpaceOnUse">
<stop stop-color="#EBECE8"/>
<stop offset="1" stop-color="#444444"/>
</linearGradient>
<linearGradient id="paint62_linear_8632_2754" x1="110.281" y1="194.507" x2="112.828" y2="194.507" gradientUnits="userSpaceOnUse">
<stop stop-color="#EBECE8"/>
<stop offset="1" stop-color="#444444"/>
</linearGradient>
<linearGradient id="paint63_linear_8632_2754" x1="107.336" y1="198.649" x2="109.882" y2="198.649" gradientUnits="userSpaceOnUse">
<stop stop-color="#EBECE8"/>
<stop offset="1" stop-color="#444444"/>
</linearGradient>
<linearGradient id="paint64_linear_8632_2754" x1="103.792" y1="202.293" x2="106.338" y2="202.293" gradientUnits="userSpaceOnUse">
<stop stop-color="#EBECE8"/>
<stop offset="1" stop-color="#444444"/>
</linearGradient>
<linearGradient id="paint65_linear_8632_2754" x1="99.7977" y1="205.389" x2="102.344" y2="205.389" gradientUnits="userSpaceOnUse">
<stop stop-color="#EBECE8"/>
<stop offset="1" stop-color="#444444"/>
</linearGradient>
<linearGradient id="paint66_linear_8632_2754" x1="95.4044" y1="207.884" x2="97.9006" y2="207.884" gradientUnits="userSpaceOnUse">
<stop stop-color="#EBECE8"/>
<stop offset="1" stop-color="#444444"/>
</linearGradient>
<linearGradient id="paint67_linear_8632_2754" x1="90.6121" y1="209.683" x2="93.1582" y2="209.683" gradientUnits="userSpaceOnUse">
<stop stop-color="#EBECE8"/>
<stop offset="1" stop-color="#444444"/>
</linearGradient>
<linearGradient id="paint68_linear_8632_2754" x1="85.67" y1="210.781" x2="88.2161" y2="210.781" gradientUnits="userSpaceOnUse">
<stop stop-color="#EBECE8"/>
<stop offset="1" stop-color="#444444"/>
</linearGradient>
<linearGradient id="paint69_linear_8632_2754" x1="80.6272" y1="211.18" x2="83.1733" y2="211.18" gradientUnits="userSpaceOnUse">
<stop stop-color="#EBECE8"/>
<stop offset="1" stop-color="#444444"/>
</linearGradient>
<linearGradient id="paint70_linear_8632_2754" x1="75.5347" y1="210.782" x2="78.0808" y2="210.782" gradientUnits="userSpaceOnUse">
<stop stop-color="#EBECE8"/>
<stop offset="1" stop-color="#444444"/>
</linearGradient>
<linearGradient id="paint71_linear_8632_2754" x1="70.5921" y1="209.682" x2="73.1382" y2="209.682" gradientUnits="userSpaceOnUse">
<stop stop-color="#EBECE8"/>
<stop offset="1" stop-color="#444444"/>
</linearGradient>
<linearGradient id="paint72_linear_8632_2754" x1="65.8494" y1="207.884" x2="68.3955" y2="207.884" gradientUnits="userSpaceOnUse">
<stop stop-color="#EBECE8"/>
<stop offset="1" stop-color="#444444"/>
</linearGradient>
<linearGradient id="paint73_linear_8632_2754" x1="61.4064" y1="205.386" x2="63.9525" y2="205.386" gradientUnits="userSpaceOnUse">
<stop stop-color="#EBECE8"/>
<stop offset="1" stop-color="#444444"/>
</linearGradient>
<linearGradient id="paint74_linear_8632_2754" x1="57.413" y1="202.294" x2="59.9591" y2="202.294" gradientUnits="userSpaceOnUse">
<stop stop-color="#EBECE8"/>
<stop offset="1" stop-color="#444444"/>
</linearGradient>
<linearGradient id="paint75_linear_8632_2754" x1="53.8682" y1="198.647" x2="56.4143" y2="198.647" gradientUnits="userSpaceOnUse">
<stop stop-color="#EBECE8"/>
<stop offset="1" stop-color="#444444"/>
</linearGradient>
<linearGradient id="paint76_linear_8632_2754" x1="50.9229" y1="194.504" x2="53.469" y2="194.504" gradientUnits="userSpaceOnUse">
<stop stop-color="#EBECE8"/>
<stop offset="1" stop-color="#444444"/>
</linearGradient>
<linearGradient id="paint77_linear_8632_2754" x1="48.5761" y1="190.011" x2="51.1721" y2="190.011" gradientUnits="userSpaceOnUse">
<stop stop-color="#EBECE8"/>
<stop offset="1" stop-color="#444444"/>
</linearGradient>
<linearGradient id="paint78_linear_8632_2754" x1="46.9782" y1="185.218" x2="49.5243" y2="185.218" gradientUnits="userSpaceOnUse">
<stop stop-color="#EBECE8"/>
<stop offset="1" stop-color="#444444"/>
</linearGradient>
<linearGradient id="paint79_linear_8632_2754" x1="46.0294" y1="180.176" x2="48.5755" y2="180.176" gradientUnits="userSpaceOnUse">
<stop stop-color="#EBECE8"/>
<stop offset="1" stop-color="#444444"/>
</linearGradient>
<linearGradient id="paint80_linear_8632_2754" x1="45.8804" y1="175.138" x2="48.4265" y2="175.138" gradientUnits="userSpaceOnUse">
<stop stop-color="#EBECE8"/>
<stop offset="1" stop-color="#444444"/>
</linearGradient>
<linearGradient id="paint81_linear_8632_2754" x1="46.4299" y1="170.093" x2="48.976" y2="170.093" gradientUnits="userSpaceOnUse">
<stop stop-color="#EBECE8"/>
<stop offset="1" stop-color="#444444"/>
</linearGradient>
<linearGradient id="paint82_linear_8632_2754" x1="47.6776" y1="165.15" x2="50.2736" y2="165.15" gradientUnits="userSpaceOnUse">
<stop stop-color="#EBECE8"/>
<stop offset="1" stop-color="#444444"/>
</linearGradient>
<linearGradient id="paint83_linear_8632_2754" x1="49.6742" y1="160.509" x2="52.2203" y2="160.509" gradientUnits="userSpaceOnUse">
<stop stop-color="#EBECE8"/>
<stop offset="1" stop-color="#444444"/>
</linearGradient>
<linearGradient id="paint84_linear_8632_2754" x1="52.3207" y1="156.165" x2="54.8668" y2="156.165" gradientUnits="userSpaceOnUse">
<stop stop-color="#EBECE8"/>
<stop offset="1" stop-color="#444444"/>
</linearGradient>
<linearGradient id="paint85_linear_8632_2754" x1="55.5652" y1="152.269" x2="58.1113" y2="152.269" gradientUnits="userSpaceOnUse">
<stop stop-color="#EBECE8"/>
<stop offset="1" stop-color="#444444"/>
</linearGradient>
<linearGradient id="paint86_linear_8632_2754" x1="59.359" y1="148.875" x2="61.9051" y2="148.875" gradientUnits="userSpaceOnUse">
<stop stop-color="#EBECE8"/>
<stop offset="1" stop-color="#444444"/>
</linearGradient>
<linearGradient id="paint87_linear_8632_2754" x1="63.6026" y1="146.08" x2="66.1487" y2="146.08" gradientUnits="userSpaceOnUse">
<stop stop-color="#EBECE8"/>
<stop offset="1" stop-color="#444444"/>
</linearGradient>
<linearGradient id="paint88_linear_8632_2754" x1="68.1957" y1="143.933" x2="70.7418" y2="143.933" gradientUnits="userSpaceOnUse">
<stop stop-color="#EBECE8"/>
<stop offset="1" stop-color="#444444"/>
</linearGradient>
<linearGradient id="paint89_linear_8632_2754" x1="73.0384" y1="142.434" x2="75.5845" y2="142.434" gradientUnits="userSpaceOnUse">
<stop stop-color="#EBECE8"/>
<stop offset="1" stop-color="#444444"/>
</linearGradient>
<linearGradient id="paint90_linear_8632_2754" x1="78.0806" y1="141.738" x2="80.6267" y2="141.738" gradientUnits="userSpaceOnUse">
<stop stop-color="#EBECE8"/>
<stop offset="1" stop-color="#444444"/>
</linearGradient>
<linearGradient id="paint91_linear_8632_2754" x1="83.1233" y1="141.736" x2="85.6694" y2="141.736" gradientUnits="userSpaceOnUse">
<stop stop-color="#EBECE8"/>
<stop offset="1" stop-color="#444444"/>
</linearGradient>
<linearGradient id="paint92_linear_8632_2754" x1="88.1658" y1="142.434" x2="90.7119" y2="142.434" gradientUnits="userSpaceOnUse">
<stop stop-color="#EBECE8"/>
<stop offset="1" stop-color="#444444"/>
</linearGradient>
<linearGradient id="paint93_linear_8632_2754" x1="93.0089" y1="143.933" x2="95.6049" y2="143.933" gradientUnits="userSpaceOnUse">
<stop stop-color="#EBECE8"/>
<stop offset="1" stop-color="#444444"/>
</linearGradient>
<linearGradient id="paint94_linear_8632_2754" x1="97.651" y1="146.08" x2="100.147" y2="146.08" gradientUnits="userSpaceOnUse">
<stop stop-color="#EBECE8"/>
<stop offset="1" stop-color="#444444"/>
</linearGradient>
<linearGradient id="paint95_linear_8632_2754" x1="101.844" y1="148.874" x2="104.39" y2="148.874" gradientUnits="userSpaceOnUse">
<stop stop-color="#EBECE8"/>
<stop offset="1" stop-color="#444444"/>
</linearGradient>
<linearGradient id="paint96_linear_8632_2754" x1="105.639" y1="152.269" x2="108.185" y2="152.269" gradientUnits="userSpaceOnUse">
<stop stop-color="#EBECE8"/>
<stop offset="1" stop-color="#444444"/>
</linearGradient>
<linearGradient id="paint97_linear_8632_2754" x1="108.884" y1="156.166" x2="111.431" y2="156.166" gradientUnits="userSpaceOnUse">
<stop stop-color="#EBECE8"/>
<stop offset="1" stop-color="#444444"/>
</linearGradient>
<linearGradient id="paint98_linear_8632_2754" x1="111.53" y1="160.507" x2="114.076" y2="160.507" gradientUnits="userSpaceOnUse">
<stop stop-color="#EBECE8"/>
<stop offset="1" stop-color="#444444"/>
</linearGradient>
<linearGradient id="paint99_linear_8632_2754" x1="113.477" y1="165.15" x2="116.073" y2="165.15" gradientUnits="userSpaceOnUse">
<stop stop-color="#EBECE8"/>
<stop offset="1" stop-color="#444444"/>
</linearGradient>
<linearGradient id="paint100_linear_8632_2754" x1="114.825" y1="170.093" x2="117.321" y2="170.093" gradientUnits="userSpaceOnUse">
<stop stop-color="#EBECE8"/>
<stop offset="1" stop-color="#444444"/>
</linearGradient>
<linearGradient id="paint101_linear_8632_2754" x1="115.324" y1="175.136" x2="117.87" y2="175.136" gradientUnits="userSpaceOnUse">
<stop stop-color="#EBECE8"/>
<stop offset="1" stop-color="#444444"/>
</linearGradient>
<radialGradient id="paint102_radial_8632_2754" cx="0" cy="0" r="1" gradientUnits="userSpaceOnUse" gradientTransform="translate(81.8745 176.359) scale(49.1248)">
<stop offset="0.57" stop-color="#CBD2D6"/>
<stop offset="0.97" stop-color="#5C707E"/>
</radialGradient>
<radialGradient id="paint103_radial_8632_2754" cx="0" cy="0" r="1" gradientTransform="matrix(7.65443 -14.7103 31.7164 16.51 113.123 130.518)" gradientUnits="userSpaceOnUse">
<stop stop-color="white"/>
<stop offset="0.14" stop-color="#E2E2E2"/>
<stop offset="0.43" stop-color="#999999"/>
<stop offset="0.87" stop-color="#252525"/>
<stop offset="1"/>
</radialGradient>
<radialGradient id="paint104_radial_8632_2754" cx="0" cy="0" r="1" gradientTransform="matrix(7.65443 -14.7103 31.7164 16.51 113.123 130.518)" gradientUnits="userSpaceOnUse">
<stop stop-color="#EBEAE6"/>
<stop offset="1"/>
</radialGradient>
<radialGradient id="paint105_radial_8632_2754" cx="0" cy="0" r="1" gradientUnits="userSpaceOnUse" gradientTransform="translate(108.199 140.26) rotate(27.21) scale(11.757 13.1678)">
<stop stop-color="white"/>
<stop offset="0.21" stop-color="#C3C3C3"/>
<stop offset="0.6" stop-color="#5B5B5B"/>
<stop offset="0.87" stop-color="#191919"/>
<stop offset="1"/>
</radialGradient>
<radialGradient id="paint106_radial_8632_2754" cx="0" cy="0" r="1" gradientUnits="userSpaceOnUse" gradientTransform="translate(108.199 140.26) rotate(27.21) scale(11.757 13.1678)">
<stop stop-color="#FFF9EF"/>
<stop offset="0.13" stop-color="#E5DFD6"/>
<stop offset="0.4" stop-color="#A39F99"/>
<stop offset="0.79" stop-color="#3B3937"/>
<stop offset="1"/>
</radialGradient>
<radialGradient id="paint107_radial_8632_2754" cx="0" cy="0" r="1" gradientUnits="userSpaceOnUse" gradientTransform="translate(59.4354 200.07) rotate(-58.17) scale(11.2148 20.6774)">
<stop stop-color="white"/>
<stop offset="0.14" stop-color="#E2E2E2"/>
<stop offset="0.43" stop-color="#999999"/>
<stop offset="0.87" stop-color="#252525"/>
<stop offset="1"/>
</radialGradient>
<radialGradient id="paint108_radial_8632_2754" cx="0" cy="0" r="1" gradientUnits="userSpaceOnUse" gradientTransform="translate(59.4354 200.07) rotate(-58.17) scale(11.2148 20.6774)">
<stop stop-color="#EBEAE6"/>
<stop offset="1"/>
</radialGradient>
<linearGradient id="paint109_linear_8632_2754" x1="70.293" y1="182.372" x2="99.6481" y2="168.443" gradientUnits="userSpaceOnUse">
<stop stop-color="#9B9BA7"/>
<stop offset="0.65" stop-color="#EEEEF0"/>
<stop offset="0.95" stop-color="#DDDDE2"/>
</linearGradient>
<linearGradient id="paint110_linear_8632_2754" x1="83.2229" y1="157.761" x2="83.2229" y2="190.56" gradientUnits="userSpaceOnUse">
<stop offset="0.05" stop-color="#EEEFF4"/>
<stop offset="0.17" stop-color="#E5E5E8"/>
<stop offset="0.25" stop-color="#C7C7CE"/>
<stop offset="0.33" stop-color="#AFAFB8"/>
<stop offset="0.41" stop-color="#A0A0AB"/>
<stop offset="0.47" stop-color="#9B9BA7"/>
<stop offset="0.65" stop-color="#707081"/>
<stop offset="0.79" stop-color="#BEBEC5"/>
<stop offset="0.81" stop-color="#C8C8CF"/>
<stop offset="0.85" stop-color="#D3D3DA"/>
<stop offset="0.88" stop-color="#D7D7DE"/>
<stop offset="0.91" stop-color="#E3E3E9"/>
<stop offset="0.95" stop-color="#EBECF1"/>
<stop offset="1" stop-color="#EEEFF4"/>
</linearGradient>
<radialGradient id="paint111_radial_8632_2754" cx="0" cy="0" r="1" gradientUnits="userSpaceOnUse" gradientTransform="translate(83.1977 115.773) scale(100.821 100.821)">
<stop stop-color="#ECECBB"/>
<stop offset="1" stop-color="#784F58"/>
</radialGradient>
</defs>
</svg>
