<svg width="262" height="84" viewBox="0 0 262 84" fill="none" xmlns="http://www.w3.org/2000/svg">
<path d="M11.7613 33.48C9.31809 33.4706 7.21582 32.8692 5.45446 31.676C3.70256 30.4829 2.35313 28.7546 1.40616 26.4914C0.468661 24.2281 0.00464609 21.5056 0.0141158 18.3238C0.0141158 15.1514 0.482866 12.4478 1.42037 10.213C2.36734 7.97813 3.71677 6.27832 5.46866 5.11355C7.23002 3.9393 9.32756 3.35218 11.7613 3.35218C14.195 3.35218 16.2878 3.9393 18.0397 5.11355C19.801 6.28779 21.1552 7.99233 22.1022 10.2272C23.0492 12.4526 23.5179 15.1514 23.5084 18.3238C23.5084 21.5151 23.035 24.2423 22.088 26.5056C21.1505 28.7689 19.8058 30.4971 18.0539 31.6903C16.302 32.8834 14.2045 33.48 11.7613 33.48ZM11.7613 28.3806C13.4279 28.3806 14.7584 27.5425 15.7528 25.8664C16.7471 24.1903 17.2395 21.676 17.23 18.3238C17.23 16.1173 17.0028 14.2802 16.5482 12.8124C16.1031 11.3446 15.4687 10.2414 14.6448 9.50275C13.8304 8.76412 12.8692 8.3948 11.7613 8.3948C10.1041 8.3948 8.77832 9.2234 7.784 10.8806C6.78968 12.5378 6.28779 15.0188 6.27832 18.3238C6.27832 20.5586 6.50086 22.4242 6.94593 23.9204C7.40048 25.4071 8.03968 26.5245 8.86355 27.2726C9.68741 28.0113 10.6533 28.3806 11.7613 28.3806ZM38.6469 33.2385C36.5257 33.2385 34.6365 32.874 32.9793 32.1448C31.3316 31.4062 30.0295 30.3929 29.0731 29.105C28.1261 27.8077 27.6384 26.3115 27.61 24.6164H33.8032C33.8411 25.3266 34.0731 25.9516 34.4992 26.4914C34.9348 27.0217 35.5125 27.4336 36.2322 27.7272C36.9519 28.0207 37.7615 28.1675 38.6611 28.1675C39.5986 28.1675 40.4272 28.0018 41.1469 27.6704C41.8666 27.3389 42.4301 26.8796 42.8373 26.2925C43.2445 25.7054 43.4481 25.0283 43.4481 24.2613C43.4481 23.4848 43.2303 22.7982 42.7947 22.2016C42.3685 21.5956 41.753 21.1221 40.9481 20.7812C40.1526 20.4403 39.2056 20.2698 38.1072 20.2698H35.3941V15.7528H38.1072C39.0352 15.7528 39.8543 15.5918 40.5645 15.2698C41.2842 14.9478 41.843 14.5028 42.2407 13.9346C42.6384 13.3569 42.8373 12.6846 42.8373 11.9175C42.8373 11.1884 42.6621 10.5492 42.3117 9.99991C41.9708 9.4412 41.4878 9.00559 40.8628 8.69309C40.2473 8.38059 39.5276 8.22434 38.7037 8.22434C37.8704 8.22434 37.1081 8.37586 36.4168 8.67889C35.7255 8.97245 35.1715 9.39385 34.7549 9.94309C34.3382 10.4923 34.1157 11.1363 34.0873 11.8749H28.1924C28.2208 10.1988 28.699 8.7215 29.627 7.44309C30.5551 6.16468 31.8051 5.16563 33.377 4.44593C34.9585 3.71677 36.7435 3.35218 38.7322 3.35218C40.7397 3.35218 42.4964 3.71677 44.002 4.44593C45.5077 5.1751 46.6772 6.15995 47.5106 7.40048C48.3534 8.63154 48.77 10.0141 48.7606 11.5482C48.77 13.177 48.2634 14.5359 47.2407 15.6249C46.2274 16.7139 44.9064 17.4052 43.2776 17.6988V17.926C45.4178 18.2007 47.0466 18.944 48.164 20.1562C49.2909 21.3588 49.8496 22.8645 49.8401 24.6732C49.8496 26.3304 49.3714 27.8029 48.4055 29.0908C47.449 30.3787 46.128 31.392 44.4424 32.1306C42.7568 32.8692 40.825 33.2385 38.6469 33.2385ZM82.9793 13.1533C82.7805 12.462 82.5011 11.8512 82.1412 11.3209C81.7814 10.7812 81.3411 10.3266 80.8202 9.9573C80.3089 9.57851 79.7217 9.28968 79.0589 9.09082C78.4055 8.89196 77.681 8.79253 76.8856 8.79253C75.3988 8.79253 74.092 9.16184 72.9651 9.90048C71.8477 10.6391 70.9765 11.7139 70.3515 13.1249C69.7265 14.5264 69.414 16.2404 69.414 18.267C69.414 20.2935 69.7217 22.017 70.3373 23.4374C70.9528 24.8579 71.824 25.9421 72.9509 26.6903C74.0778 27.4289 75.4083 27.7982 76.9424 27.7982C78.3344 27.7982 79.5229 27.552 80.5077 27.0596C81.502 26.5577 82.2596 25.8522 82.7805 24.9431C83.3108 24.034 83.5759 22.9592 83.5759 21.7187L84.8259 21.9033H77.3259V17.2726H89.4992V20.9374C89.4992 23.4942 88.9594 25.6912 87.8799 27.5283C86.8003 29.356 85.3136 30.767 83.4197 31.7613C81.5257 32.7461 79.3572 33.2385 76.914 33.2385C74.1867 33.2385 71.7909 32.6372 69.7265 31.4346C67.6621 30.2224 66.0522 28.5037 64.8969 26.2783C63.7511 24.0435 63.1782 21.392 63.1782 18.3238C63.1782 15.9658 63.5191 13.8635 64.2009 12.017C64.8922 10.1609 65.8581 8.58893 67.0986 7.30105C68.3392 6.01317 69.7833 5.03305 71.431 4.36071C73.0787 3.68836 74.8638 3.35218 76.7861 3.35218C78.4339 3.35218 79.968 3.59366 81.3884 4.07662C82.8089 4.5501 84.0683 5.22245 85.1668 6.09366C86.2748 6.96487 87.1791 8.0018 87.8799 9.20446C88.5806 10.3976 89.0305 11.7139 89.2293 13.1533H82.9793ZM95.3728 32.8408V11.0226H101.424V32.8408H95.3728ZM98.4126 8.21014C97.5129 8.21014 96.7412 7.91184 96.0972 7.31525C95.4627 6.70919 95.1455 5.98476 95.1455 5.14196C95.1455 4.30862 95.4627 3.59366 96.0972 2.99707C96.7412 2.39101 97.5129 2.08798 98.4126 2.08798C99.3122 2.08798 100.079 2.39101 100.714 2.99707C101.358 3.59366 101.68 4.30862 101.68 5.14196C101.68 5.98476 101.358 6.70919 100.714 7.31525C100.079 7.91184 99.3122 8.21014 98.4126 8.21014ZM112.493 33.2528C111.101 33.2528 109.86 33.0113 108.771 32.5283C107.682 32.0359 106.82 31.3115 106.186 30.355C105.561 29.3891 105.248 28.1865 105.248 26.7471C105.248 25.5349 105.471 24.517 105.916 23.6931C106.361 22.8692 106.967 22.2064 107.734 21.7045C108.501 21.2026 109.373 20.8238 110.348 20.5681C111.333 20.3124 112.365 20.1325 113.445 20.0283C114.713 19.8957 115.736 19.7726 116.513 19.659C117.289 19.5359 117.853 19.356 118.203 19.1192C118.553 18.8825 118.729 18.5321 118.729 18.0681V17.9829C118.729 17.0832 118.445 16.3872 117.876 15.8948C117.318 15.4024 116.522 15.1562 115.49 15.1562C114.401 15.1562 113.534 15.3976 112.891 15.8806C112.247 16.3541 111.82 16.9507 111.612 17.6704L106.016 17.2158C106.3 15.8901 106.858 14.7442 107.692 13.7783C108.525 12.8029 109.6 12.0548 110.916 11.534C112.242 11.0037 113.776 10.7385 115.518 10.7385C116.73 10.7385 117.891 10.8806 118.998 11.1647C120.116 11.4488 121.105 11.8891 121.967 12.4857C122.838 13.0823 123.525 13.8493 124.027 14.7868C124.529 15.7149 124.78 16.8276 124.78 18.1249V32.8408H119.041V29.8153H118.871C118.52 30.4971 118.052 31.0984 117.464 31.6192C116.877 32.1306 116.172 32.5331 115.348 32.8266C114.524 33.1107 113.572 33.2528 112.493 33.2528ZM114.226 29.0766C115.116 29.0766 115.902 28.9014 116.584 28.551C117.266 28.1912 117.801 27.7082 118.189 27.1022C118.577 26.4961 118.771 25.8096 118.771 25.0425V22.7272C118.582 22.8503 118.321 22.9639 117.99 23.0681C117.668 23.1628 117.303 23.2528 116.896 23.338C116.489 23.4137 116.082 23.4848 115.675 23.551C115.267 23.6079 114.898 23.6599 114.567 23.7073C113.856 23.8115 113.236 23.9772 112.706 24.2045C112.176 24.4317 111.764 24.7395 111.47 25.1278C111.177 25.5065 111.03 25.98 111.03 26.5482C111.03 27.3721 111.328 28.0018 111.925 28.4374C112.531 28.8635 113.298 29.0766 114.226 29.0766ZM117.976 7.89764H113.487L113.175 5.34082C114.178 5.29347 114.893 5.1609 115.32 4.94309C115.746 4.71582 115.954 4.41752 115.945 4.04821C115.954 3.53684 115.684 3.1912 115.135 3.01127C114.595 2.83135 113.918 2.74139 113.104 2.74139L113.26 -8.96454e-05C115.788 -8.96454e-05 117.711 0.34082 119.027 1.02264C120.353 1.70446 121.011 2.65143 121.001 3.86355C121.011 4.72529 120.698 5.3787 120.064 5.82377C119.439 6.25938 118.743 6.534 117.976 6.64764V7.89764ZM129.474 32.8408V11.0226H135.525V32.8408H129.474ZM132.514 8.21014C131.614 8.21014 130.843 7.91184 130.199 7.31525C129.564 6.70919 129.247 5.98476 129.247 5.14196C129.247 4.30862 129.564 3.59366 130.199 2.99707C130.843 2.39101 131.614 2.08798 132.514 2.08798C133.414 2.08798 134.181 2.39101 134.815 2.99707C135.459 3.59366 135.781 4.30862 135.781 5.14196C135.781 5.98476 135.459 6.70919 134.815 7.31525C134.181 7.91184 133.414 8.21014 132.514 8.21014ZM0.525479 74.8408V45.7499H6.67605V58.5766H7.05957L17.5283 45.7499H24.9005L14.105 58.7755L25.0283 74.8408H17.6704L9.70162 62.8806L6.67605 66.5738V74.8408H0.525479ZM34.0411 62.2272V74.8408H27.99V45.7499H33.8707V56.8721H34.1263C34.6188 55.5842 35.4142 54.5757 36.5127 53.8465C37.6112 53.1079 38.989 52.7385 40.6462 52.7385C42.1614 52.7385 43.4824 53.07 44.6093 53.7329C45.7457 54.3863 46.6263 55.3285 47.2513 56.5596C47.8858 57.7812 48.1983 59.2442 48.1888 60.9488V74.8408H42.1377V62.0283C42.1472 60.6836 41.8063 59.6372 41.115 58.8891C40.4332 58.141 39.4767 57.767 38.2457 57.767C37.4218 57.767 36.6926 57.9421 36.0582 58.2925C35.4332 58.6429 34.9407 59.1543 34.5809 59.8266C34.2305 60.4895 34.0506 61.2897 34.0411 62.2272ZM66.9424 65.551V53.0226H72.9935V74.8408H67.1839V70.8778H66.9566C66.4642 72.1562 65.645 73.1836 64.4992 73.9601C63.3628 74.7367 61.9755 75.1249 60.3373 75.1249C58.8789 75.1249 57.5958 74.7935 56.4878 74.1306C55.3799 73.4677 54.5134 72.5255 53.8884 71.3039C53.2729 70.0823 52.9604 68.6192 52.9509 66.9147V53.0226H59.002V65.8351C59.0115 67.123 59.3572 68.141 60.039 68.8891C60.7208 69.6372 61.6346 70.0113 62.7805 70.0113C63.5096 70.0113 64.1914 69.8456 64.8259 69.5141C65.4604 69.1732 65.9717 68.6713 66.36 68.0084C66.7577 67.3456 66.9519 66.5264 66.9424 65.551ZM81.5695 83.0226C80.8025 83.0226 80.0828 82.9611 79.4104 82.838C78.7475 82.7243 78.1983 82.5776 77.7627 82.3976L79.1263 77.8806C79.8366 78.0984 80.4758 78.2168 81.0439 78.2357C81.6216 78.2546 82.1188 78.1221 82.5354 77.838C82.9616 77.5539 83.3072 77.0709 83.5724 76.3891L83.9275 75.4658L76.1008 53.0226H82.4644L86.9814 69.0454H87.2087L91.7684 53.0226H98.1746L89.6945 77.1988C89.2873 78.373 88.7333 79.3957 88.0326 80.267C87.3413 81.1476 86.4653 81.8247 85.4047 82.2982C84.3441 82.7812 83.0657 83.0226 81.5695 83.0226ZM110.511 75.267C108.267 75.267 106.335 74.8124 104.716 73.9033C103.106 72.9848 101.865 71.6874 100.994 70.0113C100.123 68.3257 99.6874 66.3323 99.6874 64.0312C99.6874 61.7868 100.123 59.8171 100.994 58.1221C101.865 56.427 103.092 55.106 104.673 54.159C106.264 53.212 108.13 52.7385 110.27 52.7385C111.709 52.7385 113.049 52.9706 114.29 53.4346C115.54 53.8891 116.629 54.5757 117.557 55.4942C118.494 56.4128 119.223 57.5681 119.744 58.9601C120.265 60.3427 120.525 61.962 120.525 63.8181V65.48H102.102V61.73H114.829C114.829 60.8588 114.64 60.087 114.261 59.4147C113.882 58.7423 113.357 58.2168 112.685 57.838C112.022 57.4497 111.25 57.2556 110.369 57.2556C109.451 57.2556 108.636 57.4687 107.926 57.8948C107.225 58.3115 106.676 58.8749 106.278 59.5851C105.881 60.2859 105.677 61.0671 105.668 61.9289V65.4942C105.668 66.5738 105.866 67.5065 106.264 68.2925C106.671 69.0785 107.244 69.6846 107.983 70.1107C108.722 70.5368 109.597 70.7499 110.611 70.7499C111.283 70.7499 111.899 70.6552 112.457 70.4658C113.016 70.2764 113.494 69.9923 113.892 69.6135C114.29 69.2348 114.593 68.7707 114.801 68.2215L120.398 68.5908C120.114 69.9355 119.531 71.1098 118.65 72.1135C117.779 73.1079 116.652 73.8844 115.27 74.4431C113.897 74.9923 112.311 75.267 110.511 75.267ZM102.741 50.6363L108.466 46.2187H111.733L117.486 50.6363H113.125L110.128 48.2499L107.088 50.6363H102.741ZM115.994 48.1363L119.318 42.8096H124.006L119.418 48.1363H115.994ZM130.525 62.2272V74.8408H124.474V53.0226H130.241V56.8721H130.497C130.98 55.6031 131.79 54.5993 132.926 53.8607C134.062 53.1126 135.44 52.7385 137.06 52.7385C138.575 52.7385 139.896 53.07 141.023 53.7329C142.15 54.3957 143.025 55.3427 143.65 56.5738C144.275 57.7954 144.588 59.2537 144.588 60.9488V74.8408H138.537V62.0283C138.546 60.6931 138.205 59.6514 137.514 58.9033C136.823 58.1457 135.871 57.767 134.659 57.767C133.845 57.767 133.125 57.9421 132.5 58.2925C131.884 58.6429 131.401 59.1543 131.051 59.8266C130.71 60.4895 130.535 61.2897 130.525 62.2272ZM164.098 68.5624L164.112 61.3039H164.993L171.981 53.0226H178.927L169.538 63.9885H168.104L164.098 68.5624ZM158.615 74.8408V45.7499H164.666V74.8408H158.615ZM172.251 74.8408L165.831 65.338L169.865 61.0624L179.339 74.8408H172.251ZM187.947 62.2272V74.8408H181.896V45.7499H187.777V56.8721H188.033C188.525 55.5842 189.32 54.5757 190.419 53.8465C191.517 53.1079 192.895 52.7385 194.552 52.7385C196.068 52.7385 197.389 53.07 198.516 53.7329C199.652 54.3863 200.533 55.3285 201.158 56.5596C201.792 57.7812 202.105 59.2442 202.095 60.9488V74.8408H196.044V62.0283C196.053 60.6836 195.713 59.6372 195.021 58.8891C194.339 58.141 193.383 57.767 192.152 57.767C191.328 57.767 190.599 57.9421 189.964 58.2925C189.339 58.6429 188.847 59.1543 188.487 59.8266C188.137 60.4895 187.957 61.2897 187.947 62.2272ZM206.857 74.8408V53.0226H212.908V74.8408H206.857ZM207.724 50.2101L210.735 43.7471H216.332L211.999 50.2101H207.724ZM227.614 75.267C225.379 75.267 223.456 74.7935 221.847 73.8465C220.246 72.8901 219.015 71.5643 218.153 69.8692C217.301 68.1742 216.875 66.2234 216.875 64.017C216.875 61.7821 217.306 59.8219 218.168 58.1363C219.039 56.4412 220.275 55.1202 221.875 54.1732C223.475 53.2168 225.379 52.7385 227.585 52.7385C229.489 52.7385 231.155 53.0842 232.585 53.7755C234.015 54.4668 235.147 55.4374 235.98 56.6874C236.813 57.9374 237.273 59.4052 237.358 61.0908H231.648C231.487 60.0018 231.061 59.1259 230.369 58.463C229.687 57.7906 228.793 57.4545 227.685 57.4545C226.747 57.4545 225.928 57.7101 225.227 58.2215C224.536 58.7234 223.996 59.4573 223.608 60.4232C223.22 61.3891 223.025 62.5586 223.025 63.9317C223.025 65.3238 223.215 66.5075 223.594 67.4829C223.982 68.4582 224.526 69.2016 225.227 69.713C225.928 70.2243 226.747 70.48 227.685 70.48C228.376 70.48 228.996 70.338 229.545 70.0539C230.104 69.7698 230.563 69.3579 230.923 68.8181C231.293 68.2689 231.534 67.6107 231.648 66.8437H237.358C237.263 68.5103 236.809 69.9781 235.994 71.2471C235.189 72.5065 234.077 73.4914 232.656 74.2016C231.236 74.9118 229.555 75.267 227.614 75.267ZM247.283 62.2272V74.8408H241.232V45.7499H247.113V56.8721H247.369C247.861 55.5842 248.656 54.5757 249.755 53.8465C250.853 53.1079 252.231 52.7385 253.888 52.7385C255.404 52.7385 256.725 53.07 257.851 53.7329C258.988 54.3863 259.869 55.3285 260.494 56.5596C261.128 57.7812 261.44 59.2442 261.431 60.9488V74.8408H255.38V62.0283C255.389 60.6836 255.048 59.6372 254.357 58.8891C253.675 58.141 252.719 57.767 251.488 57.767C250.664 57.767 249.935 57.9421 249.3 58.2925C248.675 58.6429 248.183 59.1543 247.823 59.8266C247.473 60.4895 247.293 61.2897 247.283 62.2272Z" fill="#444444"/>
</svg>
