<svg width="777" height="121" viewBox="0 0 777 121" fill="none" xmlns="http://www.w3.org/2000/svg">
<path d="M37.9227 120.515C30.1286 120.487 23.3961 118.685 17.7252 115.109C12.0543 111.533 7.68236 106.379 4.60944 99.6467C1.53653 92.9142 0.0140347 84.8408 0.0419703 75.4265C0.0699059 65.9843 1.60636 57.9667 4.65135 51.3739C7.72426 44.7811 12.0822 39.7667 17.7252 36.3306C23.3961 32.8945 30.1286 31.1765 37.9227 31.1765C45.7167 31.1765 52.4492 32.9085 58.1201 36.3725C63.791 39.8086 68.1629 44.823 71.2359 51.4158C74.3088 58.0086 75.8313 66.0122 75.8033 75.4265C75.8033 84.8967 74.2669 92.998 71.194 99.7305C68.121 106.463 63.7491 111.617 58.0782 115.193C52.4352 118.741 45.7167 120.515 37.9227 120.515ZM37.9227 101.574C41.9454 101.574 45.2418 99.479 47.8119 95.2887C50.4099 91.0704 51.6949 84.4497 51.667 75.4265C51.667 69.5321 51.0803 64.7132 49.907 60.9698C48.7337 57.2264 47.1135 54.4608 45.0462 52.6729C42.979 50.8571 40.6045 49.9492 37.9227 49.9492C33.8999 49.9492 30.6175 51.9885 28.0754 56.0671C25.5332 60.1457 24.2342 66.5988 24.1783 75.4265C24.1504 81.4326 24.7231 86.3772 25.8964 90.2603C27.0697 94.1154 28.6899 96.9648 30.7572 98.8086C32.8523 100.652 35.2408 101.574 37.9227 101.574ZM128.811 32.3498V118.168H105.513V53.8043H105.01L86.2373 65.0344V45.256L107.357 32.3498H128.811ZM225.503 60.6765C225.14 59.1959 224.567 57.8969 223.785 56.7795C223.003 55.6341 222.025 54.6703 220.852 53.8881C219.707 53.078 218.366 52.4774 216.829 52.0863C215.321 51.6673 213.659 51.4577 211.843 51.4577C207.932 51.4577 204.593 52.3936 201.828 54.2653C199.09 56.137 196.995 58.8327 195.542 62.3526C194.118 65.8725 193.405 70.1187 193.405 75.0913C193.405 80.1197 194.09 84.4218 195.459 87.9975C196.827 91.5733 198.867 94.311 201.576 96.2106C204.286 98.1102 207.652 99.06 211.675 99.06C215.223 99.06 218.17 98.5432 220.517 97.5096C222.891 96.476 224.665 95.0094 225.838 93.1097C227.012 91.2101 227.598 88.9753 227.598 86.4052L231.621 86.8242H212.01V70.2305H250.059V82.131C250.059 89.953 248.396 96.6436 245.072 102.203C241.776 107.734 237.222 111.98 231.412 114.941C225.629 117.875 218.994 119.341 211.508 119.341C203.155 119.341 195.822 117.567 189.508 114.02C183.195 110.472 178.264 105.415 174.716 98.8505C171.196 92.2856 169.437 84.4776 169.437 75.4265C169.437 68.3308 170.512 62.0453 172.663 56.57C174.842 51.0946 177.859 46.4712 181.714 42.6999C185.569 38.9007 190.025 36.0373 195.081 34.1097C200.138 32.1542 205.557 31.1765 211.34 31.1765C216.424 31.1765 221.145 31.9028 225.503 33.3555C229.889 34.7802 233.758 36.8195 237.111 39.4734C240.491 42.0993 243.214 45.2141 245.282 48.8178C247.349 52.4215 248.606 56.3744 249.053 60.6765H225.503ZM284.22 32.3498V118.168H260.922V32.3498H284.22ZM317.555 118.168H292.413L320.739 32.3498H352.586L380.913 118.168H355.77L336.998 55.9833H336.327L317.555 118.168ZM312.861 84.31H360.128V101.742H312.861V84.31ZM344.708 22.7958H328.114L326.606 16.2589C329.595 16.1751 331.718 15.7979 332.975 15.1275C334.26 14.457 334.875 13.6609 334.819 12.739C334.875 11.2305 334.148 10.2667 332.64 9.84766C331.159 9.42862 329.26 9.2191 326.941 9.2191L327.444 0.000349998C336.048 0.000349998 342.599 1.00603 347.096 3.0174C351.594 5.02876 353.815 7.87819 353.759 11.5657C353.815 13.9123 352.893 15.7281 350.993 17.0131C349.122 18.2982 347.027 19.1083 344.708 19.4435V22.7958ZM412.476 32.3498V118.168H389.178V32.3498H412.476ZM521.278 32.3498V118.168H501.835L470.827 73.0799H470.324V118.168H447.026V32.3498H466.804L497.31 77.2702H497.98V32.3498H521.278ZM532.299 118.168V32.3498H555.597V65.8725H586.438V32.3498H609.737V118.168H586.438V84.6452H555.597V118.168H532.299ZM643.092 118.168H617.95L646.276 32.3498H678.123L706.45 118.168H681.308L662.535 55.9833H661.864L643.092 118.168ZM638.399 84.31H685.666V101.742H638.399V84.31ZM640.242 25.9805L657.004 14.4151H666.893L683.822 25.9805H670.413L662.032 20.114L653.484 25.9805H640.242ZM679.464 20.4492L690.359 4.3583H705.276L690.526 20.4492H679.464ZM701.536 51.1225V32.3498H776.125V51.1225H750.312V118.168H727.349V51.1225H701.536Z" fill="#F27224"/>
</svg>
