<svg width="697" height="313" viewBox="0 0 697 313" fill="none" xmlns="http://www.w3.org/2000/svg">
<g opacity="0.9" filter="url(#filter0_d_8688_208)">
<rect width="663" height="278" rx="36" transform="matrix(1 0 0 -1 0 278)" fill="#FFF3D7"/>
</g>
<path d="M184.848 27H87.5969L94.2368 63.4442H184.848V27Z" fill="url(#paint0_linear_8688_208)"/>
<g opacity="0.75" style="mix-blend-mode:multiply">
<path d="M99.4288 27H87.5969L94.2368 63.4442H118.949L99.4288 27Z" fill="#9D0000"/>
</g>
<g opacity="0.75" style="mix-blend-mode:multiply">
<path d="M173.016 27H184.848L178.208 63.4442H153.496L173.016 27Z" fill="#9D0000"/>
</g>
<path d="M184.848 27L116.303 147.516H156.092L219.395 47.8181L184.848 27Z" fill="url(#paint1_linear_8688_208)"/>
<path d="M212.606 43.6238L147.406 147.515H124.541L191.738 30.9932L212.606 43.6238Z" fill="url(#paint2_linear_8688_208)"/>
<g opacity="0.5" style="mix-blend-mode:multiply">
<path d="M142.213 102.037L116.303 147.517H156.092L164.08 134.937L142.213 102.037Z" fill="#771A1F"/>
</g>
<path d="M134.875 128.993C134.875 128.993 134.725 128.993 134.675 128.993C134.626 128.993 134.526 128.993 134.476 128.993C92.9394 128.993 100.977 158.099 103.823 165.038C104.072 164.788 104.322 164.589 104.572 164.339C105.021 163.94 105.47 163.59 106.019 163.291C106.019 163.291 106.069 163.291 106.119 163.241C106.469 163.041 111.561 162.841 111.96 162.642C109.614 154.005 104.172 139.477 134.476 139.277C134.526 139.277 134.626 139.277 134.675 139.277C134.725 139.277 134.825 139.277 134.875 139.277C165.179 139.477 159.787 154.005 157.391 162.642C157.79 162.841 162.832 162.991 163.232 163.241C163.232 163.241 163.282 163.241 163.332 163.291C163.831 163.59 164.33 163.94 164.779 164.339C165.029 164.539 165.279 164.788 165.528 165.038C168.324 158.049 176.412 128.993 134.875 128.993Z" fill="url(#paint3_radial_8688_208)"/>
<path d="M134.875 128.993C134.875 128.993 134.725 128.993 134.675 128.993C134.626 128.993 134.526 128.993 134.476 128.993C92.9394 128.993 100.977 158.099 103.823 165.038C104.072 164.788 104.322 164.589 104.572 164.339C105.021 163.94 105.47 163.59 106.019 163.291C106.019 163.291 106.069 163.291 106.119 163.241C106.469 163.041 111.561 162.841 111.96 162.642C109.614 154.005 104.172 139.477 134.476 139.277C134.526 139.277 134.626 139.277 134.675 139.277C134.725 139.277 134.825 139.277 134.875 139.277C165.179 139.477 159.787 154.005 157.391 162.642C157.79 162.841 162.832 162.991 163.232 163.241C163.232 163.241 163.282 163.241 163.332 163.291C163.831 163.59 164.33 163.94 164.779 164.339C165.029 164.539 165.279 164.788 165.528 165.038C168.324 158.049 176.412 128.993 134.875 128.993Z" fill="url(#paint4_radial_8688_208)"/>
<path opacity="0.75" d="M134.875 128.993C134.875 128.993 134.725 128.993 134.675 128.993C134.626 128.993 134.526 128.993 134.476 128.993C92.9394 128.993 100.977 158.099 103.823 165.038C103.972 164.888 104.122 164.738 104.272 164.589C101.127 155.702 96.0846 130.141 134.476 130.141C134.526 130.141 134.626 130.141 134.675 130.141C134.725 130.141 134.825 130.141 134.875 130.141C173.316 130.141 168.224 155.702 165.079 164.589C165.229 164.738 165.379 164.888 165.528 165.038C168.324 158.049 176.412 128.993 134.875 128.993Z" fill="url(#paint5_radial_8688_208)" style="mix-blend-mode:overlay"/>
<path opacity="0.55" d="M110.212 150.361C107.067 151.31 104.071 151.909 101.325 153.706C101.575 158.599 102.923 162.892 103.822 165.039C104.071 164.789 104.321 164.59 104.57 164.34C105.02 163.941 105.469 163.591 106.018 163.292C106.018 163.292 106.068 163.292 106.118 163.242C106.468 163.042 111.56 162.842 111.959 162.643C111.011 159.098 109.513 154.505 110.212 150.361Z" fill="url(#paint6_linear_8688_208)" style="mix-blend-mode:multiply"/>
<path opacity="0.55" d="M159.037 149.762C160.036 154.055 158.438 158.898 157.39 162.642C157.789 162.842 162.832 162.991 163.231 163.241C163.231 163.241 163.281 163.241 163.331 163.291C163.83 163.591 164.329 163.94 164.779 164.339C165.028 164.539 165.278 164.789 165.527 165.038C166.426 162.842 167.824 158.398 168.024 153.406C164.679 151.259 159.836 150.061 159.037 149.762Z" fill="url(#paint7_linear_8688_208)" style="mix-blend-mode:multiply"/>
<path opacity="0.55" d="M134.875 136.833C134.875 136.833 134.775 136.833 134.725 136.833C134.675 136.833 134.625 136.833 134.575 136.833C105.07 136.833 106.219 152.709 108.116 163.742C108.315 163.642 111.61 162.843 112.01 162.693C109.663 154.057 104.222 139.529 134.525 139.329C134.575 139.329 134.675 139.329 134.725 139.329C134.775 139.329 134.875 139.329 134.925 139.329C165.228 139.529 159.837 154.057 157.44 162.693C157.84 162.893 161.135 163.642 161.334 163.742C163.231 152.709 164.43 136.833 134.875 136.833Z" fill="url(#paint8_radial_8688_208)" style="mix-blend-mode:multiply"/>
<path d="M53 47.8181L116.303 147.516H156.092L87.5471 27L53 47.8181Z" fill="url(#paint9_linear_8688_208)"/>
<path d="M60.0388 43.6238L125.239 147.515H148.054L80.9069 30.9932L60.0388 43.6238Z" fill="url(#paint10_linear_8688_208)"/>
<mask id="mask0_8688_208" style="mask-type:luminance" maskUnits="userSpaceOnUse" x="79" y="148" width="112" height="111">
<path d="M134.875 258.547C165.342 258.547 190.041 233.848 190.041 203.381C190.041 172.914 165.342 148.216 134.875 148.216C104.408 148.216 79.7095 172.914 79.7095 203.381C79.7095 233.848 104.408 258.547 134.875 258.547Z" fill="white"/>
</mask>
<g mask="url(#mask0_8688_208)">
<path d="M134.875 258.547C165.342 258.547 190.041 233.848 190.041 203.381C190.041 172.914 165.342 148.216 134.875 148.216C104.408 148.216 79.7095 172.914 79.7095 203.381C79.7095 233.848 104.408 258.547 134.875 258.547Z" fill="url(#paint11_radial_8688_208)"/>
<path opacity="0.75" d="M134.875 148.216C104.422 148.216 79.7095 172.928 79.7095 203.381C79.7095 233.835 104.422 258.547 134.875 258.547C165.328 258.547 190.041 233.835 190.041 203.381C190.041 172.928 165.328 148.216 134.875 148.216ZM134.875 257.049C105.22 257.049 81.2072 233.036 81.2072 203.381C81.2072 173.727 105.22 149.714 134.875 149.714C164.53 149.714 188.543 173.727 188.543 203.381C188.543 233.036 164.53 257.049 134.875 257.049Z" fill="url(#paint12_radial_8688_208)" style="mix-blend-mode:overlay"/>
<path opacity="0.75" d="M151.653 243.607C173.87 234.345 184.372 208.826 175.11 186.609C165.849 164.392 140.33 153.889 118.113 163.151C95.8956 172.413 85.3932 197.931 94.6549 220.149C103.917 242.366 129.435 252.868 151.653 243.607Z" fill="url(#paint13_linear_8688_208)" style="mix-blend-mode:screen"/>
<path opacity="0.32" d="M151.653 243.607C173.87 234.345 184.372 208.826 175.11 186.609C165.849 164.392 140.33 153.889 118.113 163.151C95.8956 172.413 85.3932 197.931 94.6549 220.149C103.917 242.366 129.435 252.868 151.653 243.607Z" fill="url(#paint14_linear_8688_208)" style="mix-blend-mode:screen"/>
<path d="M134.874 245.519C158.145 245.519 177.01 226.654 177.01 203.384C177.01 180.113 158.145 161.248 134.874 161.248C111.603 161.248 92.7388 180.113 92.7388 203.384C92.7388 226.654 111.603 245.519 134.874 245.519Z" fill="url(#paint15_linear_8688_208)"/>
<g opacity="0.75">
<g style="mix-blend-mode:multiply" opacity="0.85">
<path d="M169.272 208.475C168.573 208.375 168.074 207.726 168.224 207.077C168.324 206.428 168.873 205.879 169.572 205.929C170.271 205.929 170.82 206.628 170.77 207.327C170.67 208.026 170.021 208.575 169.322 208.425L169.272 208.475Z" fill="url(#paint16_linear_8688_208)"/>
<path d="M168.175 213.416C167.526 213.216 167.076 212.518 167.276 211.869C167.426 211.22 168.125 210.82 168.824 210.97C169.522 211.12 169.922 211.819 169.722 212.518C169.522 213.216 168.824 213.616 168.175 213.416Z" fill="url(#paint17_linear_8688_208)"/>
<path d="M166.327 218.159C165.678 217.859 165.429 217.11 165.728 216.511C165.978 215.862 166.677 215.563 167.326 215.812C167.975 216.062 168.324 216.811 168.074 217.51C167.775 218.159 166.976 218.458 166.377 218.159H166.327Z" fill="url(#paint18_linear_8688_208)"/>
<path d="M163.881 222.604C163.281 222.204 163.132 221.406 163.431 220.856C163.781 220.307 164.58 220.108 165.179 220.457C165.778 220.807 165.977 221.555 165.628 222.204C165.229 222.853 164.48 223.003 163.881 222.604Z" fill="url(#paint19_linear_8688_208)"/>
<path d="M160.735 226.597C160.236 226.147 160.136 225.349 160.636 224.849C161.085 224.35 161.834 224.25 162.383 224.65C162.932 225.049 163.032 225.898 162.583 226.447C162.083 226.996 161.285 227.046 160.735 226.597Z" fill="url(#paint20_linear_8688_208)"/>
<path d="M157.141 230.14C156.691 229.591 156.741 228.792 157.241 228.343C157.74 227.894 158.539 227.944 159.038 228.443C159.537 228.942 159.487 229.741 158.938 230.24C158.389 230.739 157.59 230.69 157.141 230.14Z" fill="url(#paint21_linear_8688_208)"/>
<path d="M152.997 233.037C152.648 232.438 152.797 231.689 153.397 231.34C153.946 230.99 154.695 231.09 155.144 231.639C155.543 232.188 155.443 233.037 154.794 233.436C154.145 233.836 153.347 233.636 152.997 233.037Z" fill="url(#paint22_linear_8688_208)"/>
<path d="M148.504 235.432C148.255 234.783 148.504 234.034 149.103 233.735C149.702 233.435 150.451 233.735 150.801 234.334C151.15 234.933 150.851 235.732 150.202 236.031C149.553 236.331 148.804 236.031 148.504 235.432Z" fill="url(#paint23_linear_8688_208)"/>
<path d="M143.662 237.031C143.512 236.332 143.862 235.683 144.511 235.483C145.16 235.333 145.859 235.633 146.058 236.282C146.308 236.931 145.909 237.73 145.21 237.929C144.511 238.129 143.762 237.73 143.612 237.031H143.662Z" fill="url(#paint24_linear_8688_208)"/>
<path d="M138.67 237.979C138.62 237.28 139.069 236.631 139.718 236.531C140.367 236.431 141.016 236.931 141.166 237.58C141.316 238.279 140.817 238.928 140.118 239.027C139.419 239.127 138.77 238.678 138.67 237.979Z" fill="url(#paint25_linear_8688_208)"/>
<path d="M133.627 238.129C133.627 237.43 134.226 236.881 134.875 236.931C135.524 236.931 136.123 237.43 136.123 238.129C136.123 238.828 135.574 239.427 134.875 239.477C134.126 239.477 133.577 238.828 133.627 238.129Z" fill="url(#paint26_linear_8688_208)"/>
<path d="M128.585 237.581C128.735 236.882 129.384 236.433 130.033 236.532C130.682 236.632 131.181 237.281 131.081 237.98C130.981 238.679 130.382 239.178 129.633 239.029C128.934 238.929 128.435 238.28 128.585 237.581Z" fill="url(#paint27_linear_8688_208)"/>
<path d="M123.642 236.28C123.892 235.581 124.541 235.282 125.19 235.482C125.839 235.631 126.238 236.33 126.038 237.029C125.889 237.728 125.14 238.128 124.441 237.928C123.742 237.728 123.392 236.979 123.592 236.28H123.642Z" fill="url(#paint28_linear_8688_208)"/>
<path d="M118.999 234.334C119.348 233.735 120.097 233.435 120.696 233.735C121.295 234.034 121.595 234.783 121.295 235.432C121.046 236.081 120.247 236.331 119.598 236.031C118.949 235.732 118.649 234.933 118.999 234.334Z" fill="url(#paint29_linear_8688_208)"/>
<path d="M114.656 231.636C115.055 231.037 115.804 230.937 116.403 231.336C117.002 231.686 117.152 232.435 116.802 233.034C116.453 233.633 115.654 233.832 115.005 233.433C114.406 233.034 114.256 232.185 114.656 231.636Z" fill="url(#paint30_linear_8688_208)"/>
<path d="M110.762 228.395C111.261 227.896 112.06 227.846 112.559 228.295C113.059 228.745 113.109 229.543 112.659 230.093C112.21 230.642 111.411 230.692 110.862 230.192C110.313 229.693 110.263 228.894 110.762 228.395Z" fill="url(#paint31_linear_8688_208)"/>
<path d="M107.367 224.647C107.917 224.198 108.715 224.298 109.115 224.847C109.564 225.346 109.514 226.145 109.015 226.594C108.516 227.044 107.667 226.994 107.168 226.444C106.718 225.895 106.818 225.047 107.367 224.647Z" fill="url(#paint32_linear_8688_208)"/>
<path d="M104.572 220.404C105.171 220.055 105.97 220.255 106.319 220.804C106.668 221.353 106.469 222.152 105.87 222.551C105.271 222.95 104.522 222.751 104.122 222.152C103.723 221.503 103.923 220.754 104.572 220.404Z" fill="url(#paint33_linear_8688_208)"/>
<path d="M102.425 215.812C103.074 215.563 103.773 215.862 104.022 216.511C104.322 217.11 104.022 217.859 103.423 218.159C102.774 218.458 102.025 218.159 101.726 217.51C101.476 216.811 101.776 216.062 102.475 215.812H102.425Z" fill="url(#paint34_linear_8688_208)"/>
<path d="M100.926 210.97C101.625 210.82 102.324 211.22 102.474 211.869C102.624 212.518 102.224 213.216 101.575 213.416C100.926 213.616 100.228 213.216 100.028 212.518C99.8282 211.819 100.277 211.12 100.926 210.97Z" fill="url(#paint35_linear_8688_208)"/>
<path d="M100.227 205.926C100.926 205.926 101.475 206.375 101.575 207.074C101.675 207.723 101.176 208.372 100.527 208.472C99.8279 208.572 99.1789 208.072 99.079 207.374C98.9792 206.625 99.5783 206.026 100.277 205.976L100.227 205.926Z" fill="url(#paint36_linear_8688_208)"/>
<path d="M100.228 200.838C100.927 200.888 101.476 201.487 101.426 202.136C101.426 202.785 100.777 203.334 100.078 203.334C99.3791 203.334 98.8299 202.735 98.8799 202.036C98.8799 201.287 99.5289 200.738 100.228 200.838Z" fill="url(#paint37_linear_8688_208)"/>
<path d="M100.927 195.843C101.626 195.993 102.026 196.642 101.926 197.34C101.826 197.989 101.177 198.439 100.478 198.389C99.7791 198.289 99.3298 197.64 99.4296 196.891C99.5295 196.142 100.228 195.743 100.927 195.893V195.843Z" fill="url(#paint38_linear_8688_208)"/>
<path d="M102.425 191C103.074 191.25 103.423 191.999 103.174 192.598C102.924 193.247 102.225 193.596 101.576 193.397C100.877 193.197 100.528 192.448 100.777 191.799C101.027 191.1 101.776 190.751 102.425 191Z" fill="url(#paint39_linear_8688_208)"/>
<path d="M104.571 186.36C105.17 186.709 105.37 187.458 105.12 188.057C104.821 188.656 104.072 188.906 103.423 188.606C102.774 188.307 102.524 187.558 102.824 186.859C103.123 186.21 103.922 185.96 104.571 186.31V186.36Z" fill="url(#paint40_linear_8688_208)"/>
<path d="M107.367 182.165C107.916 182.614 108.066 183.363 107.617 183.912C107.218 184.461 106.419 184.561 105.87 184.211C105.271 183.812 105.121 183.013 105.57 182.414C106.019 181.815 106.818 181.715 107.367 182.115V182.165Z" fill="url(#paint41_linear_8688_208)"/>
<path d="M110.762 178.369C111.261 178.868 111.211 179.617 110.762 180.166C110.313 180.665 109.514 180.665 109.015 180.216C108.465 179.767 108.465 178.918 108.965 178.369C109.464 177.82 110.313 177.87 110.762 178.369Z" fill="url(#paint42_linear_8688_208)"/>
<path d="M114.655 175.128C115.055 175.677 114.955 176.476 114.406 176.875C113.857 177.274 113.058 177.174 112.609 176.625C112.159 176.076 112.259 175.277 112.858 174.828C113.457 174.379 114.256 174.479 114.655 175.078V175.128Z" fill="url(#paint43_linear_8688_208)"/>
<path d="M118.999 172.48C119.349 173.129 119.049 173.828 118.5 174.177C117.951 174.527 117.152 174.327 116.803 173.728C116.453 173.129 116.653 172.33 117.252 171.981C117.851 171.581 118.7 171.881 118.999 172.48Z" fill="url(#paint44_linear_8688_208)"/>
<path d="M123.642 170.483C123.841 171.132 123.542 171.881 122.893 172.131C122.244 172.38 121.545 172.031 121.245 171.382C120.946 170.733 121.245 169.984 121.994 169.734C122.693 169.485 123.442 169.834 123.642 170.483Z" fill="url(#paint45_linear_8688_208)"/>
<path d="M128.584 169.234C128.734 169.933 128.235 170.532 127.636 170.732C126.987 170.882 126.288 170.482 126.138 169.783C125.988 169.084 126.388 168.386 127.087 168.236C127.786 168.036 128.485 168.535 128.584 169.234Z" fill="url(#paint46_linear_8688_208)"/>
<path d="M133.627 168.686C133.627 169.385 133.128 169.984 132.429 170.034C131.78 170.034 131.131 169.535 131.081 168.836C130.981 168.137 131.53 167.488 132.279 167.488C133.028 167.488 133.627 167.988 133.627 168.686Z" fill="url(#paint47_linear_8688_208)"/>
<path d="M138.67 168.834C138.57 169.532 137.971 170.032 137.322 170.032C136.673 170.032 136.124 169.383 136.124 168.684C136.124 167.985 136.773 167.436 137.471 167.486C138.22 167.486 138.72 168.135 138.67 168.834Z" fill="url(#paint48_linear_8688_208)"/>
<path d="M143.662 169.783C143.462 170.482 142.813 170.882 142.164 170.732C141.515 170.532 141.066 169.933 141.216 169.234C141.316 168.535 142.014 168.036 142.713 168.236C143.412 168.435 143.862 169.134 143.662 169.783Z" fill="url(#paint49_linear_8688_208)"/>
<path d="M148.505 171.382C148.255 172.031 147.506 172.38 146.857 172.131C146.208 171.881 145.909 171.182 146.108 170.483C146.308 169.834 147.057 169.485 147.756 169.734C148.455 169.984 148.754 170.683 148.505 171.382Z" fill="url(#paint50_linear_8688_208)"/>
<path d="M152.997 173.728C152.648 174.327 151.849 174.527 151.3 174.177C150.751 173.828 150.451 173.129 150.801 172.48C151.1 171.881 151.949 171.581 152.548 171.981C153.197 172.38 153.397 173.129 152.997 173.728Z" fill="url(#paint51_linear_8688_208)"/>
<path d="M157.141 176.673C156.692 177.172 155.893 177.322 155.344 176.922C154.794 176.523 154.695 175.724 155.094 175.175C155.493 174.626 156.292 174.476 156.891 174.926C157.49 175.375 157.59 176.174 157.141 176.723V176.673Z" fill="url(#paint52_linear_8688_208)"/>
<path d="M160.735 180.216C160.186 180.665 159.437 180.665 158.988 180.166C158.539 179.667 158.539 178.918 158.988 178.369C159.487 177.87 160.336 177.82 160.785 178.369C161.285 178.918 161.235 179.717 160.735 180.216Z" fill="url(#paint53_linear_8688_208)"/>
<path d="M163.881 184.212C163.282 184.612 162.533 184.462 162.134 183.913C161.735 183.364 161.834 182.565 162.384 182.166C162.933 181.716 163.732 181.866 164.181 182.465C164.63 183.064 164.48 183.863 163.881 184.262V184.212Z" fill="url(#paint54_linear_8688_208)"/>
<path d="M166.327 188.654C165.678 188.954 164.929 188.654 164.63 188.105C164.38 187.506 164.58 186.757 165.179 186.408C165.778 186.058 166.627 186.258 166.926 186.957C167.226 187.606 166.976 188.405 166.327 188.704V188.654Z" fill="url(#paint55_linear_8688_208)"/>
<path d="M168.174 193.397C167.525 193.596 166.826 193.247 166.576 192.598C166.327 191.949 166.676 191.25 167.325 191C167.974 190.751 168.723 191.1 168.973 191.799C169.222 192.498 168.873 193.197 168.174 193.397Z" fill="url(#paint56_linear_8688_208)"/>
<path d="M169.273 198.341C168.574 198.44 167.925 197.991 167.825 197.292C167.725 196.643 168.124 195.994 168.823 195.794C169.522 195.645 170.221 196.094 170.321 196.793C170.421 197.492 169.971 198.191 169.273 198.291V198.341Z" fill="url(#paint57_linear_8688_208)"/>
<path d="M169.672 203.383C168.973 203.383 168.374 202.834 168.324 202.185C168.324 201.536 168.823 200.937 169.522 200.887C170.221 200.837 170.82 201.386 170.87 202.085C170.87 202.834 170.371 203.383 169.672 203.383Z" fill="url(#paint58_linear_8688_208)"/>
</g>
<g style="mix-blend-mode:multiply" opacity="0.85">
<path d="M169.272 208.475C168.573 208.375 168.074 207.726 168.224 207.077C168.324 206.428 168.873 205.879 169.572 205.929C170.271 205.929 170.82 206.628 170.77 207.327C170.67 208.026 170.021 208.575 169.322 208.425L169.272 208.475Z" fill="url(#paint59_linear_8688_208)"/>
<path d="M168.175 213.416C167.526 213.216 167.076 212.518 167.276 211.869C167.426 211.22 168.125 210.82 168.824 210.97C169.522 211.12 169.922 211.819 169.722 212.518C169.522 213.216 168.824 213.616 168.175 213.416Z" fill="url(#paint60_linear_8688_208)"/>
<path d="M166.327 218.159C165.678 217.859 165.429 217.11 165.728 216.511C165.978 215.862 166.677 215.563 167.326 215.812C167.975 216.062 168.324 216.811 168.074 217.51C167.775 218.159 166.976 218.458 166.377 218.159H166.327Z" fill="url(#paint61_linear_8688_208)"/>
<path d="M163.881 222.604C163.281 222.204 163.132 221.406 163.431 220.856C163.781 220.307 164.58 220.108 165.179 220.457C165.778 220.807 165.977 221.555 165.628 222.204C165.229 222.853 164.48 223.003 163.881 222.604Z" fill="url(#paint62_linear_8688_208)"/>
<path d="M160.735 226.597C160.236 226.147 160.136 225.349 160.636 224.849C161.085 224.35 161.834 224.25 162.383 224.65C162.932 225.049 163.032 225.898 162.583 226.447C162.083 226.996 161.285 227.046 160.735 226.597Z" fill="url(#paint63_linear_8688_208)"/>
<path d="M157.141 230.14C156.691 229.591 156.741 228.792 157.241 228.343C157.74 227.894 158.539 227.944 159.038 228.443C159.537 228.942 159.487 229.741 158.938 230.24C158.389 230.739 157.59 230.69 157.141 230.14Z" fill="url(#paint64_linear_8688_208)"/>
<path d="M152.997 233.037C152.648 232.438 152.797 231.689 153.397 231.34C153.946 230.99 154.695 231.09 155.144 231.639C155.543 232.188 155.443 233.037 154.794 233.436C154.145 233.836 153.347 233.636 152.997 233.037Z" fill="url(#paint65_linear_8688_208)"/>
<path d="M148.504 235.432C148.255 234.783 148.504 234.034 149.103 233.735C149.702 233.435 150.451 233.735 150.801 234.334C151.15 234.933 150.851 235.732 150.202 236.031C149.553 236.331 148.804 236.031 148.504 235.432Z" fill="url(#paint66_linear_8688_208)"/>
<path d="M143.662 237.031C143.512 236.332 143.862 235.683 144.511 235.483C145.16 235.333 145.859 235.633 146.058 236.282C146.308 236.931 145.909 237.73 145.21 237.929C144.511 238.129 143.762 237.73 143.612 237.031H143.662Z" fill="url(#paint67_linear_8688_208)"/>
<path d="M138.67 237.979C138.62 237.28 139.069 236.631 139.718 236.531C140.367 236.431 141.016 236.931 141.166 237.58C141.316 238.279 140.817 238.928 140.118 239.027C139.419 239.127 138.77 238.678 138.67 237.979Z" fill="url(#paint68_linear_8688_208)"/>
<path d="M133.627 238.129C133.627 237.43 134.226 236.881 134.875 236.931C135.524 236.931 136.123 237.43 136.123 238.129C136.123 238.828 135.574 239.427 134.875 239.477C134.126 239.477 133.577 238.828 133.627 238.129Z" fill="url(#paint69_linear_8688_208)"/>
<path d="M128.585 237.581C128.735 236.882 129.384 236.433 130.033 236.532C130.682 236.632 131.181 237.281 131.081 237.98C130.981 238.679 130.382 239.178 129.633 239.029C128.934 238.929 128.435 238.28 128.585 237.581Z" fill="url(#paint70_linear_8688_208)"/>
<path d="M123.642 236.28C123.892 235.581 124.541 235.282 125.19 235.482C125.839 235.631 126.238 236.33 126.038 237.029C125.889 237.728 125.14 238.128 124.441 237.928C123.742 237.728 123.392 236.979 123.592 236.28H123.642Z" fill="url(#paint71_linear_8688_208)"/>
<path d="M118.999 234.334C119.348 233.735 120.097 233.435 120.696 233.735C121.295 234.034 121.595 234.783 121.295 235.432C121.046 236.081 120.247 236.331 119.598 236.031C118.949 235.732 118.649 234.933 118.999 234.334Z" fill="url(#paint72_linear_8688_208)"/>
<path d="M114.656 231.636C115.055 231.037 115.804 230.937 116.403 231.336C117.002 231.686 117.152 232.435 116.802 233.034C116.453 233.633 115.654 233.832 115.005 233.433C114.406 233.034 114.256 232.185 114.656 231.636Z" fill="url(#paint73_linear_8688_208)"/>
<path d="M110.762 228.395C111.261 227.896 112.06 227.846 112.559 228.295C113.059 228.745 113.109 229.543 112.659 230.093C112.21 230.642 111.411 230.692 110.862 230.192C110.313 229.693 110.263 228.894 110.762 228.395Z" fill="url(#paint74_linear_8688_208)"/>
<path d="M107.367 224.647C107.917 224.198 108.715 224.298 109.115 224.847C109.564 225.346 109.514 226.145 109.015 226.594C108.516 227.044 107.667 226.994 107.168 226.444C106.718 225.895 106.818 225.047 107.367 224.647Z" fill="url(#paint75_linear_8688_208)"/>
<path d="M104.572 220.404C105.171 220.055 105.97 220.255 106.319 220.804C106.668 221.353 106.469 222.152 105.87 222.551C105.271 222.95 104.522 222.751 104.122 222.152C103.723 221.503 103.923 220.754 104.572 220.404Z" fill="url(#paint76_linear_8688_208)"/>
<path d="M102.425 215.812C103.074 215.563 103.773 215.862 104.022 216.511C104.322 217.11 104.022 217.859 103.423 218.159C102.774 218.458 102.025 218.159 101.726 217.51C101.476 216.811 101.776 216.062 102.475 215.812H102.425Z" fill="url(#paint77_linear_8688_208)"/>
<path d="M100.926 210.97C101.625 210.82 102.324 211.22 102.474 211.869C102.624 212.518 102.224 213.216 101.575 213.416C100.926 213.616 100.228 213.216 100.028 212.518C99.8282 211.819 100.277 211.12 100.926 210.97Z" fill="url(#paint78_linear_8688_208)"/>
<path d="M100.227 205.926C100.926 205.926 101.475 206.375 101.575 207.074C101.675 207.723 101.176 208.372 100.527 208.472C99.8279 208.572 99.1789 208.072 99.079 207.374C98.9792 206.625 99.5783 206.026 100.277 205.976L100.227 205.926Z" fill="url(#paint79_linear_8688_208)"/>
<path d="M100.228 200.838C100.927 200.888 101.476 201.487 101.426 202.136C101.426 202.785 100.777 203.334 100.078 203.334C99.3791 203.334 98.8299 202.735 98.8799 202.036C98.8799 201.287 99.5289 200.738 100.228 200.838Z" fill="url(#paint80_linear_8688_208)"/>
<path d="M100.927 195.843C101.626 195.993 102.026 196.642 101.926 197.34C101.826 197.989 101.177 198.439 100.478 198.389C99.7791 198.289 99.3298 197.64 99.4296 196.891C99.5295 196.142 100.228 195.743 100.927 195.893V195.843Z" fill="url(#paint81_linear_8688_208)"/>
<path d="M102.425 191C103.074 191.25 103.423 191.999 103.174 192.598C102.924 193.247 102.225 193.596 101.576 193.397C100.877 193.197 100.528 192.448 100.777 191.799C101.027 191.1 101.776 190.751 102.425 191Z" fill="url(#paint82_linear_8688_208)"/>
<path d="M104.571 186.36C105.17 186.709 105.37 187.458 105.12 188.057C104.821 188.656 104.072 188.906 103.423 188.606C102.774 188.307 102.524 187.558 102.824 186.859C103.123 186.21 103.922 185.96 104.571 186.31V186.36Z" fill="url(#paint83_linear_8688_208)"/>
<path d="M107.367 182.165C107.916 182.614 108.066 183.363 107.617 183.912C107.218 184.461 106.419 184.561 105.87 184.211C105.271 183.812 105.121 183.013 105.57 182.414C106.019 181.815 106.818 181.715 107.367 182.115V182.165Z" fill="url(#paint84_linear_8688_208)"/>
<path d="M110.762 178.369C111.261 178.868 111.211 179.617 110.762 180.166C110.313 180.665 109.514 180.665 109.015 180.216C108.465 179.767 108.465 178.918 108.965 178.369C109.464 177.82 110.313 177.87 110.762 178.369Z" fill="url(#paint85_linear_8688_208)"/>
<path d="M114.655 175.128C115.055 175.677 114.955 176.476 114.406 176.875C113.857 177.274 113.058 177.174 112.609 176.625C112.159 176.076 112.259 175.277 112.858 174.828C113.457 174.379 114.256 174.479 114.655 175.078V175.128Z" fill="url(#paint86_linear_8688_208)"/>
<path d="M118.999 172.48C119.349 173.129 119.049 173.828 118.5 174.177C117.951 174.527 117.152 174.327 116.803 173.728C116.453 173.129 116.653 172.33 117.252 171.981C117.851 171.581 118.7 171.881 118.999 172.48Z" fill="url(#paint87_linear_8688_208)"/>
<path d="M123.642 170.483C123.841 171.132 123.542 171.881 122.893 172.131C122.244 172.38 121.545 172.031 121.245 171.382C120.946 170.733 121.245 169.984 121.994 169.734C122.693 169.485 123.442 169.834 123.642 170.483Z" fill="url(#paint88_linear_8688_208)"/>
<path d="M128.584 169.234C128.734 169.933 128.235 170.532 127.636 170.732C126.987 170.882 126.288 170.482 126.138 169.783C125.988 169.084 126.388 168.386 127.087 168.236C127.786 168.036 128.485 168.535 128.584 169.234Z" fill="url(#paint89_linear_8688_208)"/>
<path d="M133.627 168.686C133.627 169.385 133.128 169.984 132.429 170.034C131.78 170.034 131.131 169.535 131.081 168.836C130.981 168.137 131.53 167.488 132.279 167.488C133.028 167.488 133.627 167.988 133.627 168.686Z" fill="url(#paint90_linear_8688_208)"/>
<path d="M138.67 168.834C138.57 169.532 137.971 170.032 137.322 170.032C136.673 170.032 136.124 169.383 136.124 168.684C136.124 167.985 136.773 167.436 137.471 167.486C138.22 167.486 138.72 168.135 138.67 168.834Z" fill="url(#paint91_linear_8688_208)"/>
<path d="M143.662 169.783C143.462 170.482 142.813 170.882 142.164 170.732C141.515 170.532 141.066 169.933 141.216 169.234C141.316 168.535 142.014 168.036 142.713 168.236C143.412 168.435 143.862 169.134 143.662 169.783Z" fill="url(#paint92_linear_8688_208)"/>
<path d="M148.505 171.382C148.255 172.031 147.506 172.38 146.857 172.131C146.208 171.881 145.909 171.182 146.108 170.483C146.308 169.834 147.057 169.485 147.756 169.734C148.455 169.984 148.754 170.683 148.505 171.382Z" fill="url(#paint93_linear_8688_208)"/>
<path d="M152.997 173.728C152.648 174.327 151.849 174.527 151.3 174.177C150.751 173.828 150.451 173.129 150.801 172.48C151.1 171.881 151.949 171.581 152.548 171.981C153.197 172.38 153.397 173.129 152.997 173.728Z" fill="url(#paint94_linear_8688_208)"/>
<path d="M157.141 176.673C156.692 177.172 155.893 177.322 155.344 176.922C154.794 176.523 154.695 175.724 155.094 175.175C155.493 174.626 156.292 174.476 156.891 174.926C157.49 175.375 157.59 176.174 157.141 176.723V176.673Z" fill="url(#paint95_linear_8688_208)"/>
<path d="M160.735 180.216C160.186 180.665 159.437 180.665 158.988 180.166C158.539 179.667 158.539 178.918 158.988 178.369C159.487 177.87 160.336 177.82 160.785 178.369C161.285 178.918 161.235 179.717 160.735 180.216Z" fill="url(#paint96_linear_8688_208)"/>
<path d="M163.881 184.212C163.282 184.612 162.533 184.462 162.134 183.913C161.735 183.364 161.834 182.565 162.384 182.166C162.933 181.716 163.732 181.866 164.181 182.465C164.63 183.064 164.48 183.863 163.881 184.262V184.212Z" fill="url(#paint97_linear_8688_208)"/>
<path d="M166.327 188.654C165.678 188.954 164.929 188.654 164.63 188.105C164.38 187.506 164.58 186.757 165.179 186.408C165.778 186.058 166.627 186.258 166.926 186.957C167.226 187.606 166.976 188.405 166.327 188.704V188.654Z" fill="url(#paint98_linear_8688_208)"/>
<path d="M168.174 193.397C167.525 193.596 166.826 193.247 166.576 192.598C166.327 191.949 166.676 191.25 167.325 191C167.974 190.751 168.723 191.1 168.973 191.799C169.222 192.498 168.873 193.197 168.174 193.397Z" fill="url(#paint99_linear_8688_208)"/>
<path d="M169.273 198.341C168.574 198.44 167.925 197.991 167.825 197.292C167.725 196.643 168.124 195.994 168.823 195.794C169.522 195.645 170.221 196.094 170.321 196.793C170.421 197.492 169.971 198.191 169.273 198.291V198.341Z" fill="url(#paint100_linear_8688_208)"/>
<path d="M169.672 203.383C168.973 203.383 168.374 202.834 168.324 202.185C168.324 201.536 168.823 200.937 169.522 200.887C170.221 200.837 170.82 201.386 170.87 202.085C170.87 202.834 170.371 203.383 169.672 203.383Z" fill="url(#paint101_linear_8688_208)"/>
</g>
</g>
<path d="M134.874 161.248C111.61 161.248 92.7388 180.119 92.7388 203.384C92.7388 226.648 111.61 245.519 134.874 245.519C158.139 245.519 177.01 226.648 177.01 203.384C177.01 180.119 158.139 161.248 134.874 161.248ZM134.874 242.823C113.108 242.823 95.4846 225.2 95.4846 203.433C95.4846 181.667 113.108 164.044 134.874 164.044C156.641 164.044 174.264 181.667 174.264 203.433C174.264 225.2 156.641 242.823 134.874 242.823Z" fill="url(#paint102_linear_8688_208)"/>
<mask id="mask1_8688_208" style="mask-type:luminance" maskUnits="userSpaceOnUse" x="126" y="145" width="68" height="47">
<path d="M167.924 153.608C185.996 162.994 197.129 177.422 192.786 185.759C188.443 194.096 170.271 193.247 152.198 183.862C134.126 174.476 122.993 160.048 127.336 151.711C131.68 143.374 149.852 144.222 167.924 153.658V153.608Z" fill="url(#paint103_radial_8688_208)" style="mix-blend-mode:multiply"/>
</mask>
<g mask="url(#mask1_8688_208)">
<path d="M167.924 153.608C185.996 162.994 197.129 177.422 192.786 185.759C188.443 194.096 170.271 193.247 152.198 183.862C134.126 174.476 122.993 160.048 127.336 151.711C131.68 143.374 149.852 144.222 167.924 153.658V153.608Z" fill="url(#paint104_radial_8688_208)" style="mix-blend-mode:screen"/>
</g>
<mask id="mask2_8688_208" style="mask-type:luminance" maskUnits="userSpaceOnUse" x="147" y="155" width="26" height="27">
<path d="M171.419 174.577C168.174 180.867 160.436 183.413 154.195 180.168C147.905 176.923 145.458 169.235 148.704 162.895C151.949 156.604 159.687 154.058 165.927 157.303C172.168 160.548 174.664 168.236 171.419 174.577Z" fill="url(#paint105_radial_8688_208)"/>
</mask>
<g mask="url(#mask2_8688_208)">
<path d="M171.419 174.577C168.174 180.867 160.436 183.413 154.195 180.168C147.905 176.923 145.458 169.235 148.704 162.895C151.949 156.604 159.687 154.058 165.927 157.303C172.168 160.548 174.664 168.236 171.419 174.577Z" fill="url(#paint106_radial_8688_208)" style="mix-blend-mode:screen"/>
</g>
<mask id="mask3_8688_208" style="mask-type:luminance" maskUnits="userSpaceOnUse" x="88" y="220" width="38" height="30">
<path d="M112.509 225.897C122.194 231.938 127.436 241.024 124.241 246.266C120.996 251.508 110.512 250.809 100.777 244.818C91.0418 238.828 85.8498 229.692 89.0449 224.45C92.2899 219.208 102.774 219.907 112.509 225.897Z" fill="url(#paint107_radial_8688_208)" style="mix-blend-mode:multiply"/>
</mask>
<g mask="url(#mask3_8688_208)">
<path d="M112.509 225.897C122.194 231.938 127.436 241.024 124.241 246.266C120.996 251.508 110.512 250.809 100.777 244.818C91.0418 238.828 85.8498 229.692 89.0449 224.45C92.2899 219.208 102.774 219.907 112.509 225.897Z" fill="url(#paint108_radial_8688_208)" style="mix-blend-mode:screen"/>
</g>
</g>
<path d="M151.3 210.92H143.312C142.962 210.92 142.663 210.621 142.663 210.271V181.565C142.663 181.216 142.363 180.916 142.014 180.916H138.869C138.869 180.916 138.669 180.916 138.569 181.016C136.073 182.514 132.778 183.862 129.533 185.16C126.238 186.507 122.594 186.857 121.196 186.907C120.846 186.907 120.597 187.206 120.597 187.556V194.445C120.597 194.795 120.896 195.094 121.246 195.094H129.583C129.932 195.094 130.232 195.394 130.232 195.743V210.271C130.232 210.621 129.932 210.92 129.583 210.92H121.246C120.896 210.92 120.597 211.22 120.597 211.569V220.555C120.597 220.905 120.896 221.204 121.246 221.204H151.35C151.699 221.204 151.999 220.905 151.999 220.555V211.569C151.999 211.22 151.699 210.92 151.35 210.92H151.3Z" fill="url(#paint109_linear_8688_208)"/>
<path d="M142.663 211.816H150.251C150.601 211.816 150.9 212.116 150.9 212.465V219.854C150.9 220.203 150.601 220.503 150.251 220.503H122.244C121.895 220.503 121.595 220.203 121.595 219.854V212.465C121.595 212.116 121.895 211.816 122.244 211.816H130.132C130.481 211.816 130.781 211.517 130.781 211.167V194.892C130.781 194.543 130.481 194.243 130.132 194.243H122.244C121.895 194.243 121.595 193.943 121.595 193.594V188.302C121.595 187.953 121.845 187.703 122.144 187.653C127.286 187.154 133.826 184.458 138.12 181.712C138.22 181.662 138.319 181.612 138.469 181.612H141.415C141.764 181.612 142.064 181.912 142.064 182.261V211.217C142.064 211.566 142.363 211.866 142.713 211.866L142.663 211.816Z" fill="url(#paint110_linear_8688_208)"/>
<path opacity="0.55" d="M169.971 160.795C169.122 160.096 168.224 159.497 167.375 158.848V158.798C167.375 158.748 167.375 158.698 167.375 158.599C167.375 158.349 167.475 158.099 167.525 157.85C167.525 157.65 167.575 157.4 167.625 157.151C167.625 157.101 167.625 157.001 167.625 156.951C167.874 155.403 168.024 153.806 167.974 152.109C167.974 151.609 167.974 151.11 167.974 150.561C167.974 150.062 167.924 149.512 167.824 149.013C167.724 147.965 167.525 146.966 167.225 145.918C167.075 145.269 166.826 144.62 166.576 143.971C166.327 143.272 166.027 142.573 165.678 141.874C164.879 140.277 163.78 138.779 162.433 137.381L164.03 134.885L219.345 47.8181L212.506 43.6745V43.5746L191.688 30.9939V31.0937L184.798 27H87.597V27.1498L87.5471 27L80.9073 30.9939L77.7122 32.9409L53 47.8181L108.765 135.634C105.07 138.579 103.023 142.174 102.025 145.918C101.626 147.466 101.376 149.013 101.326 150.561C101.326 151.06 101.326 151.559 101.326 152.109C101.326 153.107 101.326 154.105 101.476 155.054C101.476 155.154 101.476 155.254 101.476 155.403C101.476 155.503 101.476 155.653 101.476 155.753C101.526 156.202 101.576 156.652 101.626 157.051C101.626 157.151 101.626 157.301 101.675 157.4C101.725 157.85 101.825 158.299 101.925 158.698C101.925 158.748 101.925 158.848 101.925 158.898C101.925 158.948 101.925 158.998 101.925 159.048C98.3306 161.694 95.0357 164.789 92.19 168.234C89.9435 170.98 87.9465 173.925 86.2491 177.02C82.0056 184.858 79.6093 193.795 79.6093 203.33C79.6093 209.021 80.458 214.563 82.1055 219.755C83.2038 223.2 84.6016 226.545 86.299 229.64C87.9964 232.785 89.9934 235.731 92.2399 238.426C93.3882 239.774 94.5364 241.072 95.7845 242.32C98.2807 244.817 101.026 247.063 103.972 249.06C112.759 255.001 123.392 258.496 134.825 258.496C146.257 258.496 156.891 255.001 165.678 249.06C175.962 242.121 183.75 231.787 187.544 219.705C189.142 214.513 190.04 209.021 190.04 203.28C190.04 193.745 187.644 184.808 183.4 176.97C180.006 170.73 175.413 165.189 169.971 160.695V160.795ZM116.303 147.516H156.092L157.191 145.818C157.889 146.717 158.439 147.715 158.788 148.714C158.888 149.063 158.988 149.413 159.088 149.762C159.337 150.811 159.387 151.909 159.387 153.007C159.387 153.007 159.387 153.057 159.387 153.107C159.387 153.407 159.387 153.656 159.337 153.956C151.949 150.311 143.711 148.214 134.925 148.214C126.138 148.214 117.601 150.361 110.113 154.155C110.063 153.407 110.013 152.708 110.063 152.009C110.063 152.009 110.063 152.009 110.063 151.959C110.063 151.46 110.163 150.91 110.212 150.411C110.312 149.862 110.462 149.313 110.612 148.764C111.211 147.016 112.259 145.419 114.057 144.021L116.303 147.565V147.516ZM118.949 63.4442H164.13L136.223 112.519L108.315 63.4442H118.949Z" fill="url(#paint111_radial_8688_208)" style="mix-blend-mode:overlay"/>
<path d="M289.917 95.6392C287.473 95.6297 285.371 95.0284 283.61 93.8352C281.858 92.642 280.508 90.9138 279.561 88.6506C278.624 86.3873 278.16 83.6648 278.169 80.483C278.169 77.3106 278.638 74.607 279.576 72.3722C280.523 70.1373 281.872 68.4375 283.624 67.2727C285.385 66.0985 287.483 65.5114 289.917 65.5114C292.35 65.5114 294.443 66.0985 296.195 67.2727C297.956 68.447 299.31 70.1515 300.257 72.3864C301.204 74.6117 301.673 77.3106 301.664 80.483C301.664 83.6742 301.19 86.4015 300.243 88.6648C299.306 90.928 297.961 92.6562 296.209 93.8494C294.457 95.0426 292.36 95.6392 289.917 95.6392ZM289.917 90.5398C291.583 90.5398 292.914 89.7017 293.908 88.0256C294.902 86.3494 295.395 83.8352 295.385 80.483C295.385 78.2765 295.158 76.4394 294.703 74.9716C294.258 73.5038 293.624 72.4006 292.8 71.6619C291.986 70.9233 291.025 70.554 289.917 70.554C288.259 70.554 286.934 71.3826 285.939 73.0398C284.945 74.697 284.443 77.178 284.434 80.483C284.434 82.7178 284.656 84.5833 285.101 86.0795C285.556 87.5663 286.195 88.6837 287.019 89.4318C287.843 90.1705 288.809 90.5398 289.917 90.5398ZM318.706 65.9091V95H312.555V71.7472H312.385L305.723 75.9233V70.4688L312.924 65.9091H318.706ZM354.338 75.3125C354.139 74.6212 353.859 74.0104 353.5 73.4801C353.14 72.9403 352.699 72.4858 352.179 72.1165C351.667 71.7377 351.08 71.4489 350.417 71.25C349.764 71.0511 349.039 70.9517 348.244 70.9517C346.757 70.9517 345.45 71.321 344.324 72.0597C343.206 72.7983 342.335 73.8731 341.71 75.2841C341.085 76.6856 340.772 78.3996 340.772 80.4261C340.772 82.4527 341.08 84.1761 341.696 85.5966C342.311 87.017 343.182 88.1013 344.309 88.8494C345.436 89.5881 346.767 89.9574 348.301 89.9574C349.693 89.9574 350.881 89.7112 351.866 89.2188C352.86 88.7169 353.618 88.0114 354.139 87.1023C354.669 86.1932 354.934 85.1184 354.934 83.8778L356.184 84.0625H348.684V79.4318H360.858V83.0966C360.858 85.6534 360.318 87.8504 359.238 89.6875C358.159 91.5152 356.672 92.9261 354.778 93.9205C352.884 94.9053 350.716 95.3977 348.272 95.3977C345.545 95.3977 343.149 94.7964 341.085 93.5938C339.02 92.3816 337.411 90.6629 336.255 88.4375C335.109 86.2027 334.537 83.5511 334.537 80.483C334.537 78.125 334.877 76.0227 335.559 74.1761C336.251 72.3201 337.217 70.7481 338.457 69.4602C339.698 68.1723 341.142 67.1922 342.789 66.5199C344.437 65.8475 346.222 65.5114 348.145 65.5114C349.792 65.5114 351.326 65.7528 352.747 66.2358C354.167 66.7093 355.427 67.3816 356.525 68.2528C357.633 69.1241 358.538 70.161 359.238 71.3636C359.939 72.5568 360.389 73.8731 360.588 75.3125H354.338ZM366.731 95V73.1818H372.782V95H366.731ZM369.771 70.3693C368.871 70.3693 368.1 70.071 367.456 69.4744C366.821 68.8684 366.504 68.1439 366.504 67.3011C366.504 66.4678 366.821 65.7528 367.456 65.1562C368.1 64.5502 368.871 64.2472 369.771 64.2472C370.671 64.2472 371.438 64.5502 372.072 65.1562C372.716 65.7528 373.038 66.4678 373.038 67.3011C373.038 68.1439 372.716 68.8684 372.072 69.4744C371.438 70.071 370.671 70.3693 369.771 70.3693ZM383.851 95.4119C382.459 95.4119 381.219 95.1705 380.13 94.6875C379.041 94.1951 378.179 93.4706 377.544 92.5142C376.919 91.5483 376.607 90.3456 376.607 88.9062C376.607 87.6941 376.829 86.6761 377.275 85.8523C377.72 85.0284 378.326 84.3655 379.093 83.8636C379.86 83.3617 380.731 82.983 381.706 82.7273C382.691 82.4716 383.723 82.2917 384.803 82.1875C386.072 82.0549 387.095 81.9318 387.871 81.8182C388.648 81.6951 389.211 81.5152 389.561 81.2784C389.912 81.0417 390.087 80.6913 390.087 80.2273V80.142C390.087 79.2424 389.803 78.5464 389.235 78.054C388.676 77.5616 387.881 77.3153 386.848 77.3153C385.759 77.3153 384.893 77.5568 384.249 78.0398C383.605 78.5133 383.179 79.1098 382.971 79.8295L377.374 79.375C377.658 78.0492 378.217 76.9034 379.05 75.9375C379.883 74.9621 380.958 74.214 382.275 73.6932C383.6 73.1629 385.134 72.8977 386.877 72.8977C388.089 72.8977 389.249 73.0398 390.357 73.3239C391.474 73.608 392.464 74.0483 393.326 74.6449C394.197 75.2415 394.883 76.0085 395.385 76.946C395.887 77.8741 396.138 78.9867 396.138 80.2841V95H390.4V91.9744H390.229C389.879 92.6562 389.41 93.2576 388.823 93.7784C388.236 94.2898 387.53 94.6922 386.706 94.9858C385.882 95.2699 384.931 95.4119 383.851 95.4119ZM385.584 91.2358C386.474 91.2358 387.26 91.0606 387.942 90.7102C388.624 90.3504 389.159 89.8674 389.547 89.2614C389.935 88.6553 390.13 87.9687 390.13 87.2017V84.8864C389.94 85.0095 389.68 85.1231 389.348 85.2273C389.026 85.322 388.662 85.4119 388.255 85.4972C387.847 85.5729 387.44 85.6439 387.033 85.7102C386.626 85.767 386.257 85.8191 385.925 85.8665C385.215 85.9706 384.595 86.1364 384.064 86.3636C383.534 86.5909 383.122 86.8987 382.828 87.2869C382.535 87.6657 382.388 88.1392 382.388 88.7074C382.388 89.5312 382.686 90.161 383.283 90.5966C383.889 91.0227 384.656 91.2358 385.584 91.2358ZM389.334 70.0568H384.846L384.533 67.5C385.537 67.4527 386.252 67.3201 386.678 67.1023C387.104 66.875 387.312 66.5767 387.303 66.2074C387.312 65.696 387.042 65.3504 386.493 65.1705C385.953 64.9905 385.276 64.9006 384.462 64.9006L384.618 62.1591C387.147 62.1591 389.069 62.5 390.385 63.1818C391.711 63.8636 392.369 64.8106 392.36 66.0227C392.369 66.8845 392.057 67.5379 391.422 67.983C390.797 68.4186 390.101 68.6932 389.334 68.8068V70.0568ZM400.833 95V73.1818H406.884V95H400.833ZM403.873 70.3693C402.973 70.3693 402.201 70.071 401.557 69.4744C400.923 68.8684 400.605 68.1439 400.605 67.3011C400.605 66.4678 400.923 65.7528 401.557 65.1562C402.201 64.5502 402.973 64.2472 403.873 64.2472C404.772 64.2472 405.539 64.5502 406.174 65.1562C406.818 65.7528 407.14 66.4678 407.14 67.3011C407.14 68.1439 406.818 68.8684 406.174 69.4744C405.539 70.071 404.772 70.3693 403.873 70.3693ZM445.435 65.9091V95H440.123L427.466 76.6903H427.253V95H421.103V65.9091H426.5L439.057 84.2045H439.313V65.9091H445.435ZM456.454 82.3864V95H450.403V65.9091H456.284V77.0312H456.539C457.032 75.7434 457.827 74.7348 458.926 74.0057C460.024 73.267 461.402 72.8977 463.059 72.8977C464.574 72.8977 465.895 73.2292 467.022 73.892C468.159 74.5455 469.039 75.4877 469.664 76.7188C470.299 77.9403 470.611 79.4034 470.602 81.108V95H464.551V82.1875C464.56 80.8428 464.219 79.7964 463.528 79.0483C462.846 78.3002 461.89 77.9261 460.659 77.9261C459.835 77.9261 459.106 78.1013 458.471 78.4517C457.846 78.8021 457.354 79.3134 456.994 79.9858C456.644 80.6487 456.464 81.4489 456.454 82.3864ZM475.364 95V73.1818H481.415V95H475.364ZM476.301 70.3693L471.969 63.9062H477.551L480.577 70.3693H476.301Z" fill="#444444"/>
<path d="M273.773 217V209.909L290.341 194.568C291.75 193.205 292.932 191.977 293.886 190.886C294.856 189.795 295.591 188.727 296.091 187.682C296.591 186.621 296.841 185.477 296.841 184.25C296.841 182.886 296.53 181.712 295.909 180.727C295.288 179.727 294.439 178.962 293.364 178.432C292.288 177.886 291.068 177.614 289.705 177.614C288.28 177.614 287.038 177.902 285.977 178.477C284.917 179.053 284.098 179.879 283.523 180.955C282.947 182.03 282.659 183.311 282.659 184.795H273.318C273.318 181.75 274.008 179.106 275.386 176.864C276.765 174.621 278.697 172.886 281.182 171.659C283.667 170.432 286.53 169.818 289.773 169.818C293.106 169.818 296.008 170.409 298.477 171.591C300.962 172.758 302.894 174.379 304.273 176.455C305.652 178.53 306.341 180.909 306.341 183.591C306.341 185.348 305.992 187.083 305.295 188.795C304.614 190.508 303.394 192.409 301.636 194.5C299.879 196.576 297.402 199.068 294.205 201.977L287.409 208.636V208.955H306.955V217H273.773ZM332.335 218.023C328.426 218.008 325.063 217.045 322.244 215.136C319.441 213.227 317.282 210.462 315.767 206.841C314.267 203.22 313.525 198.864 313.54 193.773C313.54 188.697 314.29 184.371 315.79 180.795C317.305 177.22 319.464 174.5 322.267 172.636C325.085 170.758 328.441 169.818 332.335 169.818C336.229 169.818 339.578 170.758 342.381 172.636C345.199 174.515 347.366 177.242 348.881 180.818C350.396 184.379 351.146 188.697 351.131 193.773C351.131 198.879 350.373 203.242 348.858 206.864C347.358 210.485 345.206 213.25 342.403 215.159C339.6 217.068 336.244 218.023 332.335 218.023ZM332.335 209.864C335.002 209.864 337.131 208.523 338.722 205.841C340.313 203.159 341.1 199.136 341.085 193.773C341.085 190.242 340.722 187.303 339.994 184.955C339.282 182.606 338.267 180.841 336.949 179.659C335.646 178.477 334.108 177.886 332.335 177.886C329.684 177.886 327.563 179.212 325.972 181.864C324.381 184.515 323.578 188.485 323.562 193.773C323.562 197.348 323.919 200.333 324.631 202.727C325.358 205.106 326.381 206.894 327.699 208.091C329.017 209.273 330.562 209.864 332.335 209.864ZM356.648 178.568V170.455H394.875V178.568H380.625V217H370.898V178.568H356.648ZM397.364 217V182.091H406.75V188.182H407.114C407.75 186.015 408.818 184.379 410.318 183.273C411.818 182.152 413.545 181.591 415.5 181.591C415.985 181.591 416.508 181.621 417.068 181.682C417.629 181.742 418.121 181.826 418.545 181.932V190.523C418.091 190.386 417.462 190.265 416.659 190.159C415.856 190.053 415.121 190 414.455 190C413.03 190 411.758 190.311 410.636 190.932C409.53 191.538 408.652 192.386 408 193.477C407.364 194.568 407.045 195.826 407.045 197.25V217H397.364ZM446.955 170.455L458.205 205.818H458.636L469.909 170.455H480.818L464.773 217H452.091L436.023 170.455H446.955ZM525.352 170.455V217H516.852L496.602 187.705H496.261V217H486.42V170.455H495.057L515.148 199.727H515.557V170.455H525.352ZM549.983 217H533.483V170.455H550.119C554.801 170.455 558.831 171.386 562.21 173.25C565.589 175.098 568.188 177.758 570.006 181.227C571.839 184.697 572.756 188.848 572.756 193.682C572.756 198.53 571.839 202.697 570.006 206.182C568.188 209.667 565.574 212.341 562.165 214.205C558.771 216.068 554.71 217 549.983 217ZM543.324 208.568H549.574C552.483 208.568 554.93 208.053 556.915 207.023C558.915 205.977 560.415 204.364 561.415 202.182C562.43 199.985 562.938 197.152 562.938 193.682C562.938 190.242 562.43 187.432 561.415 185.25C560.415 183.068 558.922 181.462 556.938 180.432C554.953 179.402 552.506 178.886 549.597 178.886H543.324V208.568Z" fill="#F27224"/>
<defs>
<filter id="filter0_d_8688_208" x="0" y="0" width="696.7" height="312.7" filterUnits="userSpaceOnUse" color-interpolation-filters="sRGB">
<feFlood flood-opacity="0" result="BackgroundImageFix"/>
<feColorMatrix in="SourceAlpha" type="matrix" values="0 0 0 0 0 0 0 0 0 0 0 0 0 0 0 0 0 0 127 0" result="hardAlpha"/>
<feMorphology radius="12" operator="erode" in="SourceAlpha" result="effect1_dropShadow_8688_208"/>
<feOffset dx="21" dy="22"/>
<feGaussianBlur stdDeviation="12.35"/>
<feComposite in2="hardAlpha" operator="out"/>
<feColorMatrix type="matrix" values="0 0 0 0 0 0 0 0 0 0 0 0 0 0 0 0 0 0 0.1 0"/>
<feBlend mode="normal" in2="BackgroundImageFix" result="effect1_dropShadow_8688_208"/>
<feBlend mode="normal" in="SourceGraphic" in2="effect1_dropShadow_8688_208" result="shape"/>
</filter>
<linearGradient id="paint0_linear_8688_208" x1="87.5969" y1="45.2221" x2="184.848" y2="45.2221" gradientUnits="userSpaceOnUse">
<stop stop-color="#9D0000"/>
<stop offset="0.5" stop-color="#BE0000"/>
<stop offset="1" stop-color="#9D0000"/>
</linearGradient>
<linearGradient id="paint1_linear_8688_208" x1="201.373" y1="38.6322" x2="134.325" y2="147.715" gradientUnits="userSpaceOnUse">
<stop stop-color="#DB1A1F"/>
<stop offset="0.67" stop-color="#DE1E23"/>
<stop offset="0.71" stop-color="#DF1F24"/>
<stop offset="0.73" stop-color="#D81B20"/>
<stop offset="0.82" stop-color="#C31217"/>
<stop offset="0.91" stop-color="#B70C11"/>
<stop offset="1" stop-color="#B30B10"/>
</linearGradient>
<linearGradient id="paint2_linear_8688_208" x1="201.672" y1="38.1322" x2="137.87" y2="148.164" gradientUnits="userSpaceOnUse">
<stop stop-color="#F0E8E5"/>
<stop offset="0.58" stop-color="#EEE6E2"/>
<stop offset="0.82" stop-color="#EAE0DB"/>
<stop offset="0.99" stop-color="#E3D5CF"/>
<stop offset="1" stop-color="#E3D5CF"/>
</linearGradient>
<radialGradient id="paint3_radial_8688_208" cx="0" cy="0" r="1" gradientUnits="userSpaceOnUse" gradientTransform="translate(134.7 147.016) scale(26.8339)">
<stop offset="0.01" stop-color="#F6C054"/>
<stop offset="0.54" stop-color="#FFEA72"/>
<stop offset="0.58" stop-color="#FFEF71"/>
<stop offset="0.59" stop-color="#FFF171"/>
<stop offset="0.82" stop-color="#FFE05A"/>
<stop offset="0.96" stop-color="#FFD44A"/>
</radialGradient>
<radialGradient id="paint4_radial_8688_208" cx="0" cy="0" r="1" gradientUnits="userSpaceOnUse" gradientTransform="translate(134.7 147.016) scale(26.8339)">
<stop offset="0.01" stop-color="#F6C054"/>
<stop offset="0.54" stop-color="#FFEA72"/>
<stop offset="0.58" stop-color="#FFEF71"/>
<stop offset="0.59" stop-color="#FFF171"/>
<stop offset="0.82" stop-color="#FFE05A"/>
<stop offset="0.96" stop-color="#FFD44A"/>
</radialGradient>
<radialGradient id="paint5_radial_8688_208" cx="0" cy="0" r="1" gradientUnits="userSpaceOnUse" gradientTransform="translate(162.059 135.583) scale(39.4896 39.4896)">
<stop stop-color="#FFFFC3"/>
<stop offset="0.95" stop-color="#FFEA72"/>
</radialGradient>
<linearGradient id="paint6_linear_8688_208" x1="101.276" y1="157.7" x2="168.073" y2="157.7" gradientUnits="userSpaceOnUse">
<stop stop-color="#AA7238"/>
<stop offset="0.25" stop-color="#C08443"/>
<stop offset="0.35" stop-color="#BE8241"/>
<stop offset="0.39" stop-color="#B77B3D"/>
<stop offset="0.42" stop-color="#AC6F35"/>
<stop offset="0.44" stop-color="#9C5E2B"/>
<stop offset="0.46" stop-color="#88481D"/>
<stop offset="0.47" stop-color="#7A3A14"/>
<stop offset="0.64" stop-color="#7B3C15"/>
<stop offset="0.72" stop-color="#82431A"/>
<stop offset="0.79" stop-color="#8D5122"/>
<stop offset="0.85" stop-color="#9D642E"/>
<stop offset="0.9" stop-color="#B27C3E"/>
<stop offset="0.95" stop-color="#CC9A51"/>
<stop offset="0.99" stop-color="#EABD67"/>
<stop offset="1" stop-color="#F0C46C"/>
</linearGradient>
<linearGradient id="paint7_linear_8688_208" x1="101.276" y1="157.4" x2="168.074" y2="157.4" gradientUnits="userSpaceOnUse">
<stop stop-color="#AA7238"/>
<stop offset="0.25" stop-color="#C08443"/>
<stop offset="0.35" stop-color="#BE8241"/>
<stop offset="0.39" stop-color="#B77B3D"/>
<stop offset="0.42" stop-color="#AC6F35"/>
<stop offset="0.44" stop-color="#9C5E2B"/>
<stop offset="0.46" stop-color="#88481D"/>
<stop offset="0.47" stop-color="#7A3A14"/>
<stop offset="0.64" stop-color="#7B3C15"/>
<stop offset="0.72" stop-color="#82431A"/>
<stop offset="0.79" stop-color="#8D5122"/>
<stop offset="0.85" stop-color="#9D642E"/>
<stop offset="0.9" stop-color="#B27C3E"/>
<stop offset="0.95" stop-color="#CC9A51"/>
<stop offset="0.99" stop-color="#EABD67"/>
<stop offset="1" stop-color="#F0C46C"/>
</linearGradient>
<radialGradient id="paint8_radial_8688_208" cx="0" cy="0" r="1" gradientUnits="userSpaceOnUse" gradientTransform="translate(134.7 150.237) scale(21.6169 21.6169)">
<stop offset="0.34" stop-color="#FFEA72"/>
<stop offset="0.99" stop-color="#B35C00"/>
</radialGradient>
<linearGradient id="paint9_linear_8688_208" x1="70.3235" y1="37.5339" x2="135.474" y2="148.214" gradientUnits="userSpaceOnUse">
<stop stop-color="#DB1A1F"/>
<stop offset="0.67" stop-color="#DE1E23"/>
<stop offset="0.71" stop-color="#DF1F24"/>
<stop offset="0.73" stop-color="#D81B20"/>
<stop offset="0.82" stop-color="#C31217"/>
<stop offset="0.91" stop-color="#B70C11"/>
<stop offset="1" stop-color="#B30B10"/>
</linearGradient>
<linearGradient id="paint10_linear_8688_208" x1="70.9222" y1="38.1322" x2="134.774" y2="148.164" gradientUnits="userSpaceOnUse">
<stop stop-color="#F0E8E5"/>
<stop offset="0.58" stop-color="#EEE6E2"/>
<stop offset="0.82" stop-color="#EAE0DB"/>
<stop offset="0.99" stop-color="#E3D5CF"/>
<stop offset="1" stop-color="#E3D5CF"/>
</linearGradient>
<radialGradient id="paint11_radial_8688_208" cx="0" cy="0" r="1" gradientUnits="userSpaceOnUse" gradientTransform="translate(96.5088 241.723) scale(107.186)">
<stop offset="0.01" stop-color="#F6C054"/>
<stop offset="0.3" stop-color="#F2A942"/>
<stop offset="0.54" stop-color="#FFEA72"/>
<stop offset="0.58" stop-color="#FFEF71"/>
<stop offset="0.59" stop-color="#FFF171"/>
<stop offset="0.76" stop-color="#FADA61"/>
<stop offset="0.96" stop-color="#F3B94A"/>
</radialGradient>
<radialGradient id="paint12_radial_8688_208" cx="0" cy="0" r="1" gradientUnits="userSpaceOnUse" gradientTransform="translate(96.5088 241.723) scale(107.186)">
<stop stop-color="#FFFFC3"/>
<stop offset="0.95" stop-color="#FFEA72"/>
</radialGradient>
<linearGradient id="paint13_linear_8688_208" x1="168.546" y1="176.216" x2="101.149" y2="230.632" gradientUnits="userSpaceOnUse">
<stop offset="0.48" stop-color="#CC9434"/>
<stop offset="0.68" stop-color="#FFEA72"/>
<stop offset="0.76" stop-color="#FFE66C"/>
<stop offset="0.87" stop-color="#FFDE5C"/>
<stop offset="0.96" stop-color="#FFD44A"/>
</linearGradient>
<linearGradient id="paint14_linear_8688_208" x1="114.978" y1="163.385" x2="154.717" y2="243.163" gradientUnits="userSpaceOnUse">
<stop offset="0.48" stop-color="#CC9434"/>
<stop offset="0.68" stop-color="#FFEA72"/>
<stop offset="0.76" stop-color="#FFE66C"/>
<stop offset="0.87" stop-color="#FFDE5C"/>
<stop offset="0.96" stop-color="#FFD44A"/>
</linearGradient>
<linearGradient id="paint15_linear_8688_208" x1="162.582" y1="178.921" x2="103.622" y2="231.041" gradientUnits="userSpaceOnUse">
<stop offset="0.01" stop-color="#F6C054"/>
<stop offset="0.54" stop-color="#FFEA72"/>
<stop offset="0.58" stop-color="#FFEF71"/>
<stop offset="0.59" stop-color="#FFF171"/>
<stop offset="0.82" stop-color="#FFE05A"/>
<stop offset="0.96" stop-color="#FFD44A"/>
</linearGradient>
<linearGradient id="paint16_linear_8688_208" x1="168.174" y1="207.177" x2="170.72" y2="207.177" gradientUnits="userSpaceOnUse">
<stop stop-color="#F3CE5E"/>
<stop offset="1" stop-color="#F2BE4A"/>
</linearGradient>
<linearGradient id="paint17_linear_8688_208" x1="167.226" y1="212.218" x2="169.772" y2="212.218" gradientUnits="userSpaceOnUse">
<stop stop-color="#F3CE5E"/>
<stop offset="1" stop-color="#F2BE4A"/>
</linearGradient>
<linearGradient id="paint18_linear_8688_208" x1="165.628" y1="217.01" x2="168.174" y2="217.01" gradientUnits="userSpaceOnUse">
<stop stop-color="#F3CE5E"/>
<stop offset="1" stop-color="#F2BE4A"/>
</linearGradient>
<linearGradient id="paint19_linear_8688_208" x1="163.281" y1="221.505" x2="165.828" y2="221.505" gradientUnits="userSpaceOnUse">
<stop stop-color="#F3CE5E"/>
<stop offset="1" stop-color="#F2BE4A"/>
</linearGradient>
<linearGradient id="paint20_linear_8688_208" x1="160.336" y1="225.648" x2="162.882" y2="225.648" gradientUnits="userSpaceOnUse">
<stop stop-color="#F3CE5E"/>
<stop offset="1" stop-color="#F2BE4A"/>
</linearGradient>
<linearGradient id="paint21_linear_8688_208" x1="156.791" y1="229.292" x2="159.337" y2="229.292" gradientUnits="userSpaceOnUse">
<stop stop-color="#F3CE5E"/>
<stop offset="1" stop-color="#F2BE4A"/>
</linearGradient>
<linearGradient id="paint22_linear_8688_208" x1="152.797" y1="232.388" x2="155.344" y2="232.388" gradientUnits="userSpaceOnUse">
<stop stop-color="#F3CE5E"/>
<stop offset="1" stop-color="#F2BE4A"/>
</linearGradient>
<linearGradient id="paint23_linear_8688_208" x1="148.404" y1="234.883" x2="150.901" y2="234.883" gradientUnits="userSpaceOnUse">
<stop stop-color="#F3CE5E"/>
<stop offset="1" stop-color="#F2BE4A"/>
</linearGradient>
<linearGradient id="paint24_linear_8688_208" x1="143.612" y1="236.681" x2="146.158" y2="236.681" gradientUnits="userSpaceOnUse">
<stop stop-color="#F3CE5E"/>
<stop offset="1" stop-color="#F2BE4A"/>
</linearGradient>
<linearGradient id="paint25_linear_8688_208" x1="138.67" y1="237.779" x2="141.216" y2="237.779" gradientUnits="userSpaceOnUse">
<stop stop-color="#F3CE5E"/>
<stop offset="1" stop-color="#F2BE4A"/>
</linearGradient>
<linearGradient id="paint26_linear_8688_208" x1="133.627" y1="238.179" x2="136.173" y2="238.179" gradientUnits="userSpaceOnUse">
<stop stop-color="#F3CE5E"/>
<stop offset="1" stop-color="#F2BE4A"/>
</linearGradient>
<linearGradient id="paint27_linear_8688_208" x1="128.535" y1="237.78" x2="131.081" y2="237.78" gradientUnits="userSpaceOnUse">
<stop stop-color="#F3CE5E"/>
<stop offset="1" stop-color="#F2BE4A"/>
</linearGradient>
<linearGradient id="paint28_linear_8688_208" x1="123.592" y1="236.68" x2="126.138" y2="236.68" gradientUnits="userSpaceOnUse">
<stop stop-color="#F3CE5E"/>
<stop offset="1" stop-color="#F2BE4A"/>
</linearGradient>
<linearGradient id="paint29_linear_8688_208" x1="118.849" y1="234.883" x2="121.395" y2="234.883" gradientUnits="userSpaceOnUse">
<stop stop-color="#F3CE5E"/>
<stop offset="1" stop-color="#F2BE4A"/>
</linearGradient>
<linearGradient id="paint30_linear_8688_208" x1="114.406" y1="232.385" x2="116.952" y2="232.385" gradientUnits="userSpaceOnUse">
<stop stop-color="#F3CE5E"/>
<stop offset="1" stop-color="#F2BE4A"/>
</linearGradient>
<linearGradient id="paint31_linear_8688_208" x1="110.413" y1="229.294" x2="112.959" y2="229.294" gradientUnits="userSpaceOnUse">
<stop stop-color="#F3CE5E"/>
<stop offset="1" stop-color="#F2BE4A"/>
</linearGradient>
<linearGradient id="paint32_linear_8688_208" x1="106.868" y1="225.646" x2="109.414" y2="225.646" gradientUnits="userSpaceOnUse">
<stop stop-color="#F3CE5E"/>
<stop offset="1" stop-color="#F2BE4A"/>
</linearGradient>
<linearGradient id="paint33_linear_8688_208" x1="103.923" y1="221.503" x2="106.469" y2="221.503" gradientUnits="userSpaceOnUse">
<stop stop-color="#F3CE5E"/>
<stop offset="1" stop-color="#F2BE4A"/>
</linearGradient>
<linearGradient id="paint34_linear_8688_208" x1="101.576" y1="217.01" x2="104.172" y2="217.01" gradientUnits="userSpaceOnUse">
<stop stop-color="#F3CE5E"/>
<stop offset="1" stop-color="#F2BE4A"/>
</linearGradient>
<linearGradient id="paint35_linear_8688_208" x1="99.9779" y1="212.218" x2="102.524" y2="212.218" gradientUnits="userSpaceOnUse">
<stop stop-color="#F3CE5E"/>
<stop offset="1" stop-color="#F2BE4A"/>
</linearGradient>
<linearGradient id="paint36_linear_8688_208" x1="99.0291" y1="207.174" x2="101.575" y2="207.174" gradientUnits="userSpaceOnUse">
<stop stop-color="#F3CE5E"/>
<stop offset="1" stop-color="#F2BE4A"/>
</linearGradient>
<linearGradient id="paint37_linear_8688_208" x1="98.8799" y1="202.136" x2="101.426" y2="202.136" gradientUnits="userSpaceOnUse">
<stop stop-color="#F3CE5E"/>
<stop offset="1" stop-color="#F2BE4A"/>
</linearGradient>
<linearGradient id="paint38_linear_8688_208" x1="99.4296" y1="197.091" x2="101.976" y2="197.091" gradientUnits="userSpaceOnUse">
<stop stop-color="#F3CE5E"/>
<stop offset="1" stop-color="#F2BE4A"/>
</linearGradient>
<linearGradient id="paint39_linear_8688_208" x1="100.677" y1="192.149" x2="103.273" y2="192.149" gradientUnits="userSpaceOnUse">
<stop stop-color="#F3CE5E"/>
<stop offset="1" stop-color="#F2BE4A"/>
</linearGradient>
<linearGradient id="paint40_linear_8688_208" x1="102.674" y1="187.508" x2="105.22" y2="187.508" gradientUnits="userSpaceOnUse">
<stop stop-color="#F3CE5E"/>
<stop offset="1" stop-color="#F2BE4A"/>
</linearGradient>
<linearGradient id="paint41_linear_8688_208" x1="105.32" y1="183.163" x2="107.867" y2="183.163" gradientUnits="userSpaceOnUse">
<stop stop-color="#F3CE5E"/>
<stop offset="1" stop-color="#F2BE4A"/>
</linearGradient>
<linearGradient id="paint42_linear_8688_208" x1="108.565" y1="179.268" x2="111.111" y2="179.268" gradientUnits="userSpaceOnUse">
<stop stop-color="#F3CE5E"/>
<stop offset="1" stop-color="#F2BE4A"/>
</linearGradient>
<linearGradient id="paint43_linear_8688_208" x1="112.359" y1="175.876" x2="114.905" y2="175.876" gradientUnits="userSpaceOnUse">
<stop stop-color="#F3CE5E"/>
<stop offset="1" stop-color="#F2BE4A"/>
</linearGradient>
<linearGradient id="paint44_linear_8688_208" x1="116.603" y1="173.079" x2="119.149" y2="173.079" gradientUnits="userSpaceOnUse">
<stop stop-color="#F3CE5E"/>
<stop offset="1" stop-color="#F2BE4A"/>
</linearGradient>
<linearGradient id="paint45_linear_8688_208" x1="121.195" y1="170.932" x2="123.742" y2="170.932" gradientUnits="userSpaceOnUse">
<stop stop-color="#F3CE5E"/>
<stop offset="1" stop-color="#F2BE4A"/>
</linearGradient>
<linearGradient id="paint46_linear_8688_208" x1="126.038" y1="169.434" x2="128.584" y2="169.434" gradientUnits="userSpaceOnUse">
<stop stop-color="#F3CE5E"/>
<stop offset="1" stop-color="#F2BE4A"/>
</linearGradient>
<linearGradient id="paint47_linear_8688_208" x1="131.081" y1="168.736" x2="133.627" y2="168.736" gradientUnits="userSpaceOnUse">
<stop stop-color="#F3CE5E"/>
<stop offset="1" stop-color="#F2BE4A"/>
</linearGradient>
<linearGradient id="paint48_linear_8688_208" x1="136.124" y1="168.734" x2="138.67" y2="168.734" gradientUnits="userSpaceOnUse">
<stop stop-color="#F3CE5E"/>
<stop offset="1" stop-color="#F2BE4A"/>
</linearGradient>
<linearGradient id="paint49_linear_8688_208" x1="141.166" y1="169.434" x2="143.712" y2="169.434" gradientUnits="userSpaceOnUse">
<stop stop-color="#F3CE5E"/>
<stop offset="1" stop-color="#F2BE4A"/>
</linearGradient>
<linearGradient id="paint50_linear_8688_208" x1="146.008" y1="170.932" x2="148.604" y2="170.932" gradientUnits="userSpaceOnUse">
<stop stop-color="#F3CE5E"/>
<stop offset="1" stop-color="#F2BE4A"/>
</linearGradient>
<linearGradient id="paint51_linear_8688_208" x1="150.651" y1="173.079" x2="153.147" y2="173.079" gradientUnits="userSpaceOnUse">
<stop stop-color="#F3CE5E"/>
<stop offset="1" stop-color="#F2BE4A"/>
</linearGradient>
<linearGradient id="paint52_linear_8688_208" x1="154.844" y1="175.874" x2="157.39" y2="175.874" gradientUnits="userSpaceOnUse">
<stop stop-color="#F3CE5E"/>
<stop offset="1" stop-color="#F2BE4A"/>
</linearGradient>
<linearGradient id="paint53_linear_8688_208" x1="158.639" y1="179.268" x2="161.185" y2="179.268" gradientUnits="userSpaceOnUse">
<stop stop-color="#F3CE5E"/>
<stop offset="1" stop-color="#F2BE4A"/>
</linearGradient>
<linearGradient id="paint54_linear_8688_208" x1="161.884" y1="183.164" x2="164.431" y2="183.164" gradientUnits="userSpaceOnUse">
<stop stop-color="#F3CE5E"/>
<stop offset="1" stop-color="#F2BE4A"/>
</linearGradient>
<linearGradient id="paint55_linear_8688_208" x1="164.53" y1="187.506" x2="167.076" y2="187.506" gradientUnits="userSpaceOnUse">
<stop stop-color="#F3CE5E"/>
<stop offset="1" stop-color="#F2BE4A"/>
</linearGradient>
<linearGradient id="paint56_linear_8688_208" x1="166.476" y1="192.149" x2="169.072" y2="192.149" gradientUnits="userSpaceOnUse">
<stop stop-color="#F3CE5E"/>
<stop offset="1" stop-color="#F2BE4A"/>
</linearGradient>
<linearGradient id="paint57_linear_8688_208" x1="167.825" y1="197.092" x2="170.321" y2="197.092" gradientUnits="userSpaceOnUse">
<stop stop-color="#F3CE5E"/>
<stop offset="1" stop-color="#F2BE4A"/>
</linearGradient>
<linearGradient id="paint58_linear_8688_208" x1="168.324" y1="202.135" x2="170.87" y2="202.135" gradientUnits="userSpaceOnUse">
<stop stop-color="#F3CE5E"/>
<stop offset="1" stop-color="#F2BE4A"/>
</linearGradient>
<linearGradient id="paint59_linear_8688_208" x1="168.174" y1="207.177" x2="170.72" y2="207.177" gradientUnits="userSpaceOnUse">
<stop stop-color="#F3CE5E"/>
<stop offset="1" stop-color="#F2BE4A"/>
</linearGradient>
<linearGradient id="paint60_linear_8688_208" x1="167.226" y1="212.218" x2="169.772" y2="212.218" gradientUnits="userSpaceOnUse">
<stop stop-color="#F3CE5E"/>
<stop offset="1" stop-color="#F2BE4A"/>
</linearGradient>
<linearGradient id="paint61_linear_8688_208" x1="165.628" y1="217.01" x2="168.174" y2="217.01" gradientUnits="userSpaceOnUse">
<stop stop-color="#F3CE5E"/>
<stop offset="1" stop-color="#F2BE4A"/>
</linearGradient>
<linearGradient id="paint62_linear_8688_208" x1="163.281" y1="221.505" x2="165.828" y2="221.505" gradientUnits="userSpaceOnUse">
<stop stop-color="#F3CE5E"/>
<stop offset="1" stop-color="#F2BE4A"/>
</linearGradient>
<linearGradient id="paint63_linear_8688_208" x1="160.336" y1="225.648" x2="162.882" y2="225.648" gradientUnits="userSpaceOnUse">
<stop stop-color="#F3CE5E"/>
<stop offset="1" stop-color="#F2BE4A"/>
</linearGradient>
<linearGradient id="paint64_linear_8688_208" x1="156.791" y1="229.292" x2="159.337" y2="229.292" gradientUnits="userSpaceOnUse">
<stop stop-color="#F3CE5E"/>
<stop offset="1" stop-color="#F2BE4A"/>
</linearGradient>
<linearGradient id="paint65_linear_8688_208" x1="152.797" y1="232.388" x2="155.344" y2="232.388" gradientUnits="userSpaceOnUse">
<stop stop-color="#F3CE5E"/>
<stop offset="1" stop-color="#F2BE4A"/>
</linearGradient>
<linearGradient id="paint66_linear_8688_208" x1="148.404" y1="234.883" x2="150.901" y2="234.883" gradientUnits="userSpaceOnUse">
<stop stop-color="#F3CE5E"/>
<stop offset="1" stop-color="#F2BE4A"/>
</linearGradient>
<linearGradient id="paint67_linear_8688_208" x1="143.612" y1="236.681" x2="146.158" y2="236.681" gradientUnits="userSpaceOnUse">
<stop stop-color="#F3CE5E"/>
<stop offset="1" stop-color="#F2BE4A"/>
</linearGradient>
<linearGradient id="paint68_linear_8688_208" x1="138.67" y1="237.779" x2="141.216" y2="237.779" gradientUnits="userSpaceOnUse">
<stop stop-color="#F3CE5E"/>
<stop offset="1" stop-color="#F2BE4A"/>
</linearGradient>
<linearGradient id="paint69_linear_8688_208" x1="133.627" y1="238.179" x2="136.173" y2="238.179" gradientUnits="userSpaceOnUse">
<stop stop-color="#F3CE5E"/>
<stop offset="1" stop-color="#F2BE4A"/>
</linearGradient>
<linearGradient id="paint70_linear_8688_208" x1="128.535" y1="237.78" x2="131.081" y2="237.78" gradientUnits="userSpaceOnUse">
<stop stop-color="#F3CE5E"/>
<stop offset="1" stop-color="#F2BE4A"/>
</linearGradient>
<linearGradient id="paint71_linear_8688_208" x1="123.592" y1="236.68" x2="126.138" y2="236.68" gradientUnits="userSpaceOnUse">
<stop stop-color="#F3CE5E"/>
<stop offset="1" stop-color="#F2BE4A"/>
</linearGradient>
<linearGradient id="paint72_linear_8688_208" x1="118.849" y1="234.883" x2="121.395" y2="234.883" gradientUnits="userSpaceOnUse">
<stop stop-color="#F3CE5E"/>
<stop offset="1" stop-color="#F2BE4A"/>
</linearGradient>
<linearGradient id="paint73_linear_8688_208" x1="114.406" y1="232.385" x2="116.952" y2="232.385" gradientUnits="userSpaceOnUse">
<stop stop-color="#F3CE5E"/>
<stop offset="1" stop-color="#F2BE4A"/>
</linearGradient>
<linearGradient id="paint74_linear_8688_208" x1="110.413" y1="229.294" x2="112.959" y2="229.294" gradientUnits="userSpaceOnUse">
<stop stop-color="#F3CE5E"/>
<stop offset="1" stop-color="#F2BE4A"/>
</linearGradient>
<linearGradient id="paint75_linear_8688_208" x1="106.868" y1="225.646" x2="109.414" y2="225.646" gradientUnits="userSpaceOnUse">
<stop stop-color="#F3CE5E"/>
<stop offset="1" stop-color="#F2BE4A"/>
</linearGradient>
<linearGradient id="paint76_linear_8688_208" x1="103.923" y1="221.503" x2="106.469" y2="221.503" gradientUnits="userSpaceOnUse">
<stop stop-color="#F3CE5E"/>
<stop offset="1" stop-color="#F2BE4A"/>
</linearGradient>
<linearGradient id="paint77_linear_8688_208" x1="101.576" y1="217.01" x2="104.172" y2="217.01" gradientUnits="userSpaceOnUse">
<stop stop-color="#F3CE5E"/>
<stop offset="1" stop-color="#F2BE4A"/>
</linearGradient>
<linearGradient id="paint78_linear_8688_208" x1="99.9779" y1="212.218" x2="102.524" y2="212.218" gradientUnits="userSpaceOnUse">
<stop stop-color="#F3CE5E"/>
<stop offset="1" stop-color="#F2BE4A"/>
</linearGradient>
<linearGradient id="paint79_linear_8688_208" x1="99.0291" y1="207.174" x2="101.575" y2="207.174" gradientUnits="userSpaceOnUse">
<stop stop-color="#F3CE5E"/>
<stop offset="1" stop-color="#F2BE4A"/>
</linearGradient>
<linearGradient id="paint80_linear_8688_208" x1="98.8799" y1="202.136" x2="101.426" y2="202.136" gradientUnits="userSpaceOnUse">
<stop stop-color="#F3CE5E"/>
<stop offset="1" stop-color="#F2BE4A"/>
</linearGradient>
<linearGradient id="paint81_linear_8688_208" x1="99.4296" y1="197.091" x2="101.976" y2="197.091" gradientUnits="userSpaceOnUse">
<stop stop-color="#F3CE5E"/>
<stop offset="1" stop-color="#F2BE4A"/>
</linearGradient>
<linearGradient id="paint82_linear_8688_208" x1="100.677" y1="192.149" x2="103.273" y2="192.149" gradientUnits="userSpaceOnUse">
<stop stop-color="#F3CE5E"/>
<stop offset="1" stop-color="#F2BE4A"/>
</linearGradient>
<linearGradient id="paint83_linear_8688_208" x1="102.674" y1="187.508" x2="105.22" y2="187.508" gradientUnits="userSpaceOnUse">
<stop stop-color="#F3CE5E"/>
<stop offset="1" stop-color="#F2BE4A"/>
</linearGradient>
<linearGradient id="paint84_linear_8688_208" x1="105.32" y1="183.163" x2="107.867" y2="183.163" gradientUnits="userSpaceOnUse">
<stop stop-color="#F3CE5E"/>
<stop offset="1" stop-color="#F2BE4A"/>
</linearGradient>
<linearGradient id="paint85_linear_8688_208" x1="108.565" y1="179.268" x2="111.111" y2="179.268" gradientUnits="userSpaceOnUse">
<stop stop-color="#F3CE5E"/>
<stop offset="1" stop-color="#F2BE4A"/>
</linearGradient>
<linearGradient id="paint86_linear_8688_208" x1="112.359" y1="175.876" x2="114.905" y2="175.876" gradientUnits="userSpaceOnUse">
<stop stop-color="#F3CE5E"/>
<stop offset="1" stop-color="#F2BE4A"/>
</linearGradient>
<linearGradient id="paint87_linear_8688_208" x1="116.603" y1="173.079" x2="119.149" y2="173.079" gradientUnits="userSpaceOnUse">
<stop stop-color="#F3CE5E"/>
<stop offset="1" stop-color="#F2BE4A"/>
</linearGradient>
<linearGradient id="paint88_linear_8688_208" x1="121.195" y1="170.932" x2="123.742" y2="170.932" gradientUnits="userSpaceOnUse">
<stop stop-color="#F3CE5E"/>
<stop offset="1" stop-color="#F2BE4A"/>
</linearGradient>
<linearGradient id="paint89_linear_8688_208" x1="126.038" y1="169.434" x2="128.584" y2="169.434" gradientUnits="userSpaceOnUse">
<stop stop-color="#F3CE5E"/>
<stop offset="1" stop-color="#F2BE4A"/>
</linearGradient>
<linearGradient id="paint90_linear_8688_208" x1="131.081" y1="168.736" x2="133.627" y2="168.736" gradientUnits="userSpaceOnUse">
<stop stop-color="#F3CE5E"/>
<stop offset="1" stop-color="#F2BE4A"/>
</linearGradient>
<linearGradient id="paint91_linear_8688_208" x1="136.124" y1="168.734" x2="138.67" y2="168.734" gradientUnits="userSpaceOnUse">
<stop stop-color="#F3CE5E"/>
<stop offset="1" stop-color="#F2BE4A"/>
</linearGradient>
<linearGradient id="paint92_linear_8688_208" x1="141.166" y1="169.434" x2="143.712" y2="169.434" gradientUnits="userSpaceOnUse">
<stop stop-color="#F3CE5E"/>
<stop offset="1" stop-color="#F2BE4A"/>
</linearGradient>
<linearGradient id="paint93_linear_8688_208" x1="146.008" y1="170.932" x2="148.604" y2="170.932" gradientUnits="userSpaceOnUse">
<stop stop-color="#F3CE5E"/>
<stop offset="1" stop-color="#F2BE4A"/>
</linearGradient>
<linearGradient id="paint94_linear_8688_208" x1="150.651" y1="173.079" x2="153.147" y2="173.079" gradientUnits="userSpaceOnUse">
<stop stop-color="#F3CE5E"/>
<stop offset="1" stop-color="#F2BE4A"/>
</linearGradient>
<linearGradient id="paint95_linear_8688_208" x1="154.844" y1="175.874" x2="157.39" y2="175.874" gradientUnits="userSpaceOnUse">
<stop stop-color="#F3CE5E"/>
<stop offset="1" stop-color="#F2BE4A"/>
</linearGradient>
<linearGradient id="paint96_linear_8688_208" x1="158.639" y1="179.268" x2="161.185" y2="179.268" gradientUnits="userSpaceOnUse">
<stop stop-color="#F3CE5E"/>
<stop offset="1" stop-color="#F2BE4A"/>
</linearGradient>
<linearGradient id="paint97_linear_8688_208" x1="161.884" y1="183.164" x2="164.431" y2="183.164" gradientUnits="userSpaceOnUse">
<stop stop-color="#F3CE5E"/>
<stop offset="1" stop-color="#F2BE4A"/>
</linearGradient>
<linearGradient id="paint98_linear_8688_208" x1="164.53" y1="187.506" x2="167.076" y2="187.506" gradientUnits="userSpaceOnUse">
<stop stop-color="#F3CE5E"/>
<stop offset="1" stop-color="#F2BE4A"/>
</linearGradient>
<linearGradient id="paint99_linear_8688_208" x1="166.476" y1="192.149" x2="169.072" y2="192.149" gradientUnits="userSpaceOnUse">
<stop stop-color="#F3CE5E"/>
<stop offset="1" stop-color="#F2BE4A"/>
</linearGradient>
<linearGradient id="paint100_linear_8688_208" x1="167.825" y1="197.092" x2="170.321" y2="197.092" gradientUnits="userSpaceOnUse">
<stop stop-color="#F3CE5E"/>
<stop offset="1" stop-color="#F2BE4A"/>
</linearGradient>
<linearGradient id="paint101_linear_8688_208" x1="168.324" y1="202.135" x2="170.87" y2="202.135" gradientUnits="userSpaceOnUse">
<stop stop-color="#F3CE5E"/>
<stop offset="1" stop-color="#F2BE4A"/>
</linearGradient>
<linearGradient id="paint102_linear_8688_208" x1="163.63" y1="174.877" x2="107.766" y2="230.242" gradientUnits="userSpaceOnUse">
<stop stop-color="#AA7238"/>
<stop offset="0.25" stop-color="#C08443"/>
<stop offset="0.35" stop-color="#BE8241"/>
<stop offset="0.39" stop-color="#B77B3D"/>
<stop offset="0.42" stop-color="#AC6F35"/>
<stop offset="0.44" stop-color="#9C5E2B"/>
<stop offset="0.46" stop-color="#88481D"/>
<stop offset="0.47" stop-color="#7A3A14"/>
<stop offset="0.64" stop-color="#7B3C15"/>
<stop offset="0.72" stop-color="#82431A"/>
<stop offset="0.79" stop-color="#8D5122"/>
<stop offset="0.85" stop-color="#9D642E"/>
<stop offset="0.9" stop-color="#B27C3E"/>
<stop offset="0.95" stop-color="#CC9A51"/>
<stop offset="0.99" stop-color="#EABD67"/>
<stop offset="1" stop-color="#F0C46C"/>
</linearGradient>
<radialGradient id="paint103_radial_8688_208" cx="0" cy="0" r="1" gradientTransform="matrix(7.91991 -15.2205 32.8164 17.0826 165.248 156.669)" gradientUnits="userSpaceOnUse">
<stop stop-color="white"/>
<stop offset="0.14" stop-color="#E2E2E2"/>
<stop offset="0.43" stop-color="#999999"/>
<stop offset="0.87" stop-color="#252525"/>
<stop offset="1"/>
</radialGradient>
<radialGradient id="paint104_radial_8688_208" cx="0" cy="0" r="1" gradientTransform="matrix(7.91991 -15.2205 32.8164 17.0826 165.248 156.669)" gradientUnits="userSpaceOnUse">
<stop stop-color="#ECCE88"/>
<stop offset="1"/>
</radialGradient>
<radialGradient id="paint105_radial_8688_208" cx="0" cy="0" r="1" gradientUnits="userSpaceOnUse" gradientTransform="translate(160.892 167.12) rotate(27.21) scale(12.1564 13.6152)">
<stop stop-color="white"/>
<stop offset="0.21" stop-color="#C3C3C3"/>
<stop offset="0.6" stop-color="#5B5B5B"/>
<stop offset="0.87" stop-color="#191919"/>
<stop offset="1"/>
</radialGradient>
<radialGradient id="paint106_radial_8688_208" cx="0" cy="0" r="1" gradientUnits="userSpaceOnUse" gradientTransform="translate(160.892 167.12) rotate(27.21) scale(12.1564 13.6152)">
<stop stop-color="#FFA177"/>
<stop offset="0.13" stop-color="#E5906B"/>
<stop offset="0.4" stop-color="#A3674C"/>
<stop offset="0.79" stop-color="#3B251B"/>
<stop offset="1"/>
</radialGradient>
<radialGradient id="paint107_radial_8688_208" cx="0" cy="0" r="1" gradientUnits="userSpaceOnUse" gradientTransform="translate(112.383 227.583) rotate(-58.17) scale(11.2148 20.6774)">
<stop stop-color="white"/>
<stop offset="0.14" stop-color="#E2E2E2"/>
<stop offset="0.43" stop-color="#999999"/>
<stop offset="0.87" stop-color="#252525"/>
<stop offset="1"/>
</radialGradient>
<radialGradient id="paint108_radial_8688_208" cx="0" cy="0" r="1" gradientUnits="userSpaceOnUse" gradientTransform="translate(112.383 227.583) rotate(-58.17) scale(11.2148 20.6774)">
<stop stop-color="#ECC29A"/>
<stop offset="1"/>
</radialGradient>
<linearGradient id="paint109_linear_8688_208" x1="123.442" y1="210.071" x2="149.203" y2="197.94" gradientUnits="userSpaceOnUse">
<stop stop-color="#F1C848"/>
<stop offset="0.19" stop-color="#EFC84E"/>
<stop offset="0.45" stop-color="#EBCB61"/>
<stop offset="0.48" stop-color="#EBCC64"/>
<stop offset="0.75" stop-color="#F4E478"/>
<stop offset="1" stop-color="#FFFF8E"/>
</linearGradient>
<linearGradient id="paint110_linear_8688_208" x1="136.223" y1="182.86" x2="136.223" y2="220.952" gradientUnits="userSpaceOnUse">
<stop stop-color="#FFEE7B"/>
<stop offset="0.15" stop-color="#FFC757"/>
<stop offset="0.27" stop-color="#E1A11B"/>
<stop offset="0.28" stop-color="#E2A621"/>
<stop offset="0.31" stop-color="#ECBF43"/>
<stop offset="0.34" stop-color="#F4D35E"/>
<stop offset="0.37" stop-color="#F9E171"/>
<stop offset="0.41" stop-color="#FCEA7D"/>
<stop offset="0.44" stop-color="#FEED81"/>
<stop offset="0.47" stop-color="#F8E27B"/>
<stop offset="0.51" stop-color="#E8C76A"/>
<stop offset="0.57" stop-color="#CE9B50"/>
<stop offset="0.63" stop-color="#AA5E2C"/>
<stop offset="0.65" stop-color="#A24F24"/>
<stop offset="0.76" stop-color="#E0B439"/>
<stop offset="0.86" stop-color="#F1C848"/>
<stop offset="1" stop-color="#FFFF8E"/>
</linearGradient>
<radialGradient id="paint111_radial_8688_208" cx="0" cy="0" r="1" gradientUnits="userSpaceOnUse" gradientTransform="translate(137.096 117.586) scale(100.821 100.821)">
<stop stop-color="#ECECBB"/>
<stop offset="1" stop-color="#784F58"/>
</radialGradient>
</defs>
</svg>
