<svg width="300" height="49" viewBox="0 0 300 49" fill="none" xmlns="http://www.w3.org/2000/svg">
<path d="M0.454612 47.1816V40.0907L17.0228 24.7498C18.4319 23.3862 19.6137 22.1589 20.5682 21.068C21.5379 19.9771 22.2728 18.9089 22.7728 17.8635C23.2728 16.8029 23.5228 15.6589 23.5228 14.4316C23.5228 13.068 23.2122 11.8938 22.591 10.9089C21.9698 9.90891 21.1213 9.14376 20.0455 8.61346C18.9698 8.068 17.7501 7.79528 16.3864 7.79528C14.9622 7.79528 13.7198 8.08316 12.6592 8.65891C11.5986 9.23467 10.7804 10.0604 10.2046 11.1362C9.62885 12.2119 9.34098 13.4922 9.34098 14.9771H6.67572e-05C6.67572e-05 11.9316 0.689461 9.2877 2.06825 7.04528C3.44704 4.80285 5.37885 3.068 7.8637 1.84073C10.3486 0.613457 13.2122 -0.000179291 16.4546 -0.000179291C19.7879 -0.000179291 22.6895 0.59073 25.1592 1.77255C27.644 2.93922 29.5758 4.56043 30.9546 6.63618C32.3334 8.71194 33.0228 11.0907 33.0228 13.7725C33.0228 15.5301 32.6743 17.265 31.9773 18.9771C31.2955 20.6892 30.0758 22.5907 28.3182 24.6816C26.5607 26.7574 24.0834 29.2498 20.8864 32.1589L14.091 38.818V39.1362H33.6364V47.1816H0.454612ZM59.0171 48.2044C55.108 48.1892 51.7444 47.2271 48.9262 45.318C46.1232 43.4089 43.9641 40.6438 42.4489 37.0225C40.9489 33.4013 40.2065 29.0453 40.2217 23.9544C40.2217 18.8786 40.9717 14.5529 42.4717 10.9771C43.9868 7.40134 46.1459 4.68164 48.9489 2.818C51.7671 0.939215 55.1232 -0.000179291 59.0171 -0.000179291C62.9111 -0.000179291 66.2595 0.939215 69.0626 2.818C71.8808 4.69679 74.0474 7.42406 75.5626 10.9998C77.0777 14.5604 77.8277 18.8786 77.8126 23.9544C77.8126 29.0604 77.055 33.4241 75.5398 37.0453C74.0398 40.6665 71.8883 43.4316 69.0853 45.3407C66.2823 47.2498 62.9262 48.2044 59.0171 48.2044ZM59.0171 40.0453C61.6838 40.0453 63.8126 38.7044 65.4035 36.0225C66.9944 33.3407 67.7823 29.318 67.7671 23.9544C67.7671 20.4241 67.4035 17.4847 66.6762 15.1362C65.9641 12.7877 64.9489 11.0225 63.6307 9.84073C62.3277 8.65891 60.7898 8.068 59.0171 8.068C56.3656 8.068 54.2444 9.39376 52.6535 12.0453C51.0626 14.6968 50.2595 18.6665 50.2444 23.9544C50.2444 27.5301 50.6004 30.515 51.3126 32.9089C52.0398 35.2877 53.0626 37.0756 54.3807 38.2725C55.6989 39.4544 57.2444 40.0453 59.0171 40.0453ZM83.3296 8.74982V0.636185H121.557V8.74982H107.307V47.1816H97.5796V8.74982H83.3296ZM124.046 47.1816V12.2725H133.432V18.3635H133.796C134.432 16.1968 135.5 14.5604 137 13.4544C138.5 12.3332 140.227 11.7725 142.182 11.7725C142.667 11.7725 143.189 11.8029 143.75 11.8635C144.311 11.9241 144.803 12.0074 145.227 12.1135V20.7044C144.773 20.568 144.144 20.4468 143.341 20.3407C142.538 20.2347 141.803 20.1816 141.136 20.1816C139.712 20.1816 138.439 20.4922 137.318 21.1135C136.212 21.7195 135.333 22.568 134.682 23.6589C134.046 24.7498 133.727 26.0074 133.727 27.4316V47.1816H124.046ZM173.636 0.636185L184.886 35.9998H185.318L196.591 0.636185H207.5L191.455 47.1816H178.773L162.705 0.636185H173.636ZM252.034 0.636185V47.1816H243.534L223.284 17.8862H222.943V47.1816H213.102V0.636185H221.739L241.83 29.9089H242.239V0.636185H252.034ZM276.665 47.1816H260.165V0.636185H276.801C281.483 0.636185 285.513 1.568 288.892 3.43164C292.271 5.28012 294.869 7.93921 296.688 11.4089C298.521 14.8786 299.438 19.0301 299.438 23.8635C299.438 28.7119 298.521 32.8786 296.688 36.3635C294.869 39.8483 292.256 42.5225 288.847 44.3862C285.453 46.2498 281.392 47.1816 276.665 47.1816ZM270.006 38.7498H276.256C279.165 38.7498 281.612 38.2347 283.597 37.2044C285.597 36.1589 287.097 34.5453 288.097 32.3635C289.112 30.1665 289.619 27.3332 289.619 23.8635C289.619 20.4241 289.112 17.6135 288.097 15.4316C287.097 13.2498 285.604 11.6438 283.619 10.6135C281.635 9.58316 279.188 9.068 276.278 9.068H270.006V38.7498Z" fill="#F27224"/>
</svg>
