<svg width="341" height="47" viewBox="0 0 341 47" fill="none" xmlns="http://www.w3.org/2000/svg">
<path d="M16.2287 4.68714V41.0508H8.54048V11.9847H8.32741L0 17.2049V10.3867L9.00213 4.68714H16.2287ZM39.1291 41.8498C36.0751 41.8379 33.4473 41.0863 31.2456 39.5948C29.0557 38.1033 27.3689 35.9431 26.1852 33.114C25.0133 30.2849 24.4333 26.8817 24.4451 22.9045C24.4451 18.939 25.0311 15.5595 26.2029 12.766C27.3867 9.97242 29.0734 7.84766 31.2633 6.39169C33.465 4.92389 36.0869 4.18998 39.1291 4.18998C42.1712 4.18998 44.7872 4.92389 46.9771 6.39169C49.1788 7.85949 50.8715 9.99017 52.0552 12.7837C53.2389 15.5655 53.8249 18.939 53.813 22.9045C53.813 26.8936 53.2212 30.3027 52.0375 33.1317C50.8656 35.9608 49.1847 38.1211 46.9949 39.6126C44.805 41.104 42.1831 41.8498 39.1291 41.8498ZM39.1291 35.4755C41.2124 35.4755 42.8755 34.4279 44.1184 32.3327C45.3613 30.2376 45.9769 27.0948 45.965 22.9045C45.965 20.1464 45.6809 17.85 45.1127 16.0153C44.5564 14.1805 43.7633 12.8015 42.7335 11.8782C41.7155 10.9549 40.514 10.4933 39.1291 10.4933C37.0576 10.4933 35.4004 11.529 34.1575 13.6005C32.9146 15.672 32.2872 18.7733 32.2754 22.9045C32.2754 25.698 32.5536 28.0299 33.1099 29.9002C33.6781 31.7586 34.4771 33.1554 35.5069 34.0906C36.5368 35.0138 37.7441 35.4755 39.1291 35.4755ZM58.1232 11.0259V4.68714H87.9883V11.0259H76.8555V41.0508H69.256V11.0259H58.1232ZM89.9325 41.0508V13.7781H97.2656V18.5366H97.5497C98.0469 16.8439 98.8814 15.5655 100.053 14.7013C101.225 13.8254 102.575 13.3874 104.102 13.3874C104.48 13.3874 104.889 13.4111 105.327 13.4585C105.765 13.5058 106.149 13.5709 106.481 13.6538V20.3654C106.126 20.2589 105.634 20.1642 105.007 20.0813C104.38 19.9985 103.806 19.957 103.285 19.957C102.172 19.957 101.178 20.1997 100.302 20.685C99.4377 21.1585 98.7512 21.8214 98.2422 22.6737C97.745 23.5259 97.4964 24.5084 97.4964 25.6211V41.0508H89.9325ZM128.675 4.68714L137.464 32.315H137.802L146.609 4.68714H155.131L142.596 41.0508H132.688L120.135 4.68714H128.675ZM189.924 4.68714V41.0508H183.283L167.463 18.1637H167.196V41.0508H159.508V4.68714H166.255L181.951 27.5565H182.271V4.68714H189.924ZM209.166 41.0508H196.276V4.68714H209.273C212.931 4.68714 216.079 5.41513 218.719 6.87109C221.359 8.31522 223.389 10.3926 224.809 13.1033C226.241 15.814 226.958 19.0574 226.958 22.8335C226.958 26.6213 226.241 29.8765 224.809 32.5991C223.389 35.3216 221.347 37.4109 218.683 38.8668C216.032 40.3228 212.86 41.0508 209.166 41.0508ZM203.964 34.4634H208.847C211.119 34.4634 213.031 34.061 214.582 33.256C216.144 32.4393 217.316 31.1786 218.097 29.4741C218.891 27.7577 219.287 25.5442 219.287 22.8335C219.287 20.1464 218.891 17.9506 218.097 16.2461C217.316 14.5415 216.15 13.2868 214.6 12.4819C213.049 11.677 211.137 11.2745 208.865 11.2745H203.964V34.4634ZM246.347 2.9826L234.628 46.5195H228.112L239.83 2.9826H246.347ZM274.245 16.4414C273.997 15.5773 273.648 14.8138 273.198 14.1509C272.748 13.4762 272.198 12.908 271.547 12.4464C270.907 11.9729 270.173 11.6119 269.345 11.3633C268.528 11.1147 267.623 10.9904 266.628 10.9904C264.77 10.9904 263.136 11.4521 261.728 12.3754C260.331 13.2986 259.242 14.6422 258.461 16.4059C257.679 18.1578 257.289 20.3003 257.289 22.8335C257.289 25.3666 257.673 27.521 258.443 29.2965C259.212 31.0721 260.301 32.4274 261.71 33.3626C263.118 34.2859 264.782 34.7475 266.699 34.7475C268.439 34.7475 269.925 34.4397 271.156 33.8242C272.399 33.1969 273.346 32.315 273.997 31.1786C274.66 30.0423 274.991 28.6987 274.991 27.1481L276.554 27.3789H267.179V21.5906H282.395V26.1715C282.395 29.3675 281.721 32.1138 280.371 34.4102C279.022 36.6947 277.163 38.4585 274.796 39.7013C272.428 40.9324 269.718 41.5479 266.664 41.5479C263.255 41.5479 260.26 40.7963 257.679 39.293C255.099 37.7778 253.087 35.6294 251.642 32.8477C250.21 30.0541 249.494 26.7397 249.494 22.9045C249.494 19.957 249.92 17.3292 250.772 15.021C251.636 12.7009 252.844 10.7359 254.395 9.12607C255.945 7.51622 257.75 6.29107 259.81 5.45064C261.87 4.6102 264.101 4.18998 266.504 4.18998C268.564 4.18998 270.481 4.49183 272.257 5.09553C274.032 5.68738 275.607 6.52782 276.98 7.61683C278.365 8.70585 279.495 10.002 280.371 11.5053C281.247 12.9968 281.809 14.6422 282.058 16.4414H274.245ZM289.737 41.0508V13.7781H297.301V41.0508H289.737ZM293.537 10.2624C292.412 10.2624 291.448 9.88956 290.643 9.14382C289.85 8.38624 289.453 7.4807 289.453 6.4272C289.453 5.38553 289.85 4.49183 290.643 3.74609C291.448 2.98852 292.412 2.60973 293.537 2.60973C294.661 2.60973 295.62 2.98852 296.413 3.74609C297.218 4.49183 297.621 5.38553 297.621 6.4272C297.621 7.4807 297.218 8.38624 296.413 9.14382C295.62 9.88956 294.661 10.2624 293.537 10.2624ZM311.137 41.5657C309.397 41.5657 307.847 41.2638 306.485 40.6602C305.124 40.0446 304.047 39.1391 303.254 37.9435C302.472 36.7362 302.082 35.2328 302.082 33.4336C302.082 31.9184 302.36 30.646 302.916 29.6161C303.473 28.5863 304.23 27.7577 305.189 27.1303C306.148 26.503 307.237 26.0295 308.456 25.7099C309.687 25.3903 310.977 25.1654 312.327 25.0352C313.913 24.8694 315.191 24.7156 316.162 24.5735C317.133 24.4196 317.837 24.1947 318.275 23.8988C318.713 23.6029 318.932 23.1649 318.932 22.5849V22.4783C318.932 21.3538 318.577 20.4838 317.867 19.8683C317.168 19.2527 316.174 18.945 314.884 18.945C313.522 18.945 312.439 19.2468 311.634 19.8505C310.829 20.4424 310.297 21.1881 310.036 22.0877L303.041 21.5195C303.396 19.8623 304.094 18.43 305.136 17.2227C306.177 16.0034 307.521 15.0683 309.166 14.4173C310.824 13.7544 312.741 13.4229 314.919 13.4229C316.434 13.4229 317.884 13.6005 319.269 13.9556C320.666 14.3107 321.903 14.8612 322.98 15.6069C324.069 16.3526 324.927 17.3114 325.555 18.4833C326.182 19.6433 326.496 21.0342 326.496 22.6559V41.0508H319.323V37.2688H319.11C318.672 38.1211 318.086 38.8728 317.352 39.5238C316.618 40.163 315.736 40.6661 314.706 41.033C313.676 41.3881 312.487 41.5657 311.137 41.5657ZM313.303 36.3455C314.416 36.3455 315.399 36.1265 316.251 35.6886C317.103 35.2388 317.772 34.6351 318.257 33.8775C318.743 33.1199 318.985 32.2617 318.985 31.3029V28.4087C318.749 28.5626 318.423 28.7047 318.009 28.8349C317.606 28.9532 317.151 29.0657 316.642 29.1722C316.133 29.2669 315.624 29.3557 315.115 29.4386C314.606 29.5096 314.144 29.5747 313.73 29.6339C312.842 29.7641 312.066 29.9712 311.404 30.2553C310.741 30.5394 310.226 30.9241 309.859 31.4094C309.492 31.8829 309.308 32.4748 309.308 33.185C309.308 34.2148 309.681 35.002 310.427 35.5465C311.185 36.0792 312.143 36.3455 313.303 36.3455ZM317.991 9.8718H312.38L311.99 6.67578C313.244 6.6166 314.138 6.45088 314.671 6.17862C315.203 5.89453 315.464 5.52166 315.452 5.06001C315.464 4.42081 315.126 3.98875 314.44 3.76385C313.765 3.53894 312.919 3.42649 311.901 3.42649L312.096 -0.000356197C315.257 -0.000356197 317.66 0.42578 319.305 1.27805C320.962 2.13033 321.785 3.31404 321.773 4.82919C321.785 5.90637 321.394 6.72313 320.601 7.27947C319.82 7.82398 318.95 8.16726 317.991 8.3093V9.8718ZM332.364 41.0508V13.7781H339.928V41.0508H332.364ZM336.164 10.2624C335.039 10.2624 334.075 9.88956 333.27 9.14382C332.477 8.38624 332.08 7.4807 332.08 6.4272C332.08 5.38553 332.477 4.49183 333.27 3.74609C334.075 2.98852 335.039 2.60973 336.164 2.60973C337.288 2.60973 338.247 2.98852 339.04 3.74609C339.845 4.49183 340.248 5.38553 340.248 6.4272C340.248 7.4807 339.845 8.38624 339.04 9.14382C338.247 9.88956 337.288 10.2624 336.164 10.2624Z" fill="#F27224"/>
</svg>
