<svg width="204" height="34" viewBox="0 0 204 34" fill="none" xmlns="http://www.w3.org/2000/svg">
<path d="M11.7613 33.48C9.31809 33.4706 7.21582 32.8692 5.45446 31.676C3.70256 30.4829 2.35313 28.7546 1.40616 26.4914C0.468661 24.2281 0.00464609 21.5056 0.0141158 18.3238C0.0141158 15.1514 0.482866 12.4478 1.42037 10.213C2.36734 7.97813 3.71677 6.27832 5.46866 5.11355C7.23002 3.9393 9.32756 3.35218 11.7613 3.35218C14.195 3.35218 16.2878 3.9393 18.0397 5.11355C19.801 6.28779 21.1552 7.99233 22.1022 10.2272C23.0492 12.4526 23.5179 15.1514 23.5084 18.3238C23.5084 21.5151 23.035 24.2423 22.088 26.5056C21.1505 28.7689 19.8058 30.4971 18.0539 31.6903C16.302 32.8834 14.2045 33.48 11.7613 33.48ZM11.7613 28.3806C13.4279 28.3806 14.7584 27.5425 15.7528 25.8664C16.7471 24.1903 17.2395 21.676 17.23 18.3238C17.23 16.1173 17.0028 14.2802 16.5482 12.8124C16.1031 11.3446 15.4687 10.2414 14.6448 9.50275C13.8304 8.76412 12.8692 8.3948 11.7613 8.3948C10.1041 8.3948 8.77832 9.2234 7.784 10.8806C6.78968 12.5378 6.28779 15.0188 6.27832 18.3238C6.27832 20.5586 6.50086 22.4242 6.94593 23.9204C7.40048 25.4071 8.03968 26.5245 8.86355 27.2726C9.68741 28.0113 10.6533 28.3806 11.7613 28.3806ZM40.5503 3.74991V32.8408H34.3998V9.58798H34.2293L27.5674 13.7641V8.30957L34.7691 3.74991H40.5503ZM76.1824 13.1533C75.9836 12.462 75.7042 11.8512 75.3444 11.3209C74.9845 10.7812 74.5442 10.3266 74.0233 9.9573C73.512 9.57851 72.9249 9.28968 72.262 9.09082C71.6086 8.89196 70.8841 8.79253 70.0887 8.79253C68.6019 8.79253 67.2951 9.16184 66.1682 9.90048C65.0508 10.6391 64.1796 11.7139 63.5546 13.1249C62.9296 14.5264 62.6171 16.2404 62.6171 18.267C62.6171 20.2935 62.9249 22.017 63.5404 23.4374C64.1559 24.8579 65.0271 25.9421 66.154 26.6903C67.2809 27.4289 68.6114 27.7982 70.1455 27.7982C71.5376 27.7982 72.726 27.552 73.7108 27.0596C74.7052 26.5577 75.4627 25.8522 75.9836 24.9431C76.5139 24.034 76.779 22.9592 76.779 21.7187L78.029 21.9033H70.529V17.2726H82.7023V20.9374C82.7023 23.4942 82.1626 25.6912 81.083 27.5283C80.0035 29.356 78.5167 30.767 76.6228 31.7613C74.7288 32.7461 72.5603 33.2385 70.1171 33.2385C67.3898 33.2385 64.994 32.6372 62.9296 31.4346C60.8652 30.2224 59.2554 28.5037 58.1001 26.2783C56.9542 24.0435 56.3813 21.392 56.3813 18.3238C56.3813 15.9658 56.7222 13.8635 57.404 12.017C58.0953 10.1609 59.0612 8.58893 60.3018 7.30105C61.5423 6.01317 62.9864 5.03305 64.6341 4.36071C66.2819 3.68836 68.0669 3.35218 69.9893 3.35218C71.637 3.35218 73.1711 3.59366 74.5915 4.07662C76.012 4.5501 77.2715 5.22245 78.3699 6.09366C79.4779 6.96487 80.3823 8.0018 81.083 9.20446C81.7838 10.3976 82.2336 11.7139 82.4324 13.1533H76.1824ZM88.5759 32.8408V11.0226H94.627V32.8408H88.5759ZM91.6157 8.21014C90.7161 8.21014 89.9443 7.91184 89.3003 7.31525C88.6659 6.70919 88.3486 5.98476 88.3486 5.14196C88.3486 4.30862 88.6659 3.59366 89.3003 2.99707C89.9443 2.39101 90.7161 2.08798 91.6157 2.08798C92.5153 2.08798 93.2823 2.39101 93.9168 2.99707C94.5608 3.59366 94.8827 4.30862 94.8827 5.14196C94.8827 5.98476 94.5608 6.70919 93.9168 7.31525C93.2823 7.91184 92.5153 8.21014 91.6157 8.21014ZM105.696 33.2528C104.304 33.2528 103.063 33.0113 101.974 32.5283C100.885 32.0359 100.024 31.3115 99.3891 30.355C98.7641 29.3891 98.4516 28.1865 98.4516 26.7471C98.4516 25.5349 98.6742 24.517 99.1192 23.6931C99.5643 22.8692 100.17 22.2064 100.937 21.7045C101.704 21.2026 102.576 20.8238 103.551 20.5681C104.536 20.3124 105.568 20.1325 106.648 20.0283C107.917 19.8957 108.939 19.7726 109.716 19.659C110.492 19.5359 111.056 19.356 111.406 19.1192C111.757 18.8825 111.932 18.5321 111.932 18.0681V17.9829C111.932 17.0832 111.648 16.3872 111.079 15.8948C110.521 15.4024 109.725 15.1562 108.693 15.1562C107.604 15.1562 106.738 15.3976 106.094 15.8806C105.45 16.3541 105.024 16.9507 104.815 17.6704L99.2187 17.2158C99.5028 15.8901 100.061 14.7442 100.895 13.7783C101.728 12.8029 102.803 12.0548 104.119 11.534C105.445 11.0037 106.979 10.7385 108.722 10.7385C109.934 10.7385 111.094 10.8806 112.202 11.1647C113.319 11.4488 114.309 11.8891 115.17 12.4857C116.042 13.0823 116.728 13.8493 117.23 14.7868C117.732 15.7149 117.983 16.8276 117.983 18.1249V32.8408H112.244V29.8153H112.074C111.723 30.4971 111.255 31.0984 110.668 31.6192C110.08 32.1306 109.375 32.5331 108.551 32.8266C107.727 33.1107 106.775 33.2528 105.696 33.2528ZM107.429 29.0766C108.319 29.0766 109.105 28.9014 109.787 28.551C110.469 28.1912 111.004 27.7082 111.392 27.1022C111.78 26.4961 111.974 25.8096 111.974 25.0425V22.7272C111.785 22.8503 111.525 22.9639 111.193 23.0681C110.871 23.1628 110.507 23.2528 110.099 23.338C109.692 23.4137 109.285 23.4848 108.878 23.551C108.471 23.6079 108.101 23.6599 107.77 23.7073C107.06 23.8115 106.439 23.9772 105.909 24.2045C105.379 24.4317 104.967 24.7395 104.673 25.1278C104.38 25.5065 104.233 25.98 104.233 26.5482C104.233 27.3721 104.531 28.0018 105.128 28.4374C105.734 28.8635 106.501 29.0766 107.429 29.0766ZM111.179 7.89764H106.69L106.378 5.34082C107.382 5.29347 108.097 5.1609 108.523 4.94309C108.949 4.71582 109.157 4.41752 109.148 4.04821C109.157 3.53684 108.887 3.1912 108.338 3.01127C107.798 2.83135 107.121 2.74139 106.307 2.74139L106.463 -8.96454e-05C108.991 -8.96454e-05 110.914 0.34082 112.23 1.02264C113.556 1.70446 114.214 2.65143 114.204 3.86355C114.214 4.72529 113.901 5.3787 113.267 5.82377C112.642 6.25938 111.946 6.534 111.179 6.64764V7.89764ZM122.677 32.8408V11.0226H128.729V32.8408H122.677ZM125.717 8.21014C124.818 8.21014 124.046 7.91184 123.402 7.31525C122.767 6.70919 122.45 5.98476 122.45 5.14196C122.45 4.30862 122.767 3.59366 123.402 2.99707C124.046 2.39101 124.818 2.08798 125.717 2.08798C126.617 2.08798 127.384 2.39101 128.018 2.99707C128.662 3.59366 128.984 4.30862 128.984 5.14196C128.984 5.98476 128.662 6.70919 128.018 7.31525C127.384 7.91184 126.617 8.21014 125.717 8.21014ZM167.28 3.74991V32.8408H161.967L149.311 14.5312H149.098V32.8408H142.947V3.74991H148.345L160.902 22.0454H161.158V3.74991H167.28ZM178.299 20.2272V32.8408H172.248V3.74991H178.128V14.8721H178.384C178.877 13.5842 179.672 12.5757 180.771 11.8465C181.869 11.1079 183.247 10.7385 184.904 10.7385C186.419 10.7385 187.74 11.07 188.867 11.7329C190.003 12.3863 190.884 13.3285 191.509 14.5596C192.144 15.7812 192.456 17.2442 192.447 18.9488V32.8408H186.396V20.0283C186.405 18.6836 186.064 17.6372 185.373 16.8891C184.691 16.141 183.735 15.767 182.503 15.767C181.68 15.767 180.95 15.9421 180.316 16.2925C179.691 16.6429 179.199 17.1543 178.839 17.8266C178.488 18.4895 178.308 19.2897 178.299 20.2272ZM197.209 32.8408V11.0226H203.26V32.8408H197.209ZM198.146 8.21014L193.814 1.74707H199.396L202.422 8.21014H198.146Z" fill="#444444"/>
</svg>
