<svg width="697" height="313" viewBox="0 0 697 313" fill="none" xmlns="http://www.w3.org/2000/svg">
<g opacity="0.9" filter="url(#filter0_d_8688_210)">
<rect width="663" height="278" rx="36" transform="matrix(1 0 0 -1 0 278)" fill="#FFF3D7"/>
</g>
<path d="M188.848 27H91.5967L98.2365 63.4442H188.848V27Z" fill="url(#paint0_linear_8688_210)"/>
<g opacity="0.75" style="mix-blend-mode:multiply">
<path d="M103.429 27H91.5967L98.2365 63.4442H122.949L103.429 27Z" fill="#389C5E"/>
</g>
<g opacity="0.75" style="mix-blend-mode:multiply">
<path d="M177.016 27H188.848L182.208 63.4442H157.496L177.016 27Z" fill="#389C5E"/>
</g>
<path d="M188.848 27L120.302 147.516H160.092L223.395 47.8181L188.848 27Z" fill="url(#paint1_linear_8688_210)"/>
<path d="M216.606 43.6229L151.406 147.514H128.541L195.738 30.9922L216.606 43.6229Z" fill="url(#paint2_linear_8688_210)"/>
<g opacity="0.5" style="mix-blend-mode:multiply">
<path d="M146.213 102.037L120.302 147.517H160.092L168.079 134.937L146.213 102.037Z" fill="#771A1F"/>
</g>
<path d="M138.875 128.992C138.875 128.992 138.725 128.992 138.675 128.992C138.625 128.992 138.525 128.992 138.476 128.992C96.9391 128.992 104.977 158.098 107.822 165.037C108.072 164.787 108.322 164.588 108.571 164.338C109.021 163.939 109.47 163.589 110.019 163.29C110.019 163.29 110.069 163.29 110.119 163.24C110.468 163.04 115.561 162.84 115.96 162.641C113.614 154.004 108.172 139.476 138.476 139.276C138.525 139.276 138.625 139.276 138.675 139.276C138.725 139.276 138.825 139.276 138.875 139.276C169.179 139.476 163.787 154.004 161.39 162.641C161.79 162.84 166.832 162.99 167.232 163.24C167.232 163.24 167.281 163.24 167.331 163.29C167.831 163.589 168.33 163.939 168.779 164.338C169.029 164.538 169.278 164.787 169.528 165.037C172.324 158.048 180.411 128.992 138.875 128.992Z" fill="url(#paint3_radial_8688_210)"/>
<path d="M138.875 128.992C138.875 128.992 138.725 128.992 138.675 128.992C138.625 128.992 138.525 128.992 138.476 128.992C96.9391 128.992 104.977 158.098 107.822 165.037C108.072 164.787 108.322 164.588 108.571 164.338C109.021 163.939 109.47 163.589 110.019 163.29C110.019 163.29 110.069 163.29 110.119 163.24C110.468 163.04 115.561 162.84 115.96 162.641C113.614 154.004 108.172 139.476 138.476 139.276C138.525 139.276 138.625 139.276 138.675 139.276C138.725 139.276 138.825 139.276 138.875 139.276C169.179 139.476 163.787 154.004 161.39 162.641C161.79 162.84 166.832 162.99 167.232 163.24C167.232 163.24 167.281 163.24 167.331 163.29C167.831 163.589 168.33 163.939 168.779 164.338C169.029 164.538 169.278 164.787 169.528 165.037C172.324 158.048 180.411 128.992 138.875 128.992Z" fill="url(#paint4_linear_8688_210)"/>
<path opacity="0.75" d="M138.875 128.992C138.875 128.992 138.725 128.992 138.675 128.992C138.625 128.992 138.525 128.992 138.476 128.992C96.9391 128.992 104.977 158.098 107.822 165.037C107.972 164.887 108.122 164.737 108.272 164.588C105.127 155.701 100.084 130.14 138.476 130.14C138.525 130.14 138.625 130.14 138.675 130.14C138.725 130.14 138.825 130.14 138.875 130.14C177.316 130.14 172.224 155.701 169.079 164.588C169.228 164.737 169.378 164.887 169.528 165.037C172.324 158.048 180.411 128.992 138.875 128.992Z" fill="url(#paint5_radial_8688_210)"/>
<path opacity="0.55" d="M114.212 150.36C111.067 151.309 108.071 151.908 105.326 153.705C105.575 158.598 106.923 162.891 107.822 165.038C108.071 164.788 108.321 164.589 108.571 164.339C109.02 163.94 109.469 163.59 110.018 163.291C110.018 163.291 110.068 163.291 110.118 163.241C110.468 163.041 115.56 162.841 115.959 162.642C115.011 159.097 113.513 154.504 114.212 150.36Z" fill="url(#paint6_linear_8688_210)" style="mix-blend-mode:multiply"/>
<path opacity="0.55" d="M163.037 149.762C164.036 154.055 162.438 158.898 161.39 162.642C161.789 162.842 166.832 162.991 167.231 163.241C167.231 163.241 167.281 163.241 167.331 163.291C167.83 163.591 168.329 163.94 168.779 164.339C169.028 164.539 169.278 164.789 169.527 165.038C170.426 162.842 171.824 158.398 172.024 153.406C168.679 151.259 163.836 150.061 163.037 149.762Z" fill="url(#paint7_linear_8688_210)" style="mix-blend-mode:multiply"/>
<path opacity="0.55" d="M138.875 136.831C138.875 136.831 138.775 136.831 138.725 136.831C138.675 136.831 138.625 136.831 138.575 136.831C109.07 136.831 110.219 152.707 112.116 163.74C112.315 163.64 115.61 162.841 116.01 162.691C113.663 154.055 108.222 139.527 138.525 139.327C138.575 139.327 138.675 139.327 138.725 139.327C138.775 139.327 138.875 139.327 138.925 139.327C169.228 139.527 163.837 154.055 161.44 162.691C161.84 162.891 165.135 163.64 165.334 163.74C167.231 152.707 168.43 136.831 138.875 136.831Z" fill="url(#paint8_radial_8688_210)" style="mix-blend-mode:multiply"/>
<path d="M57 47.8181L120.303 147.516H160.092L91.5471 27L57 47.8181Z" fill="url(#paint9_linear_8688_210)"/>
<path d="M64.0386 43.6229L129.239 147.514H152.054L84.9066 30.9922L64.0386 43.6229Z" fill="url(#paint10_linear_8688_210)"/>
<mask id="mask0_8688_210" style="mask-type:luminance" maskUnits="userSpaceOnUse" x="83" y="148" width="112" height="111">
<path d="M138.875 258.546C169.342 258.546 194.041 233.848 194.041 203.38C194.041 172.913 169.342 148.215 138.875 148.215C108.408 148.215 83.7097 172.913 83.7097 203.38C83.7097 233.848 108.408 258.546 138.875 258.546Z" fill="white"/>
</mask>
<g mask="url(#mask0_8688_210)">
<path d="M138.875 258.546C169.342 258.546 194.041 233.848 194.041 203.38C194.041 172.913 169.342 148.215 138.875 148.215C108.408 148.215 83.7097 172.913 83.7097 203.38C83.7097 233.848 108.408 258.546 138.875 258.546Z" fill="url(#paint11_linear_8688_210)"/>
<path opacity="0.75" d="M138.875 148.215C108.422 148.215 83.7097 172.927 83.7097 203.38C83.7097 233.834 108.422 258.546 138.875 258.546C169.329 258.546 194.041 233.834 194.041 203.38C194.041 172.927 169.329 148.215 138.875 148.215ZM138.875 257.048C109.221 257.048 85.2074 233.035 85.2074 203.38C85.2074 173.726 109.221 149.713 138.875 149.713C168.53 149.713 192.543 173.726 192.543 203.38C192.543 233.035 168.53 257.048 138.875 257.048Z" fill="url(#paint12_radial_8688_210)"/>
<path opacity="0.75" d="M181.154 213.947C186.977 190.592 172.764 166.938 149.409 161.115C126.053 155.292 102.399 169.504 96.5762 192.86C90.7531 216.215 104.966 239.869 128.321 245.692C151.677 251.515 175.33 237.303 181.154 213.947Z" fill="url(#paint13_radial_8688_210)"/>
<path d="M138.875 245.517C162.146 245.517 181.011 226.652 181.011 203.382C181.011 180.111 162.146 161.246 138.875 161.246C115.605 161.246 96.74 180.111 96.74 203.382C96.74 226.652 115.605 245.517 138.875 245.517Z" fill="url(#paint14_linear_8688_210)"/>
<g opacity="0.75">
<g style="mix-blend-mode:multiply" opacity="0.85">
<path d="M173.272 208.475C172.573 208.375 172.074 207.726 172.224 207.077C172.324 206.428 172.873 205.879 173.572 205.929C174.271 205.929 174.82 206.628 174.77 207.327C174.67 208.026 174.021 208.575 173.322 208.425L173.272 208.475Z" fill="url(#paint15_linear_8688_210)"/>
<path d="M172.175 213.415C171.526 213.216 171.076 212.517 171.276 211.868C171.426 211.219 172.125 210.819 172.824 210.969C173.523 211.119 173.922 211.818 173.722 212.517C173.523 213.216 172.824 213.615 172.175 213.415Z" fill="url(#paint16_linear_8688_210)"/>
<path d="M170.327 218.158C169.678 217.858 169.428 217.109 169.728 216.51C169.977 215.861 170.676 215.562 171.325 215.811C171.974 216.061 172.324 216.81 172.074 217.509C171.775 218.158 170.976 218.457 170.377 218.158H170.327Z" fill="url(#paint17_linear_8688_210)"/>
<path d="M167.881 222.604C167.281 222.204 167.132 221.406 167.431 220.856C167.731 220.307 168.58 220.108 169.179 220.457C169.778 220.807 169.977 221.555 169.628 222.204C169.229 222.853 168.48 223.003 167.881 222.604Z" fill="url(#paint18_linear_8688_210)"/>
<path d="M164.736 226.596C164.236 226.146 164.137 225.348 164.636 224.848C165.085 224.349 165.834 224.249 166.383 224.649C166.932 225.048 167.032 225.897 166.583 226.446C166.084 226.995 165.285 227.045 164.736 226.596Z" fill="url(#paint19_linear_8688_210)"/>
<path d="M161.141 230.139C160.691 229.59 160.741 228.791 161.24 228.342C161.74 227.893 162.538 227.943 163.038 228.442C163.537 228.941 163.487 229.74 162.938 230.239C162.389 230.739 161.59 230.689 161.141 230.139Z" fill="url(#paint20_linear_8688_210)"/>
<path d="M156.997 233.037C156.648 232.438 156.798 231.689 157.397 231.34C157.946 230.99 158.695 231.09 159.144 231.639C159.544 232.188 159.444 233.037 158.795 233.436C158.146 233.836 157.347 233.636 156.997 233.037Z" fill="url(#paint21_linear_8688_210)"/>
<path d="M152.504 235.431C152.254 234.782 152.504 234.033 153.103 233.734C153.702 233.434 154.451 233.734 154.801 234.333C155.15 234.932 154.85 235.731 154.201 236.03C153.552 236.33 152.804 236.03 152.504 235.431Z" fill="url(#paint22_linear_8688_210)"/>
<path d="M147.662 237.031C147.512 236.332 147.862 235.683 148.511 235.483C149.16 235.333 149.859 235.633 150.058 236.282C150.308 236.931 149.909 237.73 149.21 237.929C148.511 238.129 147.762 237.73 147.612 237.031H147.662Z" fill="url(#paint23_linear_8688_210)"/>
<path d="M142.67 237.979C142.62 237.28 143.069 236.631 143.718 236.531C144.367 236.431 145.016 236.931 145.166 237.58C145.316 238.279 144.817 238.928 144.118 239.027C143.419 239.127 142.77 238.678 142.67 237.979Z" fill="url(#paint24_linear_8688_210)"/>
<path d="M137.626 238.128C137.626 237.429 138.226 236.88 138.875 236.93C139.524 236.93 140.123 237.429 140.123 238.128C140.123 238.827 139.573 239.426 138.875 239.476C138.126 239.476 137.577 238.827 137.626 238.128Z" fill="url(#paint25_linear_8688_210)"/>
<path d="M132.585 237.581C132.734 236.882 133.383 236.433 134.032 236.532C134.681 236.632 135.181 237.281 135.081 237.98C134.981 238.679 134.382 239.178 133.633 239.029C132.934 238.929 132.435 238.28 132.585 237.581Z" fill="url(#paint26_linear_8688_210)"/>
<path d="M127.642 236.28C127.892 235.581 128.541 235.282 129.19 235.482C129.839 235.631 130.238 236.33 130.038 237.029C129.889 237.728 129.14 238.128 128.441 237.928C127.742 237.728 127.392 236.979 127.592 236.28H127.642Z" fill="url(#paint27_linear_8688_210)"/>
<path d="M122.999 234.333C123.348 233.734 124.097 233.434 124.696 233.734C125.295 234.033 125.595 234.782 125.295 235.431C125.046 236.08 124.247 236.33 123.598 236.03C122.949 235.731 122.649 234.932 122.999 234.333Z" fill="url(#paint28_linear_8688_210)"/>
<path d="M118.656 231.635C119.055 231.036 119.804 230.936 120.403 231.335C120.952 231.685 121.152 232.434 120.802 233.033C120.453 233.632 119.654 233.832 119.005 233.432C118.406 233.033 118.256 232.184 118.656 231.635Z" fill="url(#paint29_linear_8688_210)"/>
<path d="M114.762 228.394C115.261 227.895 116.06 227.845 116.559 228.294C117.059 228.744 117.109 229.542 116.659 230.092C116.21 230.641 115.411 230.691 114.862 230.191C114.313 229.692 114.263 228.893 114.762 228.394Z" fill="url(#paint30_linear_8688_210)"/>
<path d="M111.367 224.647C111.917 224.198 112.715 224.298 113.115 224.847C113.564 225.346 113.514 226.145 113.015 226.594C112.516 227.044 111.667 226.994 111.168 226.444C110.718 225.895 110.818 225.047 111.367 224.647Z" fill="url(#paint31_linear_8688_210)"/>
<path d="M108.572 220.402C109.171 220.053 109.97 220.253 110.319 220.802C110.668 221.351 110.469 222.15 109.87 222.549C109.271 222.948 108.522 222.749 108.122 222.15C107.723 221.551 107.923 220.752 108.572 220.402Z" fill="url(#paint32_linear_8688_210)"/>
<path d="M106.425 215.811C107.074 215.562 107.772 215.861 108.022 216.51C108.322 217.109 108.022 217.858 107.423 218.158C106.774 218.457 106.025 218.158 105.726 217.509C105.476 216.81 105.776 216.061 106.474 215.811H106.425Z" fill="url(#paint33_linear_8688_210)"/>
<path d="M104.926 210.969C105.625 210.819 106.324 211.219 106.474 211.868C106.624 212.517 106.224 213.216 105.575 213.415C104.926 213.615 104.228 213.216 104.028 212.517C103.828 211.818 104.277 211.119 104.926 210.969Z" fill="url(#paint34_linear_8688_210)"/>
<path d="M104.228 205.926C104.926 205.926 105.476 206.375 105.575 207.074C105.675 207.723 105.176 208.372 104.527 208.472C103.828 208.572 103.179 208.072 103.079 207.374C102.979 206.625 103.579 206.026 104.277 205.976L104.228 205.926Z" fill="url(#paint35_linear_8688_210)"/>
<path d="M104.228 200.837C104.927 200.887 105.476 201.486 105.426 202.135C105.426 202.784 104.777 203.333 104.078 203.333C103.379 203.333 102.83 202.734 102.88 202.035C102.88 201.286 103.529 200.737 104.228 200.837Z" fill="url(#paint36_linear_8688_210)"/>
<path d="M104.927 195.843C105.626 195.993 106.025 196.642 105.926 197.34C105.826 197.989 105.177 198.439 104.478 198.389C103.779 198.339 103.33 197.64 103.429 196.891C103.529 196.142 104.228 195.743 104.927 195.893V195.843Z" fill="url(#paint37_linear_8688_210)"/>
<path d="M106.425 190.999C107.074 191.249 107.423 191.998 107.174 192.597C106.924 193.246 106.225 193.595 105.576 193.396C104.877 193.196 104.528 192.447 104.777 191.798C105.027 191.099 105.776 190.75 106.425 190.999Z" fill="url(#paint38_linear_8688_210)"/>
<path d="M108.571 186.358C109.17 186.707 109.37 187.456 109.12 188.055C108.82 188.654 108.072 188.904 107.423 188.604C106.774 188.305 106.524 187.556 106.824 186.857C107.123 186.208 107.922 185.958 108.571 186.308V186.358Z" fill="url(#paint39_linear_8688_210)"/>
<path d="M111.367 182.165C111.916 182.614 112.066 183.363 111.617 183.912C111.218 184.461 110.419 184.561 109.87 184.211C109.271 183.812 109.121 183.013 109.57 182.414C110.019 181.815 110.818 181.715 111.367 182.115V182.165Z" fill="url(#paint40_linear_8688_210)"/>
<path d="M114.762 178.368C115.261 178.867 115.211 179.616 114.762 180.165C114.313 180.664 113.514 180.664 113.015 180.215C112.465 179.766 112.465 178.917 112.965 178.368C113.464 177.819 114.313 177.869 114.762 178.368Z" fill="url(#paint41_linear_8688_210)"/>
<path d="M118.655 175.126C119.055 175.675 118.955 176.474 118.406 176.873C117.856 177.272 117.058 177.173 116.608 176.623C116.159 176.074 116.259 175.275 116.858 174.826C117.457 174.377 118.256 174.477 118.655 175.076V175.126Z" fill="url(#paint42_linear_8688_210)"/>
<path d="M122.999 172.479C123.348 173.128 123.049 173.827 122.5 174.176C121.951 174.526 121.152 174.326 120.802 173.727C120.453 173.128 120.653 172.329 121.252 171.98C121.851 171.58 122.699 171.88 122.999 172.479Z" fill="url(#paint43_linear_8688_210)"/>
<path d="M127.641 170.482C127.841 171.131 127.542 171.88 126.893 172.13C126.244 172.379 125.545 172.03 125.245 171.381C124.946 170.732 125.245 169.983 125.994 169.733C126.693 169.484 127.442 169.833 127.641 170.482Z" fill="url(#paint44_linear_8688_210)"/>
<path d="M132.585 169.232C132.735 169.931 132.236 170.53 131.637 170.73C130.988 170.88 130.289 170.48 130.139 169.781C129.939 169.083 130.389 168.384 131.088 168.234C131.786 168.034 132.485 168.533 132.585 169.232Z" fill="url(#paint45_linear_8688_210)"/>
<path d="M137.627 168.686C137.627 169.385 137.127 169.984 136.429 170.034C135.78 170.034 135.131 169.535 135.081 168.836C134.981 168.137 135.53 167.488 136.279 167.488C137.028 167.488 137.627 167.988 137.627 168.686Z" fill="url(#paint46_linear_8688_210)"/>
<path d="M142.669 168.834C142.57 169.532 141.97 170.032 141.321 170.032C140.672 170.032 140.123 169.383 140.123 168.684C140.123 167.985 140.772 167.436 141.471 167.486C142.22 167.486 142.719 168.135 142.669 168.834Z" fill="url(#paint47_linear_8688_210)"/>
<path d="M147.662 169.781C147.462 170.48 146.813 170.88 146.164 170.73C145.515 170.53 145.066 169.931 145.215 169.232C145.315 168.533 146.014 168.034 146.713 168.234C147.412 168.434 147.861 169.132 147.662 169.781Z" fill="url(#paint48_linear_8688_210)"/>
<path d="M152.505 171.381C152.255 172.03 151.506 172.379 150.857 172.13C150.208 171.88 149.909 171.181 150.108 170.482C150.308 169.833 151.057 169.484 151.756 169.733C152.455 169.983 152.754 170.682 152.505 171.381Z" fill="url(#paint49_linear_8688_210)"/>
<path d="M156.997 173.727C156.648 174.326 155.849 174.526 155.3 174.176C154.751 173.827 154.451 173.128 154.801 172.479C155.1 171.88 155.949 171.58 156.548 171.98C157.197 172.379 157.397 173.128 156.997 173.727Z" fill="url(#paint50_linear_8688_210)"/>
<path d="M161.141 176.671C160.691 177.17 159.893 177.32 159.343 176.921C158.794 176.521 158.694 175.722 159.094 175.173C159.493 174.624 160.292 174.474 160.891 174.924C161.49 175.373 161.59 176.172 161.141 176.721V176.671Z" fill="url(#paint51_linear_8688_210)"/>
<path d="M164.735 180.215C164.186 180.664 163.437 180.664 162.988 180.165C162.539 179.666 162.539 178.917 162.988 178.368C163.487 177.869 164.336 177.819 164.785 178.368C165.285 178.917 165.235 179.716 164.735 180.215Z" fill="url(#paint52_linear_8688_210)"/>
<path d="M167.881 184.212C167.282 184.612 166.533 184.462 166.134 183.913C165.734 183.364 165.834 182.565 166.383 182.166C166.933 181.716 167.731 181.866 168.181 182.465C168.63 183.064 168.48 183.863 167.881 184.262V184.212Z" fill="url(#paint53_linear_8688_210)"/>
<path d="M170.327 188.653C169.678 188.953 168.929 188.653 168.63 188.104C168.38 187.505 168.58 186.756 169.179 186.407C169.778 186.057 170.627 186.257 170.926 186.956C171.226 187.605 170.976 188.404 170.327 188.703V188.653Z" fill="url(#paint54_linear_8688_210)"/>
<path d="M172.174 193.396C171.525 193.595 170.826 193.246 170.576 192.597C170.327 191.948 170.676 191.249 171.325 190.999C171.974 190.75 172.723 191.099 172.973 191.798C173.222 192.497 172.873 193.196 172.174 193.396Z" fill="url(#paint55_linear_8688_210)"/>
<path d="M173.273 198.34C172.574 198.439 171.925 197.99 171.825 197.291C171.725 196.642 172.124 195.993 172.823 195.793C173.522 195.644 174.221 196.093 174.321 196.792C174.421 197.491 173.971 198.19 173.273 198.29V198.34Z" fill="url(#paint56_linear_8688_210)"/>
<path d="M173.672 203.382C172.973 203.382 172.374 202.833 172.324 202.184C172.324 201.535 172.823 200.936 173.522 200.886C174.221 200.836 174.82 201.385 174.87 202.084C174.87 202.833 174.371 203.382 173.672 203.382Z" fill="url(#paint57_linear_8688_210)"/>
</g>
<g style="mix-blend-mode:multiply" opacity="0.85">
<path d="M173.272 208.475C172.573 208.375 172.074 207.726 172.224 207.077C172.324 206.428 172.873 205.879 173.572 205.929C174.271 205.929 174.82 206.628 174.77 207.327C174.67 208.026 174.021 208.575 173.322 208.425L173.272 208.475Z" fill="url(#paint58_linear_8688_210)"/>
<path d="M172.175 213.415C171.526 213.216 171.076 212.517 171.276 211.868C171.426 211.219 172.125 210.819 172.824 210.969C173.523 211.119 173.922 211.818 173.722 212.517C173.523 213.216 172.824 213.615 172.175 213.415Z" fill="url(#paint59_linear_8688_210)"/>
<path d="M170.327 218.158C169.678 217.858 169.428 217.109 169.728 216.51C169.977 215.861 170.676 215.562 171.325 215.811C171.974 216.061 172.324 216.81 172.074 217.509C171.775 218.158 170.976 218.457 170.377 218.158H170.327Z" fill="url(#paint60_linear_8688_210)"/>
<path d="M167.881 222.604C167.281 222.204 167.132 221.406 167.431 220.856C167.731 220.307 168.58 220.108 169.179 220.457C169.778 220.807 169.977 221.555 169.628 222.204C169.229 222.853 168.48 223.003 167.881 222.604Z" fill="url(#paint61_linear_8688_210)"/>
<path d="M164.736 226.596C164.236 226.146 164.137 225.348 164.636 224.848C165.085 224.349 165.834 224.249 166.383 224.649C166.932 225.048 167.032 225.897 166.583 226.446C166.084 226.995 165.285 227.045 164.736 226.596Z" fill="url(#paint62_linear_8688_210)"/>
<path d="M161.141 230.139C160.691 229.59 160.741 228.791 161.24 228.342C161.74 227.893 162.538 227.943 163.038 228.442C163.537 228.941 163.487 229.74 162.938 230.239C162.389 230.739 161.59 230.689 161.141 230.139Z" fill="url(#paint63_linear_8688_210)"/>
<path d="M156.997 233.037C156.648 232.438 156.798 231.689 157.397 231.34C157.946 230.99 158.695 231.09 159.144 231.639C159.544 232.188 159.444 233.037 158.795 233.436C158.146 233.836 157.347 233.636 156.997 233.037Z" fill="url(#paint64_linear_8688_210)"/>
<path d="M152.504 235.431C152.254 234.782 152.504 234.033 153.103 233.734C153.702 233.434 154.451 233.734 154.801 234.333C155.15 234.932 154.85 235.731 154.201 236.03C153.552 236.33 152.804 236.03 152.504 235.431Z" fill="url(#paint65_linear_8688_210)"/>
<path d="M147.662 237.031C147.512 236.332 147.862 235.683 148.511 235.483C149.16 235.333 149.859 235.633 150.058 236.282C150.308 236.931 149.909 237.73 149.21 237.929C148.511 238.129 147.762 237.73 147.612 237.031H147.662Z" fill="url(#paint66_linear_8688_210)"/>
<path d="M142.67 237.979C142.62 237.28 143.069 236.631 143.718 236.531C144.367 236.431 145.016 236.931 145.166 237.58C145.316 238.279 144.817 238.928 144.118 239.027C143.419 239.127 142.77 238.678 142.67 237.979Z" fill="url(#paint67_linear_8688_210)"/>
<path d="M137.626 238.128C137.626 237.429 138.226 236.88 138.875 236.93C139.524 236.93 140.123 237.429 140.123 238.128C140.123 238.827 139.573 239.426 138.875 239.476C138.126 239.476 137.577 238.827 137.626 238.128Z" fill="url(#paint68_linear_8688_210)"/>
<path d="M132.585 237.581C132.734 236.882 133.383 236.433 134.032 236.532C134.681 236.632 135.181 237.281 135.081 237.98C134.981 238.679 134.382 239.178 133.633 239.029C132.934 238.929 132.435 238.28 132.585 237.581Z" fill="url(#paint69_linear_8688_210)"/>
<path d="M127.642 236.28C127.892 235.581 128.541 235.282 129.19 235.482C129.839 235.631 130.238 236.33 130.038 237.029C129.889 237.728 129.14 238.128 128.441 237.928C127.742 237.728 127.392 236.979 127.592 236.28H127.642Z" fill="url(#paint70_linear_8688_210)"/>
<path d="M122.999 234.333C123.348 233.734 124.097 233.434 124.696 233.734C125.295 234.033 125.595 234.782 125.295 235.431C125.046 236.08 124.247 236.33 123.598 236.03C122.949 235.731 122.649 234.932 122.999 234.333Z" fill="url(#paint71_linear_8688_210)"/>
<path d="M118.656 231.635C119.055 231.036 119.804 230.936 120.403 231.335C120.952 231.685 121.152 232.434 120.802 233.033C120.453 233.632 119.654 233.832 119.005 233.432C118.406 233.033 118.256 232.184 118.656 231.635Z" fill="url(#paint72_linear_8688_210)"/>
<path d="M114.762 228.394C115.261 227.895 116.06 227.845 116.559 228.294C117.059 228.744 117.109 229.542 116.659 230.092C116.21 230.641 115.411 230.691 114.862 230.191C114.313 229.692 114.263 228.893 114.762 228.394Z" fill="url(#paint73_linear_8688_210)"/>
<path d="M111.367 224.647C111.917 224.198 112.715 224.298 113.115 224.847C113.564 225.346 113.514 226.145 113.015 226.594C112.516 227.044 111.667 226.994 111.168 226.444C110.718 225.895 110.818 225.047 111.367 224.647Z" fill="url(#paint74_linear_8688_210)"/>
<path d="M108.572 220.402C109.171 220.053 109.97 220.253 110.319 220.802C110.668 221.351 110.469 222.15 109.87 222.549C109.271 222.948 108.522 222.749 108.122 222.15C107.723 221.551 107.923 220.752 108.572 220.402Z" fill="url(#paint75_linear_8688_210)"/>
<path d="M106.425 215.811C107.074 215.562 107.772 215.861 108.022 216.51C108.322 217.109 108.022 217.858 107.423 218.158C106.774 218.457 106.025 218.158 105.726 217.509C105.476 216.81 105.776 216.061 106.474 215.811H106.425Z" fill="url(#paint76_linear_8688_210)"/>
<path d="M104.926 210.969C105.625 210.819 106.324 211.219 106.474 211.868C106.624 212.517 106.224 213.216 105.575 213.415C104.926 213.615 104.228 213.216 104.028 212.517C103.828 211.818 104.277 211.119 104.926 210.969Z" fill="url(#paint77_linear_8688_210)"/>
<path d="M104.228 205.926C104.926 205.926 105.476 206.375 105.575 207.074C105.675 207.723 105.176 208.372 104.527 208.472C103.828 208.572 103.179 208.072 103.079 207.374C102.979 206.625 103.579 206.026 104.277 205.976L104.228 205.926Z" fill="url(#paint78_linear_8688_210)"/>
<path d="M104.228 200.837C104.927 200.887 105.476 201.486 105.426 202.135C105.426 202.784 104.777 203.333 104.078 203.333C103.379 203.333 102.83 202.734 102.88 202.035C102.88 201.286 103.529 200.737 104.228 200.837Z" fill="url(#paint79_linear_8688_210)"/>
<path d="M104.927 195.843C105.626 195.993 106.025 196.642 105.926 197.34C105.826 197.989 105.177 198.439 104.478 198.389C103.779 198.339 103.33 197.64 103.429 196.891C103.529 196.142 104.228 195.743 104.927 195.893V195.843Z" fill="url(#paint80_linear_8688_210)"/>
<path d="M106.425 190.999C107.074 191.249 107.423 191.998 107.174 192.597C106.924 193.246 106.225 193.595 105.576 193.396C104.877 193.196 104.528 192.447 104.777 191.798C105.027 191.099 105.776 190.75 106.425 190.999Z" fill="url(#paint81_linear_8688_210)"/>
<path d="M108.571 186.358C109.17 186.707 109.37 187.456 109.12 188.055C108.82 188.654 108.072 188.904 107.423 188.604C106.774 188.305 106.524 187.556 106.824 186.857C107.123 186.208 107.922 185.958 108.571 186.308V186.358Z" fill="url(#paint82_linear_8688_210)"/>
<path d="M111.367 182.165C111.916 182.614 112.066 183.363 111.617 183.912C111.218 184.461 110.419 184.561 109.87 184.211C109.271 183.812 109.121 183.013 109.57 182.414C110.019 181.815 110.818 181.715 111.367 182.115V182.165Z" fill="url(#paint83_linear_8688_210)"/>
<path d="M114.762 178.368C115.261 178.867 115.211 179.616 114.762 180.165C114.313 180.664 113.514 180.664 113.015 180.215C112.465 179.766 112.465 178.917 112.965 178.368C113.464 177.819 114.313 177.869 114.762 178.368Z" fill="url(#paint84_linear_8688_210)"/>
<path d="M118.655 175.126C119.055 175.675 118.955 176.474 118.406 176.873C117.856 177.272 117.058 177.173 116.608 176.623C116.159 176.074 116.259 175.275 116.858 174.826C117.457 174.377 118.256 174.477 118.655 175.076V175.126Z" fill="url(#paint85_linear_8688_210)"/>
<path d="M122.999 172.479C123.348 173.128 123.049 173.827 122.5 174.176C121.951 174.526 121.152 174.326 120.802 173.727C120.453 173.128 120.653 172.329 121.252 171.98C121.851 171.58 122.699 171.88 122.999 172.479Z" fill="url(#paint86_linear_8688_210)"/>
<path d="M127.641 170.482C127.841 171.131 127.542 171.88 126.893 172.13C126.244 172.379 125.545 172.03 125.245 171.381C124.946 170.732 125.245 169.983 125.994 169.733C126.693 169.484 127.442 169.833 127.641 170.482Z" fill="url(#paint87_linear_8688_210)"/>
<path d="M132.585 169.232C132.735 169.931 132.236 170.53 131.637 170.73C130.988 170.88 130.289 170.48 130.139 169.781C129.939 169.083 130.389 168.384 131.088 168.234C131.786 168.034 132.485 168.533 132.585 169.232Z" fill="url(#paint88_linear_8688_210)"/>
<path d="M137.627 168.686C137.627 169.385 137.127 169.984 136.429 170.034C135.78 170.034 135.131 169.535 135.081 168.836C134.981 168.137 135.53 167.488 136.279 167.488C137.028 167.488 137.627 167.988 137.627 168.686Z" fill="url(#paint89_linear_8688_210)"/>
<path d="M142.669 168.834C142.57 169.532 141.97 170.032 141.321 170.032C140.672 170.032 140.123 169.383 140.123 168.684C140.123 167.985 140.772 167.436 141.471 167.486C142.22 167.486 142.719 168.135 142.669 168.834Z" fill="url(#paint90_linear_8688_210)"/>
<path d="M147.662 169.781C147.462 170.48 146.813 170.88 146.164 170.73C145.515 170.53 145.066 169.931 145.215 169.232C145.315 168.533 146.014 168.034 146.713 168.234C147.412 168.434 147.861 169.132 147.662 169.781Z" fill="url(#paint91_linear_8688_210)"/>
<path d="M152.505 171.381C152.255 172.03 151.506 172.379 150.857 172.13C150.208 171.88 149.909 171.181 150.108 170.482C150.308 169.833 151.057 169.484 151.756 169.733C152.455 169.983 152.754 170.682 152.505 171.381Z" fill="url(#paint92_linear_8688_210)"/>
<path d="M156.997 173.727C156.648 174.326 155.849 174.526 155.3 174.176C154.751 173.827 154.451 173.128 154.801 172.479C155.1 171.88 155.949 171.58 156.548 171.98C157.197 172.379 157.397 173.128 156.997 173.727Z" fill="url(#paint93_linear_8688_210)"/>
<path d="M161.141 176.671C160.691 177.17 159.893 177.32 159.343 176.921C158.794 176.521 158.694 175.722 159.094 175.173C159.493 174.624 160.292 174.474 160.891 174.924C161.49 175.373 161.59 176.172 161.141 176.721V176.671Z" fill="url(#paint94_linear_8688_210)"/>
<path d="M164.735 180.215C164.186 180.664 163.437 180.664 162.988 180.165C162.539 179.666 162.539 178.917 162.988 178.368C163.487 177.869 164.336 177.819 164.785 178.368C165.285 178.917 165.235 179.716 164.735 180.215Z" fill="url(#paint95_linear_8688_210)"/>
<path d="M167.881 184.212C167.282 184.612 166.533 184.462 166.134 183.913C165.734 183.364 165.834 182.565 166.383 182.166C166.933 181.716 167.731 181.866 168.181 182.465C168.63 183.064 168.48 183.863 167.881 184.262V184.212Z" fill="url(#paint96_linear_8688_210)"/>
<path d="M170.327 188.653C169.678 188.953 168.929 188.653 168.63 188.104C168.38 187.505 168.58 186.756 169.179 186.407C169.778 186.057 170.627 186.257 170.926 186.956C171.226 187.605 170.976 188.404 170.327 188.703V188.653Z" fill="url(#paint97_linear_8688_210)"/>
<path d="M172.174 193.396C171.525 193.595 170.826 193.246 170.576 192.597C170.327 191.948 170.676 191.249 171.325 190.999C171.974 190.75 172.723 191.099 172.973 191.798C173.222 192.497 172.873 193.196 172.174 193.396Z" fill="url(#paint98_linear_8688_210)"/>
<path d="M173.273 198.34C172.574 198.439 171.925 197.99 171.825 197.291C171.725 196.642 172.124 195.993 172.823 195.793C173.522 195.644 174.221 196.093 174.321 196.792C174.421 197.491 173.971 198.19 173.273 198.29V198.34Z" fill="url(#paint99_linear_8688_210)"/>
<path d="M173.672 203.382C172.973 203.382 172.374 202.833 172.324 202.184C172.324 201.535 172.823 200.936 173.522 200.886C174.221 200.836 174.82 201.385 174.87 202.084C174.87 202.833 174.371 203.382 173.672 203.382Z" fill="url(#paint100_linear_8688_210)"/>
</g>
</g>
<path opacity="0.75" d="M138.875 161.246C115.611 161.246 96.74 180.117 96.74 203.382C96.74 226.646 115.611 245.517 138.875 245.517C162.14 245.517 181.011 226.646 181.011 203.382C181.011 180.117 162.14 161.246 138.875 161.246ZM138.875 242.821C117.109 242.821 99.4858 225.198 99.4858 203.432C99.4858 181.665 117.109 164.042 138.875 164.042C160.642 164.042 178.265 181.665 178.265 203.432C178.265 225.198 160.642 242.821 138.875 242.821Z" fill="url(#paint101_linear_8688_210)" style="mix-blend-mode:multiply"/>
<mask id="mask1_8688_210" style="mask-type:luminance" maskUnits="userSpaceOnUse" x="130" y="145" width="68" height="47">
<path d="M171.924 153.607C189.996 162.993 201.129 177.421 196.786 185.758C192.443 194.095 174.271 193.246 156.198 183.861C138.126 174.475 126.993 160.047 131.336 151.71C135.68 143.373 153.852 144.221 171.924 153.657V153.607Z" fill="url(#paint102_radial_8688_210)" style="mix-blend-mode:multiply"/>
</mask>
<g mask="url(#mask1_8688_210)">
<path d="M171.924 153.607C189.996 162.993 201.129 177.421 196.786 185.758C192.443 194.095 174.271 193.246 156.198 183.861C138.126 174.475 126.993 160.047 131.336 151.71C135.68 143.373 153.852 144.221 171.924 153.657V153.607Z" fill="url(#paint103_radial_8688_210)" style="mix-blend-mode:screen"/>
</g>
<mask id="mask2_8688_210" style="mask-type:luminance" maskUnits="userSpaceOnUse" x="151" y="155" width="26" height="27">
<path d="M175.419 174.577C172.174 180.867 164.436 183.413 158.195 180.168C151.905 176.923 149.458 169.235 152.704 162.895C155.949 156.604 163.687 154.058 169.927 157.303C176.168 160.548 178.664 168.236 175.419 174.577Z" fill="url(#paint104_radial_8688_210)"/>
</mask>
<g mask="url(#mask2_8688_210)">
<path d="M175.419 174.577C172.174 180.867 164.436 183.413 158.195 180.168C151.905 176.923 149.458 169.235 152.704 162.895C155.949 156.604 163.687 154.058 169.927 157.303C176.168 160.548 178.664 168.236 175.419 174.577Z" fill="url(#paint105_radial_8688_210)" style="mix-blend-mode:screen"/>
</g>
<mask id="mask3_8688_210" style="mask-type:luminance" maskUnits="userSpaceOnUse" x="92" y="220" width="38" height="30">
<path d="M116.509 225.896C126.195 231.937 131.436 241.023 128.241 246.265C124.996 251.507 114.512 250.808 104.777 244.818C95.0921 238.777 89.8501 229.691 93.0452 224.449C96.2903 219.207 106.774 219.906 116.509 225.896Z" fill="url(#paint106_radial_8688_210)" style="mix-blend-mode:multiply"/>
</mask>
<g mask="url(#mask3_8688_210)">
<path d="M116.509 225.896C126.195 231.937 131.436 241.023 128.241 246.265C124.996 251.507 114.512 250.808 104.777 244.818C95.0921 238.777 89.8501 229.691 93.0452 224.449C96.2903 219.207 106.774 219.906 116.509 225.896Z" fill="url(#paint107_radial_8688_210)" style="mix-blend-mode:screen"/>
</g>
<path d="M149.509 200.486V200.286C152.404 199.188 153.652 196.243 153.652 192.898C153.652 187.905 148.909 183.762 140.472 183.762C132.035 183.762 126.843 187.905 126.843 192.948V193.247C126.843 193.247 126.793 193.597 126.793 193.796V194.945H136.029C136.029 193.048 138.026 191.999 139.174 191.999C141.82 191.999 142.669 193.197 142.669 195.094C142.669 197.341 141.221 197.391 139.474 197.391H136.828V204.48H140.173C141.97 204.48 143.418 205.129 143.418 207.376C143.418 209.822 142.17 210.571 138.625 210.571C136.429 210.571 135.33 208.724 135.33 206.677H125.745V207.875V208.923C125.745 214.215 130.288 218.558 140.223 218.558C150.158 218.558 154.351 214.215 154.601 208.873C154.601 204.78 153.203 201.734 149.459 200.586L149.509 200.486Z" fill="url(#paint108_linear_8688_210)"/>
<path d="M152.703 193.395C152.703 196.59 150.806 199.386 148.11 200.385V200.584C151.605 201.683 153.652 204.528 153.652 208.422C153.402 213.465 149.408 217.558 140.322 217.558C131.236 217.558 126.843 213.464 126.843 208.472V207.524H134.93C134.93 209.57 136.029 211.318 139.723 211.318C143.417 211.318 144.516 209.521 144.516 207.074C144.516 204.828 143.068 203.779 141.321 203.779H137.976V198.138H140.622C142.419 198.138 143.817 197.09 143.817 194.843C143.817 192.946 142.369 191.199 139.773 191.199C137.027 191.199 135.579 192.796 135.579 194.693H127.891V193.545C127.891 188.802 132.434 184.908 140.522 184.908C148.609 184.908 152.753 188.802 152.753 193.495L152.703 193.395Z" fill="url(#paint109_linear_8688_210)"/>
</g>
<path opacity="0.55" d="M171.375 158.848C172.673 152.608 172.773 143.821 166.532 137.381L168.13 134.885L223.445 47.8181L216.606 43.6745V43.5746L195.788 30.9939V31.0937L188.898 27H91.597V27.1498L91.5471 27L84.9073 30.9939L81.7122 32.9409L57 47.8181L112.765 135.634C104.427 142.224 104.577 152.258 106.025 159.098C92.4957 169.132 83.7091 185.208 83.7091 203.38C83.7091 233.833 108.421 258.546 138.875 258.546C169.328 258.546 194.04 233.833 194.04 203.38C194.04 185.058 185.104 168.883 171.375 158.848ZM122.949 63.4442H168.13L140.223 112.519L112.315 63.4442H122.949ZM114.063 154.155C113.763 150.461 114.512 146.767 118.057 143.971L120.303 147.516H160.092L161.191 145.818C163.088 148.264 163.537 151.11 163.337 153.956C155.949 150.311 147.711 148.214 138.925 148.214C130.138 148.214 121.601 150.361 114.113 154.155H114.063Z" fill="url(#paint110_radial_8688_210)" style="mix-blend-mode:overlay"/>
<path d="M305.764 90.6392C303.321 90.6297 301.219 90.0284 299.457 88.8352C297.705 87.642 296.356 85.9138 295.409 83.6506C294.472 81.3873 294.008 78.6648 294.017 75.483C294.017 72.3106 294.486 69.607 295.423 67.3722C296.37 65.1373 297.72 63.4375 299.472 62.2727C301.233 61.0985 303.33 60.5114 305.764 60.5114C308.198 60.5114 310.291 61.0985 312.043 62.2727C313.804 63.447 315.158 65.1515 316.105 67.3864C317.052 69.6117 317.521 72.3106 317.511 75.483C317.511 78.6742 317.038 81.4015 316.091 83.6648C315.153 85.928 313.809 87.6562 312.057 88.8494C310.305 90.0426 308.207 90.6392 305.764 90.6392ZM305.764 85.5398C307.431 85.5398 308.761 84.7017 309.756 83.0256C310.75 81.3494 311.242 78.8352 311.233 75.483C311.233 73.2765 311.006 71.4394 310.551 69.9716C310.106 68.5038 309.472 67.4006 308.648 66.6619C307.833 65.9233 306.872 65.554 305.764 65.554C304.107 65.554 302.781 66.3826 301.787 68.0398C300.793 69.697 300.291 72.178 300.281 75.483C300.281 77.7178 300.504 79.5833 300.949 81.0795C301.403 82.5663 302.043 83.6837 302.866 84.4318C303.69 85.1705 304.656 85.5398 305.764 85.5398ZM332.65 90.3977C330.529 90.3977 328.639 90.0331 326.982 89.304C325.335 88.5653 324.032 87.5521 323.076 86.2642C322.129 84.9669 321.641 83.4706 321.613 81.7756H327.806C327.844 82.4858 328.076 83.1108 328.502 83.6506C328.938 84.1809 329.515 84.5928 330.235 84.8864C330.955 85.1799 331.764 85.3267 332.664 85.3267C333.602 85.3267 334.43 85.161 335.15 84.8295C335.87 84.4981 336.433 84.0388 336.84 83.4517C337.247 82.8646 337.451 82.1875 337.451 81.4205C337.451 80.6439 337.233 79.9574 336.798 79.3608C336.371 78.7547 335.756 78.2812 334.951 77.9403C334.156 77.5994 333.209 77.429 332.11 77.429H329.397V72.9119H332.11C333.038 72.9119 333.857 72.7509 334.567 72.429C335.287 72.107 335.846 71.6619 336.244 71.0938C336.641 70.5161 336.84 69.8438 336.84 69.0767C336.84 68.3475 336.665 67.7083 336.315 67.1591C335.974 66.6004 335.491 66.1648 334.866 65.8523C334.25 65.5398 333.531 65.3835 332.707 65.3835C331.873 65.3835 331.111 65.535 330.42 65.8381C329.728 66.1316 329.174 66.553 328.758 67.1023C328.341 67.6515 328.119 68.2955 328.09 69.0341H322.195C322.224 67.358 322.702 65.8807 323.63 64.6023C324.558 63.3239 325.808 62.3248 327.38 61.6051C328.961 60.8759 330.746 60.5114 332.735 60.5114C334.743 60.5114 336.499 60.8759 338.005 61.6051C339.511 62.3343 340.68 63.3191 341.513 64.5597C342.356 65.7907 342.773 67.1733 342.763 68.7074C342.773 70.3362 342.266 71.6951 341.244 72.7841C340.23 73.8731 338.909 74.5644 337.281 74.858V75.0852C339.421 75.3598 341.049 76.1032 342.167 77.3153C343.294 78.518 343.853 80.0237 343.843 81.8324C343.853 83.4896 343.374 84.9621 342.408 86.25C341.452 87.5379 340.131 88.5511 338.445 89.2898C336.76 90.0284 334.828 90.3977 332.65 90.3977ZM376.982 70.3125C376.783 69.6212 376.504 69.0104 376.144 68.4801C375.784 67.9403 375.344 67.4858 374.823 67.1165C374.312 66.7377 373.725 66.4489 373.062 66.25C372.408 66.0511 371.684 65.9517 370.888 65.9517C369.402 65.9517 368.095 66.321 366.968 67.0597C365.851 67.7983 364.979 68.8731 364.354 70.2841C363.729 71.6856 363.417 73.3996 363.417 75.4261C363.417 77.4527 363.725 79.1761 364.34 80.5966C364.956 82.017 365.827 83.1013 366.954 83.8494C368.081 84.5881 369.411 84.9574 370.945 84.9574C372.337 84.9574 373.526 84.7112 374.511 84.2188C375.505 83.7169 376.263 83.0114 376.783 82.1023C377.314 81.1932 377.579 80.1184 377.579 78.8778L378.829 79.0625H371.329V74.4318H383.502V78.0966C383.502 80.6534 382.962 82.8504 381.883 84.6875C380.803 86.5152 379.317 87.9261 377.423 88.9205C375.529 89.9053 373.36 90.3977 370.917 90.3977C368.19 90.3977 365.794 89.7964 363.729 88.5938C361.665 87.3816 360.055 85.6629 358.9 83.4375C357.754 81.2027 357.181 78.5511 357.181 75.483C357.181 73.125 357.522 71.0227 358.204 69.1761C358.895 67.3201 359.861 65.7481 361.102 64.4602C362.342 63.1723 363.786 62.1922 365.434 61.5199C367.082 60.8475 368.867 60.5114 370.789 60.5114C372.437 60.5114 373.971 60.7528 375.391 61.2358C376.812 61.7093 378.071 62.3816 379.17 63.2528C380.278 64.1241 381.182 65.161 381.883 66.3636C382.584 67.5568 383.033 68.8731 383.232 70.3125H376.982ZM389.376 90V68.1818H395.427V90H389.376ZM392.415 65.3693C391.516 65.3693 390.744 65.071 390.1 64.4744C389.466 63.8684 389.148 63.1439 389.148 62.3011C389.148 61.4678 389.466 60.7528 390.1 60.1562C390.744 59.5502 391.516 59.2472 392.415 59.2472C393.315 59.2472 394.082 59.5502 394.717 60.1562C395.361 60.7528 395.683 61.4678 395.683 62.3011C395.683 63.1439 395.361 63.8684 394.717 64.4744C394.082 65.071 393.315 65.3693 392.415 65.3693ZM406.496 90.4119C405.104 90.4119 403.863 90.1705 402.774 89.6875C401.685 89.1951 400.823 88.4706 400.189 87.5142C399.564 86.5483 399.251 85.3456 399.251 83.9062C399.251 82.6941 399.474 81.6761 399.919 80.8523C400.364 80.0284 400.97 79.3655 401.737 78.8636C402.504 78.3617 403.375 77.983 404.351 77.7273C405.336 77.4716 406.368 77.2917 407.447 77.1875C408.716 77.0549 409.739 76.9318 410.516 76.8182C411.292 76.6951 411.856 76.5152 412.206 76.2784C412.556 76.0417 412.732 75.6913 412.732 75.2273V75.142C412.732 74.2424 412.447 73.5464 411.879 73.054C411.321 72.5616 410.525 72.3153 409.493 72.3153C408.404 72.3153 407.537 72.5568 406.893 73.0398C406.25 73.5133 405.823 74.1098 405.615 74.8295L400.018 74.375C400.303 73.0492 400.861 71.9034 401.695 70.9375C402.528 69.9621 403.603 69.214 404.919 68.6932C406.245 68.1629 407.779 67.8977 409.521 67.8977C410.733 67.8977 411.893 68.0398 413.001 68.3239C414.119 68.608 415.108 69.0483 415.97 69.6449C416.841 70.2415 417.528 71.0085 418.03 71.946C418.532 72.8741 418.783 73.9867 418.783 75.2841V90H413.044V86.9744H412.874C412.523 87.6562 412.054 88.2576 411.467 88.7784C410.88 89.2898 410.175 89.6922 409.351 89.9858C408.527 90.2699 407.575 90.4119 406.496 90.4119ZM408.229 86.2358C409.119 86.2358 409.905 86.0606 410.587 85.7102C411.268 85.3504 411.804 84.8674 412.192 84.2614C412.58 83.6553 412.774 82.9687 412.774 82.2017V79.8864C412.585 80.0095 412.324 80.1231 411.993 80.2273C411.671 80.322 411.306 80.4119 410.899 80.4972C410.492 80.5729 410.085 80.6439 409.678 80.7102C409.27 80.767 408.901 80.8191 408.57 80.8665C407.859 80.9706 407.239 81.1364 406.709 81.3636C406.179 81.5909 405.767 81.8987 405.473 82.2869C405.179 82.6657 405.033 83.1392 405.033 83.7074C405.033 84.5312 405.331 85.161 405.928 85.5966C406.534 86.0227 407.301 86.2358 408.229 86.2358ZM411.979 65.0568H407.49L407.178 62.5C408.181 62.4527 408.896 62.3201 409.322 62.1023C409.749 61.875 409.957 61.5767 409.947 61.2074C409.957 60.696 409.687 60.3504 409.138 60.1705C408.598 59.9905 407.921 59.9006 407.107 59.9006L407.263 57.1591C409.791 57.1591 411.714 57.5 413.03 58.1818C414.356 58.8636 415.014 59.8106 415.004 61.0227C415.014 61.8845 414.701 62.5379 414.067 62.983C413.442 63.4186 412.746 63.6932 411.979 63.8068V65.0568ZM423.477 90V68.1818H429.528V90H423.477ZM426.517 65.3693C425.617 65.3693 424.846 65.071 424.202 64.4744C423.567 63.8684 423.25 63.1439 423.25 62.3011C423.25 61.4678 423.567 60.7528 424.202 60.1562C424.846 59.5502 425.617 59.2472 426.517 59.2472C427.417 59.2472 428.184 59.5502 428.818 60.1562C429.462 60.7528 429.784 61.4678 429.784 62.3011C429.784 63.1439 429.462 63.8684 428.818 64.4744C428.184 65.071 427.417 65.3693 426.517 65.3693ZM294.528 132V102.909H300.679V115.736H301.062L311.531 102.909H318.903L308.108 115.935L319.031 132H311.673L303.705 120.04L300.679 123.733V132H294.528ZM328.044 119.386V132H321.993V102.909H327.874V114.031H328.129C328.622 112.743 329.417 111.735 330.516 111.006C331.614 110.267 332.992 109.898 334.649 109.898C336.164 109.898 337.485 110.229 338.612 110.892C339.749 111.545 340.629 112.488 341.254 113.719C341.889 114.94 342.201 116.403 342.192 118.108V132H336.141V119.188C336.15 117.843 335.809 116.796 335.118 116.048C334.436 115.3 333.48 114.926 332.249 114.926C331.425 114.926 330.696 115.101 330.061 115.452C329.436 115.802 328.944 116.313 328.584 116.986C328.233 117.649 328.054 118.449 328.044 119.386ZM360.945 122.71V110.182H366.996V132H361.187V128.037H360.96C360.467 129.315 359.648 130.343 358.502 131.119C357.366 131.896 355.978 132.284 354.34 132.284C352.882 132.284 351.599 131.953 350.491 131.29C349.383 130.627 348.516 129.685 347.891 128.463C347.276 127.241 346.963 125.778 346.954 124.074V110.182H353.005V122.994C353.014 124.282 353.36 125.3 354.042 126.048C354.724 126.796 355.638 127.17 356.783 127.17C357.513 127.17 358.194 127.005 358.829 126.673C359.463 126.332 359.975 125.83 360.363 125.168C360.761 124.505 360.955 123.686 360.945 122.71ZM375.572 140.182C374.805 140.182 374.086 140.12 373.413 139.997C372.75 139.884 372.201 139.737 371.766 139.557L373.129 135.04C373.839 135.258 374.479 135.376 375.047 135.395C375.625 135.414 376.122 135.281 376.538 134.997C376.964 134.713 377.31 134.23 377.575 133.548L377.93 132.625L370.104 110.182H376.467L380.984 126.205H381.212L385.771 110.182H392.178L383.697 134.358C383.29 135.532 382.736 136.555 382.036 137.426C381.344 138.307 380.468 138.984 379.408 139.457C378.347 139.94 377.069 140.182 375.572 140.182ZM404.514 132.426C402.27 132.426 400.338 131.972 398.719 131.062C397.109 130.144 395.868 128.847 394.997 127.17C394.126 125.485 393.69 123.491 393.69 121.19C393.69 118.946 394.126 116.976 394.997 115.281C395.868 113.586 397.095 112.265 398.676 111.318C400.267 110.371 402.133 109.898 404.273 109.898C405.712 109.898 407.052 110.13 408.293 110.594C409.543 111.048 410.632 111.735 411.56 112.653C412.497 113.572 413.226 114.727 413.747 116.119C414.268 117.502 414.528 119.121 414.528 120.977V122.639H396.105V118.889H408.832C408.832 118.018 408.643 117.246 408.264 116.574C407.885 115.902 407.36 115.376 406.688 114.997C406.025 114.609 405.253 114.415 404.372 114.415C403.454 114.415 402.639 114.628 401.929 115.054C401.228 115.471 400.679 116.034 400.281 116.744C399.884 117.445 399.68 118.226 399.67 119.088V122.653C399.67 123.733 399.869 124.666 400.267 125.452C400.674 126.238 401.247 126.844 401.986 127.27C402.724 127.696 403.6 127.909 404.614 127.909C405.286 127.909 405.902 127.814 406.46 127.625C407.019 127.436 407.497 127.152 407.895 126.773C408.293 126.394 408.596 125.93 408.804 125.381L414.401 125.75C414.116 127.095 413.534 128.269 412.653 129.273C411.782 130.267 410.655 131.044 409.273 131.602C407.9 132.152 406.313 132.426 404.514 132.426ZM396.744 107.795L402.469 103.378H405.736L411.489 107.795H407.128L404.131 105.409L401.091 107.795H396.744ZM409.997 105.295L413.321 99.9688H418.009L413.42 105.295H409.997ZM424.528 119.386V132H418.477V110.182H424.244V114.031H424.5C424.983 112.762 425.793 111.759 426.929 111.02C428.065 110.272 429.443 109.898 431.062 109.898C432.578 109.898 433.899 110.229 435.026 110.892C436.152 111.555 437.028 112.502 437.653 113.733C438.278 114.955 438.591 116.413 438.591 118.108V132H432.54V119.188C432.549 117.852 432.208 116.811 431.517 116.062C430.826 115.305 429.874 114.926 428.662 114.926C427.848 114.926 427.128 115.101 426.503 115.452C425.887 115.802 425.404 116.313 425.054 116.986C424.713 117.649 424.538 118.449 424.528 119.386ZM458.101 125.722L458.115 118.463H458.996L465.984 110.182H472.93L463.541 121.148H462.107L458.101 125.722ZM452.618 132V102.909H458.669V132H452.618ZM466.254 132L459.834 122.497L463.868 118.222L473.342 132H466.254ZM481.95 119.386V132H475.899V102.909H481.78V114.031H482.036C482.528 112.743 483.323 111.735 484.422 111.006C485.52 110.267 486.898 109.898 488.555 109.898C490.071 109.898 491.392 110.229 492.518 110.892C493.655 111.545 494.536 112.488 495.161 113.719C495.795 114.94 496.107 116.403 496.098 118.108V132H490.047V119.188C490.056 117.843 489.715 116.796 489.024 116.048C488.342 115.3 487.386 114.926 486.155 114.926C485.331 114.926 484.602 115.101 483.967 115.452C483.342 115.802 482.85 116.313 482.49 116.986C482.14 117.649 481.96 118.449 481.95 119.386ZM500.86 132V110.182H506.911V132H500.86ZM501.727 107.369L504.738 100.906H510.335L506.002 107.369H501.727ZM521.616 132.426C519.382 132.426 517.459 131.953 515.849 131.006C514.249 130.049 513.018 128.723 512.156 127.028C511.304 125.333 510.878 123.383 510.878 121.176C510.878 118.941 511.309 116.981 512.17 115.295C513.042 113.6 514.277 112.279 515.878 111.332C517.478 110.376 519.382 109.898 521.588 109.898C523.491 109.898 525.158 110.243 526.588 110.935C528.018 111.626 529.15 112.597 529.983 113.847C530.816 115.097 531.276 116.564 531.361 118.25H525.651C525.49 117.161 525.063 116.285 524.372 115.622C523.69 114.95 522.795 114.614 521.688 114.614C520.75 114.614 519.931 114.869 519.23 115.381C518.539 115.883 517.999 116.616 517.611 117.582C517.223 118.548 517.028 119.718 517.028 121.091C517.028 122.483 517.218 123.667 517.597 124.642C517.985 125.617 518.529 126.361 519.23 126.872C519.931 127.384 520.75 127.639 521.688 127.639C522.379 127.639 522.999 127.497 523.548 127.213C524.107 126.929 524.566 126.517 524.926 125.977C525.295 125.428 525.537 124.77 525.651 124.003H531.361C531.266 125.67 530.812 127.137 529.997 128.406C529.192 129.666 528.08 130.651 526.659 131.361C525.239 132.071 523.558 132.426 521.616 132.426ZM541.286 119.386V132H535.235V102.909H541.116V114.031H541.371C541.864 112.743 542.659 111.735 543.758 111.006C544.856 110.267 546.234 109.898 547.891 109.898C549.406 109.898 550.728 110.229 551.854 110.892C552.991 111.545 553.871 112.488 554.496 113.719C555.131 114.94 555.443 116.403 555.434 118.108V132H549.383V119.188C549.392 117.843 549.051 116.796 548.36 116.048C547.678 115.3 546.722 114.926 545.491 114.926C544.667 114.926 543.938 115.101 543.303 115.452C542.678 115.802 542.186 116.313 541.826 116.986C541.476 117.649 541.296 118.449 541.286 119.386Z" fill="#444444"/>
<path d="M308.768 179.636V216H301.08V186.934H300.866L292.539 192.154V185.336L301.541 179.636H308.768ZM331.668 216.799C328.614 216.787 325.986 216.036 323.785 214.544C321.595 213.053 319.908 210.892 318.724 208.063C317.552 205.234 316.972 201.831 316.984 197.854C316.984 193.888 317.57 190.509 318.742 187.715C319.926 184.922 321.613 182.797 323.802 181.341C326.004 179.873 328.626 179.139 331.668 179.139C334.71 179.139 337.326 179.873 339.516 181.341C341.718 182.809 343.411 184.939 344.594 187.733C345.778 190.515 346.364 193.888 346.352 197.854C346.352 201.843 345.76 205.252 344.577 208.081C343.405 210.91 341.724 213.07 339.534 214.562C337.344 216.053 334.722 216.799 331.668 216.799ZM331.668 210.425C333.751 210.425 335.415 209.377 336.657 207.282C337.9 205.187 338.516 202.044 338.504 197.854C338.504 195.096 338.22 192.799 337.652 190.964C337.095 189.13 336.302 187.751 335.273 186.827C334.255 185.904 333.053 185.442 331.668 185.442C329.597 185.442 327.939 186.478 326.697 188.55C325.454 190.621 324.826 193.723 324.814 197.854C324.814 200.647 325.093 202.979 325.649 204.849C326.217 206.708 327.016 208.105 328.046 209.04C329.076 209.963 330.283 210.425 331.668 210.425ZM350.662 185.975V179.636H380.527V185.975H369.395V216H361.795V185.975H350.662ZM382.472 216V188.727H389.805V193.486H390.089C390.586 191.793 391.42 190.515 392.592 189.651C393.764 188.775 395.114 188.337 396.641 188.337C397.019 188.337 397.428 188.36 397.866 188.408C398.304 188.455 398.688 188.52 399.02 188.603V195.315C398.665 195.208 398.174 195.113 397.546 195.031C396.919 194.948 396.345 194.906 395.824 194.906C394.711 194.906 393.717 195.149 392.841 195.634C391.977 196.108 391.29 196.771 390.781 197.623C390.284 198.475 390.036 199.458 390.036 200.57V216H382.472ZM421.214 179.636L430.004 207.264H430.341L439.148 179.636H447.67L435.135 216H425.227L412.674 179.636H421.214ZM482.463 179.636V216H475.822L460.002 193.113H459.735V216H452.047V179.636H458.794L474.49 202.506H474.81V179.636H482.463ZM501.705 216H488.815V179.636H501.812C505.47 179.636 508.618 180.364 511.258 181.82C513.898 183.264 515.928 185.342 517.348 188.053C518.78 190.763 519.497 194.007 519.497 197.783C519.497 201.571 518.78 204.826 517.348 207.548C515.928 210.271 513.886 212.36 511.222 213.816C508.571 215.272 505.399 216 501.705 216ZM496.503 209.413H501.386C503.659 209.413 505.57 209.01 507.121 208.205C508.683 207.388 509.855 206.128 510.637 204.423C511.43 202.707 511.826 200.493 511.826 197.783C511.826 195.096 511.43 192.9 510.637 191.195C509.855 189.491 508.689 188.236 507.139 187.431C505.588 186.626 503.676 186.224 501.404 186.224H496.503V209.413ZM538.886 177.932L527.167 221.469H520.651L532.369 177.932H538.886ZM566.784 191.391C566.536 190.527 566.187 189.763 565.737 189.1C565.287 188.425 564.737 187.857 564.086 187.396C563.446 186.922 562.712 186.561 561.884 186.312C561.067 186.064 560.162 185.94 559.167 185.94C557.309 185.94 555.675 186.401 554.267 187.325C552.87 188.248 551.781 189.591 551 191.355C550.218 193.107 549.828 195.25 549.828 197.783C549.828 200.316 550.212 202.47 550.982 204.246C551.751 206.021 552.84 207.377 554.249 208.312C555.658 209.235 557.321 209.697 559.238 209.697C560.978 209.697 562.464 209.389 563.695 208.773C564.938 208.146 565.885 207.264 566.536 206.128C567.199 204.991 567.53 203.648 567.53 202.097L569.093 202.328H559.718V196.54H574.934V201.121C574.934 204.317 574.26 207.063 572.91 209.359C571.561 211.644 569.702 213.408 567.335 214.651C564.967 215.882 562.257 216.497 559.203 216.497C555.794 216.497 552.799 215.746 550.218 214.242C547.638 212.727 545.626 210.579 544.181 207.797C542.749 205.003 542.033 201.689 542.033 197.854C542.033 194.906 542.459 192.278 543.311 189.97C544.176 187.65 545.383 185.685 546.934 184.075C548.484 182.465 550.289 181.24 552.349 180.4C554.409 179.559 556.64 179.139 559.043 179.139C561.103 179.139 563.02 179.441 564.796 180.045C566.571 180.637 568.146 181.477 569.519 182.566C570.904 183.655 572.034 184.951 572.91 186.455C573.786 187.946 574.348 189.591 574.597 191.391H566.784ZM582.276 216V188.727H589.84V216H582.276ZM586.076 185.212C584.951 185.212 583.987 184.839 583.182 184.093C582.389 183.335 581.992 182.43 581.992 181.376C581.992 180.335 582.389 179.441 583.182 178.695C583.987 177.938 584.951 177.559 586.076 177.559C587.201 177.559 588.159 177.938 588.952 178.695C589.757 179.441 590.16 180.335 590.16 181.376C590.16 182.43 589.757 183.335 588.952 184.093C588.159 184.839 587.201 185.212 586.076 185.212ZM603.676 216.515C601.936 216.515 600.386 216.213 599.024 215.609C597.663 214.994 596.586 214.088 595.793 212.893C595.012 211.685 594.621 210.182 594.621 208.383C594.621 206.868 594.899 205.595 595.455 204.565C596.012 203.536 596.769 202.707 597.728 202.08C598.687 201.452 599.776 200.979 600.995 200.659C602.226 200.339 603.517 200.115 604.866 199.984C606.452 199.819 607.731 199.665 608.701 199.523C609.672 199.369 610.376 199.144 610.814 198.848C611.252 198.552 611.471 198.114 611.471 197.534V197.428C611.471 196.303 611.116 195.433 610.406 194.817C609.707 194.202 608.713 193.894 607.423 193.894C606.061 193.894 604.978 194.196 604.173 194.8C603.369 195.392 602.836 196.137 602.575 197.037L595.58 196.469C595.935 194.812 596.633 193.379 597.675 192.172C598.717 190.953 600.06 190.018 601.705 189.366C603.363 188.704 605.28 188.372 607.458 188.372C608.973 188.372 610.423 188.55 611.808 188.905C613.205 189.26 614.442 189.81 615.519 190.556C616.608 191.302 617.467 192.261 618.094 193.433C618.721 194.593 619.035 195.983 619.035 197.605V216H611.862V212.218H611.649C611.211 213.07 610.625 213.822 609.891 214.473C609.157 215.112 608.275 215.615 607.245 215.982C606.215 216.337 605.026 216.515 603.676 216.515ZM605.843 211.295C606.955 211.295 607.938 211.076 608.79 210.638C609.642 210.188 610.311 209.584 610.796 208.827C611.282 208.069 611.524 207.211 611.524 206.252V203.358C611.288 203.512 610.962 203.654 610.548 203.784C610.145 203.902 609.69 204.015 609.181 204.121C608.672 204.216 608.163 204.305 607.654 204.388C607.145 204.459 606.683 204.524 606.269 204.583C605.381 204.713 604.606 204.92 603.943 205.205C603.28 205.489 602.765 205.873 602.398 206.359C602.031 206.832 601.847 207.424 601.847 208.134C601.847 209.164 602.22 209.951 602.966 210.496C603.724 211.028 604.682 211.295 605.843 211.295ZM610.53 184.821H604.919L604.529 181.625C605.783 181.566 606.677 181.4 607.21 181.128C607.742 180.844 608.003 180.471 607.991 180.009C608.003 179.37 607.665 178.938 606.979 178.713C606.304 178.488 605.458 178.376 604.44 178.376L604.635 174.949C607.796 174.949 610.199 175.375 611.844 176.227C613.501 177.08 614.324 178.263 614.312 179.778C614.324 180.856 613.933 181.672 613.14 182.229C612.359 182.773 611.489 183.116 610.53 183.259V184.821ZM624.903 216V188.727H632.467V216H624.903ZM628.703 185.212C627.578 185.212 626.614 184.839 625.809 184.093C625.016 183.335 624.619 182.43 624.619 181.376C624.619 180.335 625.016 179.441 625.809 178.695C626.614 177.938 627.578 177.559 628.703 177.559C629.827 177.559 630.786 177.938 631.579 178.695C632.384 179.441 632.787 180.335 632.787 181.376C632.787 182.43 632.384 183.335 631.579 184.093C630.786 184.839 629.827 185.212 628.703 185.212Z" fill="#F27224"/>
<defs>
<filter id="filter0_d_8688_210" x="0" y="0" width="696.7" height="312.7" filterUnits="userSpaceOnUse" color-interpolation-filters="sRGB">
<feFlood flood-opacity="0" result="BackgroundImageFix"/>
<feColorMatrix in="SourceAlpha" type="matrix" values="0 0 0 0 0 0 0 0 0 0 0 0 0 0 0 0 0 0 127 0" result="hardAlpha"/>
<feMorphology radius="12" operator="erode" in="SourceAlpha" result="effect1_dropShadow_8688_210"/>
<feOffset dx="21" dy="22"/>
<feGaussianBlur stdDeviation="12.35"/>
<feComposite in2="hardAlpha" operator="out"/>
<feColorMatrix type="matrix" values="0 0 0 0 0 0 0 0 0 0 0 0 0 0 0 0 0 0 0.1 0"/>
<feBlend mode="normal" in2="BackgroundImageFix" result="effect1_dropShadow_8688_210"/>
<feBlend mode="normal" in="SourceGraphic" in2="effect1_dropShadow_8688_210" result="shape"/>
</filter>
<linearGradient id="paint0_linear_8688_210" x1="91.5967" y1="45.2221" x2="188.848" y2="45.2221" gradientUnits="userSpaceOnUse">
<stop stop-color="#056839"/>
<stop offset="0.5" stop-color="#04A852"/>
<stop offset="0.77" stop-color="#048343"/>
<stop offset="1" stop-color="#056839"/>
</linearGradient>
<linearGradient id="paint1_linear_8688_210" x1="206.82" y1="36.1859" x2="140.771" y2="149.213" gradientUnits="userSpaceOnUse">
<stop stop-color="#04A852"/>
<stop offset="0.29" stop-color="#019D4F"/>
<stop offset="0.61" stop-color="#01994E"/>
<stop offset="1" stop-color="#056839"/>
</linearGradient>
<linearGradient id="paint2_linear_8688_210" x1="205.673" y1="38.1313" x2="141.87" y2="148.163" gradientUnits="userSpaceOnUse">
<stop stop-color="#F0E8E5"/>
<stop offset="0.58" stop-color="#EEE6E2"/>
<stop offset="0.82" stop-color="#EAE0DB"/>
<stop offset="0.99" stop-color="#E3D5CF"/>
<stop offset="1" stop-color="#E3D5CF"/>
</linearGradient>
<radialGradient id="paint3_radial_8688_210" cx="0" cy="0" r="1" gradientUnits="userSpaceOnUse" gradientTransform="translate(138.675 147.015) scale(26.8339)">
<stop offset="0.01" stop-color="#F6C054"/>
<stop offset="0.54" stop-color="#FFEA72"/>
<stop offset="0.58" stop-color="#FFEF71"/>
<stop offset="0.59" stop-color="#FFF171"/>
<stop offset="0.82" stop-color="#FFE05A"/>
<stop offset="0.96" stop-color="#FFD44A"/>
</radialGradient>
<linearGradient id="paint4_linear_8688_210" x1="138.675" y1="130.54" x2="138.675" y2="166.385" gradientUnits="userSpaceOnUse">
<stop offset="0.01" stop-color="#C37948"/>
<stop offset="0.39" stop-color="#D69249"/>
<stop offset="0.73" stop-color="#B46D43"/>
<stop offset="0.96" stop-color="#B98457"/>
</linearGradient>
<radialGradient id="paint5_radial_8688_210" cx="0" cy="0" r="1" gradientUnits="userSpaceOnUse" gradientTransform="translate(138.675 147.015) scale(26.8339)">
<stop stop-color="#D59F81"/>
<stop offset="1" stop-color="#E5BC84"/>
</radialGradient>
<linearGradient id="paint6_linear_8688_210" x1="105.276" y1="157.699" x2="172.074" y2="157.699" gradientUnits="userSpaceOnUse">
<stop stop-color="#AA7238"/>
<stop offset="0.25" stop-color="#C08443"/>
<stop offset="0.35" stop-color="#BE8241"/>
<stop offset="0.39" stop-color="#B77B3D"/>
<stop offset="0.42" stop-color="#AC6F35"/>
<stop offset="0.44" stop-color="#9C5E2B"/>
<stop offset="0.46" stop-color="#88481D"/>
<stop offset="0.47" stop-color="#7A3A14"/>
<stop offset="0.64" stop-color="#7B3C15"/>
<stop offset="0.72" stop-color="#82431A"/>
<stop offset="0.79" stop-color="#8D5122"/>
<stop offset="0.85" stop-color="#9D642E"/>
<stop offset="0.9" stop-color="#B27C3E"/>
<stop offset="0.95" stop-color="#CC9A51"/>
<stop offset="0.99" stop-color="#EABD67"/>
<stop offset="1" stop-color="#F0C46C"/>
</linearGradient>
<linearGradient id="paint7_linear_8688_210" x1="105.276" y1="157.4" x2="172.074" y2="157.4" gradientUnits="userSpaceOnUse">
<stop stop-color="#AA7238"/>
<stop offset="0.25" stop-color="#C08443"/>
<stop offset="0.35" stop-color="#BE8241"/>
<stop offset="0.39" stop-color="#B77B3D"/>
<stop offset="0.42" stop-color="#AC6F35"/>
<stop offset="0.44" stop-color="#9C5E2B"/>
<stop offset="0.46" stop-color="#88481D"/>
<stop offset="0.47" stop-color="#7A3A14"/>
<stop offset="0.64" stop-color="#7B3C15"/>
<stop offset="0.72" stop-color="#82431A"/>
<stop offset="0.79" stop-color="#8D5122"/>
<stop offset="0.85" stop-color="#9D642E"/>
<stop offset="0.9" stop-color="#B27C3E"/>
<stop offset="0.95" stop-color="#CC9A51"/>
<stop offset="0.99" stop-color="#EABD67"/>
<stop offset="1" stop-color="#F0C46C"/>
</linearGradient>
<radialGradient id="paint8_radial_8688_210" cx="0" cy="0" r="1" gradientUnits="userSpaceOnUse" gradientTransform="translate(138.675 150.236) scale(21.6169 21.6169)">
<stop offset="0.34" stop-color="#FFEA72"/>
<stop offset="0.99" stop-color="#B35C00"/>
</radialGradient>
<linearGradient id="paint9_linear_8688_210" x1="73.6246" y1="36.3856" x2="141.571" y2="146.767" gradientUnits="userSpaceOnUse">
<stop stop-color="#04A852"/>
<stop offset="0.29" stop-color="#019D4F"/>
<stop offset="0.61" stop-color="#01994E"/>
<stop offset="1" stop-color="#056839"/>
</linearGradient>
<linearGradient id="paint10_linear_8688_210" x1="74.9219" y1="38.1313" x2="138.774" y2="148.163" gradientUnits="userSpaceOnUse">
<stop stop-color="#F0E8E5"/>
<stop offset="0.58" stop-color="#EEE6E2"/>
<stop offset="0.82" stop-color="#EAE0DB"/>
<stop offset="0.99" stop-color="#E3D5CF"/>
<stop offset="1" stop-color="#E3D5CF"/>
</linearGradient>
<linearGradient id="paint11_linear_8688_210" x1="180.911" y1="170.131" x2="97.9879" y2="235.681" gradientUnits="userSpaceOnUse">
<stop offset="0.01" stop-color="#C37948"/>
<stop offset="0.39" stop-color="#D69249"/>
<stop offset="0.73" stop-color="#B46D43"/>
<stop offset="0.96" stop-color="#B98457"/>
</linearGradient>
<radialGradient id="paint12_radial_8688_210" cx="0" cy="0" r="1" gradientUnits="userSpaceOnUse" gradientTransform="translate(100.484 241.722) scale(107.186)">
<stop stop-color="#D59F81"/>
<stop offset="1" stop-color="#E5BC84"/>
</radialGradient>
<radialGradient id="paint13_radial_8688_210" cx="0" cy="0" r="1" gradientUnits="userSpaceOnUse" gradientTransform="translate(138.902 203.367) scale(43.6083)">
<stop stop-color="#C05F43"/>
<stop offset="1" stop-color="#D99D4B"/>
</radialGradient>
<linearGradient id="paint14_linear_8688_210" x1="166.583" y1="178.919" x2="107.623" y2="231.039" gradientUnits="userSpaceOnUse">
<stop offset="0.01" stop-color="#C37948"/>
<stop offset="0.39" stop-color="#DB9E5D"/>
<stop offset="0.73" stop-color="#B46D43"/>
</linearGradient>
<linearGradient id="paint15_linear_8688_210" x1="172.174" y1="207.177" x2="174.72" y2="207.177" gradientUnits="userSpaceOnUse">
<stop stop-color="#C97E5E"/>
<stop offset="1" stop-color="#F2BE4A"/>
</linearGradient>
<linearGradient id="paint16_linear_8688_210" x1="171.226" y1="212.217" x2="173.772" y2="212.217" gradientUnits="userSpaceOnUse">
<stop stop-color="#C97E5E"/>
<stop offset="1" stop-color="#F2BE4A"/>
</linearGradient>
<linearGradient id="paint17_linear_8688_210" x1="169.628" y1="217.009" x2="172.174" y2="217.009" gradientUnits="userSpaceOnUse">
<stop stop-color="#C97E5E"/>
<stop offset="1" stop-color="#F2BE4A"/>
</linearGradient>
<linearGradient id="paint18_linear_8688_210" x1="167.281" y1="221.505" x2="169.828" y2="221.505" gradientUnits="userSpaceOnUse">
<stop stop-color="#C97E5E"/>
<stop offset="1" stop-color="#F2BE4A"/>
</linearGradient>
<linearGradient id="paint19_linear_8688_210" x1="164.336" y1="225.647" x2="166.882" y2="225.647" gradientUnits="userSpaceOnUse">
<stop stop-color="#C97E5E"/>
<stop offset="1" stop-color="#F2BE4A"/>
</linearGradient>
<linearGradient id="paint20_linear_8688_210" x1="160.791" y1="229.291" x2="163.337" y2="229.291" gradientUnits="userSpaceOnUse">
<stop stop-color="#C97E5E"/>
<stop offset="1" stop-color="#F2BE4A"/>
</linearGradient>
<linearGradient id="paint21_linear_8688_210" x1="156.798" y1="232.388" x2="159.344" y2="232.388" gradientUnits="userSpaceOnUse">
<stop stop-color="#C97E5E"/>
<stop offset="1" stop-color="#F2BE4A"/>
</linearGradient>
<linearGradient id="paint22_linear_8688_210" x1="152.404" y1="234.882" x2="154.9" y2="234.882" gradientUnits="userSpaceOnUse">
<stop stop-color="#C97E5E"/>
<stop offset="1" stop-color="#F2BE4A"/>
</linearGradient>
<linearGradient id="paint23_linear_8688_210" x1="147.612" y1="236.681" x2="150.158" y2="236.681" gradientUnits="userSpaceOnUse">
<stop stop-color="#C97E5E"/>
<stop offset="1" stop-color="#F2BE4A"/>
</linearGradient>
<linearGradient id="paint24_linear_8688_210" x1="142.67" y1="237.779" x2="145.216" y2="237.779" gradientUnits="userSpaceOnUse">
<stop stop-color="#C97E5E"/>
<stop offset="1" stop-color="#F2BE4A"/>
</linearGradient>
<linearGradient id="paint25_linear_8688_210" x1="137.626" y1="238.178" x2="140.173" y2="238.178" gradientUnits="userSpaceOnUse">
<stop stop-color="#C97E5E"/>
<stop offset="1" stop-color="#F2BE4A"/>
</linearGradient>
<linearGradient id="paint26_linear_8688_210" x1="132.535" y1="237.78" x2="135.081" y2="237.78" gradientUnits="userSpaceOnUse">
<stop stop-color="#C97E5E"/>
<stop offset="1" stop-color="#F2BE4A"/>
</linearGradient>
<linearGradient id="paint27_linear_8688_210" x1="127.592" y1="236.68" x2="130.138" y2="236.68" gradientUnits="userSpaceOnUse">
<stop stop-color="#C97E5E"/>
<stop offset="1" stop-color="#F2BE4A"/>
</linearGradient>
<linearGradient id="paint28_linear_8688_210" x1="122.849" y1="234.882" x2="125.395" y2="234.882" gradientUnits="userSpaceOnUse">
<stop stop-color="#C97E5E"/>
<stop offset="1" stop-color="#F2BE4A"/>
</linearGradient>
<linearGradient id="paint29_linear_8688_210" x1="118.406" y1="232.384" x2="120.952" y2="232.384" gradientUnits="userSpaceOnUse">
<stop stop-color="#C97E5E"/>
<stop offset="1" stop-color="#F2BE4A"/>
</linearGradient>
<linearGradient id="paint30_linear_8688_210" x1="114.413" y1="229.293" x2="116.959" y2="229.293" gradientUnits="userSpaceOnUse">
<stop stop-color="#C97E5E"/>
<stop offset="1" stop-color="#F2BE4A"/>
</linearGradient>
<linearGradient id="paint31_linear_8688_210" x1="110.868" y1="225.646" x2="113.414" y2="225.646" gradientUnits="userSpaceOnUse">
<stop stop-color="#C97E5E"/>
<stop offset="1" stop-color="#F2BE4A"/>
</linearGradient>
<linearGradient id="paint32_linear_8688_210" x1="107.923" y1="221.501" x2="110.469" y2="221.501" gradientUnits="userSpaceOnUse">
<stop stop-color="#C97E5E"/>
<stop offset="1" stop-color="#F2BE4A"/>
</linearGradient>
<linearGradient id="paint33_linear_8688_210" x1="105.576" y1="217.009" x2="108.172" y2="217.009" gradientUnits="userSpaceOnUse">
<stop stop-color="#C97E5E"/>
<stop offset="1" stop-color="#F2BE4A"/>
</linearGradient>
<linearGradient id="paint34_linear_8688_210" x1="103.978" y1="212.217" x2="106.524" y2="212.217" gradientUnits="userSpaceOnUse">
<stop stop-color="#C97E5E"/>
<stop offset="1" stop-color="#F2BE4A"/>
</linearGradient>
<linearGradient id="paint35_linear_8688_210" x1="103.029" y1="207.174" x2="105.575" y2="207.174" gradientUnits="userSpaceOnUse">
<stop stop-color="#C97E5E"/>
<stop offset="1" stop-color="#F2BE4A"/>
</linearGradient>
<linearGradient id="paint36_linear_8688_210" x1="102.88" y1="202.135" x2="105.426" y2="202.135" gradientUnits="userSpaceOnUse">
<stop stop-color="#C97E5E"/>
<stop offset="1" stop-color="#F2BE4A"/>
</linearGradient>
<linearGradient id="paint37_linear_8688_210" x1="103.429" y1="197.091" x2="105.975" y2="197.091" gradientUnits="userSpaceOnUse">
<stop stop-color="#C97E5E"/>
<stop offset="1" stop-color="#F2BE4A"/>
</linearGradient>
<linearGradient id="paint38_linear_8688_210" x1="104.678" y1="192.148" x2="107.274" y2="192.148" gradientUnits="userSpaceOnUse">
<stop stop-color="#C97E5E"/>
<stop offset="1" stop-color="#F2BE4A"/>
</linearGradient>
<linearGradient id="paint39_linear_8688_210" x1="106.674" y1="187.506" x2="109.22" y2="187.506" gradientUnits="userSpaceOnUse">
<stop stop-color="#C97E5E"/>
<stop offset="1" stop-color="#F2BE4A"/>
</linearGradient>
<linearGradient id="paint40_linear_8688_210" x1="109.32" y1="183.163" x2="111.867" y2="183.163" gradientUnits="userSpaceOnUse">
<stop stop-color="#C97E5E"/>
<stop offset="1" stop-color="#F2BE4A"/>
</linearGradient>
<linearGradient id="paint41_linear_8688_210" x1="112.565" y1="179.267" x2="115.111" y2="179.267" gradientUnits="userSpaceOnUse">
<stop stop-color="#C97E5E"/>
<stop offset="1" stop-color="#F2BE4A"/>
</linearGradient>
<linearGradient id="paint42_linear_8688_210" x1="116.359" y1="175.875" x2="118.905" y2="175.875" gradientUnits="userSpaceOnUse">
<stop stop-color="#C97E5E"/>
<stop offset="1" stop-color="#F2BE4A"/>
</linearGradient>
<linearGradient id="paint43_linear_8688_210" x1="120.603" y1="173.078" x2="123.149" y2="173.078" gradientUnits="userSpaceOnUse">
<stop stop-color="#C97E5E"/>
<stop offset="1" stop-color="#F2BE4A"/>
</linearGradient>
<linearGradient id="paint44_linear_8688_210" x1="125.195" y1="170.931" x2="127.741" y2="170.931" gradientUnits="userSpaceOnUse">
<stop stop-color="#C97E5E"/>
<stop offset="1" stop-color="#F2BE4A"/>
</linearGradient>
<linearGradient id="paint45_linear_8688_210" x1="130.039" y1="169.432" x2="132.585" y2="169.432" gradientUnits="userSpaceOnUse">
<stop stop-color="#C97E5E"/>
<stop offset="1" stop-color="#F2BE4A"/>
</linearGradient>
<linearGradient id="paint46_linear_8688_210" x1="135.081" y1="168.736" x2="137.627" y2="168.736" gradientUnits="userSpaceOnUse">
<stop stop-color="#C97E5E"/>
<stop offset="1" stop-color="#F2BE4A"/>
</linearGradient>
<linearGradient id="paint47_linear_8688_210" x1="140.123" y1="168.734" x2="142.669" y2="168.734" gradientUnits="userSpaceOnUse">
<stop stop-color="#C97E5E"/>
<stop offset="1" stop-color="#F2BE4A"/>
</linearGradient>
<linearGradient id="paint48_linear_8688_210" x1="145.166" y1="169.432" x2="147.712" y2="169.432" gradientUnits="userSpaceOnUse">
<stop stop-color="#C97E5E"/>
<stop offset="1" stop-color="#F2BE4A"/>
</linearGradient>
<linearGradient id="paint49_linear_8688_210" x1="150.008" y1="170.931" x2="152.604" y2="170.931" gradientUnits="userSpaceOnUse">
<stop stop-color="#C97E5E"/>
<stop offset="1" stop-color="#F2BE4A"/>
</linearGradient>
<linearGradient id="paint50_linear_8688_210" x1="154.651" y1="173.078" x2="157.147" y2="173.078" gradientUnits="userSpaceOnUse">
<stop stop-color="#C97E5E"/>
<stop offset="1" stop-color="#F2BE4A"/>
</linearGradient>
<linearGradient id="paint51_linear_8688_210" x1="158.844" y1="175.872" x2="161.39" y2="175.872" gradientUnits="userSpaceOnUse">
<stop stop-color="#C97E5E"/>
<stop offset="1" stop-color="#F2BE4A"/>
</linearGradient>
<linearGradient id="paint52_linear_8688_210" x1="162.639" y1="179.267" x2="165.185" y2="179.267" gradientUnits="userSpaceOnUse">
<stop stop-color="#C97E5E"/>
<stop offset="1" stop-color="#F2BE4A"/>
</linearGradient>
<linearGradient id="paint53_linear_8688_210" x1="165.884" y1="183.164" x2="168.43" y2="183.164" gradientUnits="userSpaceOnUse">
<stop stop-color="#C97E5E"/>
<stop offset="1" stop-color="#F2BE4A"/>
</linearGradient>
<linearGradient id="paint54_linear_8688_210" x1="168.53" y1="187.505" x2="171.076" y2="187.505" gradientUnits="userSpaceOnUse">
<stop stop-color="#C97E5E"/>
<stop offset="1" stop-color="#F2BE4A"/>
</linearGradient>
<linearGradient id="paint55_linear_8688_210" x1="170.476" y1="192.148" x2="173.072" y2="192.148" gradientUnits="userSpaceOnUse">
<stop stop-color="#C97E5E"/>
<stop offset="1" stop-color="#F2BE4A"/>
</linearGradient>
<linearGradient id="paint56_linear_8688_210" x1="171.825" y1="197.091" x2="174.321" y2="197.091" gradientUnits="userSpaceOnUse">
<stop stop-color="#C97E5E"/>
<stop offset="1" stop-color="#F2BE4A"/>
</linearGradient>
<linearGradient id="paint57_linear_8688_210" x1="172.324" y1="202.134" x2="174.87" y2="202.134" gradientUnits="userSpaceOnUse">
<stop stop-color="#C97E5E"/>
<stop offset="1" stop-color="#F2BE4A"/>
</linearGradient>
<linearGradient id="paint58_linear_8688_210" x1="172.174" y1="207.177" x2="174.72" y2="207.177" gradientUnits="userSpaceOnUse">
<stop stop-color="#C97E5E"/>
<stop offset="1" stop-color="#F2BE4A"/>
</linearGradient>
<linearGradient id="paint59_linear_8688_210" x1="171.226" y1="212.217" x2="173.772" y2="212.217" gradientUnits="userSpaceOnUse">
<stop stop-color="#C97E5E"/>
<stop offset="1" stop-color="#F2BE4A"/>
</linearGradient>
<linearGradient id="paint60_linear_8688_210" x1="169.628" y1="217.009" x2="172.174" y2="217.009" gradientUnits="userSpaceOnUse">
<stop stop-color="#C97E5E"/>
<stop offset="1" stop-color="#F2BE4A"/>
</linearGradient>
<linearGradient id="paint61_linear_8688_210" x1="167.281" y1="221.505" x2="169.828" y2="221.505" gradientUnits="userSpaceOnUse">
<stop stop-color="#C97E5E"/>
<stop offset="1" stop-color="#F2BE4A"/>
</linearGradient>
<linearGradient id="paint62_linear_8688_210" x1="164.336" y1="225.647" x2="166.882" y2="225.647" gradientUnits="userSpaceOnUse">
<stop stop-color="#C97E5E"/>
<stop offset="1" stop-color="#F2BE4A"/>
</linearGradient>
<linearGradient id="paint63_linear_8688_210" x1="160.791" y1="229.291" x2="163.337" y2="229.291" gradientUnits="userSpaceOnUse">
<stop stop-color="#C97E5E"/>
<stop offset="1" stop-color="#F2BE4A"/>
</linearGradient>
<linearGradient id="paint64_linear_8688_210" x1="156.798" y1="232.388" x2="159.344" y2="232.388" gradientUnits="userSpaceOnUse">
<stop stop-color="#C97E5E"/>
<stop offset="1" stop-color="#F2BE4A"/>
</linearGradient>
<linearGradient id="paint65_linear_8688_210" x1="152.404" y1="234.882" x2="154.9" y2="234.882" gradientUnits="userSpaceOnUse">
<stop stop-color="#C97E5E"/>
<stop offset="1" stop-color="#F2BE4A"/>
</linearGradient>
<linearGradient id="paint66_linear_8688_210" x1="147.612" y1="236.681" x2="150.158" y2="236.681" gradientUnits="userSpaceOnUse">
<stop stop-color="#C97E5E"/>
<stop offset="1" stop-color="#F2BE4A"/>
</linearGradient>
<linearGradient id="paint67_linear_8688_210" x1="142.67" y1="237.779" x2="145.216" y2="237.779" gradientUnits="userSpaceOnUse">
<stop stop-color="#C97E5E"/>
<stop offset="1" stop-color="#F2BE4A"/>
</linearGradient>
<linearGradient id="paint68_linear_8688_210" x1="137.626" y1="238.178" x2="140.173" y2="238.178" gradientUnits="userSpaceOnUse">
<stop stop-color="#C97E5E"/>
<stop offset="1" stop-color="#F2BE4A"/>
</linearGradient>
<linearGradient id="paint69_linear_8688_210" x1="132.535" y1="237.78" x2="135.081" y2="237.78" gradientUnits="userSpaceOnUse">
<stop stop-color="#C97E5E"/>
<stop offset="1" stop-color="#F2BE4A"/>
</linearGradient>
<linearGradient id="paint70_linear_8688_210" x1="127.592" y1="236.68" x2="130.138" y2="236.68" gradientUnits="userSpaceOnUse">
<stop stop-color="#C97E5E"/>
<stop offset="1" stop-color="#F2BE4A"/>
</linearGradient>
<linearGradient id="paint71_linear_8688_210" x1="122.849" y1="234.882" x2="125.395" y2="234.882" gradientUnits="userSpaceOnUse">
<stop stop-color="#C97E5E"/>
<stop offset="1" stop-color="#F2BE4A"/>
</linearGradient>
<linearGradient id="paint72_linear_8688_210" x1="118.406" y1="232.384" x2="120.952" y2="232.384" gradientUnits="userSpaceOnUse">
<stop stop-color="#C97E5E"/>
<stop offset="1" stop-color="#F2BE4A"/>
</linearGradient>
<linearGradient id="paint73_linear_8688_210" x1="114.413" y1="229.293" x2="116.959" y2="229.293" gradientUnits="userSpaceOnUse">
<stop stop-color="#C97E5E"/>
<stop offset="1" stop-color="#F2BE4A"/>
</linearGradient>
<linearGradient id="paint74_linear_8688_210" x1="110.868" y1="225.646" x2="113.414" y2="225.646" gradientUnits="userSpaceOnUse">
<stop stop-color="#C97E5E"/>
<stop offset="1" stop-color="#F2BE4A"/>
</linearGradient>
<linearGradient id="paint75_linear_8688_210" x1="107.923" y1="221.501" x2="110.469" y2="221.501" gradientUnits="userSpaceOnUse">
<stop stop-color="#C97E5E"/>
<stop offset="1" stop-color="#F2BE4A"/>
</linearGradient>
<linearGradient id="paint76_linear_8688_210" x1="105.576" y1="217.009" x2="108.172" y2="217.009" gradientUnits="userSpaceOnUse">
<stop stop-color="#C97E5E"/>
<stop offset="1" stop-color="#F2BE4A"/>
</linearGradient>
<linearGradient id="paint77_linear_8688_210" x1="103.978" y1="212.217" x2="106.524" y2="212.217" gradientUnits="userSpaceOnUse">
<stop stop-color="#C97E5E"/>
<stop offset="1" stop-color="#F2BE4A"/>
</linearGradient>
<linearGradient id="paint78_linear_8688_210" x1="103.029" y1="207.174" x2="105.575" y2="207.174" gradientUnits="userSpaceOnUse">
<stop stop-color="#C97E5E"/>
<stop offset="1" stop-color="#F2BE4A"/>
</linearGradient>
<linearGradient id="paint79_linear_8688_210" x1="102.88" y1="202.135" x2="105.426" y2="202.135" gradientUnits="userSpaceOnUse">
<stop stop-color="#C97E5E"/>
<stop offset="1" stop-color="#F2BE4A"/>
</linearGradient>
<linearGradient id="paint80_linear_8688_210" x1="103.429" y1="197.091" x2="105.975" y2="197.091" gradientUnits="userSpaceOnUse">
<stop stop-color="#C97E5E"/>
<stop offset="1" stop-color="#F2BE4A"/>
</linearGradient>
<linearGradient id="paint81_linear_8688_210" x1="104.678" y1="192.148" x2="107.274" y2="192.148" gradientUnits="userSpaceOnUse">
<stop stop-color="#C97E5E"/>
<stop offset="1" stop-color="#F2BE4A"/>
</linearGradient>
<linearGradient id="paint82_linear_8688_210" x1="106.674" y1="187.506" x2="109.22" y2="187.506" gradientUnits="userSpaceOnUse">
<stop stop-color="#C97E5E"/>
<stop offset="1" stop-color="#F2BE4A"/>
</linearGradient>
<linearGradient id="paint83_linear_8688_210" x1="109.32" y1="183.163" x2="111.867" y2="183.163" gradientUnits="userSpaceOnUse">
<stop stop-color="#C97E5E"/>
<stop offset="1" stop-color="#F2BE4A"/>
</linearGradient>
<linearGradient id="paint84_linear_8688_210" x1="112.565" y1="179.267" x2="115.111" y2="179.267" gradientUnits="userSpaceOnUse">
<stop stop-color="#C97E5E"/>
<stop offset="1" stop-color="#F2BE4A"/>
</linearGradient>
<linearGradient id="paint85_linear_8688_210" x1="116.359" y1="175.875" x2="118.905" y2="175.875" gradientUnits="userSpaceOnUse">
<stop stop-color="#C97E5E"/>
<stop offset="1" stop-color="#F2BE4A"/>
</linearGradient>
<linearGradient id="paint86_linear_8688_210" x1="120.603" y1="173.078" x2="123.149" y2="173.078" gradientUnits="userSpaceOnUse">
<stop stop-color="#C97E5E"/>
<stop offset="1" stop-color="#F2BE4A"/>
</linearGradient>
<linearGradient id="paint87_linear_8688_210" x1="125.195" y1="170.931" x2="127.741" y2="170.931" gradientUnits="userSpaceOnUse">
<stop stop-color="#C97E5E"/>
<stop offset="1" stop-color="#F2BE4A"/>
</linearGradient>
<linearGradient id="paint88_linear_8688_210" x1="130.039" y1="169.432" x2="132.585" y2="169.432" gradientUnits="userSpaceOnUse">
<stop stop-color="#C97E5E"/>
<stop offset="1" stop-color="#F2BE4A"/>
</linearGradient>
<linearGradient id="paint89_linear_8688_210" x1="135.081" y1="168.736" x2="137.627" y2="168.736" gradientUnits="userSpaceOnUse">
<stop stop-color="#C97E5E"/>
<stop offset="1" stop-color="#F2BE4A"/>
</linearGradient>
<linearGradient id="paint90_linear_8688_210" x1="140.123" y1="168.734" x2="142.669" y2="168.734" gradientUnits="userSpaceOnUse">
<stop stop-color="#C97E5E"/>
<stop offset="1" stop-color="#F2BE4A"/>
</linearGradient>
<linearGradient id="paint91_linear_8688_210" x1="145.166" y1="169.432" x2="147.712" y2="169.432" gradientUnits="userSpaceOnUse">
<stop stop-color="#C97E5E"/>
<stop offset="1" stop-color="#F2BE4A"/>
</linearGradient>
<linearGradient id="paint92_linear_8688_210" x1="150.008" y1="170.931" x2="152.604" y2="170.931" gradientUnits="userSpaceOnUse">
<stop stop-color="#C97E5E"/>
<stop offset="1" stop-color="#F2BE4A"/>
</linearGradient>
<linearGradient id="paint93_linear_8688_210" x1="154.651" y1="173.078" x2="157.147" y2="173.078" gradientUnits="userSpaceOnUse">
<stop stop-color="#C97E5E"/>
<stop offset="1" stop-color="#F2BE4A"/>
</linearGradient>
<linearGradient id="paint94_linear_8688_210" x1="158.844" y1="175.872" x2="161.39" y2="175.872" gradientUnits="userSpaceOnUse">
<stop stop-color="#C97E5E"/>
<stop offset="1" stop-color="#F2BE4A"/>
</linearGradient>
<linearGradient id="paint95_linear_8688_210" x1="162.639" y1="179.267" x2="165.185" y2="179.267" gradientUnits="userSpaceOnUse">
<stop stop-color="#C97E5E"/>
<stop offset="1" stop-color="#F2BE4A"/>
</linearGradient>
<linearGradient id="paint96_linear_8688_210" x1="165.884" y1="183.164" x2="168.43" y2="183.164" gradientUnits="userSpaceOnUse">
<stop stop-color="#C97E5E"/>
<stop offset="1" stop-color="#F2BE4A"/>
</linearGradient>
<linearGradient id="paint97_linear_8688_210" x1="168.53" y1="187.505" x2="171.076" y2="187.505" gradientUnits="userSpaceOnUse">
<stop stop-color="#C97E5E"/>
<stop offset="1" stop-color="#F2BE4A"/>
</linearGradient>
<linearGradient id="paint98_linear_8688_210" x1="170.476" y1="192.148" x2="173.072" y2="192.148" gradientUnits="userSpaceOnUse">
<stop stop-color="#C97E5E"/>
<stop offset="1" stop-color="#F2BE4A"/>
</linearGradient>
<linearGradient id="paint99_linear_8688_210" x1="171.825" y1="197.091" x2="174.321" y2="197.091" gradientUnits="userSpaceOnUse">
<stop stop-color="#C97E5E"/>
<stop offset="1" stop-color="#F2BE4A"/>
</linearGradient>
<linearGradient id="paint100_linear_8688_210" x1="172.324" y1="202.134" x2="174.87" y2="202.134" gradientUnits="userSpaceOnUse">
<stop stop-color="#C97E5E"/>
<stop offset="1" stop-color="#F2BE4A"/>
</linearGradient>
<linearGradient id="paint101_linear_8688_210" x1="167.631" y1="174.875" x2="111.767" y2="230.241" gradientUnits="userSpaceOnUse">
<stop stop-color="#AA7238"/>
<stop offset="0.25" stop-color="#C08443"/>
<stop offset="0.35" stop-color="#BE8241"/>
<stop offset="0.39" stop-color="#B77B3D"/>
<stop offset="0.42" stop-color="#AC6F35"/>
<stop offset="0.44" stop-color="#9C5E2B"/>
<stop offset="0.46" stop-color="#88481D"/>
<stop offset="0.47" stop-color="#7A3A14"/>
<stop offset="0.64" stop-color="#7B3C15"/>
<stop offset="0.72" stop-color="#82431A"/>
<stop offset="0.79" stop-color="#8D5122"/>
<stop offset="0.85" stop-color="#9D642E"/>
<stop offset="0.9" stop-color="#B27C3E"/>
<stop offset="0.95" stop-color="#CC9A51"/>
<stop offset="0.99" stop-color="#EABD67"/>
<stop offset="1" stop-color="#F0C46C"/>
</linearGradient>
<radialGradient id="paint102_radial_8688_210" cx="0" cy="0" r="1" gradientTransform="matrix(7.91991 -15.2205 32.8164 17.0826 170.951 156.837)" gradientUnits="userSpaceOnUse">
<stop stop-color="white"/>
<stop offset="0.14" stop-color="#E2E2E2"/>
<stop offset="0.43" stop-color="#999999"/>
<stop offset="0.87" stop-color="#252525"/>
<stop offset="1"/>
</radialGradient>
<radialGradient id="paint103_radial_8688_210" cx="0" cy="0" r="1" gradientTransform="matrix(7.91991 -15.2205 32.8164 17.0826 170.951 156.837)" gradientUnits="userSpaceOnUse">
<stop stop-color="#ECCE88"/>
<stop offset="1"/>
</radialGradient>
<radialGradient id="paint104_radial_8688_210" cx="0" cy="0" r="1" gradientUnits="userSpaceOnUse" gradientTransform="translate(165.459 165.911) rotate(27.21) scale(12.1564 13.6152)">
<stop stop-color="white"/>
<stop offset="0.21" stop-color="#C3C3C3"/>
<stop offset="0.6" stop-color="#5B5B5B"/>
<stop offset="0.87" stop-color="#191919"/>
<stop offset="1"/>
</radialGradient>
<radialGradient id="paint105_radial_8688_210" cx="0" cy="0" r="1" gradientUnits="userSpaceOnUse" gradientTransform="translate(165.459 165.911) rotate(27.21) scale(12.1564 13.6152)">
<stop stop-color="#FFA177"/>
<stop offset="0.13" stop-color="#E5906B"/>
<stop offset="0.4" stop-color="#A3674C"/>
<stop offset="0.79" stop-color="#3B251B"/>
<stop offset="1"/>
</radialGradient>
<radialGradient id="paint106_radial_8688_210" cx="0" cy="0" r="1" gradientUnits="userSpaceOnUse" gradientTransform="translate(116.443 226.59) rotate(-58.17) scale(11.2148 20.6774)">
<stop stop-color="white"/>
<stop offset="0.14" stop-color="#E2E2E2"/>
<stop offset="0.43" stop-color="#999999"/>
<stop offset="0.87" stop-color="#252525"/>
<stop offset="1"/>
</radialGradient>
<radialGradient id="paint107_radial_8688_210" cx="0" cy="0" r="1" gradientUnits="userSpaceOnUse" gradientTransform="translate(116.443 226.59) rotate(-58.17) scale(11.2148 20.6774)">
<stop stop-color="#ECC29A"/>
<stop offset="1"/>
</radialGradient>
<linearGradient id="paint108_linear_8688_210" x1="126.344" y1="209.472" x2="154.201" y2="193.197" gradientUnits="userSpaceOnUse">
<stop offset="0.39" stop-color="#864A25"/>
<stop offset="1" stop-color="#E8B175"/>
</linearGradient>
<linearGradient id="paint109_linear_8688_210" x1="140.222" y1="186.955" x2="140.222" y2="216.71" gradientUnits="userSpaceOnUse">
<stop stop-color="#E59F69"/>
<stop offset="0.21" stop-color="#C37948"/>
<stop offset="0.32" stop-color="#B46D43"/>
<stop offset="0.45" stop-color="#984B28"/>
<stop offset="0.57" stop-color="#873717"/>
<stop offset="0.65" stop-color="#813012"/>
<stop offset="0.7" stop-color="#964824"/>
<stop offset="0.77" stop-color="#AE6238"/>
<stop offset="0.84" stop-color="#C07547"/>
<stop offset="0.92" stop-color="#CA8150"/>
<stop offset="1" stop-color="#CE8553"/>
</linearGradient>
<radialGradient id="paint110_radial_8688_210" cx="0" cy="0" r="1" gradientUnits="userSpaceOnUse" gradientTransform="translate(142.145 158.399) scale(100.821 100.821)">
<stop stop-color="#ECECBB"/>
<stop offset="1" stop-color="#784F58"/>
</radialGradient>
</defs>
</svg>
