<svg width="697" height="313" viewBox="0 0 697 313" fill="none" xmlns="http://www.w3.org/2000/svg">
<g opacity="0.9" filter="url(#filter0_d_8688_209)">
<rect width="663" height="278" rx="36" transform="matrix(1 0 0 -1 0 278)" fill="#FFF3D7"/>
</g>
<path d="M191.848 32H94.5969L101.237 68.4442H191.848V32Z" fill="url(#paint0_linear_8688_209)"/>
<g opacity="0.75" style="mix-blend-mode:multiply">
<path d="M106.429 32H94.5969L101.237 68.4442H125.949L106.429 32Z" fill="#4A8195"/>
</g>
<g opacity="0.75" style="mix-blend-mode:multiply">
<path d="M180.016 32H191.848L185.208 68.4442H160.496L180.016 32Z" fill="#4A8195"/>
</g>
<path d="M191.848 32L123.303 152.516H163.092L226.395 52.8181L191.848 32Z" fill="url(#paint1_linear_8688_209)"/>
<path d="M219.606 48.6229L154.406 152.514H131.541L198.738 35.9922L219.606 48.6229Z" fill="url(#paint2_linear_8688_209)"/>
<g opacity="0.5" style="mix-blend-mode:multiply">
<path d="M149.213 107.037L123.303 152.517H163.092L171.08 139.937L149.213 107.037Z" fill="#771A1F"/>
</g>
<path d="M141.875 133.992C141.875 133.992 141.726 133.992 141.676 133.992C141.626 133.992 141.526 133.992 141.476 133.992C99.9396 133.992 107.977 163.098 110.823 170.037C111.073 169.787 111.322 169.588 111.572 169.338C112.021 168.939 112.47 168.589 113.02 168.29C113.02 168.29 113.07 168.29 113.119 168.24C113.469 168.04 118.561 167.84 118.961 167.641C116.614 159.004 111.172 144.476 141.476 144.276C141.526 144.276 141.626 144.276 141.676 144.276C141.726 144.276 141.826 144.276 141.875 144.276C172.179 144.476 166.787 159.004 164.391 167.641C164.79 167.84 169.833 167.99 170.232 168.24C170.232 168.24 170.282 168.24 170.332 168.29C170.831 168.589 171.33 168.939 171.78 169.338C172.029 169.538 172.279 169.787 172.529 170.037C175.324 163.048 183.412 133.992 141.875 133.992Z" fill="url(#paint3_radial_8688_209)"/>
<path d="M141.875 133.992C141.875 133.992 141.726 133.992 141.676 133.992C141.626 133.992 141.526 133.992 141.476 133.992C99.9396 133.992 107.977 163.098 110.823 170.037C111.073 169.787 111.322 169.588 111.572 169.338C112.021 168.939 112.47 168.589 113.02 168.29C113.02 168.29 113.07 168.29 113.119 168.24C113.469 168.04 118.561 167.84 118.961 167.641C116.614 159.004 111.172 144.476 141.476 144.276C141.526 144.276 141.626 144.276 141.676 144.276C141.726 144.276 141.826 144.276 141.875 144.276C172.179 144.476 166.787 159.004 164.391 167.641C164.79 167.84 169.833 167.99 170.232 168.24C170.232 168.24 170.282 168.24 170.332 168.29C170.831 168.589 171.33 168.939 171.78 169.338C172.029 169.538 172.279 169.787 172.529 170.037C175.324 163.048 183.412 133.992 141.875 133.992Z" fill="url(#paint4_linear_8688_209)"/>
<path d="M141.875 133.992C141.875 133.992 141.726 133.992 141.676 133.992C141.626 133.992 141.526 133.992 141.476 133.992C99.9396 133.992 107.977 163.098 110.823 170.037C110.973 169.887 111.123 169.737 111.272 169.588C108.127 160.701 103.085 135.14 141.476 135.14C141.526 135.14 141.626 135.14 141.676 135.14C141.726 135.14 141.826 135.14 141.875 135.14C180.317 135.14 175.224 160.701 172.079 169.588C172.229 169.737 172.379 169.887 172.529 170.037C175.324 163.048 183.412 133.992 141.875 133.992Z" fill="url(#paint5_linear_8688_209)"/>
<path d="M117.212 155.361C114.067 156.31 111.071 156.909 108.326 158.706C108.575 163.599 109.923 167.892 110.822 170.039C111.071 169.789 111.321 169.59 111.571 169.34C112.02 168.941 112.469 168.591 113.018 168.292C113.018 168.292 113.068 168.292 113.118 168.242C113.468 168.042 118.56 167.842 118.959 167.643C118.011 164.098 116.513 159.505 117.212 155.361Z" fill="url(#paint6_linear_8688_209)" style="mix-blend-mode:multiply"/>
<path d="M166.037 154.762C167.036 159.055 165.438 163.898 164.39 167.642C164.789 167.842 169.832 167.991 170.231 168.241C170.231 168.241 170.281 168.241 170.331 168.291C170.83 168.591 171.329 168.94 171.779 169.339C172.028 169.539 172.278 169.789 172.527 170.038C173.426 167.842 174.824 163.398 175.024 158.406C171.679 156.259 166.836 155.061 166.037 154.762Z" fill="url(#paint7_linear_8688_209)" style="mix-blend-mode:multiply"/>
<path opacity="0.55" d="M141.875 141.832C141.875 141.832 141.775 141.832 141.725 141.832C141.675 141.832 141.625 141.832 141.575 141.832C112.07 141.832 113.219 157.708 115.116 168.741C115.315 168.641 118.61 167.842 119.01 167.692C116.663 159.056 111.222 144.528 141.525 144.328C141.575 144.328 141.675 144.328 141.725 144.328C141.775 144.328 141.875 144.328 141.925 144.328C172.228 144.528 166.837 159.056 164.44 167.692C164.84 167.892 168.135 168.641 168.334 168.741C170.231 157.708 171.43 141.832 141.875 141.832Z" fill="url(#paint8_radial_8688_209)" style="mix-blend-mode:multiply"/>
<path d="M60 52.8181L123.303 152.516H163.092L94.5471 32L60 52.8181Z" fill="url(#paint9_linear_8688_209)"/>
<path d="M67.0386 48.6229L132.239 152.514H155.054L87.9066 35.9922L67.0386 48.6229Z" fill="url(#paint10_linear_8688_209)"/>
<mask id="mask0_8688_209" style="mask-type:luminance" maskUnits="userSpaceOnUse" x="86" y="153" width="112" height="111">
<path d="M141.875 263.546C172.342 263.546 197.041 238.848 197.041 208.38C197.041 177.913 172.342 153.215 141.875 153.215C111.408 153.215 86.7097 177.913 86.7097 208.38C86.7097 238.848 111.408 263.546 141.875 263.546Z" fill="white"/>
</mask>
<g mask="url(#mask0_8688_209)">
<path d="M141.875 263.548C172.342 263.548 197.041 238.849 197.041 208.382C197.041 177.915 172.342 153.217 141.875 153.217C111.408 153.217 86.7097 177.915 86.7097 208.382C86.7097 238.849 111.408 263.548 141.875 263.548Z" fill="url(#paint11_linear_8688_209)"/>
<path d="M141.875 153.217C111.422 153.217 86.7097 177.929 86.7097 208.382C86.7097 238.836 111.422 263.548 141.875 263.548C172.329 263.548 197.041 238.836 197.041 208.382C197.041 177.929 172.329 153.217 141.875 153.217ZM141.875 262.05C112.221 262.05 88.2074 238.037 88.2074 208.382C88.2074 178.728 112.221 154.715 141.875 154.715C171.53 154.715 195.543 178.728 195.543 208.382C195.543 238.037 171.53 262.05 141.875 262.05Z" fill="url(#paint12_linear_8688_209)"/>
<path opacity="0.75" d="M158.653 248.607C180.87 239.345 191.372 213.826 182.11 191.609C172.849 169.392 147.33 158.889 125.113 168.151C102.896 177.413 92.3932 202.931 101.655 225.149C110.917 247.366 136.435 257.868 158.653 248.607Z" fill="url(#paint13_linear_8688_209)" style="mix-blend-mode:screen"/>
<path d="M158.653 248.607C180.87 239.345 191.372 213.826 182.11 191.609C172.849 169.392 147.33 158.889 125.113 168.151C102.896 177.413 92.3932 202.931 101.655 225.149C110.917 247.366 136.435 257.868 158.653 248.607Z" fill="url(#paint14_linear_8688_209)"/>
<path d="M141.875 250.519C165.145 250.519 184.01 231.654 184.01 208.384C184.01 185.113 165.145 166.248 141.875 166.248C118.604 166.248 99.739 185.113 99.739 208.384C99.739 231.654 118.604 250.519 141.875 250.519Z" fill="url(#paint15_linear_8688_209)"/>
<g opacity="0.5">
<g style="mix-blend-mode:multiply" opacity="0.85">
<path d="M176.272 213.477C175.573 213.377 175.074 212.728 175.224 212.079C175.324 211.43 175.873 210.881 176.572 210.931C177.271 210.931 177.82 211.63 177.77 212.329C177.67 213.028 177.021 213.577 176.322 213.427L176.272 213.477Z" fill="url(#paint16_linear_8688_209)"/>
<path d="M175.175 218.416C174.526 218.216 174.076 217.518 174.276 216.869C174.426 216.22 175.125 215.82 175.824 215.97C176.523 216.12 176.922 216.819 176.722 217.518C176.523 218.216 175.824 218.616 175.175 218.416Z" fill="url(#paint17_linear_8688_209)"/>
<path d="M173.327 223.16C172.678 222.86 172.429 222.111 172.728 221.512C172.978 220.863 173.677 220.564 174.326 220.813C174.975 221.063 175.324 221.812 175.074 222.511C174.775 223.16 173.976 223.459 173.377 223.16H173.327Z" fill="url(#paint18_linear_8688_209)"/>
<path d="M170.881 227.606C170.281 227.206 170.132 226.408 170.431 225.858C170.731 225.309 171.58 225.11 172.179 225.459C172.778 225.808 172.977 226.557 172.628 227.206C172.229 227.855 171.48 228.005 170.881 227.606Z" fill="url(#paint19_linear_8688_209)"/>
<path d="M167.736 231.598C167.236 231.148 167.137 230.35 167.636 229.85C168.085 229.351 168.834 229.251 169.383 229.651C169.932 230.05 170.032 230.899 169.583 231.448C169.084 231.997 168.285 232.047 167.736 231.598Z" fill="url(#paint20_linear_8688_209)"/>
<path d="M164.141 235.141C163.692 234.592 163.742 233.793 164.241 233.344C164.74 232.895 165.539 232.945 166.038 233.444C166.537 233.943 166.487 234.742 165.938 235.241C165.389 235.74 164.59 235.691 164.141 235.141Z" fill="url(#paint21_linear_8688_209)"/>
<path d="M159.997 238.038C159.648 237.439 159.798 236.69 160.397 236.341C160.946 235.991 161.695 236.091 162.144 236.64C162.544 237.189 162.444 238.038 161.795 238.437C161.146 238.837 160.347 238.637 159.997 238.038Z" fill="url(#paint22_linear_8688_209)"/>
<path d="M155.504 240.433C155.255 239.784 155.504 239.035 156.103 238.736C156.702 238.436 157.451 238.736 157.801 239.335C158.15 239.934 157.851 240.733 157.202 241.032C156.553 241.332 155.804 241.032 155.504 240.433Z" fill="url(#paint23_linear_8688_209)"/>
<path d="M150.662 242.033C150.512 241.334 150.862 240.685 151.511 240.485C152.16 240.335 152.859 240.635 153.058 241.284C153.308 241.933 152.909 242.732 152.21 242.931C151.511 243.131 150.762 242.732 150.612 242.033H150.662Z" fill="url(#paint24_linear_8688_209)"/>
<path d="M145.67 242.981C145.62 242.282 146.069 241.633 146.718 241.533C147.367 241.433 148.016 241.933 148.166 242.582C148.316 243.281 147.817 243.93 147.118 244.029C146.419 244.129 145.77 243.68 145.67 242.981Z" fill="url(#paint25_linear_8688_209)"/>
<path d="M140.627 243.13C140.627 242.431 141.226 241.882 141.875 241.932C142.524 241.932 143.123 242.431 143.123 243.13C143.123 243.829 142.574 244.428 141.875 244.478C141.126 244.478 140.577 243.829 140.627 243.13Z" fill="url(#paint26_linear_8688_209)"/>
<path d="M135.585 242.583C135.734 241.884 136.383 241.435 137.032 241.534C137.681 241.634 138.181 242.283 138.081 242.982C138.031 243.681 137.382 244.18 136.633 244.031C135.884 243.881 135.435 243.282 135.585 242.583Z" fill="url(#paint27_linear_8688_209)"/>
<path d="M130.642 241.282C130.892 240.583 131.541 240.284 132.19 240.484C132.839 240.633 133.238 241.332 133.038 242.031C132.889 242.73 132.14 243.13 131.441 242.93C130.742 242.73 130.392 241.981 130.592 241.282H130.642Z" fill="url(#paint28_linear_8688_209)"/>
<path d="M125.999 239.335C126.349 238.736 127.097 238.436 127.697 238.736C128.296 239.035 128.595 239.784 128.296 240.433C128.046 241.082 127.247 241.332 126.598 241.032C125.949 240.733 125.65 239.934 125.999 239.335Z" fill="url(#paint29_linear_8688_209)"/>
<path d="M121.656 236.637C122.055 236.038 122.804 235.938 123.403 236.337C123.952 236.687 124.152 237.436 123.803 238.035C123.453 238.634 122.654 238.833 122.005 238.434C121.406 238.035 121.257 237.186 121.656 236.637Z" fill="url(#paint30_linear_8688_209)"/>
<path d="M117.762 233.395C118.262 232.896 119.06 232.846 119.56 233.295C120.059 233.745 120.109 234.543 119.66 235.093C119.21 235.642 118.411 235.692 117.862 235.192C117.313 234.693 117.263 233.894 117.762 233.395Z" fill="url(#paint31_linear_8688_209)"/>
<path d="M114.367 229.648C114.917 229.199 115.715 229.299 116.115 229.848C116.564 230.347 116.514 231.146 116.015 231.595C115.516 232.045 114.667 231.995 114.168 231.445C113.718 230.896 113.818 230.048 114.367 229.648Z" fill="url(#paint32_linear_8688_209)"/>
<path d="M111.572 225.405C112.171 225.056 112.97 225.256 113.319 225.805C113.669 226.354 113.469 227.153 112.87 227.552C112.271 227.951 111.522 227.752 111.123 227.153C110.723 226.504 110.923 225.755 111.572 225.405Z" fill="url(#paint33_linear_8688_209)"/>
<path d="M109.425 220.813C110.074 220.564 110.773 220.863 111.022 221.512C111.322 222.111 111.022 222.86 110.423 223.16C109.774 223.459 109.025 223.16 108.726 222.511C108.476 221.812 108.776 221.063 109.475 220.813H109.425Z" fill="url(#paint34_linear_8688_209)"/>
<path d="M107.927 215.97C108.626 215.82 109.325 216.22 109.474 216.869C109.624 217.518 109.225 218.216 108.576 218.416C107.927 218.616 107.228 218.216 107.028 217.518C106.828 216.819 107.278 216.12 107.927 215.97Z" fill="url(#paint35_linear_8688_209)"/>
<path d="M107.228 210.928C107.926 210.928 108.476 211.377 108.575 212.076C108.675 212.725 108.176 213.374 107.527 213.474C106.828 213.574 106.179 213.074 106.079 212.376C105.979 211.627 106.579 211.028 107.277 210.978L107.228 210.928Z" fill="url(#paint36_linear_8688_209)"/>
<path d="M107.228 205.84C107.927 205.89 108.476 206.489 108.426 207.138C108.426 207.787 107.777 208.336 107.079 208.336C106.38 208.336 105.83 207.737 105.88 207.038C105.88 206.289 106.529 205.74 107.228 205.84Z" fill="url(#paint37_linear_8688_209)"/>
<path d="M107.928 200.845C108.627 200.994 109.026 201.644 108.926 202.342C108.826 202.991 108.177 203.441 107.478 203.391C106.779 203.291 106.33 202.642 106.43 201.893C106.53 201.144 107.229 200.745 107.928 200.895V200.845Z" fill="url(#paint38_linear_8688_209)"/>
<path d="M109.425 196.001C110.074 196.251 110.423 197 110.174 197.599C109.924 198.248 109.225 198.597 108.576 198.398C107.877 198.198 107.528 197.449 107.777 196.8C108.027 196.101 108.776 195.752 109.425 196.001Z" fill="url(#paint39_linear_8688_209)"/>
<path d="M111.571 191.361C112.17 191.71 112.37 192.459 112.12 193.058C111.821 193.657 111.072 193.907 110.423 193.607C109.774 193.308 109.524 192.559 109.824 191.86C110.124 191.211 110.922 190.961 111.571 191.311V191.361Z" fill="url(#paint40_linear_8688_209)"/>
<path d="M114.368 187.167C114.917 187.616 115.067 188.365 114.617 188.914C114.218 189.463 113.419 189.563 112.87 189.213C112.271 188.814 112.121 188.015 112.57 187.416C113.02 186.817 113.818 186.717 114.368 187.117V187.167Z" fill="url(#paint41_linear_8688_209)"/>
<path d="M117.762 183.37C118.261 183.869 118.211 184.618 117.762 185.167C117.313 185.666 116.514 185.666 116.015 185.217C115.465 184.768 115.465 183.919 115.965 183.37C116.464 182.821 117.313 182.871 117.762 183.37Z" fill="url(#paint42_linear_8688_209)"/>
<path d="M121.655 180.127C122.055 180.676 121.955 181.475 121.406 181.874C120.857 182.273 120.058 182.173 119.609 181.624C119.159 181.075 119.259 180.276 119.858 179.827C120.457 179.378 121.256 179.478 121.655 180.077V180.127Z" fill="url(#paint43_linear_8688_209)"/>
<path d="M125.999 177.481C126.348 178.13 126.049 178.829 125.5 179.178C124.951 179.528 124.152 179.328 123.802 178.729C123.453 178.13 123.653 177.331 124.252 176.982C124.851 176.582 125.699 176.882 125.999 177.481Z" fill="url(#paint44_linear_8688_209)"/>
<path d="M130.642 175.484C130.842 176.133 130.542 176.882 129.893 177.132C129.244 177.381 128.545 177.032 128.246 176.383C127.946 175.734 128.246 174.985 128.994 174.735C129.693 174.486 130.442 174.835 130.642 175.484Z" fill="url(#paint45_linear_8688_209)"/>
<path d="M135.584 174.234C135.734 174.933 135.235 175.532 134.636 175.732C133.987 175.882 133.288 175.482 133.138 174.783C132.988 174.084 133.388 173.386 134.087 173.236C134.786 173.036 135.485 173.535 135.584 174.234Z" fill="url(#paint46_linear_8688_209)"/>
<path d="M140.627 173.688C140.627 174.387 140.127 174.986 139.429 175.036C138.78 175.036 138.131 174.537 138.081 173.838C137.981 173.139 138.53 172.49 139.279 172.49C140.028 172.49 140.627 172.989 140.627 173.688Z" fill="url(#paint47_linear_8688_209)"/>
<path d="M145.669 173.835C145.57 174.534 144.97 175.034 144.321 175.034C143.672 175.034 143.123 174.385 143.123 173.686C143.123 172.987 143.772 172.438 144.471 172.488C145.22 172.488 145.719 173.137 145.669 173.835Z" fill="url(#paint48_linear_8688_209)"/>
<path d="M150.662 174.783C150.462 175.482 149.813 175.882 149.164 175.732C148.515 175.532 148.066 174.933 148.216 174.234C148.316 173.535 149.014 173.036 149.713 173.236C150.412 173.435 150.862 174.134 150.662 174.783Z" fill="url(#paint49_linear_8688_209)"/>
<path d="M155.505 176.383C155.255 177.032 154.507 177.381 153.858 177.132C153.209 176.882 152.909 176.183 153.109 175.484C153.308 174.835 154.057 174.486 154.756 174.735C155.455 174.985 155.755 175.684 155.505 176.383Z" fill="url(#paint50_linear_8688_209)"/>
<path d="M159.997 178.729C159.648 179.328 158.849 179.528 158.3 179.178C157.751 178.829 157.451 178.13 157.801 177.481C158.1 176.882 158.949 176.582 159.548 176.982C160.197 177.381 160.397 178.13 159.997 178.729Z" fill="url(#paint51_linear_8688_209)"/>
<path d="M164.141 181.673C163.691 182.172 162.893 182.322 162.343 181.922C161.794 181.523 161.694 180.724 162.094 180.175C162.493 179.626 163.292 179.476 163.891 179.926C164.49 180.375 164.59 181.174 164.141 181.723V181.673Z" fill="url(#paint52_linear_8688_209)"/>
<path d="M167.735 185.217C167.186 185.666 166.437 185.666 165.988 185.167C165.539 184.668 165.539 183.919 165.988 183.37C166.487 182.871 167.336 182.821 167.785 183.37C168.285 183.919 168.235 184.718 167.735 185.217Z" fill="url(#paint53_linear_8688_209)"/>
<path d="M170.881 189.214C170.282 189.614 169.533 189.464 169.134 188.915C168.735 188.366 168.834 187.567 169.384 187.168C169.933 186.718 170.732 186.868 171.181 187.467C171.63 188.066 171.48 188.865 170.881 189.264V189.214Z" fill="url(#paint54_linear_8688_209)"/>
<path d="M173.327 193.655C172.678 193.955 171.93 193.655 171.63 193.106C171.38 192.507 171.58 191.758 172.179 191.409C172.778 191.059 173.627 191.259 173.926 191.958C174.226 192.607 173.976 193.406 173.327 193.705V193.655Z" fill="url(#paint55_linear_8688_209)"/>
<path d="M175.174 198.398C174.525 198.597 173.826 198.248 173.577 197.599C173.327 196.95 173.677 196.251 174.326 196.001C174.975 195.752 175.724 196.101 175.973 196.8C176.223 197.499 175.873 198.198 175.174 198.398Z" fill="url(#paint56_linear_8688_209)"/>
<path d="M176.273 203.342C175.574 203.441 174.925 202.992 174.825 202.293C174.725 201.644 175.125 200.995 175.823 200.795C176.522 200.646 177.221 201.095 177.321 201.794C177.421 202.493 176.972 203.192 176.273 203.292V203.342Z" fill="url(#paint57_linear_8688_209)"/>
<path d="M176.672 208.384C175.973 208.384 175.374 207.835 175.324 207.186C175.324 206.537 175.823 205.938 176.522 205.888C177.221 205.838 177.82 206.387 177.87 207.086C177.87 207.835 177.371 208.384 176.672 208.384Z" fill="url(#paint58_linear_8688_209)"/>
</g>
<g style="mix-blend-mode:multiply" opacity="0.85">
<path d="M176.272 213.477C175.573 213.377 175.074 212.728 175.224 212.079C175.324 211.43 175.873 210.881 176.572 210.931C177.271 210.931 177.82 211.63 177.77 212.329C177.67 213.028 177.021 213.577 176.322 213.427L176.272 213.477Z" fill="url(#paint59_linear_8688_209)"/>
<path d="M175.175 218.416C174.526 218.216 174.076 217.518 174.276 216.869C174.426 216.22 175.125 215.82 175.824 215.97C176.523 216.12 176.922 216.819 176.722 217.518C176.523 218.216 175.824 218.616 175.175 218.416Z" fill="url(#paint60_linear_8688_209)"/>
<path d="M173.327 223.16C172.678 222.86 172.429 222.111 172.728 221.512C172.978 220.863 173.677 220.564 174.326 220.813C174.975 221.063 175.324 221.812 175.074 222.511C174.775 223.16 173.976 223.459 173.377 223.16H173.327Z" fill="url(#paint61_linear_8688_209)"/>
<path d="M170.881 227.606C170.281 227.206 170.132 226.408 170.431 225.858C170.731 225.309 171.58 225.11 172.179 225.459C172.778 225.808 172.977 226.557 172.628 227.206C172.229 227.855 171.48 228.005 170.881 227.606Z" fill="url(#paint62_linear_8688_209)"/>
<path d="M167.736 231.598C167.236 231.148 167.137 230.35 167.636 229.85C168.085 229.351 168.834 229.251 169.383 229.651C169.932 230.05 170.032 230.899 169.583 231.448C169.084 231.997 168.285 232.047 167.736 231.598Z" fill="url(#paint63_linear_8688_209)"/>
<path d="M164.141 235.141C163.692 234.592 163.742 233.793 164.241 233.344C164.74 232.895 165.539 232.945 166.038 233.444C166.537 233.943 166.487 234.742 165.938 235.241C165.389 235.74 164.59 235.691 164.141 235.141Z" fill="url(#paint64_linear_8688_209)"/>
<path d="M159.997 238.038C159.648 237.439 159.798 236.69 160.397 236.341C160.946 235.991 161.695 236.091 162.144 236.64C162.544 237.189 162.444 238.038 161.795 238.437C161.146 238.837 160.347 238.637 159.997 238.038Z" fill="url(#paint65_linear_8688_209)"/>
<path d="M155.504 240.433C155.255 239.784 155.504 239.035 156.103 238.736C156.702 238.436 157.451 238.736 157.801 239.335C158.15 239.934 157.851 240.733 157.202 241.032C156.553 241.332 155.804 241.032 155.504 240.433Z" fill="url(#paint66_linear_8688_209)"/>
<path d="M150.662 242.033C150.512 241.334 150.862 240.685 151.511 240.485C152.16 240.335 152.859 240.635 153.058 241.284C153.308 241.933 152.909 242.732 152.21 242.931C151.511 243.131 150.762 242.732 150.612 242.033H150.662Z" fill="url(#paint67_linear_8688_209)"/>
<path d="M145.67 242.981C145.62 242.282 146.069 241.633 146.718 241.533C147.367 241.433 148.016 241.933 148.166 242.582C148.316 243.281 147.817 243.93 147.118 244.029C146.419 244.129 145.77 243.68 145.67 242.981Z" fill="url(#paint68_linear_8688_209)"/>
<path d="M140.627 243.13C140.627 242.431 141.226 241.882 141.875 241.932C142.524 241.932 143.123 242.431 143.123 243.13C143.123 243.829 142.574 244.428 141.875 244.478C141.126 244.478 140.577 243.829 140.627 243.13Z" fill="url(#paint69_linear_8688_209)"/>
<path d="M135.585 242.583C135.734 241.884 136.383 241.435 137.032 241.534C137.681 241.634 138.181 242.283 138.081 242.982C138.031 243.681 137.382 244.18 136.633 244.031C135.884 243.881 135.435 243.282 135.585 242.583Z" fill="url(#paint70_linear_8688_209)"/>
<path d="M130.642 241.282C130.892 240.583 131.541 240.284 132.19 240.484C132.839 240.633 133.238 241.332 133.038 242.031C132.889 242.73 132.14 243.13 131.441 242.93C130.742 242.73 130.392 241.981 130.592 241.282H130.642Z" fill="url(#paint71_linear_8688_209)"/>
<path d="M125.999 239.335C126.349 238.736 127.097 238.436 127.697 238.736C128.296 239.035 128.595 239.784 128.296 240.433C128.046 241.082 127.247 241.332 126.598 241.032C125.949 240.733 125.65 239.934 125.999 239.335Z" fill="url(#paint72_linear_8688_209)"/>
<path d="M121.656 236.637C122.055 236.038 122.804 235.938 123.403 236.337C123.952 236.687 124.152 237.436 123.803 238.035C123.453 238.634 122.654 238.833 122.005 238.434C121.406 238.035 121.257 237.186 121.656 236.637Z" fill="url(#paint73_linear_8688_209)"/>
<path d="M117.762 233.395C118.262 232.896 119.06 232.846 119.56 233.295C120.059 233.745 120.109 234.543 119.66 235.093C119.21 235.642 118.411 235.692 117.862 235.192C117.313 234.693 117.263 233.894 117.762 233.395Z" fill="url(#paint74_linear_8688_209)"/>
<path d="M114.367 229.648C114.917 229.199 115.715 229.299 116.115 229.848C116.564 230.347 116.514 231.146 116.015 231.595C115.516 232.045 114.667 231.995 114.168 231.445C113.718 230.896 113.818 230.048 114.367 229.648Z" fill="url(#paint75_linear_8688_209)"/>
<path d="M111.572 225.405C112.171 225.056 112.97 225.256 113.319 225.805C113.669 226.354 113.469 227.153 112.87 227.552C112.271 227.951 111.522 227.752 111.123 227.153C110.723 226.504 110.923 225.755 111.572 225.405Z" fill="url(#paint76_linear_8688_209)"/>
<path d="M109.425 220.813C110.074 220.564 110.773 220.863 111.022 221.512C111.322 222.111 111.022 222.86 110.423 223.16C109.774 223.459 109.025 223.16 108.726 222.511C108.476 221.812 108.776 221.063 109.475 220.813H109.425Z" fill="url(#paint77_linear_8688_209)"/>
<path d="M107.927 215.97C108.626 215.82 109.325 216.22 109.474 216.869C109.624 217.518 109.225 218.216 108.576 218.416C107.927 218.616 107.228 218.216 107.028 217.518C106.828 216.819 107.278 216.12 107.927 215.97Z" fill="url(#paint78_linear_8688_209)"/>
<path d="M107.228 210.928C107.926 210.928 108.476 211.377 108.575 212.076C108.675 212.725 108.176 213.374 107.527 213.474C106.828 213.574 106.179 213.074 106.079 212.376C105.979 211.627 106.579 211.028 107.277 210.978L107.228 210.928Z" fill="url(#paint79_linear_8688_209)"/>
<path d="M107.228 205.84C107.927 205.89 108.476 206.489 108.426 207.138C108.426 207.787 107.777 208.336 107.079 208.336C106.38 208.336 105.83 207.737 105.88 207.038C105.88 206.289 106.529 205.74 107.228 205.84Z" fill="url(#paint80_linear_8688_209)"/>
<path d="M107.928 200.845C108.627 200.994 109.026 201.644 108.926 202.342C108.826 202.991 108.177 203.441 107.478 203.391C106.779 203.291 106.33 202.642 106.43 201.893C106.53 201.144 107.229 200.745 107.928 200.895V200.845Z" fill="url(#paint81_linear_8688_209)"/>
<path d="M109.425 196.001C110.074 196.251 110.423 197 110.174 197.599C109.924 198.248 109.225 198.597 108.576 198.398C107.877 198.198 107.528 197.449 107.777 196.8C108.027 196.101 108.776 195.752 109.425 196.001Z" fill="url(#paint82_linear_8688_209)"/>
<path d="M111.571 191.361C112.17 191.71 112.37 192.459 112.12 193.058C111.821 193.657 111.072 193.907 110.423 193.607C109.774 193.308 109.524 192.559 109.824 191.86C110.124 191.211 110.922 190.961 111.571 191.311V191.361Z" fill="url(#paint83_linear_8688_209)"/>
<path d="M114.368 187.167C114.917 187.616 115.067 188.365 114.617 188.914C114.218 189.463 113.419 189.563 112.87 189.213C112.271 188.814 112.121 188.015 112.57 187.416C113.02 186.817 113.818 186.717 114.368 187.117V187.167Z" fill="url(#paint84_linear_8688_209)"/>
<path d="M117.762 183.37C118.261 183.869 118.211 184.618 117.762 185.167C117.313 185.666 116.514 185.666 116.015 185.217C115.465 184.768 115.465 183.919 115.965 183.37C116.464 182.821 117.313 182.871 117.762 183.37Z" fill="url(#paint85_linear_8688_209)"/>
<path d="M121.655 180.127C122.055 180.676 121.955 181.475 121.406 181.874C120.857 182.273 120.058 182.173 119.609 181.624C119.159 181.075 119.259 180.276 119.858 179.827C120.457 179.378 121.256 179.478 121.655 180.077V180.127Z" fill="url(#paint86_linear_8688_209)"/>
<path d="M125.999 177.481C126.348 178.13 126.049 178.829 125.5 179.178C124.951 179.528 124.152 179.328 123.802 178.729C123.453 178.13 123.653 177.331 124.252 176.982C124.851 176.582 125.699 176.882 125.999 177.481Z" fill="url(#paint87_linear_8688_209)"/>
<path d="M130.642 175.484C130.842 176.133 130.542 176.882 129.893 177.132C129.244 177.381 128.545 177.032 128.246 176.383C127.946 175.734 128.246 174.985 128.994 174.735C129.693 174.486 130.442 174.835 130.642 175.484Z" fill="url(#paint88_linear_8688_209)"/>
<path d="M135.584 174.234C135.734 174.933 135.235 175.532 134.636 175.732C133.987 175.882 133.288 175.482 133.138 174.783C132.988 174.084 133.388 173.386 134.087 173.236C134.786 173.036 135.485 173.535 135.584 174.234Z" fill="url(#paint89_linear_8688_209)"/>
<path d="M140.627 173.688C140.627 174.387 140.127 174.986 139.429 175.036C138.78 175.036 138.131 174.537 138.081 173.838C137.981 173.139 138.53 172.49 139.279 172.49C140.028 172.49 140.627 172.989 140.627 173.688Z" fill="url(#paint90_linear_8688_209)"/>
<path d="M145.669 173.835C145.57 174.534 144.97 175.034 144.321 175.034C143.672 175.034 143.123 174.385 143.123 173.686C143.123 172.987 143.772 172.438 144.471 172.488C145.22 172.488 145.719 173.137 145.669 173.835Z" fill="url(#paint91_linear_8688_209)"/>
<path d="M150.662 174.783C150.462 175.482 149.813 175.882 149.164 175.732C148.515 175.532 148.066 174.933 148.216 174.234C148.316 173.535 149.014 173.036 149.713 173.236C150.412 173.435 150.862 174.134 150.662 174.783Z" fill="url(#paint92_linear_8688_209)"/>
<path d="M155.505 176.383C155.255 177.032 154.507 177.381 153.858 177.132C153.209 176.882 152.909 176.183 153.109 175.484C153.308 174.835 154.057 174.486 154.756 174.735C155.455 174.985 155.755 175.684 155.505 176.383Z" fill="url(#paint93_linear_8688_209)"/>
<path d="M159.997 178.729C159.648 179.328 158.849 179.528 158.3 179.178C157.751 178.829 157.451 178.13 157.801 177.481C158.1 176.882 158.949 176.582 159.548 176.982C160.197 177.381 160.397 178.13 159.997 178.729Z" fill="url(#paint94_linear_8688_209)"/>
<path d="M164.141 181.673C163.691 182.172 162.893 182.322 162.343 181.922C161.794 181.523 161.694 180.724 162.094 180.175C162.493 179.626 163.292 179.476 163.891 179.926C164.49 180.375 164.59 181.174 164.141 181.723V181.673Z" fill="url(#paint95_linear_8688_209)"/>
<path d="M167.735 185.217C167.186 185.666 166.437 185.666 165.988 185.167C165.539 184.668 165.539 183.919 165.988 183.37C166.487 182.871 167.336 182.821 167.785 183.37C168.285 183.919 168.235 184.718 167.735 185.217Z" fill="url(#paint96_linear_8688_209)"/>
<path d="M170.881 189.214C170.282 189.614 169.533 189.464 169.134 188.915C168.735 188.366 168.834 187.567 169.384 187.168C169.933 186.718 170.732 186.868 171.181 187.467C171.63 188.066 171.48 188.865 170.881 189.264V189.214Z" fill="url(#paint97_linear_8688_209)"/>
<path d="M173.327 193.655C172.678 193.955 171.93 193.655 171.63 193.106C171.38 192.507 171.58 191.758 172.179 191.409C172.778 191.059 173.627 191.259 173.926 191.958C174.226 192.607 173.976 193.406 173.327 193.705V193.655Z" fill="url(#paint98_linear_8688_209)"/>
<path d="M175.174 198.398C174.525 198.597 173.826 198.248 173.577 197.599C173.327 196.95 173.677 196.251 174.326 196.001C174.975 195.752 175.724 196.101 175.973 196.8C176.223 197.499 175.873 198.198 175.174 198.398Z" fill="url(#paint99_linear_8688_209)"/>
<path d="M176.273 203.342C175.574 203.441 174.925 202.992 174.825 202.293C174.725 201.644 175.125 200.995 175.823 200.795C176.522 200.646 177.221 201.095 177.321 201.794C177.421 202.493 176.972 203.192 176.273 203.292V203.342Z" fill="url(#paint100_linear_8688_209)"/>
<path d="M176.672 208.384C175.973 208.384 175.374 207.835 175.324 207.186C175.324 206.537 175.823 205.938 176.522 205.888C177.221 205.838 177.82 206.387 177.87 207.086C177.87 207.835 177.371 208.384 176.672 208.384Z" fill="url(#paint101_linear_8688_209)"/>
</g>
</g>
<path opacity="0.55" d="M141.875 166.248C118.61 166.248 99.739 185.119 99.739 208.384C99.739 231.648 118.61 250.519 141.875 250.519C165.139 250.519 184.01 231.648 184.01 208.384C184.01 185.119 165.139 166.248 141.875 166.248ZM141.875 247.823C120.108 247.823 102.485 230.2 102.485 208.433C102.485 186.667 120.108 169.044 141.875 169.044C163.641 169.044 181.264 186.667 181.264 208.433C181.264 230.2 163.641 247.823 141.875 247.823Z" fill="url(#paint102_radial_8688_209)" style="mix-blend-mode:multiply"/>
<mask id="mask1_8688_209" style="mask-type:luminance" maskUnits="userSpaceOnUse" x="134" y="152" width="66" height="45">
<path d="M174.675 159.907C192.148 168.993 202.882 182.922 198.688 190.96C194.494 199.047 176.921 198.199 159.448 189.113C141.975 180.026 131.241 166.098 135.435 158.06C139.628 149.972 157.201 150.821 174.675 159.907Z" fill="url(#paint103_radial_8688_209)" style="mix-blend-mode:multiply"/>
</mask>
<g mask="url(#mask1_8688_209)">
<path d="M174.675 159.907C192.148 168.993 202.882 182.922 198.688 190.96C194.494 199.047 176.921 198.199 159.448 189.113C141.975 180.026 131.241 166.098 135.435 158.06C139.628 149.972 157.201 150.821 174.675 159.907Z" fill="url(#paint104_radial_8688_209)" style="mix-blend-mode:screen"/>
</g>
<mask id="mask2_8688_209" style="mask-type:luminance" maskUnits="userSpaceOnUse" x="154" y="162" width="26" height="25">
<path d="M178.019 180.126C174.874 186.217 167.435 188.663 161.345 185.518C155.304 182.423 152.907 174.934 156.053 168.844C159.198 162.753 166.636 160.307 172.727 163.452C178.768 166.547 181.164 174.036 178.019 180.126Z" fill="url(#paint105_radial_8688_209)"/>
</mask>
<g mask="url(#mask2_8688_209)">
<path d="M178.019 180.126C174.874 186.217 167.435 188.663 161.345 185.518C155.304 182.423 152.907 174.934 156.053 168.844C159.198 162.753 166.636 160.307 172.727 163.452C178.768 166.547 181.164 174.036 178.019 180.126Z" fill="url(#paint106_radial_8688_209)" style="mix-blend-mode:screen"/>
</g>
<mask id="mask3_8688_209" style="mask-type:luminance" maskUnits="userSpaceOnUse" x="95" y="225" width="38" height="30">
<path d="M119.509 230.896C129.195 236.937 134.436 246.023 131.241 251.265C127.996 256.507 117.512 255.808 107.777 249.818C98.0921 243.777 92.8501 234.691 96.0452 229.449C99.2903 224.207 109.774 224.906 119.509 230.896Z" fill="url(#paint107_radial_8688_209)" style="mix-blend-mode:multiply"/>
</mask>
<g mask="url(#mask3_8688_209)">
<path d="M119.509 230.896C129.195 236.937 134.436 246.023 131.241 251.265C127.996 256.507 117.512 255.808 107.777 249.818C98.0921 243.777 92.8501 234.691 96.0452 229.449C99.2903 224.207 109.774 224.906 119.509 230.896Z" fill="url(#paint108_radial_8688_209)" style="mix-blend-mode:screen"/>
</g>
<path d="M144.322 213.873C152.559 208.381 156.902 206.184 156.902 198.696C156.902 192.855 152.11 189.011 144.471 189.011C134.337 189.011 129.145 193.304 129.145 199.944C129.145 200.293 129.145 201.741 129.145 202.141H138.98V200.643C138.98 199.245 140.278 196.999 143.173 196.999C143.473 196.999 143.673 196.999 143.922 196.999C145.42 197.448 145.969 198.546 145.969 199.894C145.969 201.941 141.276 204.537 133.388 211.476C130.742 213.823 129.145 216.269 129.145 220.762V223.009H157.202V213.923H144.272L144.322 213.873Z" fill="url(#paint109_linear_8688_209)"/>
<path d="M155.953 199.296C155.953 206.136 149.014 209.53 142.474 214.173H156.303V221.961H130.093V219.765C130.093 216.32 131.94 213.874 134.486 211.577C141.675 205.187 146.817 202.591 146.817 199.645C146.817 197.898 145.669 196.301 142.873 196.301C140.777 196.301 139.529 197.399 138.73 198.847C138.28 199.645 138.38 201.543 138.38 201.543H130.193C130.193 201.543 130.193 199.246 130.293 198.647C131.091 193.255 135.585 189.811 143.722 189.811C151.211 189.811 155.904 193.605 155.904 199.346L155.953 199.296Z" fill="url(#paint110_linear_8688_209)"/>
</g>
<path opacity="0.35" d="M176.971 165.795C176.122 165.096 175.224 164.497 174.375 163.848V163.798C174.375 163.748 174.375 163.698 174.375 163.599C174.375 163.349 174.475 163.099 174.525 162.85C174.525 162.65 174.575 162.4 174.625 162.151C174.625 162.101 174.625 162.001 174.625 161.951C174.874 160.403 175.024 158.806 174.974 157.109C174.974 156.609 174.974 156.11 174.974 155.561C174.974 155.062 174.924 154.512 174.824 154.013C174.724 152.965 174.525 151.966 174.225 150.918C174.075 150.269 173.826 149.62 173.576 148.971C173.327 148.272 173.027 147.573 172.678 146.874C171.879 145.277 170.78 143.779 169.433 142.381L171.03 139.885L226.345 52.8181L219.506 48.6745V48.5746L198.688 35.9939V36.0937L191.798 32H94.597V32.1498L94.5471 32L60 52.8181L115.765 140.634C112.07 143.579 110.023 147.174 109.025 150.918C108.626 152.466 108.376 154.013 108.326 155.561C108.326 156.06 108.326 156.559 108.326 157.109C108.326 158.107 108.326 159.105 108.476 160.054C108.476 160.154 108.476 160.254 108.476 160.403C108.476 160.503 108.476 160.653 108.476 160.753C108.526 161.202 108.576 161.652 108.626 162.051C108.626 162.151 108.626 162.301 108.675 162.4C108.725 162.85 108.825 163.299 108.925 163.698C108.925 163.748 108.925 163.848 108.925 163.898C108.925 163.948 108.925 163.998 108.925 164.048C105.331 166.694 102.036 169.789 99.19 173.234C96.9435 175.98 94.9465 178.925 93.2491 182.02C89.0056 189.858 86.6093 198.795 86.6093 208.33C86.6093 214.021 87.458 219.563 89.1055 224.755C90.2038 228.2 91.6016 231.545 93.299 234.64C94.9964 237.785 96.9934 240.731 99.2399 243.426C100.388 244.774 101.536 246.072 102.785 247.32C105.281 249.817 108.026 252.063 110.972 254.06C119.759 260.001 130.392 263.496 141.825 263.496C153.257 263.496 163.891 260.001 172.678 254.06C182.962 247.121 190.75 236.787 194.544 224.705C196.142 219.513 197.04 214.021 197.04 208.28C197.04 198.745 194.644 189.808 190.4 181.97C187.006 175.73 182.413 170.189 176.971 165.695V165.795ZM123.303 152.516H163.092L164.191 150.818C164.889 151.717 165.439 152.715 165.788 153.714C165.888 154.063 165.988 154.413 166.088 154.762C166.337 155.811 166.387 156.909 166.387 158.007C166.387 158.007 166.387 158.057 166.387 158.107C166.387 158.407 166.387 158.656 166.337 158.956C158.949 155.311 150.711 153.214 141.925 153.214C133.138 153.214 124.601 155.361 117.113 159.155C117.063 158.407 117.013 157.708 117.063 157.009C117.063 157.009 117.063 157.009 117.063 156.959C117.063 156.46 117.163 155.91 117.212 155.411C117.312 154.862 117.462 154.313 117.612 153.764C118.211 152.016 119.259 150.419 121.057 149.021L123.303 152.565V152.516ZM125.949 68.4442H171.13L149.213 106.985L143.223 117.519L115.315 68.4442H125.949Z" fill="url(#paint111_radial_8688_209)" style="mix-blend-mode:overlay"/>
<path d="M298.229 84.6392C295.786 84.6297 293.684 84.0284 291.922 82.8352C290.17 81.642 288.821 79.9138 287.874 77.6506C286.936 75.3873 286.472 72.6648 286.482 69.483C286.482 66.3106 286.951 63.607 287.888 61.3722C288.835 59.1373 290.185 57.4375 291.936 56.2727C293.698 55.0985 295.795 54.5114 298.229 54.5114C300.663 54.5114 302.756 55.0985 304.507 56.2727C306.269 57.447 307.623 59.1515 308.57 61.3864C309.517 63.6117 309.986 66.3106 309.976 69.483C309.976 72.6742 309.503 75.4015 308.556 77.6648C307.618 79.928 306.274 81.6562 304.522 82.8494C302.77 84.0426 300.672 84.6392 298.229 84.6392ZM298.229 79.5398C299.896 79.5398 301.226 78.7017 302.221 77.0256C303.215 75.3494 303.707 72.8352 303.698 69.483C303.698 67.2765 303.471 65.4394 303.016 63.9716C302.571 62.5038 301.936 61.4006 301.113 60.6619C300.298 59.9233 299.337 59.554 298.229 59.554C296.572 59.554 295.246 60.3826 294.252 62.0398C293.257 63.697 292.756 66.178 292.746 69.483C292.746 71.7178 292.969 73.5833 293.414 75.0795C293.868 76.5663 294.507 77.6837 295.331 78.4318C296.155 79.1705 297.121 79.5398 298.229 79.5398ZM327.018 54.9091V84H320.868V60.7472H320.697L314.035 64.9233V59.4688L321.237 54.9091H327.018ZM362.65 64.3125C362.451 63.6212 362.172 63.0104 361.812 62.4801C361.452 61.9403 361.012 61.4858 360.491 61.1165C359.98 60.7377 359.393 60.4489 358.73 60.25C358.076 60.0511 357.352 59.9517 356.556 59.9517C355.07 59.9517 353.763 60.321 352.636 61.0597C351.519 61.7983 350.647 62.8731 350.022 64.2841C349.397 65.6856 349.085 67.3996 349.085 69.4261C349.085 71.4527 349.393 73.1761 350.008 74.5966C350.624 76.017 351.495 77.1013 352.622 77.8494C353.749 78.5881 355.079 78.9574 356.613 78.9574C358.005 78.9574 359.194 78.7112 360.179 78.2188C361.173 77.7169 361.931 77.0114 362.451 76.1023C362.982 75.1932 363.247 74.1184 363.247 72.8778L364.497 73.0625H356.997V68.4318H369.17V72.0966C369.17 74.6534 368.63 76.8504 367.551 78.6875C366.471 80.5152 364.984 81.9261 363.091 82.9205C361.197 83.9053 359.028 84.3977 356.585 84.3977C353.858 84.3977 351.462 83.7964 349.397 82.5938C347.333 81.3816 345.723 79.6629 344.568 77.4375C343.422 75.2027 342.849 72.5511 342.849 69.483C342.849 67.125 343.19 65.0227 343.872 63.1761C344.563 61.3201 345.529 59.7481 346.77 58.4602C348.01 57.1723 349.454 56.1922 351.102 55.5199C352.75 54.8475 354.535 54.5114 356.457 54.5114C358.105 54.5114 359.639 54.7528 361.059 55.2358C362.48 55.7093 363.739 56.3816 364.838 57.2528C365.946 58.1241 366.85 59.161 367.551 60.3636C368.252 61.5568 368.701 62.8731 368.9 64.3125H362.65ZM375.044 84V62.1818H381.095V84H375.044ZM378.083 59.3693C377.184 59.3693 376.412 59.071 375.768 58.4744C375.134 57.8684 374.816 57.1439 374.816 56.3011C374.816 55.4678 375.134 54.7528 375.768 54.1562C376.412 53.5502 377.184 53.2472 378.083 53.2472C378.983 53.2472 379.75 53.5502 380.385 54.1562C381.029 54.7528 381.35 55.4678 381.35 56.3011C381.35 57.1439 381.029 57.8684 380.385 58.4744C379.75 59.071 378.983 59.3693 378.083 59.3693ZM392.164 84.4119C390.772 84.4119 389.531 84.1705 388.442 83.6875C387.353 83.1951 386.491 82.4706 385.857 81.5142C385.232 80.5483 384.919 79.3456 384.919 77.9062C384.919 76.6941 385.142 75.6761 385.587 74.8523C386.032 74.0284 386.638 73.3655 387.405 72.8636C388.172 72.3617 389.043 71.983 390.019 71.7273C391.004 71.4716 392.036 71.2917 393.115 71.1875C394.384 71.0549 395.407 70.9318 396.184 70.8182C396.96 70.6951 397.524 70.5152 397.874 70.2784C398.224 70.0417 398.4 69.6913 398.4 69.2273V69.142C398.4 68.2424 398.115 67.5464 397.547 67.054C396.989 66.5616 396.193 66.3153 395.161 66.3153C394.072 66.3153 393.205 66.5568 392.561 67.0398C391.917 67.5133 391.491 68.1098 391.283 68.8295L385.686 68.375C385.971 67.0492 386.529 65.9034 387.363 64.9375C388.196 63.9621 389.271 63.214 390.587 62.6932C391.913 62.1629 393.447 61.8977 395.189 61.8977C396.401 61.8977 397.561 62.0398 398.669 62.3239C399.787 62.608 400.776 63.0483 401.638 63.6449C402.509 64.2415 403.196 65.0085 403.698 65.946C404.2 66.8741 404.451 67.9867 404.451 69.2841V84H398.712V80.9744H398.542C398.191 81.6562 397.722 82.2576 397.135 82.7784C396.548 83.2898 395.843 83.6922 395.019 83.9858C394.195 84.2699 393.243 84.4119 392.164 84.4119ZM393.897 80.2358C394.787 80.2358 395.573 80.0606 396.255 79.7102C396.936 79.3504 397.471 78.8674 397.86 78.2614C398.248 77.6553 398.442 76.9687 398.442 76.2017V73.8864C398.253 74.0095 397.992 74.1231 397.661 74.2273C397.339 74.322 396.974 74.4119 396.567 74.4972C396.16 74.5729 395.753 74.6439 395.346 74.7102C394.938 74.767 394.569 74.8191 394.238 74.8665C393.527 74.9706 392.907 75.1364 392.377 75.3636C391.846 75.5909 391.435 75.8987 391.141 76.2869C390.847 76.6657 390.701 77.1392 390.701 77.7074C390.701 78.5312 390.999 79.161 391.596 79.5966C392.202 80.0227 392.969 80.2358 393.897 80.2358ZM397.647 59.0568H393.158L392.846 56.5C393.849 56.4527 394.564 56.3201 394.99 56.1023C395.417 55.875 395.625 55.5767 395.615 55.2074C395.625 54.696 395.355 54.3504 394.806 54.1705C394.266 53.9905 393.589 53.9006 392.775 53.9006L392.931 51.1591C395.459 51.1591 397.382 51.5 398.698 52.1818C400.024 52.8636 400.682 53.8106 400.672 55.0227C400.682 55.8845 400.369 56.5379 399.735 56.983C399.11 57.4186 398.414 57.6932 397.647 57.8068V59.0568ZM409.145 84V62.1818H415.196V84H409.145ZM412.185 59.3693C411.285 59.3693 410.514 59.071 409.87 58.4744C409.235 57.8684 408.918 57.1439 408.918 56.3011C408.918 55.4678 409.235 54.7528 409.87 54.1562C410.514 53.5502 411.285 53.2472 412.185 53.2472C413.085 53.2472 413.852 53.5502 414.486 54.1562C415.13 54.7528 415.452 55.4678 415.452 56.3011C415.452 57.1439 415.13 57.8684 414.486 58.4744C413.852 59.071 413.085 59.3693 412.185 59.3693ZM429.415 84V54.9091H441.063C443.203 54.9091 444.988 55.2263 446.418 55.8608C447.848 56.4953 448.923 57.3759 449.642 58.5028C450.362 59.6203 450.722 60.9081 450.722 62.3665C450.722 63.5028 450.495 64.5019 450.04 65.3636C449.586 66.2159 448.961 66.9167 448.165 67.4659C447.379 68.0057 446.48 68.3892 445.466 68.6165V68.9006C446.574 68.9479 447.611 69.2604 448.577 69.8381C449.552 70.4157 450.343 71.2254 450.949 72.267C451.555 73.2992 451.858 74.5303 451.858 75.9602C451.858 77.5038 451.475 78.8816 450.708 80.0938C449.95 81.2964 448.828 82.2481 447.341 82.9489C445.855 83.6496 444.022 84 441.844 84H429.415ZM435.566 78.9716H440.58C442.294 78.9716 443.544 78.6449 444.33 77.9915C445.116 77.3286 445.509 76.4479 445.509 75.3494C445.509 74.5445 445.315 73.8343 444.926 73.2188C444.538 72.6032 443.984 72.1203 443.265 71.7699C442.554 71.4195 441.707 71.2443 440.722 71.2443H435.566V78.9716ZM435.566 67.0824H440.125C440.968 67.0824 441.716 66.9356 442.37 66.642C443.033 66.339 443.553 65.9129 443.932 65.3636C444.32 64.8144 444.515 64.1562 444.515 63.3892C444.515 62.3381 444.141 61.4905 443.392 60.8466C442.654 60.2027 441.603 59.8807 440.239 59.8807H435.566V67.0824ZM461.968 84.4119C460.576 84.4119 459.336 84.1705 458.247 83.6875C457.158 83.1951 456.296 82.4706 455.662 81.5142C455.037 80.5483 454.724 79.3456 454.724 77.9062C454.724 76.6941 454.947 75.6761 455.392 74.8523C455.837 74.0284 456.443 73.3655 457.21 72.8636C457.977 72.3617 458.848 71.983 459.824 71.7273C460.808 71.4716 461.841 71.2917 462.92 71.1875C464.189 71.0549 465.212 70.9318 465.988 70.8182C466.765 70.6951 467.328 70.5152 467.679 70.2784C468.029 70.0417 468.204 69.6913 468.204 69.2273V69.142C468.204 68.2424 467.92 67.5464 467.352 67.054C466.793 66.5616 465.998 66.3153 464.966 66.3153C463.877 66.3153 463.01 66.5568 462.366 67.0398C461.722 67.5133 461.296 68.1098 461.088 68.8295L455.491 68.375C455.775 67.0492 456.334 65.9034 457.167 64.9375C458.001 63.9621 459.075 63.214 460.392 62.6932C461.717 62.1629 463.252 61.8977 464.994 61.8977C466.206 61.8977 467.366 62.0398 468.474 62.3239C469.592 62.608 470.581 63.0483 471.443 63.6449C472.314 64.2415 473.001 65.0085 473.502 65.946C474.004 66.8741 474.255 67.9867 474.255 69.2841V84H468.517V80.9744H468.346C467.996 81.6562 467.527 82.2576 466.94 82.7784C466.353 83.2898 465.647 83.6922 464.824 83.9858C464 84.2699 463.048 84.4119 461.968 84.4119ZM463.701 80.2358C464.592 80.2358 465.377 80.0606 466.059 79.7102C466.741 79.3504 467.276 78.8674 467.664 78.2614C468.053 77.6553 468.247 76.9687 468.247 76.2017V73.8864C468.057 74.0095 467.797 74.1231 467.466 74.2273C467.144 74.322 466.779 74.4119 466.372 74.4972C465.965 74.5729 465.557 74.6439 465.15 74.7102C464.743 74.767 464.374 74.8191 464.042 74.8665C463.332 74.9706 462.712 75.1364 462.181 75.3636C461.651 75.5909 461.239 75.8987 460.946 76.2869C460.652 76.6657 460.505 77.1392 460.505 77.7074C460.505 78.5312 460.804 79.161 461.4 79.5966C462.006 80.0227 462.773 80.2358 463.701 80.2358Z" fill="#444444"/>
<path d="M304.929 161.455V208H295.088V170.795H294.815L284.156 177.477V168.75L295.679 161.455H304.929ZM332.991 208.636C329.779 208.636 326.916 208.045 324.401 206.864C321.901 205.682 319.916 204.053 318.446 201.977C316.976 199.902 316.211 197.523 316.151 194.841H325.696C325.802 196.644 326.56 198.106 327.969 199.227C329.378 200.348 331.052 200.909 332.991 200.909C334.537 200.909 335.901 200.568 337.082 199.886C338.279 199.189 339.211 198.227 339.878 197C340.56 195.758 340.901 194.333 340.901 192.727C340.901 191.091 340.552 189.652 339.855 188.409C339.173 187.167 338.226 186.197 337.014 185.5C335.802 184.803 334.416 184.447 332.855 184.432C331.491 184.432 330.166 184.712 328.878 185.273C327.605 185.833 326.613 186.598 325.901 187.568L317.151 186L319.355 161.455H347.81V169.5H327.469L326.264 181.159H326.537C327.355 180.008 328.59 179.053 330.241 178.295C331.893 177.538 333.741 177.159 335.787 177.159C338.59 177.159 341.09 177.818 343.287 179.136C345.484 180.455 347.219 182.265 348.491 184.568C349.764 186.856 350.393 189.492 350.378 192.477C350.393 195.614 349.666 198.402 348.196 200.841C346.741 203.265 344.704 205.174 342.082 206.568C339.476 207.947 336.446 208.636 332.991 208.636ZM355.741 169.568V161.455H393.969V169.568H379.719V208H369.991V169.568H355.741ZM396.457 208V173.091H405.844V179.182H406.207C406.844 177.015 407.912 175.379 409.412 174.273C410.912 173.152 412.639 172.591 414.594 172.591C415.079 172.591 415.601 172.621 416.162 172.682C416.723 172.742 417.215 172.826 417.639 172.932V181.523C417.185 181.386 416.556 181.265 415.753 181.159C414.95 181.053 414.215 181 413.548 181C412.124 181 410.851 181.311 409.73 181.932C408.624 182.538 407.745 183.386 407.094 184.477C406.457 185.568 406.139 186.826 406.139 188.25V208H396.457ZM446.048 161.455L457.298 196.818H457.73L469.003 161.455H479.912L463.866 208H451.185L435.116 161.455H446.048ZM524.446 161.455V208H515.946L495.696 178.705H495.355V208H485.514V161.455H494.151L514.241 190.727H514.651V161.455H524.446ZM549.077 208H532.577V161.455H549.213C553.895 161.455 557.925 162.386 561.304 164.25C564.683 166.098 567.281 168.758 569.099 172.227C570.933 175.697 571.849 179.848 571.849 184.682C571.849 189.53 570.933 193.697 569.099 197.182C567.281 200.667 564.668 203.341 561.259 205.205C557.865 207.068 553.804 208 549.077 208ZM542.418 199.568H548.668C551.577 199.568 554.024 199.053 556.009 198.023C558.009 196.977 559.509 195.364 560.509 193.182C561.524 190.985 562.031 188.152 562.031 184.682C562.031 181.242 561.524 178.432 560.509 176.25C559.509 174.068 558.016 172.462 556.031 171.432C554.046 170.402 551.599 169.886 548.69 169.886H542.418V199.568Z" fill="#F27224"/>
<defs>
<filter id="filter0_d_8688_209" x="0" y="0" width="696.7" height="312.7" filterUnits="userSpaceOnUse" color-interpolation-filters="sRGB">
<feFlood flood-opacity="0" result="BackgroundImageFix"/>
<feColorMatrix in="SourceAlpha" type="matrix" values="0 0 0 0 0 0 0 0 0 0 0 0 0 0 0 0 0 0 127 0" result="hardAlpha"/>
<feMorphology radius="12" operator="erode" in="SourceAlpha" result="effect1_dropShadow_8688_209"/>
<feOffset dx="21" dy="22"/>
<feGaussianBlur stdDeviation="12.35"/>
<feComposite in2="hardAlpha" operator="out"/>
<feColorMatrix type="matrix" values="0 0 0 0 0 0 0 0 0 0 0 0 0 0 0 0 0 0 0.1 0"/>
<feBlend mode="normal" in2="BackgroundImageFix" result="effect1_dropShadow_8688_209"/>
<feBlend mode="normal" in="SourceGraphic" in2="effect1_dropShadow_8688_209" result="shape"/>
</filter>
<linearGradient id="paint0_linear_8688_209" x1="94.5969" y1="50.2221" x2="191.848" y2="50.2221" gradientUnits="userSpaceOnUse">
<stop stop-color="#005898"/>
<stop offset="0.5" stop-color="#3CA6DA"/>
<stop offset="1" stop-color="#005898"/>
</linearGradient>
<linearGradient id="paint1_linear_8688_209" x1="209.571" y1="41.7351" x2="139.178" y2="153.814" gradientUnits="userSpaceOnUse">
<stop stop-color="#3CA6DA"/>
<stop offset="0.4" stop-color="#0674B3"/>
<stop offset="0.62" stop-color="#056FAE"/>
<stop offset="0.87" stop-color="#0261A1"/>
<stop offset="1" stop-color="#005898"/>
</linearGradient>
<linearGradient id="paint2_linear_8688_209" x1="208.673" y1="43.1313" x2="144.871" y2="153.163" gradientUnits="userSpaceOnUse">
<stop stop-color="#F0E8E5"/>
<stop offset="0.58" stop-color="#EEE6E2"/>
<stop offset="0.82" stop-color="#EAE0DB"/>
<stop offset="0.99" stop-color="#E3D5CF"/>
<stop offset="1" stop-color="#E3D5CF"/>
</linearGradient>
<radialGradient id="paint3_radial_8688_209" cx="0" cy="0" r="1" gradientUnits="userSpaceOnUse" gradientTransform="translate(141.676 152.015) scale(26.8339)">
<stop offset="0.01" stop-color="#F6C054"/>
<stop offset="0.54" stop-color="#FFEA72"/>
<stop offset="0.58" stop-color="#FFEF71"/>
<stop offset="0.59" stop-color="#FFF171"/>
<stop offset="0.82" stop-color="#FFE05A"/>
<stop offset="0.96" stop-color="#FFD44A"/>
</radialGradient>
<linearGradient id="paint4_linear_8688_209" x1="141.676" y1="131.546" x2="141.676" y2="158.555" gradientUnits="userSpaceOnUse">
<stop offset="0.05" stop-color="#EEEFF4"/>
<stop offset="0.1" stop-color="#C4C3C9"/>
<stop offset="0.31" stop-color="#E5E5E8"/>
<stop offset="0.5" stop-color="#C2C3CA"/>
<stop offset="0.69" stop-color="#DBDCDE"/>
<stop offset="0.84" stop-color="#DDE0E5"/>
<stop offset="0.92" stop-color="#DFE2E7"/>
<stop offset="0.98" stop-color="#E9EAEF"/>
<stop offset="1" stop-color="#EEEFF4"/>
</linearGradient>
<linearGradient id="paint5_linear_8688_209" x1="108.277" y1="152.015" x2="175.075" y2="152.015" gradientUnits="userSpaceOnUse">
<stop offset="0.05" stop-color="#EEEFF4"/>
<stop offset="0.31" stop-color="#E5E5E8"/>
<stop offset="1" stop-color="#EEEFF4"/>
</linearGradient>
<linearGradient id="paint6_linear_8688_209" x1="113.618" y1="163.748" x2="113.618" y2="151.467" gradientUnits="userSpaceOnUse">
<stop offset="0.5" stop-color="#C2C3CA"/>
<stop offset="1" stop-color="#EEEFF4"/>
</linearGradient>
<linearGradient id="paint7_linear_8688_209" x1="169.732" y1="163.748" x2="169.732" y2="151.467" gradientUnits="userSpaceOnUse">
<stop offset="0.5" stop-color="#C2C3CA"/>
<stop offset="1" stop-color="#EEEFF4"/>
</linearGradient>
<radialGradient id="paint8_radial_8688_209" cx="0" cy="0" r="1" gradientUnits="userSpaceOnUse" gradientTransform="translate(141.675 155.237) scale(21.6169 21.6169)">
<stop offset="0.34" stop-color="#F6F2F3"/>
<stop offset="0.99" stop-color="#565C59"/>
</radialGradient>
<linearGradient id="paint9_linear_8688_209" x1="76.6745" y1="41.4356" x2="145.369" y2="155.761" gradientUnits="userSpaceOnUse">
<stop stop-color="#3CA6DA"/>
<stop offset="0.4" stop-color="#0674B3"/>
<stop offset="0.62" stop-color="#056FAE"/>
<stop offset="0.87" stop-color="#0261A1"/>
<stop offset="1" stop-color="#005898"/>
</linearGradient>
<linearGradient id="paint10_linear_8688_209" x1="77.9219" y1="43.1313" x2="141.774" y2="153.163" gradientUnits="userSpaceOnUse">
<stop stop-color="#F0E8E5"/>
<stop offset="0.58" stop-color="#EEE6E2"/>
<stop offset="0.82" stop-color="#EAE0DB"/>
<stop offset="0.99" stop-color="#E3D5CF"/>
<stop offset="1" stop-color="#E3D5CF"/>
</linearGradient>
<linearGradient id="paint11_linear_8688_209" x1="180.316" y1="170.091" x2="101.837" y2="248.221" gradientUnits="userSpaceOnUse">
<stop offset="0.05" stop-color="#EEEFF4"/>
<stop offset="0.1" stop-color="#C4C3C9"/>
<stop offset="0.31" stop-color="#E5E5E8"/>
<stop offset="0.5" stop-color="#C2C3CA"/>
<stop offset="0.69" stop-color="#DBDCDE"/>
<stop offset="0.84" stop-color="#DDE0E5"/>
<stop offset="0.92" stop-color="#DFE2E7"/>
<stop offset="0.98" stop-color="#E9EAEF"/>
<stop offset="1" stop-color="#EEEFF4"/>
</linearGradient>
<linearGradient id="paint12_linear_8688_209" x1="178.769" y1="166.896" x2="105.431" y2="249.37" gradientUnits="userSpaceOnUse">
<stop offset="0.05" stop-color="#EEEFF4"/>
<stop offset="0.31" stop-color="#E5E5E8"/>
<stop offset="1" stop-color="#EEEFF4"/>
</linearGradient>
<linearGradient id="paint13_linear_8688_209" x1="175.546" y1="181.216" x2="108.149" y2="235.632" gradientUnits="userSpaceOnUse">
<stop offset="0.48" stop-color="#CC9434"/>
<stop offset="0.68" stop-color="#FFEA72"/>
<stop offset="0.76" stop-color="#FFE66C"/>
<stop offset="0.87" stop-color="#FFDE5C"/>
<stop offset="0.96" stop-color="#FFD44A"/>
</linearGradient>
<linearGradient id="paint14_linear_8688_209" x1="171.103" y1="174.326" x2="113.791" y2="241.174" gradientUnits="userSpaceOnUse">
<stop offset="0.05" stop-color="#EEEFF4"/>
<stop offset="0.31" stop-color="#E5E5E8"/>
<stop offset="1" stop-color="#EEEFF4"/>
</linearGradient>
<linearGradient id="paint15_linear_8688_209" x1="166.387" y1="188.314" x2="104.931" y2="238.687" gradientUnits="userSpaceOnUse">
<stop stop-color="#EEEFF4"/>
<stop offset="0.26" stop-color="#C4C3C9"/>
<stop offset="0.65" stop-color="#EEEEF0"/>
<stop offset="0.95" stop-color="#DDDDE2"/>
</linearGradient>
<linearGradient id="paint16_linear_8688_209" x1="175.174" y1="212.179" x2="177.72" y2="212.179" gradientUnits="userSpaceOnUse">
<stop stop-color="#EBECE8"/>
<stop offset="1" stop-color="#444444"/>
</linearGradient>
<linearGradient id="paint17_linear_8688_209" x1="174.226" y1="217.218" x2="176.772" y2="217.218" gradientUnits="userSpaceOnUse">
<stop stop-color="#EBECE8"/>
<stop offset="1" stop-color="#444444"/>
</linearGradient>
<linearGradient id="paint18_linear_8688_209" x1="172.628" y1="222.011" x2="175.174" y2="222.011" gradientUnits="userSpaceOnUse">
<stop stop-color="#EBECE8"/>
<stop offset="1" stop-color="#444444"/>
</linearGradient>
<linearGradient id="paint19_linear_8688_209" x1="170.281" y1="226.507" x2="172.828" y2="226.507" gradientUnits="userSpaceOnUse">
<stop stop-color="#EBECE8"/>
<stop offset="1" stop-color="#444444"/>
</linearGradient>
<linearGradient id="paint20_linear_8688_209" x1="167.336" y1="230.649" x2="169.882" y2="230.649" gradientUnits="userSpaceOnUse">
<stop stop-color="#EBECE8"/>
<stop offset="1" stop-color="#444444"/>
</linearGradient>
<linearGradient id="paint21_linear_8688_209" x1="163.792" y1="234.293" x2="166.338" y2="234.293" gradientUnits="userSpaceOnUse">
<stop stop-color="#EBECE8"/>
<stop offset="1" stop-color="#444444"/>
</linearGradient>
<linearGradient id="paint22_linear_8688_209" x1="159.798" y1="237.389" x2="162.344" y2="237.389" gradientUnits="userSpaceOnUse">
<stop stop-color="#EBECE8"/>
<stop offset="1" stop-color="#444444"/>
</linearGradient>
<linearGradient id="paint23_linear_8688_209" x1="155.404" y1="239.884" x2="157.901" y2="239.884" gradientUnits="userSpaceOnUse">
<stop stop-color="#EBECE8"/>
<stop offset="1" stop-color="#444444"/>
</linearGradient>
<linearGradient id="paint24_linear_8688_209" x1="150.612" y1="241.683" x2="153.158" y2="241.683" gradientUnits="userSpaceOnUse">
<stop stop-color="#EBECE8"/>
<stop offset="1" stop-color="#444444"/>
</linearGradient>
<linearGradient id="paint25_linear_8688_209" x1="145.67" y1="242.781" x2="148.216" y2="242.781" gradientUnits="userSpaceOnUse">
<stop stop-color="#EBECE8"/>
<stop offset="1" stop-color="#444444"/>
</linearGradient>
<linearGradient id="paint26_linear_8688_209" x1="140.627" y1="243.18" x2="143.173" y2="243.18" gradientUnits="userSpaceOnUse">
<stop stop-color="#EBECE8"/>
<stop offset="1" stop-color="#444444"/>
</linearGradient>
<linearGradient id="paint27_linear_8688_209" x1="135.535" y1="242.782" x2="138.081" y2="242.782" gradientUnits="userSpaceOnUse">
<stop stop-color="#EBECE8"/>
<stop offset="1" stop-color="#444444"/>
</linearGradient>
<linearGradient id="paint28_linear_8688_209" x1="130.592" y1="241.682" x2="133.138" y2="241.682" gradientUnits="userSpaceOnUse">
<stop stop-color="#EBECE8"/>
<stop offset="1" stop-color="#444444"/>
</linearGradient>
<linearGradient id="paint29_linear_8688_209" x1="125.849" y1="239.884" x2="128.395" y2="239.884" gradientUnits="userSpaceOnUse">
<stop stop-color="#EBECE8"/>
<stop offset="1" stop-color="#444444"/>
</linearGradient>
<linearGradient id="paint30_linear_8688_209" x1="121.406" y1="237.386" x2="123.952" y2="237.386" gradientUnits="userSpaceOnUse">
<stop stop-color="#EBECE8"/>
<stop offset="1" stop-color="#444444"/>
</linearGradient>
<linearGradient id="paint31_linear_8688_209" x1="117.413" y1="234.294" x2="119.959" y2="234.294" gradientUnits="userSpaceOnUse">
<stop stop-color="#EBECE8"/>
<stop offset="1" stop-color="#444444"/>
</linearGradient>
<linearGradient id="paint32_linear_8688_209" x1="113.868" y1="230.647" x2="116.414" y2="230.647" gradientUnits="userSpaceOnUse">
<stop stop-color="#EBECE8"/>
<stop offset="1" stop-color="#444444"/>
</linearGradient>
<linearGradient id="paint33_linear_8688_209" x1="110.923" y1="226.504" x2="113.469" y2="226.504" gradientUnits="userSpaceOnUse">
<stop stop-color="#EBECE8"/>
<stop offset="1" stop-color="#444444"/>
</linearGradient>
<linearGradient id="paint34_linear_8688_209" x1="108.576" y1="222.011" x2="111.172" y2="222.011" gradientUnits="userSpaceOnUse">
<stop stop-color="#EBECE8"/>
<stop offset="1" stop-color="#444444"/>
</linearGradient>
<linearGradient id="paint35_linear_8688_209" x1="106.978" y1="217.218" x2="109.524" y2="217.218" gradientUnits="userSpaceOnUse">
<stop stop-color="#EBECE8"/>
<stop offset="1" stop-color="#444444"/>
</linearGradient>
<linearGradient id="paint36_linear_8688_209" x1="106.029" y1="212.176" x2="108.575" y2="212.176" gradientUnits="userSpaceOnUse">
<stop stop-color="#EBECE8"/>
<stop offset="1" stop-color="#444444"/>
</linearGradient>
<linearGradient id="paint37_linear_8688_209" x1="105.88" y1="207.138" x2="108.426" y2="207.138" gradientUnits="userSpaceOnUse">
<stop stop-color="#EBECE8"/>
<stop offset="1" stop-color="#444444"/>
</linearGradient>
<linearGradient id="paint38_linear_8688_209" x1="106.43" y1="202.093" x2="108.976" y2="202.093" gradientUnits="userSpaceOnUse">
<stop stop-color="#EBECE8"/>
<stop offset="1" stop-color="#444444"/>
</linearGradient>
<linearGradient id="paint39_linear_8688_209" x1="107.678" y1="197.15" x2="110.274" y2="197.15" gradientUnits="userSpaceOnUse">
<stop stop-color="#EBECE8"/>
<stop offset="1" stop-color="#444444"/>
</linearGradient>
<linearGradient id="paint40_linear_8688_209" x1="109.674" y1="192.509" x2="112.22" y2="192.509" gradientUnits="userSpaceOnUse">
<stop stop-color="#EBECE8"/>
<stop offset="1" stop-color="#444444"/>
</linearGradient>
<linearGradient id="paint41_linear_8688_209" x1="112.321" y1="188.165" x2="114.867" y2="188.165" gradientUnits="userSpaceOnUse">
<stop stop-color="#EBECE8"/>
<stop offset="1" stop-color="#444444"/>
</linearGradient>
<linearGradient id="paint42_linear_8688_209" x1="115.565" y1="184.269" x2="118.111" y2="184.269" gradientUnits="userSpaceOnUse">
<stop stop-color="#EBECE8"/>
<stop offset="1" stop-color="#444444"/>
</linearGradient>
<linearGradient id="paint43_linear_8688_209" x1="119.359" y1="180.875" x2="121.905" y2="180.875" gradientUnits="userSpaceOnUse">
<stop stop-color="#EBECE8"/>
<stop offset="1" stop-color="#444444"/>
</linearGradient>
<linearGradient id="paint44_linear_8688_209" x1="123.603" y1="178.08" x2="126.149" y2="178.08" gradientUnits="userSpaceOnUse">
<stop stop-color="#EBECE8"/>
<stop offset="1" stop-color="#444444"/>
</linearGradient>
<linearGradient id="paint45_linear_8688_209" x1="128.196" y1="175.933" x2="130.742" y2="175.933" gradientUnits="userSpaceOnUse">
<stop stop-color="#EBECE8"/>
<stop offset="1" stop-color="#444444"/>
</linearGradient>
<linearGradient id="paint46_linear_8688_209" x1="133.038" y1="174.434" x2="135.584" y2="174.434" gradientUnits="userSpaceOnUse">
<stop stop-color="#EBECE8"/>
<stop offset="1" stop-color="#444444"/>
</linearGradient>
<linearGradient id="paint47_linear_8688_209" x1="138.081" y1="173.738" x2="140.627" y2="173.738" gradientUnits="userSpaceOnUse">
<stop stop-color="#EBECE8"/>
<stop offset="1" stop-color="#444444"/>
</linearGradient>
<linearGradient id="paint48_linear_8688_209" x1="143.123" y1="173.736" x2="145.669" y2="173.736" gradientUnits="userSpaceOnUse">
<stop stop-color="#EBECE8"/>
<stop offset="1" stop-color="#444444"/>
</linearGradient>
<linearGradient id="paint49_linear_8688_209" x1="148.166" y1="174.434" x2="150.712" y2="174.434" gradientUnits="userSpaceOnUse">
<stop stop-color="#EBECE8"/>
<stop offset="1" stop-color="#444444"/>
</linearGradient>
<linearGradient id="paint50_linear_8688_209" x1="153.009" y1="175.933" x2="155.605" y2="175.933" gradientUnits="userSpaceOnUse">
<stop stop-color="#EBECE8"/>
<stop offset="1" stop-color="#444444"/>
</linearGradient>
<linearGradient id="paint51_linear_8688_209" x1="157.651" y1="178.08" x2="160.147" y2="178.08" gradientUnits="userSpaceOnUse">
<stop stop-color="#EBECE8"/>
<stop offset="1" stop-color="#444444"/>
</linearGradient>
<linearGradient id="paint52_linear_8688_209" x1="161.844" y1="180.874" x2="164.39" y2="180.874" gradientUnits="userSpaceOnUse">
<stop stop-color="#EBECE8"/>
<stop offset="1" stop-color="#444444"/>
</linearGradient>
<linearGradient id="paint53_linear_8688_209" x1="165.639" y1="184.269" x2="168.185" y2="184.269" gradientUnits="userSpaceOnUse">
<stop stop-color="#EBECE8"/>
<stop offset="1" stop-color="#444444"/>
</linearGradient>
<linearGradient id="paint54_linear_8688_209" x1="168.884" y1="188.166" x2="171.431" y2="188.166" gradientUnits="userSpaceOnUse">
<stop stop-color="#EBECE8"/>
<stop offset="1" stop-color="#444444"/>
</linearGradient>
<linearGradient id="paint55_linear_8688_209" x1="171.53" y1="192.507" x2="174.076" y2="192.507" gradientUnits="userSpaceOnUse">
<stop stop-color="#EBECE8"/>
<stop offset="1" stop-color="#444444"/>
</linearGradient>
<linearGradient id="paint56_linear_8688_209" x1="173.477" y1="197.15" x2="176.073" y2="197.15" gradientUnits="userSpaceOnUse">
<stop stop-color="#EBECE8"/>
<stop offset="1" stop-color="#444444"/>
</linearGradient>
<linearGradient id="paint57_linear_8688_209" x1="174.825" y1="202.093" x2="177.321" y2="202.093" gradientUnits="userSpaceOnUse">
<stop stop-color="#EBECE8"/>
<stop offset="1" stop-color="#444444"/>
</linearGradient>
<linearGradient id="paint58_linear_8688_209" x1="175.324" y1="207.136" x2="177.87" y2="207.136" gradientUnits="userSpaceOnUse">
<stop stop-color="#EBECE8"/>
<stop offset="1" stop-color="#444444"/>
</linearGradient>
<linearGradient id="paint59_linear_8688_209" x1="175.174" y1="212.179" x2="177.72" y2="212.179" gradientUnits="userSpaceOnUse">
<stop stop-color="#EBECE8"/>
<stop offset="1" stop-color="#444444"/>
</linearGradient>
<linearGradient id="paint60_linear_8688_209" x1="174.226" y1="217.218" x2="176.772" y2="217.218" gradientUnits="userSpaceOnUse">
<stop stop-color="#EBECE8"/>
<stop offset="1" stop-color="#444444"/>
</linearGradient>
<linearGradient id="paint61_linear_8688_209" x1="172.628" y1="222.011" x2="175.174" y2="222.011" gradientUnits="userSpaceOnUse">
<stop stop-color="#EBECE8"/>
<stop offset="1" stop-color="#444444"/>
</linearGradient>
<linearGradient id="paint62_linear_8688_209" x1="170.281" y1="226.507" x2="172.828" y2="226.507" gradientUnits="userSpaceOnUse">
<stop stop-color="#EBECE8"/>
<stop offset="1" stop-color="#444444"/>
</linearGradient>
<linearGradient id="paint63_linear_8688_209" x1="167.336" y1="230.649" x2="169.882" y2="230.649" gradientUnits="userSpaceOnUse">
<stop stop-color="#EBECE8"/>
<stop offset="1" stop-color="#444444"/>
</linearGradient>
<linearGradient id="paint64_linear_8688_209" x1="163.792" y1="234.293" x2="166.338" y2="234.293" gradientUnits="userSpaceOnUse">
<stop stop-color="#EBECE8"/>
<stop offset="1" stop-color="#444444"/>
</linearGradient>
<linearGradient id="paint65_linear_8688_209" x1="159.798" y1="237.389" x2="162.344" y2="237.389" gradientUnits="userSpaceOnUse">
<stop stop-color="#EBECE8"/>
<stop offset="1" stop-color="#444444"/>
</linearGradient>
<linearGradient id="paint66_linear_8688_209" x1="155.404" y1="239.884" x2="157.901" y2="239.884" gradientUnits="userSpaceOnUse">
<stop stop-color="#EBECE8"/>
<stop offset="1" stop-color="#444444"/>
</linearGradient>
<linearGradient id="paint67_linear_8688_209" x1="150.612" y1="241.683" x2="153.158" y2="241.683" gradientUnits="userSpaceOnUse">
<stop stop-color="#EBECE8"/>
<stop offset="1" stop-color="#444444"/>
</linearGradient>
<linearGradient id="paint68_linear_8688_209" x1="145.67" y1="242.781" x2="148.216" y2="242.781" gradientUnits="userSpaceOnUse">
<stop stop-color="#EBECE8"/>
<stop offset="1" stop-color="#444444"/>
</linearGradient>
<linearGradient id="paint69_linear_8688_209" x1="140.627" y1="243.18" x2="143.173" y2="243.18" gradientUnits="userSpaceOnUse">
<stop stop-color="#EBECE8"/>
<stop offset="1" stop-color="#444444"/>
</linearGradient>
<linearGradient id="paint70_linear_8688_209" x1="135.535" y1="242.782" x2="138.081" y2="242.782" gradientUnits="userSpaceOnUse">
<stop stop-color="#EBECE8"/>
<stop offset="1" stop-color="#444444"/>
</linearGradient>
<linearGradient id="paint71_linear_8688_209" x1="130.592" y1="241.682" x2="133.138" y2="241.682" gradientUnits="userSpaceOnUse">
<stop stop-color="#EBECE8"/>
<stop offset="1" stop-color="#444444"/>
</linearGradient>
<linearGradient id="paint72_linear_8688_209" x1="125.849" y1="239.884" x2="128.395" y2="239.884" gradientUnits="userSpaceOnUse">
<stop stop-color="#EBECE8"/>
<stop offset="1" stop-color="#444444"/>
</linearGradient>
<linearGradient id="paint73_linear_8688_209" x1="121.406" y1="237.386" x2="123.952" y2="237.386" gradientUnits="userSpaceOnUse">
<stop stop-color="#EBECE8"/>
<stop offset="1" stop-color="#444444"/>
</linearGradient>
<linearGradient id="paint74_linear_8688_209" x1="117.413" y1="234.294" x2="119.959" y2="234.294" gradientUnits="userSpaceOnUse">
<stop stop-color="#EBECE8"/>
<stop offset="1" stop-color="#444444"/>
</linearGradient>
<linearGradient id="paint75_linear_8688_209" x1="113.868" y1="230.647" x2="116.414" y2="230.647" gradientUnits="userSpaceOnUse">
<stop stop-color="#EBECE8"/>
<stop offset="1" stop-color="#444444"/>
</linearGradient>
<linearGradient id="paint76_linear_8688_209" x1="110.923" y1="226.504" x2="113.469" y2="226.504" gradientUnits="userSpaceOnUse">
<stop stop-color="#EBECE8"/>
<stop offset="1" stop-color="#444444"/>
</linearGradient>
<linearGradient id="paint77_linear_8688_209" x1="108.576" y1="222.011" x2="111.172" y2="222.011" gradientUnits="userSpaceOnUse">
<stop stop-color="#EBECE8"/>
<stop offset="1" stop-color="#444444"/>
</linearGradient>
<linearGradient id="paint78_linear_8688_209" x1="106.978" y1="217.218" x2="109.524" y2="217.218" gradientUnits="userSpaceOnUse">
<stop stop-color="#EBECE8"/>
<stop offset="1" stop-color="#444444"/>
</linearGradient>
<linearGradient id="paint79_linear_8688_209" x1="106.029" y1="212.176" x2="108.575" y2="212.176" gradientUnits="userSpaceOnUse">
<stop stop-color="#EBECE8"/>
<stop offset="1" stop-color="#444444"/>
</linearGradient>
<linearGradient id="paint80_linear_8688_209" x1="105.88" y1="207.138" x2="108.426" y2="207.138" gradientUnits="userSpaceOnUse">
<stop stop-color="#EBECE8"/>
<stop offset="1" stop-color="#444444"/>
</linearGradient>
<linearGradient id="paint81_linear_8688_209" x1="106.43" y1="202.093" x2="108.976" y2="202.093" gradientUnits="userSpaceOnUse">
<stop stop-color="#EBECE8"/>
<stop offset="1" stop-color="#444444"/>
</linearGradient>
<linearGradient id="paint82_linear_8688_209" x1="107.678" y1="197.15" x2="110.274" y2="197.15" gradientUnits="userSpaceOnUse">
<stop stop-color="#EBECE8"/>
<stop offset="1" stop-color="#444444"/>
</linearGradient>
<linearGradient id="paint83_linear_8688_209" x1="109.674" y1="192.509" x2="112.22" y2="192.509" gradientUnits="userSpaceOnUse">
<stop stop-color="#EBECE8"/>
<stop offset="1" stop-color="#444444"/>
</linearGradient>
<linearGradient id="paint84_linear_8688_209" x1="112.321" y1="188.165" x2="114.867" y2="188.165" gradientUnits="userSpaceOnUse">
<stop stop-color="#EBECE8"/>
<stop offset="1" stop-color="#444444"/>
</linearGradient>
<linearGradient id="paint85_linear_8688_209" x1="115.565" y1="184.269" x2="118.111" y2="184.269" gradientUnits="userSpaceOnUse">
<stop stop-color="#EBECE8"/>
<stop offset="1" stop-color="#444444"/>
</linearGradient>
<linearGradient id="paint86_linear_8688_209" x1="119.359" y1="180.875" x2="121.905" y2="180.875" gradientUnits="userSpaceOnUse">
<stop stop-color="#EBECE8"/>
<stop offset="1" stop-color="#444444"/>
</linearGradient>
<linearGradient id="paint87_linear_8688_209" x1="123.603" y1="178.08" x2="126.149" y2="178.08" gradientUnits="userSpaceOnUse">
<stop stop-color="#EBECE8"/>
<stop offset="1" stop-color="#444444"/>
</linearGradient>
<linearGradient id="paint88_linear_8688_209" x1="128.196" y1="175.933" x2="130.742" y2="175.933" gradientUnits="userSpaceOnUse">
<stop stop-color="#EBECE8"/>
<stop offset="1" stop-color="#444444"/>
</linearGradient>
<linearGradient id="paint89_linear_8688_209" x1="133.038" y1="174.434" x2="135.584" y2="174.434" gradientUnits="userSpaceOnUse">
<stop stop-color="#EBECE8"/>
<stop offset="1" stop-color="#444444"/>
</linearGradient>
<linearGradient id="paint90_linear_8688_209" x1="138.081" y1="173.738" x2="140.627" y2="173.738" gradientUnits="userSpaceOnUse">
<stop stop-color="#EBECE8"/>
<stop offset="1" stop-color="#444444"/>
</linearGradient>
<linearGradient id="paint91_linear_8688_209" x1="143.123" y1="173.736" x2="145.669" y2="173.736" gradientUnits="userSpaceOnUse">
<stop stop-color="#EBECE8"/>
<stop offset="1" stop-color="#444444"/>
</linearGradient>
<linearGradient id="paint92_linear_8688_209" x1="148.166" y1="174.434" x2="150.712" y2="174.434" gradientUnits="userSpaceOnUse">
<stop stop-color="#EBECE8"/>
<stop offset="1" stop-color="#444444"/>
</linearGradient>
<linearGradient id="paint93_linear_8688_209" x1="153.009" y1="175.933" x2="155.605" y2="175.933" gradientUnits="userSpaceOnUse">
<stop stop-color="#EBECE8"/>
<stop offset="1" stop-color="#444444"/>
</linearGradient>
<linearGradient id="paint94_linear_8688_209" x1="157.651" y1="178.08" x2="160.147" y2="178.08" gradientUnits="userSpaceOnUse">
<stop stop-color="#EBECE8"/>
<stop offset="1" stop-color="#444444"/>
</linearGradient>
<linearGradient id="paint95_linear_8688_209" x1="161.844" y1="180.874" x2="164.39" y2="180.874" gradientUnits="userSpaceOnUse">
<stop stop-color="#EBECE8"/>
<stop offset="1" stop-color="#444444"/>
</linearGradient>
<linearGradient id="paint96_linear_8688_209" x1="165.639" y1="184.269" x2="168.185" y2="184.269" gradientUnits="userSpaceOnUse">
<stop stop-color="#EBECE8"/>
<stop offset="1" stop-color="#444444"/>
</linearGradient>
<linearGradient id="paint97_linear_8688_209" x1="168.884" y1="188.166" x2="171.431" y2="188.166" gradientUnits="userSpaceOnUse">
<stop stop-color="#EBECE8"/>
<stop offset="1" stop-color="#444444"/>
</linearGradient>
<linearGradient id="paint98_linear_8688_209" x1="171.53" y1="192.507" x2="174.076" y2="192.507" gradientUnits="userSpaceOnUse">
<stop stop-color="#EBECE8"/>
<stop offset="1" stop-color="#444444"/>
</linearGradient>
<linearGradient id="paint99_linear_8688_209" x1="173.477" y1="197.15" x2="176.073" y2="197.15" gradientUnits="userSpaceOnUse">
<stop stop-color="#EBECE8"/>
<stop offset="1" stop-color="#444444"/>
</linearGradient>
<linearGradient id="paint100_linear_8688_209" x1="174.825" y1="202.093" x2="177.321" y2="202.093" gradientUnits="userSpaceOnUse">
<stop stop-color="#EBECE8"/>
<stop offset="1" stop-color="#444444"/>
</linearGradient>
<linearGradient id="paint101_linear_8688_209" x1="175.324" y1="207.136" x2="177.87" y2="207.136" gradientUnits="userSpaceOnUse">
<stop stop-color="#EBECE8"/>
<stop offset="1" stop-color="#444444"/>
</linearGradient>
<radialGradient id="paint102_radial_8688_209" cx="0" cy="0" r="1" gradientUnits="userSpaceOnUse" gradientTransform="translate(141.875 208.359) scale(49.1248)">
<stop offset="0.57" stop-color="#CBD2D6"/>
<stop offset="0.97" stop-color="#5C707E"/>
</radialGradient>
<radialGradient id="paint103_radial_8688_209" cx="0" cy="0" r="1" gradientTransform="matrix(7.65443 -14.7103 31.7164 16.51 173.123 162.518)" gradientUnits="userSpaceOnUse">
<stop stop-color="white"/>
<stop offset="0.14" stop-color="#E2E2E2"/>
<stop offset="0.43" stop-color="#999999"/>
<stop offset="0.87" stop-color="#252525"/>
<stop offset="1"/>
</radialGradient>
<radialGradient id="paint104_radial_8688_209" cx="0" cy="0" r="1" gradientTransform="matrix(7.65443 -14.7103 31.7164 16.51 173.123 162.518)" gradientUnits="userSpaceOnUse">
<stop stop-color="#EBEAE6"/>
<stop offset="1"/>
</radialGradient>
<radialGradient id="paint105_radial_8688_209" cx="0" cy="0" r="1" gradientUnits="userSpaceOnUse" gradientTransform="translate(168.199 172.26) rotate(27.21) scale(11.757 13.1678)">
<stop stop-color="white"/>
<stop offset="0.21" stop-color="#C3C3C3"/>
<stop offset="0.6" stop-color="#5B5B5B"/>
<stop offset="0.87" stop-color="#191919"/>
<stop offset="1"/>
</radialGradient>
<radialGradient id="paint106_radial_8688_209" cx="0" cy="0" r="1" gradientUnits="userSpaceOnUse" gradientTransform="translate(168.199 172.26) rotate(27.21) scale(11.757 13.1678)">
<stop stop-color="#FFF9EF"/>
<stop offset="0.13" stop-color="#E5DFD6"/>
<stop offset="0.4" stop-color="#A39F99"/>
<stop offset="0.79" stop-color="#3B3937"/>
<stop offset="1"/>
</radialGradient>
<radialGradient id="paint107_radial_8688_209" cx="0" cy="0" r="1" gradientUnits="userSpaceOnUse" gradientTransform="translate(119.435 232.07) rotate(-58.17) scale(11.2148 20.6774)">
<stop stop-color="white"/>
<stop offset="0.14" stop-color="#E2E2E2"/>
<stop offset="0.43" stop-color="#999999"/>
<stop offset="0.87" stop-color="#252525"/>
<stop offset="1"/>
</radialGradient>
<radialGradient id="paint108_radial_8688_209" cx="0" cy="0" r="1" gradientUnits="userSpaceOnUse" gradientTransform="translate(119.435 232.07) rotate(-58.17) scale(11.2148 20.6774)">
<stop stop-color="#EBEAE6"/>
<stop offset="1"/>
</radialGradient>
<linearGradient id="paint109_linear_8688_209" x1="130.293" y1="214.372" x2="159.648" y2="200.443" gradientUnits="userSpaceOnUse">
<stop stop-color="#9B9BA7"/>
<stop offset="0.65" stop-color="#EEEEF0"/>
<stop offset="0.95" stop-color="#DDDDE2"/>
</linearGradient>
<linearGradient id="paint110_linear_8688_209" x1="143.223" y1="189.761" x2="143.223" y2="222.56" gradientUnits="userSpaceOnUse">
<stop offset="0.05" stop-color="#EEEFF4"/>
<stop offset="0.17" stop-color="#E5E5E8"/>
<stop offset="0.25" stop-color="#C7C7CE"/>
<stop offset="0.33" stop-color="#AFAFB8"/>
<stop offset="0.41" stop-color="#A0A0AB"/>
<stop offset="0.47" stop-color="#9B9BA7"/>
<stop offset="0.65" stop-color="#707081"/>
<stop offset="0.79" stop-color="#BEBEC5"/>
<stop offset="0.81" stop-color="#C8C8CF"/>
<stop offset="0.85" stop-color="#D3D3DA"/>
<stop offset="0.88" stop-color="#D7D7DE"/>
<stop offset="0.91" stop-color="#E3E3E9"/>
<stop offset="0.95" stop-color="#EBECF1"/>
<stop offset="1" stop-color="#EEEFF4"/>
</linearGradient>
<radialGradient id="paint111_radial_8688_209" cx="0" cy="0" r="1" gradientUnits="userSpaceOnUse" gradientTransform="translate(143.198 147.773) scale(100.821 100.821)">
<stop stop-color="#ECECBB"/>
<stop offset="1" stop-color="#784F58"/>
</radialGradient>
</defs>
</svg>
