<svg width="397" height="281" viewBox="0 0 397 281" fill="none" xmlns="http://www.w3.org/2000/svg">
<path d="M3.09375 64.875V55.125L25.875 34.0313C27.8125 32.1562 29.4375 30.4687 30.75 28.9687C32.0833 27.4687 33.0938 26 33.7813 24.5625C34.4688 23.1042 34.8125 21.5312 34.8125 19.8438C34.8125 17.9687 34.3854 16.3542 33.5313 15C32.6771 13.625 31.5104 12.5729 30.0313 11.8437C28.5521 11.0937 26.875 10.7187 25 10.7187C23.0417 10.7187 21.3333 11.1146 19.875 11.9062C18.4167 12.6979 17.2917 13.8333 16.5 15.3125C15.7083 16.7917 15.3125 18.5521 15.3125 20.5937H2.46875C2.46875 16.4062 3.41667 12.7708 5.3125 9.6875C7.20833 6.60417 9.86458 4.21875 13.2813 2.53125C16.6979 0.843747 20.6354 -2.38419e-06 25.0938 -2.38419e-06C29.6771 -2.38419e-06 33.6667 0.812498 37.0625 2.4375C40.4792 4.04167 43.1354 6.27083 45.0313 9.125C46.9271 11.9792 47.875 15.25 47.875 18.9375C47.875 21.3542 47.3958 23.7396 46.4375 26.0937C45.5 28.4479 43.8229 31.0625 41.4063 33.9375C38.9896 36.7917 35.5833 40.2187 31.1875 44.2187L21.8438 53.375V53.8125H48.7188V64.875H3.09375ZM79.8984 65.75C75.4818 65.75 71.5443 64.9375 68.0859 63.3125C64.6484 61.6875 61.9193 59.4479 59.8984 56.5937C57.8776 53.7396 56.8255 50.4687 56.7422 46.7812H69.8672C70.013 49.2604 71.0547 51.2708 72.9922 52.8125C74.9297 54.3542 77.2318 55.125 79.8984 55.125C82.0234 55.125 83.8984 54.6562 85.5234 53.7187C87.1693 52.7604 88.4505 51.4375 89.3672 49.75C90.3047 48.0417 90.7734 46.0833 90.7734 43.875C90.7734 41.625 90.2943 39.6458 89.3359 37.9375C88.3984 36.2292 87.0964 34.8958 85.4297 33.9375C83.763 32.9792 81.8568 32.4896 79.7109 32.4687C77.8359 32.4687 76.013 32.8542 74.2422 33.625C72.4922 34.3958 71.1276 35.4479 70.1484 36.7813L58.1172 34.625L61.1484 0.874998H100.273V11.9375H72.3047L70.6484 27.9687H71.0234C72.1484 26.3854 73.8464 25.0729 76.1172 24.0312C78.388 22.9896 80.9297 22.4687 83.7422 22.4687C87.5964 22.4687 91.0339 23.375 94.0547 25.1875C97.0755 27 99.4609 29.4896 101.211 32.6563C102.961 35.8021 103.826 39.4271 103.805 43.5312C103.826 47.8437 102.826 51.6771 100.805 55.0312C98.8047 58.3646 96.0026 60.9896 92.3984 62.9062C88.8151 64.8021 84.6484 65.75 79.8984 65.75ZM109.18 12.0312V0.874998H161.742V12.0312H142.148V64.875H128.773V12.0312H109.18ZM163.164 64.875V16.875H176.07V25.25H176.57C177.445 22.2708 178.914 20.0208 180.977 18.5C183.039 16.9583 185.414 16.1875 188.102 16.1875C188.768 16.1875 189.487 16.2292 190.258 16.3125C191.029 16.3958 191.706 16.5104 192.289 16.6562V28.4687C191.664 28.2812 190.799 28.1146 189.695 27.9687C188.591 27.8229 187.581 27.75 186.664 27.75C184.706 27.75 182.956 28.1771 181.414 29.0312C179.893 29.8646 178.685 31.0312 177.789 32.5312C176.914 34.0312 176.477 35.7604 176.477 37.7188V64.875H163.164ZM227.352 0.874998L242.82 49.5H243.414L258.914 0.874998H273.914L251.852 64.875H234.414L212.32 0.874998H227.352ZM333.148 0.874998V64.875H321.461L293.617 24.5937H293.148V64.875H279.617V0.874998H291.492L319.117 41.125H319.68V0.874998H333.148ZM365.016 64.875H342.328V0.874998H365.203C371.641 0.874998 377.182 2.15625 381.828 4.71875C386.474 7.26041 390.047 10.9167 392.547 15.6875C395.068 20.4583 396.328 26.1667 396.328 32.8125C396.328 39.4792 395.068 45.2083 392.547 50C390.047 54.7917 386.453 58.4687 381.766 61.0312C377.099 63.5937 371.516 64.875 365.016 64.875ZM355.859 53.2813H364.453C368.453 53.2813 371.818 52.5729 374.547 51.1562C377.297 49.7187 379.359 47.5 380.734 44.5C382.13 41.4792 382.828 37.5833 382.828 32.8125C382.828 28.0833 382.13 24.2187 380.734 21.2188C379.359 18.2187 377.307 16.0104 374.578 14.5937C371.849 13.1771 368.484 12.4688 364.484 12.4688H355.859V53.2813ZM22.2187 154.125V109.875H33.4063V154.125H22.2187ZM5.6875 137.594V126.406H49.9375V137.594H5.6875ZM136.117 122.281H122.43C122.18 120.51 121.669 118.937 120.898 117.562C120.128 116.167 119.138 114.979 117.93 114C116.721 113.021 115.326 112.271 113.742 111.75C112.18 111.229 110.482 110.969 108.648 110.969C105.336 110.969 102.451 111.792 99.9922 113.437C97.5339 115.062 95.6276 117.437 94.2734 120.562C92.9193 123.667 92.2422 127.437 92.2422 131.875C92.2422 136.437 92.9193 140.271 94.2734 143.375C95.6484 146.479 97.5651 148.823 100.023 150.406C102.482 151.99 105.326 152.781 108.555 152.781C110.367 152.781 112.044 152.542 113.586 152.063C115.148 151.583 116.534 150.885 117.742 149.969C118.951 149.031 119.951 147.896 120.742 146.563C121.555 145.229 122.117 143.708 122.43 142L136.117 142.062C135.763 145 134.878 147.833 133.461 150.563C132.065 153.271 130.18 155.698 127.805 157.844C125.451 159.969 122.638 161.656 119.367 162.906C116.117 164.135 112.44 164.75 108.336 164.75C102.628 164.75 97.5234 163.458 93.0234 160.875C88.5443 158.292 85.0026 154.552 82.3984 149.656C79.8151 144.76 78.5234 138.833 78.5234 131.875C78.5234 124.896 79.8359 118.958 82.4609 114.063C85.0859 109.167 88.6484 105.437 93.1484 102.875C97.6484 100.292 102.711 99 108.336 99C112.044 99 115.482 99.5208 118.648 100.562C121.836 101.604 124.659 103.125 127.117 105.125C129.576 107.104 131.576 109.531 133.117 112.406C134.68 115.281 135.68 118.573 136.117 122.281ZM183.352 99.875H196.883V141.437C196.883 146.104 195.768 150.187 193.539 153.687C191.331 157.187 188.237 159.917 184.258 161.875C180.279 163.813 175.643 164.781 170.352 164.781C165.039 164.781 160.393 163.813 156.414 161.875C152.435 159.917 149.341 157.187 147.133 153.687C144.924 150.187 143.82 146.104 143.82 141.437V99.875H157.352V140.281C157.352 142.719 157.883 144.885 158.945 146.781C160.029 148.677 161.549 150.167 163.508 151.25C165.466 152.333 167.747 152.875 170.352 152.875C172.977 152.875 175.258 152.333 177.195 151.25C179.154 150.167 180.664 148.677 181.727 146.781C182.81 144.885 183.352 142.719 183.352 140.281V99.875ZM206.016 163.875V99.875H231.266C236.12 99.875 240.255 100.802 243.672 102.656C247.089 104.49 249.693 107.042 251.484 110.312C253.297 113.562 254.203 117.312 254.203 121.562C254.203 125.812 253.286 129.562 251.453 132.812C249.62 136.062 246.964 138.594 243.484 140.406C240.026 142.219 235.839 143.125 230.922 143.125H214.828V132.281H228.734C231.339 132.281 233.484 131.833 235.172 130.937C236.88 130.021 238.151 128.76 238.984 127.156C239.839 125.531 240.266 123.667 240.266 121.562C240.266 119.437 239.839 117.583 238.984 116C238.151 114.396 236.88 113.156 235.172 112.281C233.464 111.385 231.297 110.938 228.672 110.938H219.547V163.875H206.016ZM15.0313 198.875L30.5 247.5H31.0938L46.5938 198.875H61.5938L39.5313 262.875H22.0938L1.3411e-07 198.875H15.0313ZM122.5 230.875C122.5 237.854 121.177 243.792 118.531 248.687C115.906 253.583 112.323 257.323 107.781 259.906C103.26 262.469 98.1771 263.75 92.5313 263.75C86.8438 263.75 81.7396 262.458 77.2188 259.875C72.6979 257.292 69.125 253.552 66.5 248.656C63.875 243.76 62.5625 237.833 62.5625 230.875C62.5625 223.896 63.875 217.958 66.5 213.063C69.125 208.167 72.6979 204.437 77.2188 201.875C81.7396 199.292 86.8438 198 92.5313 198C98.1771 198 103.26 199.292 107.781 201.875C112.323 204.437 115.906 208.167 118.531 213.063C121.177 217.958 122.5 223.896 122.5 230.875ZM108.781 230.875C108.781 226.354 108.104 222.542 106.75 219.437C105.417 216.333 103.531 213.979 101.094 212.375C98.6563 210.771 95.8021 209.969 92.5313 209.969C89.2604 209.969 86.4063 210.771 83.9688 212.375C81.5313 213.979 79.6354 216.333 78.2813 219.437C76.9479 222.542 76.2813 226.354 76.2813 230.875C76.2813 235.396 76.9479 239.208 78.2813 242.312C79.6354 245.417 81.5313 247.771 83.9688 249.375C86.4063 250.979 89.2604 251.781 92.5313 251.781C95.8021 251.781 98.6563 250.979 101.094 249.375C103.531 247.771 105.417 245.417 106.75 242.312C108.104 239.208 108.781 235.396 108.781 230.875ZM98.8125 193.125L92.5313 185.5L86.25 193.125H74.9063V192.687L87.5625 178.937H97.4688L110.156 192.687V193.125H98.8125ZM171.578 262.875H154.922V251.281H171.016C175.016 251.281 178.38 250.573 181.109 249.156C183.859 247.719 185.922 245.5 187.297 242.5C188.693 239.479 189.391 235.583 189.391 230.812C189.391 226.083 188.693 222.219 187.297 219.219C185.922 216.219 183.87 214.01 181.141 212.594C178.411 211.177 175.047 210.469 171.047 210.469H154.641V198.875H171.766C178.203 198.875 183.745 200.156 188.391 202.719C193.036 205.26 196.609 208.917 199.109 213.687C201.63 218.458 202.891 224.167 202.891 230.812C202.891 237.479 201.63 243.208 199.109 248C196.609 252.792 193.016 256.469 188.328 259.031C183.661 261.594 178.078 262.875 171.578 262.875ZM162.422 198.875V262.875H148.891V198.875H162.422ZM140.016 233.063V225.187H171.172V233.063H140.016ZM224.445 198.875V262.875H210.914V198.875H224.445ZM217.664 280.844C215.685 280.844 213.987 280.188 212.57 278.875C211.154 277.563 210.445 275.979 210.445 274.125C210.445 272.271 211.154 270.688 212.57 269.375C213.987 268.063 215.685 267.406 217.664 267.406C219.643 267.406 221.331 268.063 222.727 269.375C224.143 270.688 224.852 272.271 224.852 274.125C224.852 275.979 224.143 277.563 222.727 278.875C221.331 280.188 219.643 280.844 217.664 280.844ZM290.047 221.281H276.359C276.109 219.51 275.599 217.937 274.828 216.562C274.057 215.167 273.068 213.979 271.859 213C270.651 212.021 269.255 211.271 267.672 210.75C266.109 210.229 264.411 209.969 262.578 209.969C259.266 209.969 256.38 210.792 253.922 212.437C251.464 214.062 249.557 216.437 248.203 219.562C246.849 222.667 246.172 226.437 246.172 230.875C246.172 235.437 246.849 239.271 248.203 242.375C249.578 245.479 251.495 247.823 253.953 249.406C256.411 250.99 259.255 251.781 262.484 251.781C264.297 251.781 265.974 251.542 267.516 251.063C269.078 250.583 270.464 249.885 271.672 248.969C272.88 248.031 273.88 246.896 274.672 245.563C275.484 244.229 276.047 242.708 276.359 241L290.047 241.062C289.693 244 288.807 246.833 287.391 249.563C285.995 252.271 284.109 254.698 281.734 256.844C279.38 258.969 276.568 260.656 273.297 261.906C270.047 263.135 266.37 263.75 262.266 263.75C256.557 263.75 251.453 262.458 246.953 259.875C242.474 257.292 238.932 253.552 236.328 248.656C233.745 243.76 232.453 237.833 232.453 230.875C232.453 223.896 233.766 217.958 236.391 213.063C239.016 208.167 242.578 204.437 247.078 201.875C251.578 199.292 256.641 198 262.266 198C265.974 198 269.411 198.521 272.578 199.562C275.766 200.604 278.589 202.125 281.047 204.125C283.505 206.104 285.505 208.531 287.047 211.406C288.609 214.281 289.609 217.573 290.047 221.281ZM297.75 262.875V198.875H311.281V225.281H338.75V198.875H352.25V262.875H338.75V236.437H311.281V262.875H297.75Z" fill="#444444"/>
</svg>
