<svg width="288" height="48" viewBox="0 0 288 48" fill="none" xmlns="http://www.w3.org/2000/svg">
<path d="M20.7727 0.000442505V46.5459H10.9318V9.34135H10.6591L0 16.0232V7.2959L11.5227 0.000442505H20.7727ZM48.8352 47.1823C45.6231 47.1823 42.7595 46.5914 40.2443 45.4095C37.7443 44.2277 35.7595 42.5989 34.2898 40.5232C32.8201 38.4474 32.0549 36.0686 31.9943 33.3868H41.5398C41.6458 35.1898 42.4034 36.652 43.8125 37.7732C45.2216 38.8944 46.8958 39.455 48.8352 39.455C50.3807 39.455 51.7443 39.1141 52.9261 38.4323C54.1231 37.7353 55.0549 36.7732 55.7216 35.5459C56.4034 34.3035 56.7443 32.8792 56.7443 31.2732C56.7443 29.6368 56.3958 28.1974 55.6989 26.955C55.017 25.7126 54.0701 24.7429 52.858 24.0459C51.6458 23.3489 50.2595 22.9929 48.6989 22.9777C47.3352 22.9777 46.0095 23.258 44.7216 23.8186C43.4489 24.3792 42.4564 25.1444 41.7443 26.1141L32.9943 24.5459L35.1989 0.000442505H63.6534V8.0459H43.3125L42.108 19.705H42.3807C43.1989 18.5535 44.4337 17.5989 46.0852 16.8414C47.7367 16.0838 49.5852 15.705 51.6307 15.705C54.4337 15.705 56.9337 16.3641 59.1307 17.6823C61.3277 19.0004 63.0625 20.811 64.3352 23.1141C65.608 25.402 66.2367 28.0383 66.2216 31.0232C66.2367 34.1595 65.5095 36.9474 64.0398 39.3868C62.5852 41.811 60.5473 43.7201 57.9261 45.1141C55.3201 46.4929 52.2898 47.1823 48.8352 47.1823ZM71.5852 8.11408V0.000442505H109.812V8.11408H95.5625V46.5459H85.8352V8.11408H71.5852ZM112.301 46.5459V11.6368H121.688V17.7277H122.051C122.688 15.561 123.756 13.9247 125.256 12.8186C126.756 11.6974 128.483 11.1368 130.438 11.1368C130.922 11.1368 131.445 11.1671 132.006 11.2277C132.566 11.2883 133.059 11.3717 133.483 11.4777V20.0686C133.028 19.9323 132.4 19.811 131.597 19.705C130.794 19.5989 130.059 19.5459 129.392 19.5459C127.968 19.5459 126.695 19.8565 125.574 20.4777C124.468 21.0838 123.589 21.9323 122.938 23.0232C122.301 24.1141 121.983 25.3717 121.983 26.7959V46.5459H112.301ZM161.892 0.000442505L173.142 35.3641H173.574L184.847 0.000442505H195.756L179.71 46.5459H167.028L150.96 0.000442505H161.892ZM240.29 0.000442505V46.5459H231.79L211.54 17.2504H211.199V46.5459H201.358V0.000442505H209.994L230.085 29.2732H230.494V0.000442505H240.29ZM264.92 46.5459H248.42V0.000442505H265.057C269.739 0.000442505 273.769 0.932261 277.148 2.7959C280.527 4.64438 283.125 7.30347 284.943 10.7732C286.777 14.2429 287.693 18.3944 287.693 23.2277C287.693 28.0762 286.777 32.2429 284.943 35.7277C283.125 39.2126 280.511 41.8868 277.102 43.7504C273.708 45.6141 269.648 46.5459 264.92 46.5459ZM258.261 38.1141H264.511C267.42 38.1141 269.867 37.5989 271.852 36.5686C273.852 35.5232 275.352 33.9095 276.352 31.7277C277.367 29.5307 277.875 26.6974 277.875 23.2277C277.875 19.7883 277.367 16.9777 276.352 14.7959C275.352 12.6141 273.86 11.008 271.875 9.97771C269.89 8.94741 267.443 8.43226 264.534 8.43226H258.261V38.1141Z" fill="#F27224"/>
</svg>
